<svg width="30" height="30" viewBox="0 0 30 30" fill="none" xmlns="http://www.w3.org/2000/svg">
<g clip-path="url(#clip0_6_1131)">
<path d="M8.125 14.375C7.38631 14.375 6.65486 14.2295 5.97241 13.9468C5.28995 13.6641 4.66985 13.2498 4.14752 12.7275C3.62519 12.2051 3.21086 11.585 2.92818 10.9026C2.64549 10.2201 2.5 9.48868 2.5 8.75C2.5 8.01131 2.64549 7.27986 2.92818 6.5974C3.21086 5.91495 3.62519 5.29485 4.14752 4.77252C4.66985 4.25019 5.28995 3.83586 5.97241 3.55318C6.65486 3.27049 7.38631 3.125 8.125 3.125C9.61684 3.125 11.0476 3.71763 12.1025 4.77252C13.1574 5.82742 13.75 7.25816 13.75 8.75C13.75 10.2418 13.1574 11.6726 12.1025 12.7275C11.0476 13.7824 9.61684 14.375 8.125 14.375ZM8.75 26.875C7.25816 26.875 5.82742 26.2824 4.77252 25.2275C3.71763 24.1726 3.125 22.7418 3.125 21.25C3.125 19.7582 3.71763 18.3274 4.77252 17.2725C5.82742 16.2176 7.25816 15.625 8.75 15.625C10.2418 15.625 11.6726 16.2176 12.7275 17.2725C13.7824 18.3274 14.375 19.7582 14.375 21.25C14.375 22.7418 13.7824 24.1726 12.7275 25.2275C11.6726 26.2824 10.2418 26.875 8.75 26.875ZM21.25 14.375C20.5113 14.375 19.7799 14.2295 19.0974 13.9468C18.4149 13.6641 17.7949 13.2498 17.2725 12.7275C16.7502 12.2051 16.3359 11.585 16.0532 10.9026C15.7705 10.2201 15.625 9.48868 15.625 8.75C15.625 8.01131 15.7705 7.27986 16.0532 6.5974C16.3359 5.91495 16.7502 5.29485 17.2725 4.77252C17.7949 4.25019 18.4149 3.83586 19.0974 3.55318C19.7799 3.27049 20.5113 3.125 21.25 3.125C22.7418 3.125 24.1726 3.71763 25.2275 4.77252C26.2824 5.82742 26.875 7.25816 26.875 8.75C26.875 10.2418 26.2824 11.6726 25.2275 12.7275C24.1726 13.7824 22.7418 14.375 21.25 14.375ZM21.25 26.875C19.7582 26.875 18.3274 26.2824 17.2725 25.2275C16.2176 24.1726 15.625 22.7418 15.625 21.25C15.625 19.7582 16.2176 18.3274 17.2725 17.2725C18.3274 16.2176 19.7582 15.625 21.25 15.625C22.7418 15.625 24.1726 16.2176 25.2275 17.2725C26.2824 18.3274 26.875 19.7582 26.875 21.25C26.875 22.7418 26.2824 24.1726 25.2275 25.2275C24.1726 26.2824 22.7418 26.875 21.25 26.875ZM8.125 11.875C8.9538 11.875 9.74866 11.5458 10.3347 10.9597C10.9208 10.3737 11.25 9.5788 11.25 8.75C11.25 7.9212 10.9208 7.12634 10.3347 6.54029C9.74866 5.95424 8.9538 5.625 8.125 5.625C7.2962 5.625 6.50134 5.95424 5.91529 6.54029C5.32924 7.12634 5 7.9212 5 8.75C5 9.5788 5.32924 10.3737 5.91529 10.9597C6.50134 11.5458 7.2962 11.875 8.125 11.875ZM8.75 24.375C9.5788 24.375 10.3737 24.0458 10.9597 23.4597C11.5458 22.8737 11.875 22.0788 11.875 21.25C11.875 20.4212 11.5458 19.6263 10.9597 19.0403C10.3737 18.4542 9.5788 18.125 8.75 18.125C7.9212 18.125 7.12634 18.4542 6.54029 19.0403C5.95424 19.6263 5.625 20.4212 5.625 21.25C5.625 22.0788 5.95424 22.8737 6.54029 23.4597C7.12634 24.0458 7.9212 24.375 8.75 24.375ZM21.25 11.875C22.0788 11.875 22.8737 11.5458 23.4597 10.9597C24.0458 10.3737 24.375 9.5788 24.375 8.75C24.375 7.9212 24.0458 7.12634 23.4597 6.54029C22.8737 5.95424 22.0788 5.625 21.25 5.625C20.4212 5.625 19.6263 5.95424 19.0403 6.54029C18.4542 7.12634 18.125 7.9212 18.125 8.75C18.125 9.5788 18.4542 10.3737 19.0403 10.9597C19.6263 11.5458 20.4212 11.875 21.25 11.875ZM21.25 24.375C22.0788 24.375 22.8737 24.0458 23.4597 23.4597C24.0458 22.8737 24.375 22.0788 24.375 21.25C24.375 20.4212 24.0458 19.6263 23.4597 19.0403C22.8737 18.4542 22.0788 18.125 21.25 18.125C20.4212 18.125 19.6263 18.4542 19.0403 19.0403C18.4542 19.6263 18.125 20.4212 18.125 21.25C18.125 22.0788 18.4542 22.8737 19.0403 23.4597C19.6263 24.0458 20.4212 24.375 21.25 24.375Z" fill="white"/>
</g>
<defs>
<clipPath id="clip0_6_1131">
<rect width="30" height="30" fill="white"/>
</clipPath>
</defs>
</svg>
