<svg width="22" height="22" viewBox="0 0 22 22" fill="none" xmlns="http://www.w3.org/2000/svg">
<path d="M1.21301 13.0598C0.925417 11.7015 0.925417 10.298 1.21301 8.93976C2.32301 9.06976 3.29301 8.70276 3.60901 7.93876C3.92601 7.17376 3.50101 6.22876 2.62301 5.53576C3.38005 4.37209 4.37233 3.3798 5.53601 2.62276C6.22801 3.49976 7.17401 3.92576 7.93901 3.60876C8.70401 3.29176 9.07101 2.32276 8.94001 1.21276C10.2983 0.925173 11.7017 0.925173 13.06 1.21276C12.93 2.32276 13.297 3.29276 14.061 3.60876C14.826 3.92576 15.771 3.50076 16.464 2.62276C17.6277 3.3798 18.62 4.37209 19.377 5.53576C18.5 6.22776 18.074 7.17376 18.391 7.93876C18.708 8.70376 19.677 9.07076 20.787 8.93976C21.0746 10.298 21.0746 11.7015 20.787 13.0598C19.677 12.9298 18.707 13.2968 18.391 14.0608C18.074 14.8258 18.499 15.7708 19.377 16.4638C18.62 17.6274 17.6277 18.6197 16.464 19.3768C15.772 18.4998 14.826 18.0738 14.061 18.3908C13.296 18.7078 12.929 19.6768 13.06 20.7868C11.7017 21.0744 10.2983 21.0744 8.94001 20.7868C9.07001 19.6768 8.70301 18.7068 7.93901 18.3908C7.17401 18.0738 6.22901 18.4988 5.53601 19.3768C4.37233 18.6197 3.38005 17.6274 2.62301 16.4638C3.50001 15.7718 3.92601 14.8258 3.60901 14.0608C3.29201 13.2958 2.32301 12.9288 1.21301 13.0598ZM3.00001 11.2098C4.10001 11.5148 5.00701 12.2118 5.45701 13.2958C5.90601 14.3808 5.75701 15.5158 5.19501 16.5078C5.29101 16.6098 5.39001 16.7088 5.49201 16.8048C6.48501 16.2428 7.61901 16.0948 8.70401 16.5428C9.78801 16.9928 10.485 17.8998 10.79 18.9998C10.93 19.0038 11.07 19.0038 11.21 18.9998C11.515 17.8998 12.212 16.9928 13.296 16.5428C14.381 16.0938 15.516 16.2428 16.508 16.8048C16.61 16.7088 16.709 16.6098 16.805 16.5078C16.243 15.5148 16.095 14.3808 16.543 13.2958C16.993 12.2118 17.9 11.5148 19 11.2098C19.004 11.0698 19.004 10.9298 19 10.7898C17.9 10.4848 16.993 9.78776 16.543 8.70376C16.094 7.61876 16.243 6.48376 16.805 5.49176C16.7086 5.39016 16.6096 5.29112 16.508 5.19476C15.515 5.75676 14.381 5.90476 13.296 5.45676C12.212 5.00676 11.515 4.09976 11.21 2.99976C11.07 2.99606 10.93 2.99606 10.79 2.99976C10.485 4.09976 9.78801 5.00676 8.70401 5.45676C7.61901 5.90576 6.48401 5.75676 5.49201 5.19476C5.39001 5.29076 5.29101 5.38976 5.19501 5.49176C5.75701 6.48476 5.90501 7.61876 5.45701 8.70376C5.00701 9.78776 4.10001 10.4848 3.00001 10.7898C2.99601 10.9298 2.99601 11.0698 3.00001 11.2098ZM11 13.9998C10.2044 13.9998 9.44129 13.6837 8.87869 13.1211C8.31608 12.5585 8.00001 11.7954 8.00001 10.9998C8.00001 10.2041 8.31608 9.44105 8.87869 8.87844C9.44129 8.31583 10.2044 7.99976 11 7.99976C11.7957 7.99976 12.5587 8.31583 13.1213 8.87844C13.6839 9.44105 14 10.2041 14 10.9998C14 11.7954 13.6839 12.5585 13.1213 13.1211C12.5587 13.6837 11.7957 13.9998 11 13.9998ZM11 11.9998C11.2652 11.9998 11.5196 11.8944 11.7071 11.7069C11.8946 11.5193 12 11.265 12 10.9998C12 10.7345 11.8946 10.4802 11.7071 10.2927C11.5196 10.1051 11.2652 9.99976 11 9.99976C10.7348 9.99976 10.4804 10.1051 10.2929 10.2927C10.1054 10.4802 10 10.7345 10 10.9998C10 11.265 10.1054 11.5193 10.2929 11.7069C10.4804 11.8944 10.7348 11.9998 11 11.9998Z" fill="white"/>
</svg>
