<svg width="30" height="30" viewBox="0 0 30 30" fill="none" xmlns="http://www.w3.org/2000/svg">
<g clip-path="url(#clip0_6_1110)">
<path d="M26.25 5H8.75C8.08696 5 7.45107 5.26339 6.98223 5.73223C6.51339 6.20107 6.25 6.83696 6.25 7.5C6.25 8.16304 6.51339 8.79893 6.98223 9.26777C7.45107 9.73661 8.08696 10 8.75 10H26.25V26.25C26.25 26.5815 26.1183 26.8995 25.8839 27.1339C25.6495 27.3683 25.3315 27.5 25 27.5H8.75C7.42392 27.5 6.15215 26.9732 5.21447 26.0355C4.27678 25.0979 3.75 23.8261 3.75 22.5V7.5C3.75 6.17392 4.27678 4.90215 5.21447 3.96447C6.15215 3.02678 7.42392 2.5 8.75 2.5H25C25.3315 2.5 25.6495 2.6317 25.8839 2.86612C26.1183 3.10054 26.25 3.41848 26.25 3.75V5ZM6.25 22.5C6.25 23.163 6.51339 23.7989 6.98223 24.2678C7.45107 24.7366 8.08696 25 8.75 25H23.75V12.5H8.75C7.87228 12.5014 7.00979 12.2707 6.25 11.8313V22.5ZM25 8.75H8.75C8.41848 8.75 8.10054 8.6183 7.86612 8.38388C7.6317 8.14946 7.5 7.83152 7.5 7.5C7.5 7.16848 7.6317 6.85054 7.86612 6.61612C8.10054 6.3817 8.41848 6.25 8.75 6.25H25V8.75Z" fill="white"/>
</g>
<defs>
<clipPath id="clip0_6_1110">
<rect width="30" height="30" fill="white"/>
</clipPath>
</defs>
</svg>
