<svg width="30" height="30" viewBox="0 0 30 30" fill="none" xmlns="http://www.w3.org/2000/svg">
<g clip-path="url(#clip0_6_1119)">
<path d="M21.25 16.875L21.25 25H18.75L18.75 16.875C18.7503 16.0766 18.969 15.2934 19.3826 14.6105C19.7962 13.9275 20.3887 13.3707 21.0961 13.0004C21.8035 12.6302 22.5988 12.4605 23.3957 12.5099C24.1926 12.5593 24.9608 12.8259 25.617 13.2807C26.2732 13.7355 26.7925 14.3612 27.1186 15.09C27.4446 15.8188 27.565 16.623 27.4667 17.4154C27.3683 18.2077 27.055 18.9581 26.5607 19.5851C26.0664 20.2121 25.41 20.6919 24.6625 20.9725L23.7837 18.6313C24.1041 18.511 24.3855 18.3054 24.5973 18.0367C24.8092 17.768 24.9435 17.4464 24.9857 17.1069C25.0278 16.7673 24.9763 16.4226 24.8366 16.1103C24.6969 15.7979 24.4743 15.5297 24.1931 15.3348C23.9119 15.1398 23.5827 15.0256 23.2411 15.0044C22.8996 14.9832 22.5588 15.0559 22.2556 15.2145C21.9524 15.3732 21.6984 15.6118 21.5212 15.9045C21.3439 16.1972 21.2501 16.5328 21.25 16.875ZM13.75 23.75L13.75 6.875C13.7503 6.07657 13.969 5.29344 14.3826 4.61045C14.7962 3.92747 15.3887 3.37069 16.0961 3.00043C16.8035 2.63017 17.5988 2.46055 18.3957 2.50995C19.1926 2.55935 19.9608 2.82589 20.617 3.28068C21.2732 3.73547 21.7925 4.36118 22.1186 5.09001C22.4446 5.81884 22.565 6.623 22.4667 7.41536C22.3683 8.20771 22.055 8.95805 21.5607 9.58508C21.0664 10.2121 20.41 10.6919 19.6625 10.9725L18.7837 8.63125C19.1041 8.51103 19.3855 8.30543 19.5973 8.03672C19.8092 7.76801 19.9435 7.44644 19.9857 7.10686C20.0278 6.76728 19.9763 6.42264 19.8366 6.11027C19.6969 5.7979 19.4743 5.52971 19.1931 5.33478C18.9119 5.13984 18.5827 5.02558 18.2411 5.00439C17.8996 4.98319 17.5588 5.05586 17.2556 5.21452C16.9524 5.37319 16.6984 5.61179 16.5212 5.90449C16.3439 6.19719 16.2501 6.53281 16.25 6.875L16.25 23.75C16.25 24.7446 15.8549 25.6984 15.1516 26.4017C14.4484 27.1049 13.4945 27.5 12.5 27.5C11.5054 27.5 10.5516 27.1049 9.84832 26.4017C9.14506 25.6984 8.74997 24.7446 8.74997 23.75L8.74997 13.125C8.74983 12.7828 8.65604 12.4472 8.47878 12.1545C8.30152 11.8618 8.04754 11.6232 7.74436 11.4645C7.44117 11.3059 7.10035 11.2332 6.75882 11.2544C6.41729 11.2756 6.08807 11.3898 5.80683 11.5848C5.5256 11.7797 5.30307 12.0479 5.16336 12.3603C5.02365 12.6726 4.97209 13.0173 5.01427 13.3569C5.05644 13.6964 5.19074 14.018 5.40261 14.2867C5.61448 14.5554 5.89585 14.761 6.21622 14.8813L5.33872 17.2225C4.37973 16.8619 3.57765 16.1763 3.07223 15.2851C2.56682 14.3939 2.39012 13.3536 2.57291 12.3455C2.7557 11.3374 3.2864 10.4253 4.07254 9.76833C4.85868 9.1113 5.85043 8.75093 6.87497 8.75C8.03529 8.75 9.14809 9.21094 9.96856 10.0314C10.789 10.8519 11.25 11.9647 11.25 13.125L11.25 23.75C11.25 24.0815 11.3817 24.3995 11.6161 24.6339C11.8505 24.8683 12.1684 25 12.5 25C12.8315 25 13.1494 24.8683 13.3839 24.6339C13.6183 24.3995 13.75 24.0815 13.75 23.75Z" fill="white"/>
</g>
<defs>
<clipPath id="clip0_6_1119">
<rect width="30" height="30" fill="white" transform="matrix(0 -1 1 0 0 30)"/>
</clipPath>
</defs>
</svg>
