<svg width="30" height="30" viewBox="0 0 30 30" fill="none" xmlns="http://www.w3.org/2000/svg">
<g clip-path="url(#clip0_8_252)">
<path d="M25 27.5H22.5V25C22.5 24.0054 22.1049 23.0516 21.4016 22.3483C20.6984 21.6451 19.7446 21.25 18.75 21.25H11.25C10.2554 21.25 9.30161 21.6451 8.59835 22.3483C7.89509 23.0516 7.5 24.0054 7.5 25V27.5H5V25C5 23.3424 5.65848 21.7527 6.83058 20.5806C8.00268 19.4085 9.5924 18.75 11.25 18.75H18.75C20.4076 18.75 21.9973 19.4085 23.1694 20.5806C24.3415 21.7527 25 23.3424 25 25V27.5ZM15 16.25C14.0151 16.25 13.0398 16.056 12.1299 15.6791C11.2199 15.3022 10.3931 14.7497 9.6967 14.0533C9.00026 13.3569 8.44781 12.5301 8.0709 11.6201C7.69399 10.7102 7.5 9.73491 7.5 8.75C7.5 7.76509 7.69399 6.78982 8.0709 5.87987C8.44781 4.96993 9.00026 4.14314 9.6967 3.4467C10.3931 2.75026 11.2199 2.19781 12.1299 1.8209C13.0398 1.44399 14.0151 1.25 15 1.25C16.9891 1.25 18.8968 2.04018 20.3033 3.4467C21.7098 4.85322 22.5 6.76088 22.5 8.75C22.5 10.7391 21.7098 12.6468 20.3033 14.0533C18.8968 15.4598 16.9891 16.25 15 16.25ZM15 13.75C16.3261 13.75 17.5978 13.2232 18.5355 12.2855C19.4732 11.3479 20 10.0761 20 8.75C20 7.42392 19.4732 6.15215 18.5355 5.21447C17.5978 4.27678 16.3261 3.75 15 3.75C13.6739 3.75 12.4021 4.27678 11.4645 5.21447C10.5268 6.15215 10 7.42392 10 8.75C10 10.0761 10.5268 11.3479 11.4645 12.2855C12.4021 13.2232 13.6739 13.75 15 13.75Z" fill="white"/>
</g>
<defs>
<clipPath id="clip0_8_252">
<rect width="30" height="30" fill="white"/>
</clipPath>
</defs>
</svg>
