<svg width="24" height="24" viewBox="0 0 24 24" fill="none" xmlns="http://www.w3.org/2000/svg">
<rect width="24" height="24" fill="white"/>
<path d="M13.1282 21L6.60349 12.8363L6.64118 11.2184C9.70338 11.4295 12.0841 11.1053 12.6379 8.20878L6.11317 8.17133L7.1692 6.40287L12.3739 6.47779C11.5809 4.82963 9.3999 4.62649 6 4.74751L7.1692 3.01652L18.22 3L17.1263 4.70946H14.0713C14.6297 5.29887 15.0383 5.97705 15.052 6.5529L18.22 6.51528L17.1263 8.20824L15.0142 8.24586C14.6845 10.7713 12.3643 12.2665 9.43231 12.61L16.0007 20.9977L13.1284 20.9993V20.9994L13.1282 21Z" fill="black" stroke="black" stroke-width="0.099084"/>
</svg>
