<svg width="24" height="24" viewBox="0 0 24 24" fill="none" xmlns="http://www.w3.org/2000/svg">
<path d="M24 0H0V24H24V0Z" fill="white"/>
<path fill-rule="evenodd" clip-rule="evenodd" d="M9.22561 4.76891C10.0897 3.63491 11.3687 3.00001 12.917 3.00001C16.0553 3.00001 17.4932 5.58613 17.9986 6.52668L16.2368 7.47332C15.7126 6.49768 14.7787 5.00001 12.917 5.00001C11.9653 5.00001 11.2858 5.3651 10.8164 5.98109C10.3223 6.62953 10 7.64245 10 9V11H14V13H10V16C10 17.2661 9.59259 18.2549 9.05038 19H17.9995C17.9996 19 18 19 18 20C18 21 18 21 17.9999 21H6V19C5.92717 19 5.87474 19.0088 5.86248 19.0109C5.84318 19.0141 5.83175 19.0169 5.83057 19.0172C5.83026 19.0173 5.83022 19.0173 5.83057 19.0172C5.8326 19.0167 5.84556 19.0131 5.86999 19.0048C5.9262 18.9856 6.01585 18.9505 6.12866 18.8961C6.35492 18.787 6.64571 18.6143 6.92925 18.3689C7.48329 17.8893 8 17.1481 8 16V13H6V11H8V9C8 7.35754 8.38622 5.87047 9.22561 4.76891Z" fill="black"/>
</svg>
