<svg width="19" height="20" viewBox="0 0 19 20" fill="none" xmlns="http://www.w3.org/2000/svg">
<path d="M13.0517 15.2539H5.93262V16.8359H13.0517V15.2539Z" fill="#212121"/>
<path d="M13.0517 9.7168H5.93262V12.0898H13.0517V9.7168Z" fill="#212121"/>
<path d="M5.14158 15.2539H0V16.8359H5.14158V15.2539Z" fill="#212121"/>
<path d="M3.16405 12.8811H0V14.4631H3.16405V12.8811Z" fill="#212121"/>
<path d="M9.09666 12.8811H3.95508V14.4631H9.09666V12.8811Z" fill="#212121"/>
<path d="M18.9844 12.8811H15.8203V14.4631H18.9844V12.8811Z" fill="#212121"/>
<path d="M15.0293 12.8811H9.8877V14.4631H15.0293V12.8811Z" fill="#212121"/>
<path d="M3.16405 17.627V20H0.395506C0.177978 20 0 19.822 0 19.6045V17.627H3.16405Z" fill="#212121"/>
<path d="M15.8203 20H18.5889C18.8064 20 18.9844 19.822 18.9844 19.6045V17.627H15.8203V20Z" fill="#212121"/>
<path d="M9.09666 17.627H3.95508V20H9.09666V17.627Z" fill="#212121"/>
<path d="M5.14158 9.7168V12.0898H0V10.1123C0 9.89477 0.177978 9.7168 0.395506 9.7168H5.14158Z" fill="#212121"/>
<path d="M15.0293 17.627H9.8877V20H15.0293V17.627Z" fill="#212121"/>
<path d="M18.9844 10.1123V12.0898H13.8428V9.7168H18.5889C18.8064 9.7168 18.9844 9.89477 18.9844 10.1123Z" fill="#212121"/>
<path d="M18.9844 15.2539H13.8428V16.8359H18.9844V15.2539Z" fill="#212121"/>
<path d="M3.16406 9.32135H7.11912C7.33665 9.32135 7.51463 9.14337 7.51463 8.92584V8.45124C7.36434 8.43146 7.21405 8.40773 7.0598 8.384C6.41512 8.27326 5.88514 7.88171 5.59247 7.30822C5.41054 6.94436 5.3433 6.54885 5.39076 6.16125H3.16406C2.94653 6.16125 2.76855 6.33923 2.76855 6.55676V8.9298C2.76855 9.14733 2.94653 9.32135 3.16406 9.32135Z" fill="#212121"/>
<path d="M7.19045 7.60084C7.90236 7.71949 8.74479 7.82233 9.51998 7.82233C10.224 7.82233 10.8726 7.73531 11.3274 7.50592C12.6801 6.82169 13.2496 5.43742 12.779 4.10852L13.7835 3.60227L13.9615 3.95427C14.0288 4.0927 14.1711 4.1718 14.3135 4.1718C14.3728 4.1718 14.4361 4.15598 14.4915 4.1283L18.3714 2.15867C18.5652 2.0598 18.6443 1.82249 18.5454 1.6287L17.8296 0.216738C17.7821 0.125771 17.6991 0.0545799 17.6002 0.0189843C17.5013 -0.0126562 17.3945 -0.00474609 17.2996 0.0427147L13.4197 2.01234C13.3248 2.0598 13.2536 2.14285 13.2219 2.24173C13.1903 2.34061 13.1982 2.44739 13.2457 2.54232L13.4236 2.89432L12.423 3.40452C12.0789 2.90223 11.6043 2.53045 11.0506 2.34852C10.3426 2.11121 9.5714 2.18636 8.82389 2.56605C7.86281 3.05252 6.92151 4.62268 6.30056 5.84875C6.12654 6.20075 6.12654 6.60021 6.30056 6.94826C6.47854 7.30026 6.80285 7.53361 7.19045 7.60084Z" fill="#212121"/>
</svg>
