<svg width="36" height="36" viewBox="0 0 36 36" fill="none" xmlns="http://www.w3.org/2000/svg">
<path fill-rule="evenodd" clip-rule="evenodd" d="M21.2876 13.7648C21.2876 15.5841 19.8128 17.0589 17.9935 17.0589C16.1742 17.0589 14.6994 15.5841 14.6994 13.7648C14.6994 11.9455 16.1742 10.4707 17.9935 10.4707C19.8128 10.4707 21.2876 11.9455 21.2876 13.7648ZM23.2876 13.7648C23.2876 16.6887 20.9174 19.0589 17.9935 19.0589C15.0696 19.0589 12.6994 16.6887 12.6994 13.7648C12.6994 10.841 15.0696 8.4707 17.9935 8.4707C20.9174 8.4707 23.2876 10.841 23.2876 13.7648ZM12.7382 19.3565C12.8766 19.2499 13.0441 19.1843 13.2187 19.1776C13.8061 19.1549 14.0833 19.2995 14.3026 19.5722C14.6669 20.0253 14.4281 20.72 13.9715 21.0798C13.0656 21.7937 12.3655 22.7419 11.965 23.8232H24.0218C23.6214 22.7421 22.9216 21.7942 22.016 21.0803C21.5594 20.7204 21.3207 20.0255 21.6851 19.5724C21.9044 19.2996 22.1816 19.155 22.7689 19.1779C22.9434 19.1847 23.1108 19.2503 23.2492 19.3568C24.9725 20.6827 26.1623 22.6457 26.4499 24.8843C26.5245 25.4643 26.0433 25.9408 25.4585 25.9408H10.5284C9.9436 25.9408 9.4624 25.4643 9.53694 24.8843C9.82464 22.6455 11.0146 20.6823 12.7382 19.3565Z" fill="#C4C4C4"/>
<circle cx="18" cy="18" r="17" stroke="#C4C4C4" stroke-width="2" stroke-dasharray="4 3"/>
<circle cx="29.6469" cy="29.6479" r="6.35294" fill="#666666"/>
<path d="M26.4707 29.6465H32.8236" stroke="white"/>
<path d="M29.6475 26.4707L29.6475 32.8236" stroke="white"/>
</svg>
