<svg width="249" height="250" viewBox="0 0 249 250" fill="none" xmlns="http://www.w3.org/2000/svg">
<path d="M126.032 112.061C125.85 111.827 125.618 111.638 125.352 111.508C125.087 111.379 124.795 111.311 124.5 111.311C124.205 111.311 123.913 111.379 123.648 111.508C123.383 111.638 123.15 111.827 122.968 112.061L95.7337 146.655C95.5092 146.943 95.3699 147.289 95.3317 147.652C95.2936 148.016 95.3581 148.383 95.5179 148.711C95.6777 149.04 95.9263 149.317 96.2354 149.51C96.5445 149.703 96.9015 149.805 97.2657 149.805H115.235V208.984C115.235 210.059 116.111 210.937 117.181 210.937H131.771C132.841 210.937 133.716 210.059 133.716 208.984V149.829H151.734C153.364 149.829 154.263 147.949 153.266 146.68L126.032 112.061Z" fill="#91A59D" fill-opacity="0.3"/>
<path d="M197.303 89.5264C186.166 60.0342 157.789 39.0625 124.549 39.0625C91.3081 39.0625 62.9309 60.0098 51.7939 89.502C30.9548 94.9951 15.5625 114.062 15.5625 136.719C15.5625 163.696 37.3257 185.547 64.171 185.547H73.9219C74.9918 185.547 75.8672 184.668 75.8672 183.594V168.945C75.8672 167.871 74.9918 166.992 73.9219 166.992H64.171C55.9764 166.992 48.2681 163.721 42.5294 157.788C36.815 151.88 33.7755 143.921 34.043 135.669C34.2618 129.224 36.4503 123.169 40.4139 118.066C44.4747 112.866 50.1647 109.082 56.487 107.397L65.7029 104.98L69.0829 96.0449C71.1741 90.4785 74.0921 85.2783 77.7639 80.5664C81.3888 75.8962 85.6826 71.7908 90.5057 68.3838C100.5 61.3281 112.269 57.5928 124.549 57.5928C136.828 57.5928 148.598 61.3281 158.592 68.3838C163.431 71.8018 167.71 75.9033 171.333 80.5664C175.005 85.2783 177.923 90.5029 180.014 96.0449L183.37 104.956L192.562 107.397C205.741 110.962 214.957 122.998 214.957 136.719C214.957 144.8 211.82 152.417 206.13 158.13C203.34 160.948 200.02 163.182 196.364 164.703C192.707 166.225 188.787 167.003 184.829 166.992H175.078C174.008 166.992 173.133 167.871 173.133 168.945V183.594C173.133 184.668 174.008 185.547 175.078 185.547H184.829C211.674 185.547 233.438 163.696 233.438 136.719C233.438 114.087 218.094 95.0439 197.303 89.5264Z" fill="#91A59D" fill-opacity="0.3"/>
</svg>
