<svg width="22" height="22" viewBox="0 0 22 22" fill="none" xmlns="http://www.w3.org/2000/svg">
<path d="M15.1643 2.27857L11.6286 0.157143C11.3929 0.0785715 11.2357 0 11 0C10.7643 0 10.6071 0.0785715 10.45 0.157143L6.91429 2.27857C6.52143 2.51429 6.28572 2.90714 6.28572 3.3V7.7C6.28572 8.09286 6.52143 8.48571 6.83572 8.72143L10.3714 10.8429C10.5286 10.9214 10.7643 11 10.9214 11C11.0786 11 11.3143 10.9214 11.4714 10.8429L15.0071 8.72143C15.3214 8.48571 15.5571 8.17143 15.5571 7.7V3.3C15.7143 2.90714 15.4786 2.51429 15.1643 2.27857V2.27857ZM14.1429 7.46429L11 9.35L7.85714 7.46429V3.53571L11 1.65L14.1429 3.53571V7.46429ZM21.45 13.2786L17.9143 11.1571C17.6786 11.0786 17.5214 11 17.2857 11C17.05 11 16.8929 11.0786 16.7357 11.1571L13.2 13.2786C12.8857 13.5143 12.65 13.8286 12.65 14.3V18.7C12.65 19.0929 12.8857 19.4857 13.2 19.7214L16.7357 21.8429C16.8929 21.9214 17.1286 22 17.2857 22C17.4429 22 17.6786 21.9214 17.8357 21.8429L21.3714 19.7214C21.6857 19.4857 21.9214 19.1714 21.9214 18.7V14.3C22 13.9071 21.7643 13.5143 21.45 13.2786V13.2786ZM20.4286 18.4643L17.2857 20.35L14.1429 18.4643V14.5357L17.2857 12.65L20.4286 14.5357V18.4643ZM8.87857 13.2786L5.34286 11.1571C5.10714 11.0786 4.95 11 4.71429 11C4.47857 11 4.32143 11.0786 4.16429 11.1571L0.628571 13.2786C0.235714 13.5143 0 13.9071 0 14.3V18.7C0 19.0929 0.235714 19.4857 0.55 19.7214L4.08571 21.8429C4.32143 21.9214 4.47857 22 4.71429 22C4.95 22 5.10714 21.9214 5.26429 21.8429L8.8 19.7214C9.11429 19.4857 9.35 19.1714 9.35 18.7V14.3C9.42857 13.9071 9.19286 13.5143 8.87857 13.2786V13.2786ZM7.85714 18.4643L4.71429 20.35L1.57143 18.4643V14.5357L4.71429 12.65L7.85714 14.5357V18.4643Z" fill="#105C6B"/>
</svg>
