<svg width="15" height="16" viewBox="0 0 15 16" fill="none" xmlns="http://www.w3.org/2000/svg">
<path d="M2.72731 12.7729C1.75999 11.8056 1.79275 10.2002 2.80038 9.19261L5.1574 6.83559L4.0826 5.76079L1.72557 8.11781C0.0992293 9.74415 0.0464322 12.3312 1.60772 13.8925C3.16902 15.4538 5.75608 15.401 7.38243 13.7747L9.73945 11.4176L8.66465 10.3428L6.30763 12.6999C5.3 13.7075 3.69463 13.7403 2.72731 12.7729ZM5.70894 10.9227L10.423 6.20862L9.29162 5.07725L4.57757 9.7913L5.70894 10.9227ZM7.61813 2.22525L5.26111 4.58228L6.33591 5.65708L8.69293 3.30006C9.70056 2.29243 11.3059 2.25967 12.2732 3.22699C13.2406 4.19431 13.2078 5.79968 12.2002 6.80731L9.84316 9.16433L10.918 10.2391L13.275 7.88211C14.9013 6.25576 14.9541 3.66869 13.3928 2.1074C11.8315 0.546111 9.24448 0.598909 7.61813 2.22525Z" fill="#3A8BE3"/>
</svg>
