<svg width="19" height="17" viewBox="0 0 19 17" fill="none" xmlns="http://www.w3.org/2000/svg">
<path d="M5.44086 16.501C9.61779 18.0212 14.234 15.9108 15.852 11.7811L15.9221 11.5885L18.1511 12.3998L16.1056 7.5114L11.4905 9.97554L14.0014 10.8894L13.9313 11.0821C12.701 14.1493 9.2593 15.7081 6.14234 14.5737C2.96054 13.4156 1.32301 9.88882 2.48451 6.69762C3.64601 3.50643 7.16739 1.85736 10.3492 3.01544C11.5762 3.46123 12.6279 4.28899 13.3494 5.377L15.185 4.44458C14.2223 2.89393 12.7658 1.71234 11.05 1.09001C6.80728 -0.454212 2.11373 1.74301 0.564721 5.99888C-0.984289 10.2547 1.19815 14.9567 5.44086 16.501Z" fill="#333333"/>
</svg>
