<?xml version="1.0" encoding="UTF-8"?>
<svg id="Layer_1" data-name="Layer 1" xmlns="http://www.w3.org/2000/svg" viewBox="0 0 379.314 74.99">
  <defs>
    <style>
      .cls-1 {
        fill: #fff;
      }
    </style>
  </defs>
  <path class="cls-1" d="m30.39,49.91c-1.05.7-2.44,1.05-4.11,1.05-1.95,0-3.49-.49-4.67-1.39-1.18-.91-1.81-2.09-1.88-3.55h-3.83c0,2.58.98,4.6,2.93,6.06,1.95,1.46,4.39,2.16,7.6,2.16,1.74,0,3.35-.28,4.81-.91,1.46-.63,2.58-1.46,3.42-2.58.84-1.12,1.25-2.37,1.25-3.83,0-1.67-.42-3-1.25-3.97-.84-.98-1.95-1.67-3.28-2.09-1.39-.42-3.14-.77-5.23-1.05-1.53-.21-2.65-.35-3.35-.49-.7-.14-1.32-.49-1.81-.91s-.7-1.05-.7-1.88c0-1.12.49-2.02,1.53-2.65,1.05-.63,2.3-1.05,3.97-1.05s2.93.42,3.97,1.25c1.05.84,1.67,1.88,1.81,3.14h3.83c-.21-2.44-1.19-4.32-2.93-5.65-1.74-1.32-4.04-1.95-6.9-1.95-1.74,0-3.28.28-4.67.91s-2.51,1.46-3.28,2.58-1.18,2.37-1.18,3.76c0,1.6.42,2.79,1.25,3.69.84.91,1.88,1.53,3.21,1.95,1.32.42,3,.77,5.09.98,1.46.21,2.65.35,3.42.56.77.21,1.46.56,1.95,1.05s.77,1.25.77,2.16c-.14,1.12-.7,2.02-1.74,2.65Z"/>
  <path class="cls-1" d="m42.45,20.98h-3.83v32.97h3.83s0-32.97,0-32.97Z"/>
  <path class="cls-1" d="m65.87,53.95v-15.61c0-2.79-.84-4.95-2.51-6.41-1.67-1.46-4.04-2.23-7.11-2.23-2.86,0-5.23.63-7.04,1.95-1.81,1.32-2.86,3.14-3.14,5.51h3.83c.28-1.25.91-2.23,2.02-2.93,1.12-.77,2.44-1.12,4.11-1.12,1.88,0,3.35.42,4.39,1.32,1.05.91,1.6,2.09,1.6,3.69v1.6h-7.11c-3.14,0-5.51.63-7.18,1.95-1.67,1.25-2.51,3.14-2.51,5.58,0,2.16.84,3.9,2.44,5.16,1.6,1.25,3.76,1.88,6.41,1.88,3.49,0,6.2-1.32,8.09-3.97v3.69h3.69v-.07l.02.01Zm-3.9-9.76c0,2.02-.7,3.69-2.02,4.95-1.32,1.25-3.21,1.88-5.58,1.88-1.6,0-2.86-.35-3.83-1.12-.98-.7-1.39-1.67-1.39-2.86,0-2.65,1.81-3.97,5.37-3.97h7.46v1.12h-.01Z"/>
  <path class="cls-1" d="m104.35,42.73c.07-.77.07-1.32.07-1.67-.07-2.3-.56-4.32-1.53-6.06-.98-1.74-2.3-3.07-3.97-3.97-1.67-.91-3.62-1.39-5.86-1.39s-4.18.49-5.92,1.53c-1.74,1.05-3.07,2.44-4.04,4.32-.98,1.88-1.46,3.97-1.46,6.48s.49,4.53,1.46,6.41c.98,1.88,2.37,3.35,4.18,4.32,1.81.98,3.9,1.53,6.27,1.53,2.72,0,5.02-.77,6.9-2.3,1.88-1.53,3.07-3.55,3.56-5.99h-3.9c-.42,1.53-1.19,2.72-2.44,3.62-1.25.91-2.65,1.32-4.39,1.32-2.23,0-4.04-.7-5.44-2.09-1.39-1.39-2.09-3.28-2.16-5.65v-.35h18.68v-.07l-.01.01h0Zm-16.03-7.88c1.39-1.18,3-1.81,4.81-1.81,2.02,0,3.76.56,5.09,1.67,1.32,1.12,2.09,2.72,2.3,4.74h-14.5c.14-1.88.91-3.42,2.3-4.6Z"/>
  <path class="cls-1" d="m74.93,47.89v-14.43h6.13v-3.55h-6.13v-6.76h-3.83v6.76h-4.32v3.55h4.32v14.43c0,3.35,2.72,6.13,6.13,6.13h4.6v-3.83h-4.6c-1.32-.07-2.3-1.05-2.3-2.3Z"/>
  <path class="cls-1" d="m71.1,68.8c0,1.25-1.05,2.23-2.23,2.23H6.13c-1.25,0-2.23-1.05-2.23-2.23V6.06c-.07-1.18.98-2.23,2.23-2.23h62.73c1.25,0,2.23,1.05,2.23,2.23v10.11h3.83V6.13c0-3.35-2.72-6.13-6.13-6.13H6.06C2.72,0,0,2.72,0,6.13v62.73c0,3.35,2.72,6.13,6.13,6.13h62.73c3.35,0,6.13-2.72,6.13-6.13v-7.95h-3.9v7.88l.01.01Z"/>
  <g>
    <path class="cls-1" d="m116.698,34.287v-3.45h4.232v-6.578h3.772v6.578h5.935v3.45h-5.935v13.848c0,.981.191,1.68.575,2.094s1.051.621,2.001.621h4.094v3.45h-4.324c-2.208,0-3.78-.49-4.716-1.473-.935-.98-1.403-2.53-1.403-4.646v-13.894h-4.232,0Z"/>
    <g>
      <path class="cls-1" d="m137.955,32.057c1.687-.997,3.619-1.495,5.796-1.495,2.147,0,4.048.444,5.705,1.334,1.657.89,2.96,2.178,3.911,3.864s1.457,3.665,1.518,5.935c0,.338-.031.874-.092,1.61h-18.218v.322c.062,2.3.767,4.14,2.116,5.521,1.35,1.38,3.113,2.07,5.291,2.07,1.687,0,3.121-.422,4.302-1.266s1.971-2.017,2.369-3.52h3.818c-.46,2.393-1.61,4.348-3.45,5.866s-4.095,2.277-6.763,2.277c-2.331,0-4.371-.499-6.119-1.495-1.749-.997-3.105-2.408-4.072-4.232-.966-1.825-1.449-3.919-1.449-6.28,0-2.393.468-4.493,1.403-6.303s2.247-3.213,3.934-4.209h0Zm10.788,3.473c-1.304-1.104-2.952-1.656-4.946-1.656-1.779,0-3.343.583-4.692,1.749-1.35,1.165-2.116,2.684-2.3,4.554h14.17c-.184-1.993-.928-3.542-2.231-4.646h0Z"/>
      <path class="cls-1" d="m169.788,54.576c-2.27,0-4.263-.507-5.981-1.519-1.717-1.012-3.052-2.431-4.002-4.256-.951-1.824-1.426-3.918-1.426-6.279s.483-4.447,1.449-6.257,2.323-3.213,4.072-4.209c1.748-.997,3.757-1.495,6.026-1.495,2.76,0,5.038.735,6.832,2.208,1.794,1.472,2.921,3.496,3.381,6.072h-3.818c-.368-1.503-1.135-2.698-2.3-3.588s-2.577-1.334-4.232-1.334c-2.239,0-4.056.797-5.452,2.392s-2.093,3.665-2.093,6.211c0,2.576.698,4.67,2.093,6.279,1.396,1.61,3.212,2.416,5.452,2.416,1.717,0,3.159-.445,4.324-1.334,1.166-.89,1.917-2.117,2.254-3.681h3.772c-.491,2.606-1.641,4.654-3.451,6.142s-4.11,2.231-6.9,2.231h0Z"/>
      <path class="cls-1" d="m205.53,41.234v13.065h-3.772v-12.836c0-2.423-.552-4.271-1.656-5.543-1.104-1.273-2.684-1.909-4.738-1.909-2.178,0-3.903.767-5.176,2.3-1.272,1.534-1.909,3.619-1.909,6.257v11.731h-3.772V22.096h3.772v12.605c.767-1.227,1.787-2.224,3.06-2.99,1.272-.767,2.829-1.149,4.669-1.149,2.853,0,5.152.858,6.901,2.576,1.748,1.717,2.622,4.416,2.622,8.097h0Z"/>
      <path class="cls-1" d="m231.336,41.234v13.065h-3.772v-12.836c0-2.423-.545-4.271-1.634-5.543-1.089-1.273-2.66-1.909-4.715-1.909-2.209,0-3.941.767-5.199,2.3-1.257,1.534-1.886,3.619-1.886,6.257v11.731h-3.772v-23.463h3.267l.506,3.175c1.778-2.301,4.355-3.45,7.729-3.45,2.853,0,5.146.858,6.878,2.576,1.733,1.717,2.6,4.416,2.6,8.097h-.002Z"/>
      <path class="cls-1" d="m236.807,48.825c-.981-1.81-1.472-3.896-1.472-6.257s.49-4.447,1.472-6.257,2.354-3.22,4.118-4.232c1.764-1.012,3.78-1.518,6.05-1.518s4.286.506,6.049,1.518c1.764,1.013,3.137,2.423,4.118,4.232s1.472,3.896,1.472,6.257-.49,4.447-1.472,6.257-2.354,3.221-4.118,4.232c-1.763,1.012-3.779,1.519-6.049,1.519s-4.286-.507-6.05-1.519-3.137-2.423-4.118-4.232Zm16.977-1.794c.644-1.319.966-2.807.966-4.463s-.322-3.144-.966-4.462c-.645-1.319-1.557-2.347-2.737-3.083s-2.538-1.104-4.071-1.104-2.891.367-4.072,1.104c-1.181.736-2.093,1.764-2.737,3.083-.644,1.318-.966,2.806-.966,4.462s.322,3.144.966,4.463c.645,1.318,1.557,2.346,2.737,3.082,1.182.736,2.538,1.104,4.072,1.104s2.891-.368,4.071-1.104,2.093-1.764,2.737-3.082Z"/>
      <path class="cls-1" d="m266.706,22.096v32.204h-3.772V22.096h3.772Z"/>
      <path class="cls-1" d="m272.501,48.825c-.981-1.81-1.472-3.896-1.472-6.257s.49-4.447,1.472-6.257,2.354-3.22,4.118-4.232c1.764-1.012,3.78-1.518,6.05-1.518s4.286.506,6.049,1.518c1.764,1.013,3.137,2.423,4.118,4.232s1.472,3.896,1.472,6.257-.49,4.447-1.472,6.257-2.354,3.221-4.118,4.232c-1.763,1.012-3.779,1.519-6.049,1.519s-4.286-.507-6.05-1.519-3.137-2.423-4.118-4.232Zm16.977-1.794c.644-1.319.966-2.807.966-4.463s-.322-3.144-.966-4.462c-.645-1.319-1.557-2.347-2.737-3.083s-2.538-1.104-4.071-1.104-2.891.367-4.072,1.104c-1.181.736-2.093,1.764-2.737,3.083-.644,1.318-.966,2.806-.966,4.462s.322,3.144.966,4.463c.645,1.318,1.557,2.346,2.737,3.082,1.182.736,2.538,1.104,4.072,1.104s2.891-.368,4.071-1.104,2.093-1.764,2.737-3.082Z"/>
      <path class="cls-1" d="m320.896,53.149c0,7.085-3.88,10.628-11.64,10.628-3.036,0-5.513-.69-7.43-2.07-1.917-1.381-3.028-3.344-3.335-5.889h3.864c.307,1.472,1.089,2.606,2.346,3.404,1.258.797,2.868,1.196,4.831,1.196,5.061,0,7.591-2.47,7.591-7.407v-2.761c-1.687,2.884-4.371,4.325-8.051,4.325-2.178,0-4.118-.476-5.82-1.427-1.702-.95-3.036-2.331-4.002-4.141s-1.449-3.956-1.449-6.44c0-2.361.483-4.447,1.449-6.257s2.308-3.22,4.025-4.232c1.718-1.012,3.649-1.518,5.797-1.518,1.901,0,3.526.375,4.876,1.127,1.35.751,2.408,1.817,3.175,3.197l.506-4.049h3.267v22.314Zm-4.692-6.05c.644-1.303.966-2.783.966-4.439,0-1.687-.322-3.197-.966-4.531-.645-1.334-1.557-2.369-2.737-3.105s-2.523-1.104-4.025-1.104c-2.331,0-4.21.805-5.636,2.415-1.427,1.61-2.14,3.688-2.14,6.233s.713,4.624,2.14,6.233c1.426,1.61,3.305,2.416,5.636,2.416,1.502,0,2.845-.36,4.025-1.081s2.093-1.733,2.737-3.037Z"/>
      <path class="cls-1" d="m330.369,24.212c0,.706-.23,1.289-.69,1.749s-1.043.689-1.748.689-1.288-.229-1.748-.689-.69-1.043-.69-1.749.23-1.288.69-1.748,1.043-.689,1.748-.689,1.288.229,1.748.689.69,1.043.69,1.748Zm-.553,6.625v23.463h-3.772v-23.463h3.772Z"/>
    </g>
    <path class="cls-1" d="m339.475,32.057c1.687-.997,3.619-1.495,5.797-1.495,2.146,0,4.048.444,5.704,1.334,1.656.89,2.96,2.178,3.911,3.864.95,1.687,1.457,3.665,1.518,5.935,0,.338-.03.874-.092,1.61h-18.218v.322c.062,2.3.767,4.14,2.116,5.521,1.35,1.38,3.113,2.07,5.29,2.07,1.688,0,3.121-.422,4.302-1.266s1.971-2.017,2.369-3.52h3.818c-.46,2.393-1.609,4.348-3.45,5.866-1.84,1.518-4.095,2.277-6.763,2.277-2.331,0-4.37-.499-6.118-1.495-1.749-.997-3.105-2.408-4.072-4.232-.966-1.825-1.449-3.919-1.449-6.28,0-2.393.468-4.493,1.403-6.303s2.247-3.213,3.934-4.209h0Zm10.788,3.473c-1.304-1.104-2.952-1.656-4.945-1.656-1.779,0-3.343.583-4.692,1.749-1.35,1.165-2.116,2.684-2.301,4.554h14.17c-.184-1.993-.928-3.542-2.231-4.646h-.001Z"/>
    <path class="cls-1" d="m365.443,50.021c1.182.89,2.707,1.334,4.578,1.334,1.656,0,2.998-.33,4.025-.989s1.541-1.525,1.541-2.6c0-.92-.245-1.625-.736-2.116s-1.127-.828-1.908-1.012c-.783-.184-1.895-.368-3.336-.552-2.024-.246-3.681-.567-4.969-.967-1.288-.398-2.33-1.035-3.129-1.909-.797-.874-1.195-2.077-1.195-3.611,0-1.38.391-2.606,1.173-3.68s1.849-1.909,3.198-2.508c1.349-.598,2.867-.897,4.554-.897,2.761,0,5.007.645,6.739,1.933,1.733,1.288,2.691,3.128,2.876,5.521h-3.772c-.153-1.227-.752-2.238-1.795-3.036-1.042-.798-2.346-1.196-3.91-1.196-1.594,0-2.883.33-3.864.989s-1.472,1.525-1.472,2.6c0,.797.23,1.41.689,1.84.461.43,1.051.721,1.771.874s1.817.322,3.289.506c2.055.246,3.75.583,5.084,1.013,1.334.429,2.408,1.119,3.221,2.07.812.95,1.219,2.238,1.219,3.864,0,1.41-.414,2.652-1.242,3.727-.828,1.073-1.947,1.901-3.358,2.484-1.411.582-2.976.874-4.692.874-3.066,0-5.528-.706-7.384-2.116-1.855-1.411-2.799-3.374-2.829-5.889h3.771c.062,1.41.684,2.561,1.863,3.45h0Z"/>
  </g>
</svg>