<svg width="21" height="20" viewBox="0 0 21 20" fill="none" xmlns="http://www.w3.org/2000/svg">
<path d="M10.1113 20C4.61286 20 0.155762 15.523 0.155762 10C0.155762 4.477 4.61286 0 10.1113 0C15.6098 0 20.0669 4.477 20.0669 10C20.0669 15.523 15.6098 20 10.1113 20ZM10.1113 18C12.2236 18 14.2494 17.1571 15.743 15.6569C17.2367 14.1566 18.0758 12.1217 18.0758 10C18.0758 7.87827 17.2367 5.84344 15.743 4.34315C14.2494 2.84285 12.2236 2 10.1113 2C7.99901 2 5.97323 2.84285 4.4796 4.34315C2.98598 5.84344 2.14687 7.87827 2.14687 10C2.14687 12.1217 2.98598 14.1566 4.4796 15.6569C5.97323 17.1571 7.99901 18 10.1113 18ZM10.1113 8.586L12.9267 5.757L14.3355 7.172L11.519 10L14.3355 12.828L12.9267 14.243L10.1113 11.414L7.29589 14.243L5.88717 12.828L8.7036 10L5.88717 7.172L7.29589 5.757L10.1113 8.586Z" fill="#FFA80D"/>
</svg>
