<svg width="192" height="144" viewBox="0 0 192 144" fill="none" xmlns="http://www.w3.org/2000/svg">
<g opacity="0.3">
<path d="M165.597 10.1008C165.597 15.6053 161.618 20.0672 156.708 20.0672C151.799 20.0672 147.82 15.6053 147.82 10.1008C147.82 4.5964 151.799 0.134469 156.708 0.134469C157.462 0.134469 160.881 -0.0462379 161.58 0.150101C165.433 1.24126 165.597 5.44083 165.597 10.1008Z" fill="#939BA5"/>
<path d="M169.963 10.1011C169.963 15.6056 165.984 20.0675 161.074 20.0675C156.166 20.0675 152.185 15.6056 152.185 10.1011C152.185 4.5967 156.166 0.134766 161.074 0.134766C165.984 0.134766 169.963 4.5967 169.963 10.1011Z" fill="#A6AFBC"/>
<path d="M168.728 9.7538C168.728 13.9134 165.495 17.2859 161.505 17.2859C157.516 17.2859 154.281 13.9134 154.281 9.7538C154.281 5.59245 157.516 2.22168 161.505 2.22168C165.495 2.22168 168.728 5.59245 168.728 9.7538Z" fill="#D7D7D7"/>
<path d="M161.922 3.17188C159.097 3.17188 156.753 5.32118 156.31 8.13595C157.297 7.28109 158.564 6.76679 159.945 6.76679C163.086 6.76679 165.634 9.42171 165.634 12.6987C165.634 13.0288 165.607 13.3502 165.557 13.6665C166.812 12.577 167.611 10.9386 167.611 9.10375C167.611 5.8268 165.064 3.17188 161.922 3.17188Z" fill="white"/>
<path d="M162.246 15.7528C158.258 15.7528 155.023 12.3803 155.023 8.22073C155.023 7.25988 155.196 6.34248 155.511 5.49805C154.734 6.69867 154.281 8.14601 154.281 9.70456C154.281 13.8642 157.516 17.2367 161.505 17.2367C164.574 17.2367 167.192 15.2403 168.24 12.4255C166.942 14.4323 164.742 15.7528 162.246 15.7528Z" fill="white"/>
<path opacity="0.502" d="M163.96 6.86584C164.329 7.35235 164.6 7.90661 164.907 8.43481C165.095 8.75799 165.357 9.10897 165.731 9.11419C166.174 9.1194 166.457 8.62073 166.49 8.1794C166.551 7.33497 166.066 6.5444 165.498 5.91542C164.741 5.07446 163.366 3.98331 162.146 4.08582C161.733 4.11884 161.144 4.42811 161.055 4.87813C160.925 5.54012 161.783 5.62526 162.237 5.72256C162.961 5.8772 163.516 6.27509 163.96 6.86584Z" fill="white"/>
<path d="M37.1046 10.0418C37.1046 15.5462 33.1257 20.0082 28.2155 20.0082C23.307 20.0082 19.3281 15.5462 19.3281 10.0418C19.3281 4.53733 23.307 0.0753963 28.2155 0.0753963C28.9696 0.0753963 32.389 -0.105299 33.0875 0.0927778C36.9413 1.18394 37.1046 5.3835 37.1046 10.0418Z" fill="#939BA5"/>
<path d="M41.4706 10.0416C41.4706 15.546 37.4917 20.008 32.5815 20.008C27.673 20.008 23.6924 15.546 23.6924 10.0416C23.6924 4.53713 27.673 0.0751953 32.5815 0.0751953C37.4917 0.0751953 41.4706 4.53713 41.4706 10.0416Z" fill="#A6AFBC"/>
<path d="M17.3944 34.5146H71.1409L67.9369 66.4675H11.7979L17.3944 34.5146Z" fill="#383838"/>
<path d="M17.3942 34.5146L14.9043 35.34L9.41553 66.4675H11.7977L17.3942 34.5146Z" fill="#DCDCDC"/>
<path d="M7.98059 91.5918H61.7253L58.5231 123.545H2.38232L7.98059 91.5918Z" fill="#383838"/>
<path d="M9.41602 143.822H21.4153L36.9434 29.2207H24.5532L9.41602 143.822Z" fill="#A6AFBC"/>
<path d="M26.2104 17.2266L45.6428 143.822H60.2831L38.2375 17.2266H26.2104Z" fill="#A6AFBC"/>
<path d="M26.2105 17.2266H22.8345L40.9654 143.822H46.8122L26.2105 17.2266Z" fill="#939BA5"/>
<path d="M22.8343 17.2266L4.94482 143.822H9.41544L25.4979 23.0316L22.8343 17.2266Z" fill="#939BA5"/>
<path d="M138.007 143.822H150.006L165.534 29.2207H153.144L138.007 143.822Z" fill="#A6AFBC"/>
<path d="M154.802 17.2266L174.234 143.822H188.874L166.829 17.2266H154.802Z" fill="#A6AFBC"/>
<path d="M154.802 17.2266H151.426L169.557 143.822H175.403L154.802 17.2266Z" fill="#939BA5"/>
<path d="M151.426 17.2266L133.536 143.822H138.007L154.089 23.0316L151.426 17.2266Z" fill="#939BA5"/>
<path d="M182.17 66.4674H27.4528L21.7798 35.4667L23.1802 33.1836L176.495 35.4667L183.57 64.186L182.17 66.4674Z" fill="#DCDCDC"/>
<path d="M183.57 64.186H28.8532L23.1802 33.1836H177.895L183.57 64.186Z" fill="#B0B0B0"/>
<path d="M50.414 64.186H28.9175L45.4152 33.1836H66.9117L50.414 64.186Z" fill="#D7D7D7"/>
<path d="M87.4613 64.186H65.9648L82.4625 33.1836H103.959L87.4613 64.186Z" fill="#D7D7D7"/>
<path d="M124.507 64.3357H103.01L119.508 33.335H141.004L124.507 64.3357Z" fill="#D7D7D7"/>
<path d="M161.554 64.3357H140.056L156.553 33.335H178.052L161.554 64.3357Z" fill="#D7D7D7"/>
<path d="M190.042 123.545H35.3271L29.6523 92.5421L31.0528 90.2607L184.369 92.5421L191.443 121.261L190.042 123.545Z" fill="#DCDCDC"/>
<path d="M191.443 121.261H36.7275L31.0527 90.2607H185.77L191.443 121.261Z" fill="#B0B0B0"/>
<path d="M58.288 121.261H36.7915L53.2892 90.2607H74.7857L58.288 121.261Z" fill="#D7D7D7"/>
<path d="M95.3339 121.261H73.8374L90.3351 90.2607H111.833L95.3339 121.261Z" fill="#D7D7D7"/>
<path d="M132.381 121.413H110.885L127.382 90.4121H148.879L132.381 121.413Z" fill="#D7D7D7"/>
<path d="M169.427 121.413H147.93L164.428 90.4121H185.924L169.427 121.413Z" fill="#D7D7D7"/>
<path d="M7.9804 91.5918L5.49054 92.4154L0 123.545H2.38213L7.9804 91.5918Z" fill="#DCDCDC"/>
<path d="M40.2355 9.69422C40.2355 13.8538 37.002 17.2263 33.0127 17.2263C29.0233 17.2263 25.7881 13.8538 25.7881 9.69422C25.7881 5.53462 29.0233 2.16211 33.0127 2.16211C37.002 2.16211 40.2355 5.53462 40.2355 9.69422Z" fill="#D7D7D7"/>
<path d="M33.43 3.1123C30.6048 3.1123 28.2609 5.26161 27.8179 8.07638C28.8048 7.22152 30.0714 6.70722 31.4528 6.70722C34.5942 6.70722 37.1414 9.36388 37.1414 12.6391C37.1414 12.9692 37.1153 13.2924 37.0649 13.6069C38.3194 12.5192 39.1187 10.879 39.1187 9.04418C39.1187 5.76896 36.5715 3.1123 33.43 3.1123Z" fill="white"/>
<path d="M33.7528 15.6945C29.7653 15.6945 26.53 12.322 26.53 8.16236C26.53 7.20151 26.7038 6.28584 27.0182 5.44141C26.2416 6.64203 25.7881 8.08938 25.7881 9.64619C25.7881 13.8058 29.0233 17.1783 33.0127 17.1783C36.0811 17.1783 38.6995 15.1819 39.7473 12.3671C38.4493 14.374 36.2497 15.6945 33.7528 15.6945Z" fill="white"/>
<path opacity="0.502" d="M35.4678 6.80704C35.8361 7.29528 36.1072 7.84782 36.4147 8.37776C36.6023 8.6992 36.8647 9.05191 37.2383 9.05538C37.6813 9.0606 37.9646 8.56367 37.9976 8.12234C38.0584 7.27617 37.5736 6.48735 37.0055 5.85837C36.2479 5.01567 34.8735 3.92625 33.6538 4.02702C33.2403 4.06177 32.6512 4.36931 32.5626 4.81933C32.4323 5.48132 33.2906 5.56647 33.7441 5.66377C34.4687 5.8184 35.0229 6.21629 35.4678 6.80704Z" fill="white"/>
<path d="M38.0601 123.545H56.7522L57.0719 125.388L43.9033 125.948L38.8941 129.357L38.0601 123.545Z" fill="#5B5B5B"/>
<path d="M29.8872 66.4678H46.8123L47.139 68.3478L34.6254 68.9368L30.7021 72.1547L29.8872 66.4678Z" fill="#5B5B5B"/>
<path d="M158.464 66.4678H175.389L175.716 68.3478L163.203 68.9368L159.277 72.1547L158.464 66.4678Z" fill="#5B5B5B"/>
<path d="M166.652 123.545H185.342L185.665 125.401L172.5 125.983L167.482 129.34L166.652 123.545Z" fill="#5B5B5B"/>
</g>
</svg>
