<svg width="15" height="18" viewBox="0 0 15 18" fill="none" xmlns="http://www.w3.org/2000/svg">
<path d="M14.7725 5.14168C14.7725 5.14168 14.7725 5.14168 14.7725 5.07501L14.7225 4.95001C14.7051 4.92349 14.6856 4.89841 14.6641 4.87501C14.6419 4.83973 14.6168 4.80629 14.5891 4.77501L14.5141 4.71668L14.3808 4.65001L8.13082 0.791677C7.99837 0.7089 7.84533 0.665009 7.68915 0.665009C7.53297 0.665009 7.37993 0.7089 7.24748 0.791677L1.04748 4.65001L0.972484 4.71668L0.897484 4.77501C0.86986 4.80629 0.84478 4.83973 0.822484 4.87501C0.801061 4.89841 0.781553 4.92349 0.764151 4.95001L0.714151 5.07501C0.714151 5.07501 0.714151 5.07501 0.714151 5.14168C0.70596 5.21367 0.70596 5.28635 0.714151 5.35834V12.6417C0.713867 12.7833 0.749681 12.9227 0.81821 13.0466C0.886739 13.1705 0.985723 13.275 1.10582 13.35L7.35582 17.2083C7.39428 17.2321 7.43658 17.249 7.48082 17.2583C7.48082 17.2583 7.52248 17.2583 7.54748 17.2583C7.68847 17.3031 7.83983 17.3031 7.98082 17.2583C7.98082 17.2583 8.02248 17.2583 8.04748 17.2583C8.09172 17.249 8.13402 17.2321 8.17248 17.2083L14.3808 13.35C14.5009 13.275 14.5999 13.1705 14.6684 13.0466C14.737 12.9227 14.7728 12.7833 14.7725 12.6417V5.35834C14.7807 5.28635 14.7807 5.21367 14.7725 5.14168ZM6.88082 15.0083L2.29748 12.175V6.85834L6.88082 9.68334V15.0083ZM7.71415 8.24168L3.04748 5.35834L7.71415 2.48334L12.3808 5.35834L7.71415 8.24168ZM13.1308 12.175L8.54748 15.0083V9.68334L13.1308 6.85834V12.175Z" fill="#212121"/>
</svg>
