<svg width="250" height="61" viewBox="0 0 250 61" fill="none" xmlns="http://www.w3.org/2000/svg">
<g opacity="0.4">
<path d="M104.354 40.3648L54.5218 36.1195C52.6376 35.9599 51.2383 34.3004 51.3999 32.4162L51.9045 26.4878C52.0661 24.6036 53.7236 23.2063 55.6097 23.3659L105.439 27.6112C107.326 27.7709 108.723 29.4303 108.563 31.3145L108.059 37.2429C107.897 39.1271 106.24 40.5244 104.354 40.3648Z" fill="#E0E0E0"/>
<path fill-rule="evenodd" clip-rule="evenodd" d="M71.8281 24.1466L69.8769 40.7769C68.7181 50.6451 59.6973 57.7718 49.8291 56.6129L15.9596 52.6376C6.09136 51.4788 -1.03535 42.458 0.123532 32.5898L2.0747 15.9596C3.23358 6.09135 12.2563 -1.03535 22.1225 0.123533L55.9921 4.0988C65.8603 5.25767 72.987 14.2784 71.8281 24.1466ZM54.7445 14.7317L20.8749 10.7564C16.9135 10.2913 13.1727 13.2457 12.7096 17.2071L10.7564 33.8374C10.2913 37.7989 13.2457 41.5396 17.2071 42.0047L51.0767 45.98C55.0382 46.4451 58.7789 43.4908 59.2421 39.5293L61.1952 22.899C61.6603 18.9376 58.706 15.1968 54.7445 14.7317Z" fill="#BDBDBD"/>
<path fill-rule="evenodd" clip-rule="evenodd" d="M158.623 25.571V42.3156C158.623 52.2508 150.496 60.3806 140.558 60.3806H106.458C96.521 60.3806 88.3931 52.2508 88.3931 42.3156V25.571C88.3931 15.6357 96.521 7.50586 106.458 7.50586H140.558C150.496 7.50586 158.623 15.6357 158.623 25.571ZM147.918 25.571C147.918 21.5819 144.547 18.2117 140.558 18.2117H106.458C102.469 18.2117 99.0989 21.5819 99.0989 25.571V42.3156C99.0989 46.3046 102.469 49.6748 106.458 49.6748H140.558C144.547 49.6748 147.918 46.3046 147.918 42.3156V25.571Z" fill="#BDBDBD"/>
<path fill-rule="evenodd" clip-rule="evenodd" d="M232.374 55.8444L198.331 57.8685C188.413 58.4597 179.816 50.8265 179.225 40.909L178.232 24.194C177.642 14.2765 185.274 5.67758 195.193 5.08829L229.234 3.06419C239.152 2.47489 247.749 10.1061 248.34 20.0256L249.333 36.7387C249.922 46.6581 242.291 55.2551 232.374 55.8444ZM238.647 37.3752L237.652 20.6602C237.415 16.679 233.852 13.5138 229.869 13.7523L195.828 15.7764C191.847 16.0129 188.681 19.5762 188.92 23.5594L189.913 40.2724C190.15 44.2556 193.713 47.4188 197.696 47.1823L231.737 45.1583C235.718 44.9198 238.884 41.3564 238.647 37.3752Z" fill="#BDBDBD"/>
<path d="M191.612 38.2657H141.599C139.707 38.2657 138.173 36.7304 138.173 34.8384V28.8922C138.173 27.0002 139.707 25.4648 141.599 25.4648H191.612C193.502 25.4648 195.037 27.0002 195.037 28.8922V34.8384C195.037 36.7304 193.502 38.2657 191.612 38.2657Z" fill="#9E9E9E"/>
</g>
</svg>
