<?xml version="1.0" standalone="no"?>
<!DOCTYPE svg PUBLIC "-//W3C//DTD SVG 20010904//EN"
 "http://www.w3.org/TR/2001/REC-SVG-20010904/DTD/svg10.dtd">
<svg version="1.0" xmlns="http://www.w3.org/2000/svg"
 width="732.000000pt" height="727.000000pt" viewBox="0 0 732.000000 727.000000"
 preserveAspectRatio="xMidYMid meet">
<metadata>
Created by potrace 1.16, written by Peter Selinger 2001-2019
</metadata>
<g transform="translate(0.000000,727.000000) scale(0.100000,-0.100000)"
fill="#000000" stroke="none">
<path d="M4552 7050 c-160 -43 -185 -62 -550 -424 l-332 -331 290 -290 290
-290 237 238 238 237 727 -727 728 -728 -882 -883 -883 -883 97 -94 c76 -73
114 -102 180 -134 123 -61 189 -74 333 -69 140 6 227 32 335 103 46 30 293
272 826 806 l762 764 41 85 c60 125 74 192 68 330 -3 78 -11 136 -25 180 -49
150 -31 130 -1002 1100 -969 970 -951 953 -1100 1002 -96 31 -280 35 -378 8z"/>
<path d="M2490 6970 c-74 -12 -140 -35 -225 -78 -64 -33 -141 -106 -963 -926
-660 -658 -906 -910 -942 -964 -65 -96 -101 -207 -107 -333 -7 -125 14 -220
74 -342 45 -90 53 -99 369 -417 l323 -325 291 290 290 290 -235 235 -235 235
727 727 728 728 883 -882 883 -883 87 91 c48 50 102 116 121 147 127 215 127
476 0 694 -25 43 -227 252 -769 796 -404 406 -762 759 -795 784 -142 108 -337
160 -505 133z"/>
<path d="M2862 5485 c-143 -149 -202 -288 -202 -476 0 -118 25 -223 77 -323
34 -63 88 -122 503 -539 l465 -467 290 290 290 290 -660 660 c-363 363 -663
660 -666 660 -4 0 -47 -43 -97 -95z"/>
<path d="M4922 4640 c-167 -45 -171 -48 -685 -559 l-467 -466 287 -287 288
-288 663 662 663 663 -85 82 c-95 91 -187 150 -286 184 -95 32 -278 36 -378 9z"/>
<path d="M2275 4555 c-87 -19 -160 -50 -235 -100 -44 -30 -311 -290 -821 -802
l-757 -758 -41 -85 c-55 -115 -72 -185 -72 -305 -1 -158 42 -290 134 -410 63
-82 1760 -1774 1820 -1815 109 -72 260 -120 382 -120 122 0 274 48 382 121 53
36 663 637 663 654 0 5 -128 138 -285 295 l-285 285 -233 -233 c-127 -127
-237 -232 -242 -232 -6 0 -335 325 -733 723 l-722 722 880 880 c484 484 880
885 880 892 0 14 -139 144 -198 185 -143 99 -349 140 -517 103z"/>
<path d="M2395 3530 l-660 -660 50 -51 c164 -167 337 -249 530 -249 104 0 198
24 305 76 l95 47 463 461 462 460 -287 288 c-158 159 -290 288 -293 288 -3 0
-302 -297 -665 -660z"/>
<path d="M6092 3357 l-282 -282 237 -238 238 -237 -730 -730 -730 -730 -883
882 -883 883 -94 -97 c-147 -152 -205 -289 -205 -483 0 -121 16 -191 71 -305
l41 -85 757 -758 c540 -542 776 -772 827 -806 43 -29 105 -59 160 -77 77 -25
104 -29 204 -29 100 0 127 4 204 29 55 18 117 48 160 77 51 34 319 296 962
941 863 866 892 895 932 973 58 116 76 189 75 320 0 91 -5 124 -26 190 -49
150 -76 184 -416 528 -173 174 -320 317 -325 317 -6 0 -138 -127 -294 -283z"/>
<path d="M3412 3267 c-155 -155 -282 -287 -282 -292 0 -6 297 -307 660 -670
l661 -660 77 80 c150 155 210 284 219 466 8 162 -28 293 -118 427 -36 52 -907
932 -924 932 -5 0 -137 -127 -293 -283z"/>
<path d="M6513 994 c-59 -21 -127 -86 -159 -150 -36 -74 -38 -174 -5 -250 82
-189 335 -239 485 -96 81 78 109 210 69 328 -22 66 -101 145 -167 167 -60 21
-166 21 -223 1z m196 -39 c127 -44 196 -184 157 -316 -32 -112 -123 -179 -243
-179 -82 0 -138 25 -187 82 -172 201 26 500 273 413z"/>
<path d="M6520 715 c0 -168 1 -175 20 -175 18 0 20 7 20 75 l0 75 38 0 c35 0
39 -4 82 -75 38 -64 49 -75 72 -75 l27 0 -50 72 c-53 77 -57 88 -34 88 30 0
65 47 65 85 0 77 -44 105 -165 105 l-75 0 0 -175z m180 115 c11 -11 20 -29 20
-40 0 -39 -35 -60 -100 -60 l-60 0 0 60 0 60 60 0 c47 0 64 -4 80 -20z"/>
</g>
</svg>
