<svg width="76" height="97" viewBox="0 0 76 97" fill="none" xmlns="http://www.w3.org/2000/svg">
<path d="M75.8116 83.869V26.9579L48.8537 0H15.9052C12.7275 0 9.68003 1.26231 7.43311 3.50924C5.18618 5.75616 3.92387 8.80365 3.92387 11.9813V65.8971H9.91451V11.9813C9.91451 10.3925 10.5457 8.86872 11.6691 7.74526C12.7926 6.6218 14.3163 5.99064 15.9052 5.99064H48.8537V17.9719C48.8537 20.3552 49.8004 22.6408 51.4856 24.326C53.1708 26.0112 55.4564 26.9579 57.8397 26.9579H69.8209V83.869C69.8209 85.4578 69.1898 86.9815 68.0663 88.105C66.9429 89.2285 65.4191 89.8596 63.8303 89.8596H57.8397V95.8503H63.8303C67.0079 95.8503 70.0554 94.588 72.3024 92.341C74.5493 90.0941 75.8116 87.0466 75.8116 83.869Z" fill="#0D444B"/>
<path d="M26.0378 78.3276V74.9429H13.1279V95.8503H17.3214V87.0141H24.0009V83.6893H17.3214V78.3276H26.0378Z" fill="#0D444B"/>
<path d="M28.9348 85.3666C28.9348 83.3099 29.3941 81.4727 30.3127 79.8553C31.2512 78.2178 32.5192 76.9498 34.1167 76.0512C35.7342 75.1326 37.5414 74.6734 39.5382 74.6734C41.8746 74.6734 43.9214 75.2724 45.6787 76.4705C47.4359 77.6687 48.664 79.3261 49.3629 81.4428H44.5404C44.0612 80.4443 43.3822 79.6955 42.5036 79.1963C41.645 78.6971 40.6465 78.4475 39.5083 78.4475C38.2902 78.4475 37.2019 78.737 36.2434 79.3161C35.3049 79.8752 34.566 80.674 34.0269 81.7124C33.5077 82.7507 33.2481 83.9688 33.2481 85.3666C33.2481 86.7445 33.5077 87.9626 34.0269 89.0209C34.566 90.0593 35.3049 90.8681 36.2434 91.4472C37.2019 92.0063 38.2902 92.2858 39.5083 92.2858C40.6465 92.2858 41.645 92.0362 42.5036 91.537C43.3822 91.0178 44.0612 90.259 44.5404 89.2606H49.3629C48.664 91.3972 47.4359 93.0646 45.6787 94.2628C43.9414 95.4409 41.8946 96.03 39.5382 96.03C37.5414 96.03 35.7342 95.5807 34.1167 94.6821C32.5192 93.7635 31.2512 92.4955 30.3127 90.878C29.3941 89.2606 28.9348 87.4234 28.9348 85.3666Z" fill="#0D444B"/>
<path d="M4.19345 95.8503V74.9429H0V95.8503H4.19345Z" fill="#0D444B"/>
</svg>
