<svg width="16" height="16" viewBox="0 0 16 16" fill="none" xmlns="http://www.w3.org/2000/svg">
<path fill-rule="evenodd" clip-rule="evenodd" d="M15 8C15 11.866 11.866 15 8 15C4.13401 15 1 11.866 1 8C1 4.13401 4.13401 1 8 1C11.866 1 15 4.13401 15 8ZM16 8C16 12.4183 12.4183 16 8 16C3.58172 16 0 12.4183 0 8C0 3.58172 3.58172 0 8 0C12.4183 0 16 3.58172 16 8ZM8.42998 8.83L8.58997 4H7.08L7.25 8.83H8.42998ZM7.24 10.94C7.40666 11.0933 7.61666 11.17 7.86999 11.17C8.11665 11.17 8.31998 11.0933 8.47997 10.94C8.63997 10.78 8.71997 10.5833 8.71997 10.35C8.71997 10.1167 8.63997 9.92333 8.47997 9.77C8.31998 9.61 8.11665 9.53 7.86999 9.53C7.61666 9.53 7.40666 9.61 7.24 9.77C7.08 9.92333 7 10.1167 7 10.35C7 10.5833 7.08 10.78 7.24 10.94Z" fill="#D02F2F"/>
</svg>
