<svg width="17" height="17" viewBox="0 0 17 17" fill="none" xmlns="http://www.w3.org/2000/svg">
<path fill-rule="evenodd" clip-rule="evenodd" d="M6.62956 2.39669L8.20321 1.61471C8.3898 1.52283 8.61024 1.52281 8.79682 1.61471L13.9798 4.19025L12.1094 5.11973L6.62956 2.39669ZM4.61069 1.67204C4.56153 1.69057 4.51421 1.71404 4.46956 1.74217L1.73325 3.10191L2.03258 3.70059L2.03237 3.70048L1.73233 3.10237C0.977759 3.47544 0.500483 4.24112 0.500035 5.07878L0.500035 11.9099L0.500035 11.9123L1.27755 11.9123L0.500054 11.9069L0.500035 11.9099C0.495295 12.7482 0.968669 13.5171 1.72216 13.8944L1.72431 13.8954L7.50228 16.7667C8.12814 17.0778 8.86493 17.0778 9.49076 16.7665L15.2676 13.8959C16.0222 13.5228 16.4996 12.7571 16.5 11.9194L16.5 5.07837C16.4996 4.24071 16.0223 3.47544 15.2677 3.10236L15.2668 3.10191L9.49053 0.231554L9.48881 0.230703C8.86595 -0.076901 8.13409 -0.076901 7.51122 0.230703L7.5095 0.231556L4.61069 1.67204ZM4.89099 3.26063L10.3708 5.98366L8.49889 6.91384L3.0191 4.19081L4.89099 3.26063ZM2.05506 5.43963L7.72144 8.25538L7.72144 15.1477L2.42102 12.5138C2.19508 12.4002 2.0533 12.1693 2.05506 11.9176L2.05506 5.43963ZM9.27646 15.1452L9.27646 8.25532L14.945 5.43851L14.945 11.919C14.9448 12.1706 14.8015 12.4004 14.5748 12.5123L14.5731 12.5132L9.27646 15.1452Z" fill="#05454D"/>
</svg>
