<svg width="21" height="20" viewBox="0 0 21 20" fill="none" xmlns="http://www.w3.org/2000/svg">
<path d="M8.83333 10.8333L3.83333 10.8333C3.61232 10.8333 3.40036 10.9211 3.24408 11.0774C3.0878 11.2337 3 11.4457 3 11.6667L3 16.6667C3 16.8877 3.0878 17.0996 3.24408 17.2559C3.40036 17.4122 3.61232 17.5 3.83333 17.5L8.83333 17.5C9.05435 17.5 9.26631 17.4122 9.42259 17.2559C9.57887 17.0996 9.66667 16.8877 9.66667 16.6667L9.66667 11.6667C9.66667 11.4457 9.57887 11.2337 9.42259 11.0774C9.26631 10.9211 9.05435 10.8333 8.83333 10.8333ZM8 15.8333L4.66667 15.8333L4.66667 12.5L8 12.5L8 15.8333ZM17.1667 2.5L12.1667 2.5C11.9457 2.5 11.7337 2.5878 11.5774 2.74408C11.4211 2.90036 11.3333 3.11232 11.3333 3.33333L11.3333 8.33333C11.3333 8.55435 11.4211 8.76631 11.5774 8.92259C11.7337 9.07887 11.9457 9.16667 12.1667 9.16667L17.1667 9.16667C17.3877 9.16667 17.5996 9.07887 17.7559 8.92259C17.9122 8.76631 18 8.55435 18 8.33333L18 3.33333C18 3.11232 17.9122 2.90036 17.7559 2.74408C17.5996 2.5878 17.3877 2.5 17.1667 2.5ZM16.3333 7.5L13 7.5L13 4.16667L16.3333 4.16667L16.3333 7.5ZM17.1667 13.3333L15.5 13.3333L15.5 11.6667C15.5 11.4457 15.4122 11.2337 15.2559 11.0774C15.0996 10.9211 14.8877 10.8333 14.6667 10.8333C14.4457 10.8333 14.2337 10.9211 14.0774 11.0774C13.9211 11.2337 13.8333 11.4457 13.8333 11.6667L13.8333 13.3333L12.1667 13.3333C11.9457 13.3333 11.7337 13.4211 11.5774 13.5774C11.4211 13.7337 11.3333 13.9457 11.3333 14.1667C11.3333 14.3877 11.4211 14.5996 11.5774 14.7559C11.7337 14.9122 11.9457 15 12.1667 15L13.8333 15L13.8333 16.6667C13.8333 16.8877 13.9211 17.0996 14.0774 17.2559C14.2337 17.4122 14.4457 17.5 14.6667 17.5C14.8877 17.5 15.0996 17.4122 15.2559 17.2559C15.4122 17.0996 15.5 16.8877 15.5 16.6667L15.5 15L17.1667 15C17.3877 15 17.5996 14.9122 17.7559 14.7559C17.9122 14.5996 18 14.3877 18 14.1667C18 13.9457 17.9122 13.7337 17.7559 13.5774C17.5996 13.4211 17.3877 13.3333 17.1667 13.3333ZM8.83333 2.5L3.83333 2.5C3.61232 2.5 3.40036 2.5878 3.24408 2.74408C3.0878 2.90036 3 3.11232 3 3.33333L3 8.33333C3 8.55435 3.0878 8.76631 3.24408 8.92259C3.40036 9.07887 3.61232 9.16667 3.83333 9.16667L8.83333 9.16667C9.05435 9.16667 9.26631 9.07887 9.42259 8.92259C9.57887 8.76631 9.66667 8.55435 9.66667 8.33333L9.66667 3.33333C9.66667 3.11232 9.57887 2.90036 9.42259 2.74408C9.26631 2.5878 9.05435 2.5 8.83333 2.5ZM8 7.5L4.66667 7.5L4.66667 4.16667L8 4.16667L8 7.5Z" fill="#0D444B"/>
</svg>
