<?xml version="1.0" encoding="UTF-8"?>
<svg id="Layer_1" data-name="Layer 1" xmlns="http://www.w3.org/2000/svg" viewBox="0 0 104.42 90.371">
  <defs>
    <style>
      .cls-1 {
        fill: #000000;
      }

      .cls-2 {
        isolation: isolate;
      }
    </style>
  </defs>
  <path class="cls-1" d="m30.39,49.91c-1.05.7-2.44,1.05-4.11,1.05-1.95,0-3.49-.49-4.67-1.39-1.18-.91-1.81-2.09-1.88-3.55h-3.83c0,2.58.98,4.6,2.93,6.06,1.95,1.46,4.39,2.16,7.6,2.16,1.74,0,3.35-.28,4.81-.91,1.46-.63,2.58-1.46,3.42-2.58.84-1.12,1.25-2.37,1.25-3.83,0-1.67-.42-3-1.25-3.97-.84-.98-1.95-1.67-3.28-2.09-1.39-.42-3.14-.77-5.23-1.05-1.53-.21-2.65-.35-3.35-.49-.7-.14-1.32-.49-1.81-.91s-.7-1.05-.7-1.88c0-1.12.49-2.02,1.53-2.65,1.05-.63,2.3-1.05,3.97-1.05s2.93.42,3.97,1.25c1.05.84,1.67,1.88,1.81,3.14h3.83c-.21-2.44-1.19-4.32-2.93-5.65-1.74-1.32-4.04-1.95-6.9-1.95-1.74,0-3.28.28-4.67.91s-2.51,1.46-3.28,2.58-1.18,2.37-1.18,3.76c0,1.6.42,2.79,1.25,3.69.84.91,1.88,1.53,3.21,1.95,1.32.42,3,.77,5.09.98,1.46.21,2.65.35,3.42.56.77.21,1.46.56,1.95,1.05s.77,1.25.77,2.16c-.14,1.12-.7,2.02-1.74,2.65Z"/>
  <path class="cls-1" d="m42.45,20.98h-3.83v32.97h3.83s0-32.97,0-32.97Z"/>
  <path class="cls-1" d="m65.87,53.95v-15.61c0-2.79-.84-4.95-2.51-6.41-1.67-1.46-4.04-2.23-7.11-2.23-2.86,0-5.23.63-7.04,1.95-1.81,1.32-2.86,3.14-3.14,5.51h3.83c.28-1.25.91-2.23,2.02-2.93,1.12-.77,2.44-1.12,4.11-1.12,1.88,0,3.35.42,4.39,1.32,1.05.91,1.6,2.09,1.6,3.69v1.6h-7.11c-3.14,0-5.51.63-7.18,1.95-1.67,1.25-2.51,3.14-2.51,5.58,0,2.16.84,3.9,2.44,5.16,1.6,1.25,3.76,1.88,6.41,1.88,3.49,0,6.2-1.32,8.09-3.97v3.69h3.69v-.07l.02.01Zm-3.9-9.76c0,2.02-.7,3.69-2.02,4.95-1.32,1.25-3.21,1.88-5.58,1.88-1.6,0-2.86-.35-3.83-1.12-.98-.7-1.39-1.67-1.39-2.86,0-2.65,1.81-3.97,5.37-3.97h7.46v1.12h-.01Z"/>
  <path class="cls-1" d="m104.35,42.73c.07-.77.07-1.32.07-1.67-.07-2.3-.56-4.32-1.53-6.06-.98-1.74-2.3-3.07-3.97-3.97-1.67-.91-3.62-1.39-5.86-1.39s-4.18.49-5.92,1.53c-1.74,1.05-3.07,2.44-4.04,4.32-.98,1.88-1.46,3.97-1.46,6.48s.49,4.53,1.46,6.41c.98,1.88,2.37,3.35,4.18,4.32,1.81.98,3.9,1.53,6.27,1.53,2.72,0,5.02-.77,6.9-2.3,1.88-1.53,3.07-3.55,3.56-5.99h-3.9c-.42,1.53-1.19,2.72-2.44,3.62-1.25.91-2.65,1.32-4.39,1.32-2.23,0-4.04-.7-5.44-2.09-1.39-1.39-2.09-3.28-2.16-5.65v-.35h18.68v-.07l-.01.01Zm-16.03-7.88c1.39-1.18,3-1.81,4.81-1.81,2.02,0,3.76.56,5.09,1.67,1.32,1.12,2.09,2.72,2.3,4.74h-14.5c.14-1.88.91-3.42,2.3-4.6Z"/>
  <path class="cls-1" d="m74.93,47.89v-14.43h6.13v-3.55h-6.13v-6.76h-3.83v6.76h-4.32v3.55h4.32v14.43c0,3.35,2.72,6.13,6.13,6.13h4.6v-3.83h-4.6c-1.32-.07-2.3-1.05-2.3-2.3Z"/>
  <path class="cls-1" d="m71.1,68.8c0,1.25-1.05,2.23-2.23,2.23H6.13c-1.25,0-2.23-1.05-2.23-2.23V6.06c-.07-1.18.98-2.23,2.23-2.23h62.73c1.25,0,2.23,1.05,2.23,2.23v10.11h3.83V6.13c0-3.35-2.72-6.13-6.13-6.13H6.06C2.72,0,0,2.72,0,6.13v62.73c0,3.35,2.72,6.13,6.13,6.13h62.73c3.35,0,6.13-2.72,6.13-6.13v-7.95h-3.9v7.88l.01.01Z"/>
  <g class="cls-2">
    <g class="cls-2">
      <path class="cls-1" d="m5.356,82.684v-.899h1.104v-1.716h.983v1.716h1.547v.899h-1.547v3.609c0,.256.05.438.15.546.1.108.274.162.521.162h1.067v.899h-1.127c-.576,0-.985-.128-1.229-.384-.244-.256-.366-.659-.366-1.211v-3.622h-1.104Z"/>
    </g>
    <g class="cls-2">
      <path class="cls-1" d="m10.897,82.102c.439-.26.943-.39,1.511-.39.56,0,1.055.116,1.487.348.432.231.771.567,1.02,1.008.248.439.38.955.396,1.547,0,.088-.008.228-.024.42h-4.749v.084c.016.6.2,1.079.552,1.438.352.36.812.54,1.379.54.44,0,.813-.109,1.122-.33.308-.22.514-.525.618-.917h.996c-.12.624-.42,1.133-.9,1.529-.479.396-1.067.594-1.763.594-.608,0-1.14-.13-1.595-.39-.456-.261-.81-.628-1.062-1.104s-.378-1.021-.378-1.638c0-.623.122-1.171.366-1.643.244-.472.585-.838,1.025-1.098Zm2.812.905c-.34-.288-.77-.432-1.29-.432-.464,0-.872.152-1.223.456-.352.304-.552.699-.6,1.188h3.694c-.048-.521-.242-.924-.582-1.212Z"/>
      <path class="cls-1" d="m19.2,87.973c-.592,0-1.111-.132-1.559-.396-.448-.264-.796-.633-1.043-1.109-.248-.476-.372-1.021-.372-1.637s.126-1.159.378-1.631.606-.838,1.062-1.098.979-.39,1.571-.39c.719,0,1.313.191,1.781.575s.762.912.881,1.584h-.995c-.096-.393-.296-.704-.6-.936-.304-.232-.672-.349-1.104-.349-.583,0-1.058.208-1.421.624s-.545.955-.545,1.619c0,.672.182,1.218.545,1.637.364.42.838.63,1.421.63.448,0,.824-.116,1.127-.348s.5-.552.587-.96h.983c-.128.68-.428,1.214-.899,1.602s-1.071.582-1.799.582Z"/>
      <path class="cls-1" d="m28.522,84.494v3.406h-.984v-3.346c0-.632-.144-1.114-.432-1.445-.288-.332-.7-.498-1.235-.498-.567,0-1.017.2-1.349.6s-.498.943-.498,1.631v3.059h-.984v-8.396h.984v3.286c.2-.319.465-.579.797-.779s.738-.3,1.217-.3c.744,0,1.343.224,1.799.672.456.447.684,1.151.684,2.11Z"/>
      <path class="cls-1" d="m35.254,84.494v3.406h-.983v-3.346c0-.632-.142-1.114-.426-1.445-.284-.332-.694-.498-1.229-.498-.576,0-1.027.2-1.355.6-.328.399-.492.943-.492,1.631v3.059h-.984v-6.116h.852l.132.827c.463-.6,1.135-.899,2.015-.899.744,0,1.341.224,1.793.672.452.447.678,1.151.678,2.11Z"/>
      <path class="cls-1" d="m36.685,86.474c-.256-.473-.384-1.016-.384-1.632s.128-1.159.384-1.631.614-.84,1.074-1.104c.459-.264.985-.396,1.577-.396s1.117.132,1.577.396c.459.264.817.632,1.073,1.104s.384,1.016.384,1.631-.128,1.159-.384,1.632c-.256.472-.614.839-1.073,1.103-.46.265-.986.396-1.577.396s-1.118-.132-1.577-.396c-.46-.264-.818-.631-1.074-1.103Zm4.426-.468c.168-.344.252-.732.252-1.164s-.084-.819-.252-1.163-.406-.611-.714-.804c-.308-.191-.662-.288-1.061-.288s-.754.097-1.062.288c-.308.192-.546.46-.714.804-.167.344-.251.731-.251,1.163s.084.82.251,1.164c.168.344.406.611.714.803.308.192.662.288,1.062.288s.753-.096,1.061-.288c.308-.191.546-.459.714-.803Z"/>
      <path class="cls-1" d="m44.484,79.505v8.396h-.983v-8.396h.983Z"/>
      <path class="cls-1" d="m45.997,86.474c-.256-.473-.384-1.016-.384-1.632s.128-1.159.384-1.631.614-.84,1.074-1.104c.459-.264.985-.396,1.577-.396s1.117.132,1.577.396c.459.264.817.632,1.073,1.104s.384,1.016.384,1.631-.128,1.159-.384,1.632c-.256.472-.614.839-1.073,1.103-.46.265-.986.396-1.577.396s-1.118-.132-1.577-.396c-.46-.264-.818-.631-1.074-1.103Zm4.426-.468c.168-.344.252-.732.252-1.164s-.084-.819-.252-1.163-.406-.611-.714-.804c-.308-.191-.662-.288-1.061-.288s-.754.097-1.062.288c-.308.192-.546.46-.714.804-.167.344-.251.731-.251,1.163s.084.82.251,1.164c.168.344.406.611.714.803.308.192.662.288,1.062.288s.753-.096,1.061-.288c.308-.191.546-.459.714-.803Z"/>
      <path class="cls-1" d="m58.618,87.601c0,1.847-1.012,2.771-3.035,2.771-.791,0-1.437-.18-1.937-.54-.5-.359-.79-.871-.87-1.535h1.007c.08.384.284.68.612.888.327.208.747.312,1.259.312,1.319,0,1.979-.644,1.979-1.931v-.72c-.44.752-1.14,1.128-2.1,1.128-.567,0-1.073-.124-1.517-.372-.444-.248-.792-.607-1.044-1.079s-.378-1.032-.378-1.68c0-.615.126-1.159.378-1.631s.602-.84,1.05-1.104c.447-.264.951-.396,1.511-.396.496,0,.92.098,1.271.294.352.195.628.474.828.833l.132-1.055h.852v5.816Zm-1.224-1.577c.168-.34.252-.726.252-1.157,0-.439-.084-.834-.252-1.182s-.406-.617-.714-.81c-.308-.191-.657-.288-1.049-.288-.608,0-1.098.21-1.47.63s-.558.962-.558,1.625.186,1.206.558,1.625c.372.42.861.63,1.47.63.392,0,.741-.094,1.049-.281.308-.188.546-.452.714-.792Z"/>
      <path class="cls-1" d="m61.092,80.057c0,.184-.06.336-.18.456s-.271.18-.455.18c-.185,0-.336-.06-.456-.18s-.18-.272-.18-.456.06-.336.18-.456c.12-.119.271-.18.456-.18.184,0,.335.061.455.18.12.12.18.272.18.456Zm-.144,1.728v6.116h-.983v-6.116h.983Z"/>
    </g>
    <g class="cls-2">
      <path class="cls-1" d="m63.467,82.102c.439-.26.943-.39,1.512-.39.56,0,1.055.116,1.486.348.433.231.771.567,1.02,1.008.248.439.38.955.396,1.547,0,.088-.009.228-.024.42h-4.749v.084c.016.6.199,1.079.552,1.438.352.36.812.54,1.379.54.439,0,.813-.109,1.121-.33.308-.22.514-.525.618-.917h.995c-.12.624-.42,1.133-.899,1.529-.479.396-1.067.594-1.763.594-.608,0-1.14-.13-1.596-.39-.455-.261-.81-.628-1.062-1.104s-.378-1.021-.378-1.638c0-.623.122-1.171.366-1.643s.586-.838,1.025-1.098Zm2.812.905c-.34-.288-.77-.432-1.289-.432-.464,0-.872.152-1.224.456s-.552.699-.6,1.188h3.694c-.048-.521-.242-.924-.582-1.212Z"/>
    </g>
    <g class="cls-2">
      <path class="cls-1" d="m70.245,86.785c.308.231.705.348,1.193.348.432,0,.781-.086,1.049-.258.269-.172.402-.397.402-.678,0-.24-.064-.424-.192-.552s-.293-.216-.497-.264-.494-.096-.87-.144c-.527-.064-.959-.148-1.295-.252-.336-.104-.607-.271-.815-.498s-.312-.542-.312-.941c0-.36.102-.68.306-.96.203-.279.481-.497.833-.653.353-.156.748-.233,1.188-.233.72,0,1.306.168,1.757.503.452.336.702.816.75,1.439h-.983c-.04-.319-.196-.584-.468-.791-.272-.208-.611-.312-1.02-.312-.416,0-.752.086-1.008.258s-.384.398-.384.678c0,.208.061.368.181.479.119.112.273.188.461.229.188.04.474.084.857.132.536.063.978.151,1.326.264.348.112.627.292.839.54s.318.583.318,1.007c0,.368-.108.692-.324.972-.216.28-.508.496-.875.647-.368.152-.776.229-1.224.229-.8,0-1.441-.185-1.925-.552-.484-.368-.729-.88-.738-1.535h.984c.016.367.178.667.485.899Z"/>
    </g>
  </g>
</svg>