<svg width="24" height="24" viewBox="0 0 24 24" fill="none" xmlns="http://www.w3.org/2000/svg">
<path d="M16.0517 17.2539H8.93262V18.8359H16.0517V17.2539Z" fill="#BDBDBD"/>
<path d="M16.0517 11.7168H8.93262V14.0898H16.0517V11.7168Z" fill="#BDBDBD"/>
<path d="M8.14158 17.2539H3V18.8359H8.14158V17.2539Z" fill="#BDBDBD"/>
<path d="M6.16405 14.8811H3V16.4631H6.16405V14.8811Z" fill="#BDBDBD"/>
<path d="M12.0967 14.8811H6.95508V16.4631H12.0967V14.8811Z" fill="#BDBDBD"/>
<path d="M21.9844 14.8811H18.8203V16.4631H21.9844V14.8811Z" fill="#BDBDBD"/>
<path d="M18.0293 14.8811H12.8877V16.4631H18.0293V14.8811Z" fill="#BDBDBD"/>
<path d="M6.16405 19.627V22H3.39551C3.17798 22 3 21.822 3 21.6045V19.627H6.16405Z" fill="#BDBDBD"/>
<path d="M18.8203 22H21.5889C21.8064 22 21.9844 21.822 21.9844 21.6045V19.627H18.8203V22Z" fill="#BDBDBD"/>
<path d="M12.0967 19.627H6.95508V22H12.0967V19.627Z" fill="#BDBDBD"/>
<path d="M8.14158 11.7168V14.0898H3V12.1123C3 11.8948 3.17798 11.7168 3.39551 11.7168H8.14158Z" fill="#BDBDBD"/>
<path d="M18.0293 19.627H12.8877V22H18.0293V19.627Z" fill="#BDBDBD"/>
<path d="M21.9844 12.1123V14.0898H16.8428V11.7168H21.5889C21.8064 11.7168 21.9844 11.8948 21.9844 12.1123Z" fill="#BDBDBD"/>
<path d="M21.9844 17.2539H16.8428V18.8359H21.9844V17.2539Z" fill="#BDBDBD"/>
<path d="M6.16406 11.3214H10.1191C10.3367 11.3214 10.5146 11.1434 10.5146 10.9258V10.4512C10.3643 10.4315 10.214 10.4077 10.0598 10.384C9.41512 10.2733 8.88514 9.88171 8.59247 9.30822C8.41054 8.94436 8.3433 8.54885 8.39076 8.16125H6.16406C5.94653 8.16125 5.76855 8.33923 5.76855 8.55676V10.9298C5.76855 11.1473 5.94653 11.3214 6.16406 11.3214Z" fill="#BDBDBD"/>
<path d="M10.1903 9.60084C10.9022 9.71949 11.7447 9.82233 12.5199 9.82233C13.2239 9.82233 13.8725 9.73531 14.3273 9.50592C15.68 8.82169 16.2495 7.43742 15.7788 6.10852L16.7834 5.60227L16.9614 5.95427C17.0286 6.0927 17.171 6.1718 17.3134 6.1718C17.3727 6.1718 17.436 6.15598 17.4914 6.1283L21.3713 4.15867C21.5651 4.0598 21.6442 3.82249 21.5453 3.6287L20.8295 2.21674C20.782 2.12577 20.6989 2.05458 20.6001 2.01898C20.5012 1.98734 20.3944 1.99525 20.2995 2.04271L16.4196 4.01234C16.3246 4.0598 16.2534 4.14285 16.2218 4.24173C16.1902 4.34061 16.1981 4.44739 16.2455 4.54232L16.4235 4.89432L15.4229 5.40452C15.0788 4.90223 14.6042 4.53045 14.0505 4.34852C13.3425 4.11121 12.5713 4.18636 11.8238 4.56605C10.8627 5.05252 9.92138 6.62268 9.30044 7.84875C9.12642 8.20075 9.12642 8.60021 9.30044 8.94826C9.47842 9.30026 9.80273 9.53361 10.1903 9.60084Z" fill="#BDBDBD"/>
</svg>
