<svg id="Layer_1" data-name="Layer 1" xmlns="http://www.w3.org/2000/svg" viewBox="0 0 24 24"><defs><style>.cls-1{fill:#fff;}.cls-2{fill:#bdbdbd;fill-rule:evenodd;}</style></defs><path class="cls-1" d="M24,0H0V24H24Z"/><path class="cls-2" d="M9.23,4.77A4.46,4.46,0,0,1,12.92,3C16.06,3,17.49,5.59,18,6.53l-1.76.94C15.71,6.5,14.78,5,12.92,5a2.5,2.5,0,0,0-2.1,1A4.93,4.93,0,0,0,10,9v2h4v2H10v3a5,5,0,0,1-.95,3h9v2H6V19H5.83l0,0a1.3,1.3,0,0,0,.26-.1,4.06,4.06,0,0,0,.8-.53A3,3,0,0,0,8,16V13H6V11H8V9A6.92,6.92,0,0,1,9.23,4.77Z"/></svg>