<svg xmlns="http://www.w3.org/2000/svg" xmlns:xlink="http://www.w3.org/1999/xlink" viewBox="0 0 500 500"><defs><clipPath id="freepik--clip-path--inject-5"><path id="freepik--SVGID--inject-5" d="M373.15,144.33a191.52,191.52,0,0,0-105-44.7c-107-11-222.36,107.87-207.57,236.22,2.61,22.72,11.71,44,29.5,55.64,57.35,37.49,111.93-4.29,171.13-1.08,51.28,2.79,115.72,26,163.63-4.72C458,364.47,451.19,307.28,444.34,272,434.41,221,409.85,175.52,373.15,144.33Z" style="fill:none"></path></clipPath><clipPath id="freepik--clip-path-2--inject-5"><path d="M25.16,349.44v-182S104.93,243,253.58,240.09s232-78.46,232-78.46V365.39S358,334.93,241.25,338.56,24.44,365.39,24.44,365.39Z" style="fill:#37474F"></path></clipPath><clipPath id="freepik--clip-path-3--inject-5"><path d="M27.82,349.44s177.66-45.69,459.73,0v36.25S369.36,361,275.09,351.61,50.3,382.79,50.3,382.79L26.37,395.12Z" style="fill:#37474F"></path></clipPath><clipPath id="freepik--clip-path-4--inject-5"><path d="M485.62,232.68V191.87c-42.48,40-134.62,67.69-241.47,67.69-90.73,0-170.86-20-219-50.5v31.61c58,18.73,134.78,30.13,219,30.13C339.75,270.8,425.77,256.11,485.62,232.68Z" style="fill:#37474F"></path></clipPath><clipPath id="freepik--clip-path-5--inject-5"><path d="M27.82,282.73v30.46c66.26,1.85,140.54,2.89,219,2.89,87.45,0,169.71-1.29,241.47-3.56V278.21c-59.85,13.25-145.87,21.56-241.47,21.56C162.6,299.77,85.82,293.32,27.82,282.73Z" style="fill:#37474F"></path></clipPath><clipPath id="freepik--clip-path-6--inject-5"><path d="M232.15,242.07s-.27,1.9-1.9,8.16-3,13-1.36,16.31,3.81,7.89,3.81,7.89-3,15.5-3,20.94,1.08,20.93.27,23.11-8.16.82-15.23,1.09-14.68,8.7-19,11.42-15.77,7.61-20.12,7.61-11.42-.54-13.59,0-4.36,3.81-3.54,9,.27,10.87,1.63,14.68,1.91,6,5.17,6.53,8.7-.55,8.43-1.91-3.54-2.72-3.54-4.62,5.71-10.33,7.62-11.69,31.54-9.52,43.51-13.6,18.76-2.72,22.84-6.8,12.51-30.45,17.4-43.23c3.74-9.76,9.07-12.14,10.7-24.36.5-3.78.5-19.2.18-22.41C272.4,240.17,256.9,244.52,232.15,242.07Z" style="fill:#fff;stroke:#263238;stroke-linecap:round;stroke-linejoin:round"></path></clipPath><clipPath id="freepik--clip-path-7--inject-5"><path d="M245.48,246.69s16.31,2.18,29.09,9.25,34.27,27.73,40.25,31.54,6,6,6,7.07.27,44.6,1.09,50.31,1.36,10.6,3.26,13.86,4.9,5.44,8.7,7.07,6.26,3.81,5.71,4.9-4.89,2.45-10.87,2.45-13.06-3-16.32-4.08-8.7-3.54-8.7-5.44,3.26-7.34,4.62-9.52,1.91-14.68-.54-20.66-7.07-12.24-7.07-17.95,1.63-12.78,1.63-13.6-7.89-4.08-18.22-6.8-24.2-6-34-12.5a63.84,63.84,0,0,1-14.68-13.06" style="fill:#fff;stroke:#263238;stroke-linecap:round;stroke-linejoin:round"></path></clipPath><clipPath id="freepik--clip-path-8--inject-5"><path d="M198.16,227.11l-1.9,6.8s-4.08,5.44-4.35,10.06-3.27,26.65-3.27,27.47-4.07,9.79-1.9,12,5.71,0,7.61-4.89,2.45-9.52,4.08-12.24a185.66,185.66,0,0,0,9.25-21.75,140.66,140.66,0,0,0,2.72-14.14Z" style="fill:#fff;stroke:#263238;stroke-linecap:round;stroke-linejoin:round"></path></clipPath><clipPath id="freepik--clip-path-9--inject-5"><path d="M242.11,141.45s2.74,2.43,2.74,3.65a7.5,7.5,0,0,0,1.22,3.05s4.57.91,4.57,2.43-2.44,4.27-2.44,4.27,1.83,7.92,2.13,10.05-4.26,4.26-6.39,4.57l-2.13.3s3,23.76.3,24.06-21-14.31-21-14.31l-.31-8.23-9.14-14s-2.43-9.13,10.36-17.05S242.11,141.45,242.11,141.45Z" style="fill:#fff;stroke:#263238;stroke-linecap:round;stroke-linejoin:round"></path></clipPath><clipPath id="freepik--clip-path-10--inject-5"><path d="M279.88,175.86s-7.21-1.23-12.49,7.31c-2.15,3.48,4.57,8.23,4.57,8.23v4.87c0,1.22-.31,7.61-.31,7.61l11.27-6.09s5.18-7,4.88-12.18S284.14,175.86,279.88,175.86Z" style="fill:#fff;stroke:#263238;stroke-linecap:round;stroke-linejoin:round"></path></clipPath></defs><g id="freepik--background-simple--inject-5"><path d="M373.15,144.33a191.52,191.52,0,0,0-105-44.7c-4.49-.46-9-.68-13.53-.69l-1.62,0c-102.46.9-206.51,114.62-192.42,236.93,2.61,22.72,11.71,44,29.5,55.64a93.26,93.26,0,0,0,45.7,15.45c39-2.14,78-16.72,118.84-16.7h1.07c2.17,0,4.34.07,6.53.17,33.34,1.58,71.51,9.64,108.37,10.86,19.24-.82,37.73-5,54.25-15.58C458,364.47,451.19,307.28,444.34,272,434.41,221,409.85,175.52,373.15,144.33Z" style="fill:#37474F"></path><path d="M373.15,144.33a191.52,191.52,0,0,0-105-44.7c-4.49-.46-9-.68-13.53-.69l-1.62,0c-102.46.9-206.51,114.62-192.42,236.93,2.61,22.72,11.71,44,29.5,55.64a93.26,93.26,0,0,0,45.7,15.45c39-2.14,78-16.72,118.84-16.7h1.07c2.17,0,4.34.07,6.53.17,33.34,1.58,71.51,9.64,108.37,10.86,19.24-.82,37.73-5,54.25-15.58C458,364.47,451.19,307.28,444.34,272,434.41,221,409.85,175.52,373.15,144.33Z" style="fill:#fff;opacity:0.7000000000000001"></path></g><g id="freepik--Stadium--inject-5"><g style="clip-path:url(#freepik--clip-path--inject-5)"><path d="M457.74,131.44C447,186.57,357.92,229.6,249.6,229.6,143,229.6,54.93,187.89,42,134" style="fill:none;stroke:#263238;stroke-linecap:round;stroke-linejoin:round;stroke-width:2px"></path><polyline points="474.22 172.97 433.12 172.97 441.76 192.56 406.05 192.56 409.5 209.27 371.48 209.27 381.28 221.94 334.62 220.79 339.8 233.46 308.01 227.11 311.57 239.8 283.35 228.85 285.65 242.68 246.44 230.58 212.91 242.68 215.21 228.85 186.99 239.8 190.55 227.11 158.76 233.46 163.94 220.79 117.28 221.94 127.08 209.27 89.06 209.27 92.51 192.56 56.8 192.56 65.44 172.97 29.15 172.97" style="fill:none;stroke:#263238;stroke-linecap:round;stroke-linejoin:round;stroke-width:2px"></polyline><path d="M25.16,349.44v-182S104.93,243,253.58,240.09s232-78.46,232-78.46V365.39S358,334.93,241.25,338.56,24.44,365.39,24.44,365.39Z" style="fill:#37474F"></path><g style="clip-path:url(#freepik--clip-path-2--inject-5)"><path d="M25.16,349.44v-182S104.93,243,253.58,240.09s232-78.46,232-78.46V365.39S358,334.93,241.25,338.56,24.44,365.39,24.44,365.39Z" style="opacity:0.30000000000000004"></path></g><path d="M81,267.41A2.45,2.45,0,1,1,78.55,265,2.45,2.45,0,0,1,81,267.41Z" style="fill:#fff"></path><path d="M87,277.47A2.45,2.45,0,1,1,84.53,275,2.45,2.45,0,0,1,87,277.47Z" style="fill:#fff"></path><path d="M99.49,274.48a3,3,0,1,1-3-3A3,3,0,0,1,99.49,274.48Z" style="fill:#fff"></path><path d="M69.85,263.6a3,3,0,1,1-3-3A3,3,0,0,1,69.85,263.6Z" style="fill:#fff"></path><path d="M70.94,276.92a3,3,0,1,1-3-3A3,3,0,0,1,70.94,276.92Z" style="fill:#fff"></path><path d="M95.41,266.05a3,3,0,1,1-3-3A3,3,0,0,1,95.41,266.05Z" style="fill:#fff"></path><circle cx="39.94" cy="263.06" r="2.45" style="fill:#fff"></circle><path d="M48.37,273.12a2.45,2.45,0,1,1-2.45-2.45A2.45,2.45,0,0,1,48.37,273.12Z" style="fill:#fff"></path><circle cx="57.88" cy="270.13" r="2.99" style="fill:#fff"></circle><path d="M31.23,259.25a3,3,0,1,1-3-3A3,3,0,0,1,31.23,259.25Z" style="fill:#fff"></path><circle cx="29.33" cy="272.57" r="2.99" style="fill:#fff"></circle><circle cx="53.8" cy="261.7" r="2.99" style="fill:#fff"></circle><circle cx="121.79" cy="273.39" r="2.45" style="fill:#fff"></circle><path d="M130.22,283.45a2.45,2.45,0,1,1-2.45-2.45A2.45,2.45,0,0,1,130.22,283.45Z" style="fill:#fff"></path><path d="M142.72,280.46a3,3,0,1,1-3-3A3,3,0,0,1,142.72,280.46Z" style="fill:#fff"></path><circle cx="110.09" cy="269.58" r="2.99" style="fill:#fff"></circle><circle cx="111.18" cy="282.91" r="2.99" style="fill:#fff"></circle><path d="M138.65,272a3,3,0,1,1-3-3A3,3,0,0,1,138.65,272Z" style="fill:#fff"></path><circle cx="165.29" cy="276.65" r="2.45" style="fill:#fff"></circle><path d="M173.72,286.71a2.45,2.45,0,1,1-2.44-2.44A2.44,2.44,0,0,1,173.72,286.71Z" style="fill:#fff"></path><path d="M186.23,283.72a3,3,0,1,1-3-3A3,3,0,0,1,186.23,283.72Z" style="fill:#fff"></path><path d="M156.59,272.85a3,3,0,1,1-3-3A3,3,0,0,1,156.59,272.85Z" style="fill:#fff"></path><circle cx="154.69" cy="286.17" r="2.99" style="fill:#fff"></circle><path d="M182.15,275.29a3,3,0,1,1-3-3A3,3,0,0,1,182.15,275.29Z" style="fill:#fff"></path><path d="M204.31,281.39a2,2,0,1,1-2-2A2,2,0,0,1,204.31,281.39Z" style="fill:#fff"></path><path d="M209.19,289.61a2,2,0,1,1-2-2A2,2,0,0,1,209.19,289.61Z" style="fill:#fff"></path><circle cx="216.97" cy="287.17" r="2.44" style="fill:#fff"></circle><circle cx="192.75" cy="278.28" r="2.44" style="fill:#fff"></circle><circle cx="193.64" cy="289.16" r="2.44" style="fill:#fff"></circle><circle cx="213.64" cy="280.28" r="2.44" style="fill:#fff"></circle><path d="M247.94,283.73a1.87,1.87,0,1,1-1.87-1.87A1.87,1.87,0,0,1,247.94,283.73Z" style="fill:#fff"></path><path d="M252.49,291.38a1.87,1.87,0,1,1-1.87-1.86A1.87,1.87,0,0,1,252.49,291.38Z" style="fill:#fff"></path><path d="M262,289.1a2.28,2.28,0,1,1-2.28-2.27A2.28,2.28,0,0,1,262,289.1Z" style="fill:#fff"></path><path d="M239.46,280.83a2.28,2.28,0,1,1-2.28-2.27A2.28,2.28,0,0,1,239.46,280.83Z" style="fill:#fff"></path><circle cx="238.01" cy="290.96" r="2.27" style="fill:#fff"></circle><circle cx="256.62" cy="282.69" r="2.27" style="fill:#fff"></circle><path d="M285.94,285.1a2,2,0,1,1-2-2A2,2,0,0,1,285.94,285.1Z" style="fill:#fff"></path><path d="M290.83,293.32a2,2,0,1,1-2-2A2,2,0,0,1,290.83,293.32Z" style="fill:#fff"></path><circle cx="298.61" cy="290.88" r="2.44" style="fill:#fff"></circle><circle cx="274.39" cy="282" r="2.44" style="fill:#fff"></circle><circle cx="275.28" cy="292.88" r="2.44" style="fill:#fff"></circle><circle cx="295.27" cy="283.99" r="2.44" style="fill:#fff"></circle><path d="M330.08,281.27a2.45,2.45,0,1,1-2.45-2.44A2.44,2.44,0,0,1,330.08,281.27Z" style="fill:#fff"></path><path d="M336.06,291.34a2.45,2.45,0,1,1-2.44-2.45A2.44,2.44,0,0,1,336.06,291.34Z" style="fill:#fff"></path><path d="M348.57,288.34a3,3,0,1,1-3-3A3,3,0,0,1,348.57,288.34Z" style="fill:#fff"></path><circle cx="315.94" cy="277.47" r="2.99" style="fill:#fff"></circle><circle cx="317.03" cy="290.79" r="2.99" style="fill:#fff"></circle><circle cx="341.5" cy="279.92" r="2.99" style="fill:#fff"></circle><circle cx="376.48" cy="281.89" r="2.45" style="fill:#fff"></circle><circle cx="369.88" cy="272.22" r="2.45" transform="translate(-78.65 370.9) rotate(-48.76)" style="fill:#fff"></circle><path d="M355.14,276.13a3,3,0,1,1,3.17,2.8A3,3,0,0,1,355.14,276.13Z" style="fill:#fff"></path><path d="M385.4,285.15a3,3,0,1,1,3.17,2.8A3,3,0,0,1,385.4,285.15Z" style="fill:#fff"></path><path d="M383.49,271.92a3,3,0,1,1,3.17,2.8A3,3,0,0,1,383.49,271.92Z" style="fill:#fff"></path><path d="M359.74,284.29a3,3,0,1,1,3.17,2.8A3,3,0,0,1,359.74,284.29Z" style="fill:#fff"></path><path d="M415.14,274.41a2.45,2.45,0,1,1,2.64,2.25A2.46,2.46,0,0,1,415.14,274.41Z" style="fill:#fff"></path><path d="M408.39,264.86A2.45,2.45,0,1,1,411,267.1,2.45,2.45,0,0,1,408.39,264.86Z" style="fill:#fff"></path><path d="M396.15,268.82a3,3,0,1,1,3.22,2.75A3,3,0,0,1,396.15,268.82Z" style="fill:#fff"></path><path d="M426.56,277.33a3,3,0,1,1,3.22,2.75A3,3,0,0,1,426.56,277.33Z" style="fill:#fff"></path><path d="M424.42,264.13a3,3,0,1,1,3.22,2.75A3,3,0,0,1,424.42,264.13Z" style="fill:#fff"></path><path d="M400.88,276.91a3,3,0,1,1,3.22,2.74A3,3,0,0,1,400.88,276.91Z" style="fill:#fff"></path><g style="opacity:0.42"><path d="M426.36,274.05a2.45,2.45,0,1,1,2.63,2.24A2.45,2.45,0,0,1,426.36,274.05Z" style="fill:#fff"></path><path d="M419.6,264.49a2.45,2.45,0,1,1,2.63,2.24A2.44,2.44,0,0,1,419.6,264.49Z" style="fill:#fff"></path><path d="M407.37,268.46a3,3,0,1,1,3.21,2.74A3,3,0,0,1,407.37,268.46Z" style="fill:#fff"></path><path d="M437.77,277a3,3,0,1,1,3.22,2.75A3,3,0,0,1,437.77,277Z" style="fill:#fff"></path><path d="M435.64,263.77a3,3,0,1,1,3.22,2.74A3,3,0,0,1,435.64,263.77Z" style="fill:#fff"></path><path d="M412.1,276.54a3,3,0,1,1,3.22,2.74A3,3,0,0,1,412.1,276.54Z" style="fill:#fff"></path></g><g style="opacity:0.42"><circle cx="377.3" cy="270.64" r="2.45" transform="translate(35.33 584.73) rotate(-78.22)" style="fill:#fff"></circle><path d="M386.73,279.77a2.44,2.44,0,1,1-2.68-2.18A2.44,2.44,0,0,1,386.73,279.77Z" style="fill:#fff"></path><path d="M398.86,275.49a3,3,0,1,1-3.28-2.66A3,3,0,0,1,398.86,275.49Z" style="fill:#fff"></path><path d="M368.25,267.75a3,3,0,1,1-3.28-2.66A3,3,0,0,1,368.25,267.75Z" style="fill:#fff"></path><path d="M370.72,280.89a3,3,0,1,1-3.29-2.66A3,3,0,0,1,370.72,280.89Z" style="fill:#fff"></path><path d="M393.93,267.53a3,3,0,1,1-3.29-2.66A3,3,0,0,1,393.93,267.53Z" style="fill:#fff"></path></g><g style="opacity:0.42"><path d="M131.2,275.31a2.45,2.45,0,1,1-2.69-2.18A2.45,2.45,0,0,1,131.2,275.31Z" style="fill:#fff"></path><path d="M138.19,284.7a2.45,2.45,0,1,1-2.69-2.18A2.44,2.44,0,0,1,138.19,284.7Z" style="fill:#fff"></path><path d="M150.32,280.42a3,3,0,1,1-3.28-2.66A3,3,0,0,1,150.32,280.42Z" style="fill:#fff"></path><path d="M119.71,272.69a3,3,0,1,1-3.28-2.67A3,3,0,0,1,119.71,272.69Z" style="fill:#fff"></path><path d="M122.18,285.82a3,3,0,1,1-3.29-2.66A3,3,0,0,1,122.18,285.82Z" style="fill:#fff"></path><circle cx="142.41" cy="272.77" r="2.99" transform="translate(-161.78 226.37) rotate(-53.76)" style="fill:#fff"></circle></g><g style="opacity:0.42"><path d="M87.42,270.51a2.45,2.45,0,1,1-2.69-2.18A2.45,2.45,0,0,1,87.42,270.51Z" style="fill:#fff"></path><path d="M94.41,279.89a2.45,2.45,0,1,1-2.69-2.18A2.44,2.44,0,0,1,94.41,279.89Z" style="fill:#fff"></path><path d="M106.54,275.62a3,3,0,1,1-3.28-2.67A3,3,0,0,1,106.54,275.62Z" style="fill:#fff"></path><path d="M75.93,267.88a3,3,0,1,1-3.29-2.66A3,3,0,0,1,75.93,267.88Z" style="fill:#fff"></path><path d="M78.4,281a3,3,0,1,1-3.29-2.66A3,3,0,0,1,78.4,281Z" style="fill:#fff"></path><path d="M101.61,267.66A3,3,0,1,1,98.32,265,3,3,0,0,1,101.61,267.66Z" style="fill:#fff"></path></g><g style="opacity:0.42"><path d="M46.35,265a2.44,2.44,0,1,1-2.68-2.18A2.44,2.44,0,0,1,46.35,265Z" style="fill:#fff"></path><path d="M53.35,274.36a2.45,2.45,0,1,1-2.69-2.18A2.44,2.44,0,0,1,53.35,274.36Z" style="fill:#fff"></path><path d="M65.48,270.09a3,3,0,1,1-3.29-2.67A3,3,0,0,1,65.48,270.09Z" style="fill:#fff"></path><circle cx="31.9" cy="262.66" r="2.99" style="fill:#fff"></circle><path d="M37.34,275.49a3,3,0,1,1-3.29-2.66A3,3,0,0,1,37.34,275.49Z" style="fill:#fff"></path><path d="M60.55,262.13a3,3,0,1,1-3.29-2.67A3,3,0,0,1,60.55,262.13Z" style="fill:#fff"></path></g><g style="opacity:0.42"><path d="M453.48,254.76a2.45,2.45,0,1,1-2.69-2.18A2.45,2.45,0,0,1,453.48,254.76Z" style="fill:#fff"></path><path d="M460.48,264.14a2.45,2.45,0,1,1-2.69-2.18A2.45,2.45,0,0,1,460.48,264.14Z" style="fill:#fff"></path><circle cx="469.63" cy="260.18" r="2.99" style="fill:#fff"></circle><path d="M442,252.13a3,3,0,1,1-3.29-2.66A3,3,0,0,1,442,252.13Z" style="fill:#fff"></path><circle cx="441.49" cy="265.58" r="2.99" style="fill:#fff"></circle><path d="M467.68,251.91a3,3,0,1,1-3.29-2.67A3,3,0,0,1,467.68,251.91Z" style="fill:#fff"></path></g><g style="opacity:0.42"><path d="M339,275.11a2.45,2.45,0,1,1-2.69-2.18A2.45,2.45,0,0,1,339,275.11Z" style="fill:#fff"></path><path d="M346,284.5a2.45,2.45,0,1,1-2.69-2.18A2.45,2.45,0,0,1,346,284.5Z" style="fill:#fff"></path><path d="M358.11,280.22a3,3,0,1,1-3.28-2.66A3,3,0,0,1,358.11,280.22Z" style="fill:#fff"></path><path d="M327.5,272.49a3,3,0,1,1-3.28-2.67A3,3,0,0,1,327.5,272.49Z" style="fill:#fff"></path><path d="M330,285.63a3,3,0,1,1-3.29-2.67A3,3,0,0,1,330,285.63Z" style="fill:#fff"></path><circle cx="350.2" cy="272.57" r="2.99" style="fill:#fff"></circle></g><g style="opacity:0.42"><path d="M290.74,281.8a2,2,0,1,1-2.2-1.78A2,2,0,0,1,290.74,281.8Z" style="fill:#fff"></path><path d="M296.47,289.49a2,2,0,1,1-2.2-1.78A2,2,0,0,1,296.47,289.49Z" style="fill:#fff"></path><path d="M306.41,286a2.45,2.45,0,1,1-2.69-2.18A2.45,2.45,0,0,1,306.41,286Z" style="fill:#fff"></path><path d="M281.34,279.65a2.45,2.45,0,1,1-2.69-2.18A2.45,2.45,0,0,1,281.34,279.65Z" style="fill:#fff"></path><path d="M283.36,290.42a2.45,2.45,0,1,1-2.69-2.19A2.45,2.45,0,0,1,283.36,290.42Z" style="fill:#fff"></path><path d="M302.37,279.47a2.45,2.45,0,1,1-2.69-2.18A2.45,2.45,0,0,1,302.37,279.47Z" style="fill:#fff"></path></g><g style="opacity:0.42"><path d="M205.42,283.19a2,2,0,1,1-1.77-2.21A2,2,0,0,1,205.42,283.19Z" style="fill:#fff"></path><path d="M209.39,291.92a2,2,0,1,1-1.77-2.21A2,2,0,0,1,209.39,291.92Z" style="fill:#fff"></path><circle cx="217.41" cy="290.34" r="2.45" style="fill:#fff"></circle><path d="M196.69,279.09a2.45,2.45,0,1,1-2.17-2.71A2.45,2.45,0,0,1,196.69,279.09Z" style="fill:#fff"></path><circle cx="193.94" cy="289.77" r="2.45" transform="translate(-138.22 183.71) rotate(-38.5)" style="fill:#fff"></circle><circle cx="214.84" cy="283.11" r="2.45" style="fill:#fff"></circle></g><g style="opacity:0.42"><path d="M167.41,279.25a2,2,0,1,1-1.77-2.21A2,2,0,0,1,167.41,279.25Z" style="fill:#fff"></path><path d="M171.38,288a2,2,0,1,1-1.77-2.21A2,2,0,0,1,171.38,288Z" style="fill:#fff"></path><circle cx="179.4" cy="286.4" r="2.45" style="fill:#fff"></circle><circle cx="156.24" cy="274.88" r="2.45" style="fill:#fff"></circle><circle cx="155.93" cy="285.83" r="2.45" style="fill:#fff"></circle><circle cx="176.83" cy="279.17" r="2.45" style="fill:#fff"></circle></g><path d="M450,260.06a2.45,2.45,0,1,1-2.45-2.44A2.45,2.45,0,0,1,450,260.06Z" style="fill:#fff"></path><path d="M456,270.13a2.45,2.45,0,1,1-2.45-2.45A2.44,2.44,0,0,1,456,270.13Z" style="fill:#fff"></path><path d="M468.49,267.13a3,3,0,1,1-3-3A3,3,0,0,1,468.49,267.13Z" style="fill:#fff"></path><path d="M438.85,256.26a3,3,0,1,1-3-3A3,3,0,0,1,438.85,256.26Z" style="fill:#fff"></path><path d="M439.94,269.58a3,3,0,1,1-3-3A3,3,0,0,1,439.94,269.58Z" style="fill:#fff"></path><path d="M464.41,258.71a3,3,0,1,1-3-3A3,3,0,0,1,464.41,258.71Z" style="fill:#fff"></path><path d="M79.81,321.74a2.45,2.45,0,1,1-2.75-2.11A2.46,2.46,0,0,1,79.81,321.74Z" style="fill:#fff"></path><path d="M87.05,330.93a2.45,2.45,0,1,1-2.74-2.1A2.45,2.45,0,0,1,87.05,330.93Z" style="fill:#fff"></path><circle cx="96.1" cy="326.72" r="2.99" transform="translate(-221.66 204.21) rotate(-52.53)" style="fill:#fff"></circle><path d="M68.25,319.43a3,3,0,1,1-3.35-2.58A3,3,0,0,1,68.25,319.43Z" style="fill:#fff"></path><path d="M71.08,332.49a3,3,0,1,1-3.36-2.57A3,3,0,0,1,71.08,332.49Z" style="fill:#fff"></path><path d="M93.92,318.5a3,3,0,1,1-3.36-2.57A3,3,0,0,1,93.92,318.5Z" style="fill:#fff"></path><path d="M41,322.48a2.45,2.45,0,1,1-2.75-2.1A2.46,2.46,0,0,1,41,322.48Z" style="fill:#fff"></path><path d="M48.2,331.68a2.45,2.45,0,1,1-2.74-2.11A2.43,2.43,0,0,1,48.2,331.68Z" style="fill:#fff"></path><path d="M60.21,327.07a3,3,0,1,1-3.35-2.57A3,3,0,0,1,60.21,327.07Z" style="fill:#fff"></path><path d="M29.4,320.17a3,3,0,1,1-3.35-2.57A3,3,0,0,1,29.4,320.17Z" style="fill:#fff"></path><path d="M32.23,333.24a3,3,0,1,1-3.36-2.58A3,3,0,0,1,32.23,333.24Z" style="fill:#fff"></path><path d="M55.07,319.25a3,3,0,1,1-3.36-2.57A3,3,0,0,1,55.07,319.25Z" style="fill:#fff"></path><path d="M123.45,322a2.45,2.45,0,1,1-2.74-2.11A2.45,2.45,0,0,1,123.45,322Z" style="fill:#fff"></path><path d="M130.7,331.2a2.45,2.45,0,1,1-2.75-2.11A2.45,2.45,0,0,1,130.7,331.2Z" style="fill:#fff"></path><path d="M142.71,326.6a3,3,0,1,1-3.36-2.58A3,3,0,0,1,142.71,326.6Z" style="fill:#fff"></path><path d="M111.9,319.69a3,3,0,1,1-3.36-2.57A3,3,0,0,1,111.9,319.69Z" style="fill:#fff"></path><path d="M114.73,332.76a3,3,0,1,1-3.36-2.57A3,3,0,0,1,114.73,332.76Z" style="fill:#fff"></path><path d="M137.56,318.77a3,3,0,1,1-3.35-2.57A3,3,0,0,1,137.56,318.77Z" style="fill:#fff"></path><path d="M167,319.54a2.45,2.45,0,1,1-2.74-2.1A2.45,2.45,0,0,1,167,319.54Z" style="fill:#fff"></path><path d="M174.26,328.74a2.45,2.45,0,1,1-2.74-2.11A2.43,2.43,0,0,1,174.26,328.74Z" style="fill:#fff"></path><path d="M186.27,324.13a3,3,0,1,1-3.36-2.57A3,3,0,0,1,186.27,324.13Z" style="fill:#fff"></path><path d="M155.46,317.23a3,3,0,1,1-3.35-2.57A3,3,0,0,1,155.46,317.23Z" style="fill:#fff"></path><path d="M158.29,330.3a3,3,0,1,1-3.36-2.58A3,3,0,0,1,158.29,330.3Z" style="fill:#fff"></path><path d="M181.12,316.31a3,3,0,1,1-3.35-2.57A3,3,0,0,1,181.12,316.31Z" style="fill:#fff"></path><path d="M203.88,319.45a2,2,0,1,1-2.24-1.72A2,2,0,0,1,203.88,319.45Z" style="fill:#fff"></path><path d="M209.81,327a2,2,0,1,1-2.25-1.72A2,2,0,0,1,209.81,327Z" style="fill:#fff"></path><path d="M219.62,323.2a2.45,2.45,0,1,1-2.75-2.1A2.45,2.45,0,0,1,219.62,323.2Z" style="fill:#fff"></path><path d="M194.45,317.56a2.45,2.45,0,1,1-2.75-2.1A2.45,2.45,0,0,1,194.45,317.56Z" style="fill:#fff"></path><path d="M196.75,328.24a2.44,2.44,0,1,1-2.74-2.11A2.44,2.44,0,0,1,196.75,328.24Z" style="fill:#fff"></path><path d="M215.41,316.81a2.44,2.44,0,1,1-2.74-2.1A2.43,2.43,0,0,1,215.41,316.81Z" style="fill:#fff"></path><path d="M247.94,320.6a1.87,1.87,0,1,1-1.87-1.86A1.87,1.87,0,0,1,247.94,320.6Z" style="fill:#fff"></path><path d="M252.49,328.25a1.87,1.87,0,1,1-1.87-1.86A1.87,1.87,0,0,1,252.49,328.25Z" style="fill:#fff"></path><path d="M262,326a2.28,2.28,0,1,1-2.28-2.27A2.28,2.28,0,0,1,262,326Z" style="fill:#fff"></path><path d="M239.46,317.7a2.28,2.28,0,1,1-2.28-2.27A2.28,2.28,0,0,1,239.46,317.7Z" style="fill:#fff"></path><circle cx="238.01" cy="327.84" r="2.27" style="fill:#fff"></circle><path d="M258.9,319.56a2.28,2.28,0,1,1-2.28-2.27A2.28,2.28,0,0,1,258.9,319.56Z" style="fill:#fff"></path><path d="M285.94,322a2,2,0,1,1-2-2A2,2,0,0,1,285.94,322Z" style="fill:#fff"></path><path d="M290.83,330.2a2,2,0,1,1-2-2A2,2,0,0,1,290.83,330.2Z" style="fill:#fff"></path><circle cx="298.61" cy="327.75" r="2.44" style="fill:#fff"></circle><circle cx="274.39" cy="318.87" r="2.44" style="fill:#fff"></circle><circle cx="275.28" cy="329.75" r="2.44" style="fill:#fff"></circle><circle cx="295.27" cy="320.87" r="2.44" style="fill:#fff"></circle><path d="M330.08,318.15a2.45,2.45,0,1,1-2.45-2.45A2.44,2.44,0,0,1,330.08,318.15Z" style="fill:#fff"></path><path d="M336.06,328.21a2.45,2.45,0,1,1-2.44-2.45A2.44,2.44,0,0,1,336.06,328.21Z" style="fill:#fff"></path><path d="M348.57,325.22a3,3,0,1,1-3-3A3,3,0,0,1,348.57,325.22Z" style="fill:#fff"></path><circle cx="315.94" cy="314.34" r="2.99" style="fill:#fff"></circle><circle cx="317.03" cy="327.66" r="2.99" style="fill:#fff"></circle><path d="M344.49,316.79a3,3,0,1,1-3-3A3,3,0,0,1,344.49,316.79Z" style="fill:#fff"></path><path d="M374,331.61a2.44,2.44,0,1,1,2.17,2.7A2.44,2.44,0,0,1,374,331.61Z" style="fill:#fff"></path><path d="M369.15,321a2.45,2.45,0,1,1,2.17,2.7A2.45,2.45,0,0,1,369.15,321Z" style="fill:#fff"></path><path d="M356.39,322.58a3,3,0,1,1,2.65,3.3A3,3,0,0,1,356.39,322.58Z" style="fill:#fff"></path><path d="M384.68,336.61a3,3,0,1,1,2.65,3.3A3,3,0,0,1,384.68,336.61Z" style="fill:#fff"></path><path d="M385,323.25a3,3,0,1,1,2.65,3.29A3,3,0,0,1,385,323.25Z" style="fill:#fff"></path><path d="M359.53,331.4a3,3,0,1,1,2.65,3.3A3,3,0,0,1,359.53,331.4Z" style="fill:#fff"></path><path d="M415.81,331.08a2.45,2.45,0,1,1,2.22,2.67A2.46,2.46,0,0,1,415.81,331.08Z" style="fill:#fff"></path><path d="M410.78,320.52a2.45,2.45,0,1,1,2.21,2.66A2.46,2.46,0,0,1,410.78,320.52Z" style="fill:#fff"></path><path d="M398.05,322.35a3,3,0,1,1,2.71,3.25A3,3,0,0,1,398.05,322.35Z" style="fill:#fff"></path><path d="M426.57,335.9a3,3,0,1,1,2.7,3.25A3,3,0,0,1,426.57,335.9Z" style="fill:#fff"></path><path d="M426.71,322.53a3,3,0,1,1,2.7,3.25A3,3,0,0,1,426.71,322.53Z" style="fill:#fff"></path><path d="M401.34,331.12a3,3,0,1,1,2.7,3.25A3,3,0,0,1,401.34,331.12Z" style="fill:#fff"></path><g style="opacity:0.42"><path d="M426.93,332.63a2.45,2.45,0,1,1,2.21,2.66A2.43,2.43,0,0,1,426.93,332.63Z" style="fill:#fff"></path><path d="M421.89,322.06a2.45,2.45,0,1,1,2.22,2.66A2.45,2.45,0,0,1,421.89,322.06Z" style="fill:#fff"></path><path d="M409.16,323.89a3,3,0,1,1,2.71,3.25A3,3,0,0,1,409.16,323.89Z" style="fill:#fff"></path><path d="M437.68,337.44a3,3,0,1,1,2.7,3.26A3,3,0,0,1,437.68,337.44Z" style="fill:#fff"></path><path d="M437.82,324.08a3,3,0,1,1,2.7,3.25A3,3,0,0,1,437.82,324.08Z" style="fill:#fff"></path><path d="M412.45,332.66a3,3,0,1,1,2.71,3.25A3,3,0,0,1,412.45,332.66Z" style="fill:#fff"></path></g><g style="opacity:0.42"><path d="M381.61,321.09a2.45,2.45,0,1,1-2.28-2.6A2.45,2.45,0,0,1,381.61,321.09Z" style="fill:#fff"></path><path d="M386.91,331.53a2.45,2.45,0,1,1-2.28-2.61A2.45,2.45,0,0,1,386.91,331.53Z" style="fill:#fff"></path><path d="M399.59,329.38a3,3,0,1,1-2.79-3.19A3,3,0,0,1,399.59,329.38Z" style="fill:#fff"></path><path d="M370.74,316.55a3,3,0,1,1-2.79-3.18A3,3,0,0,1,370.74,316.55Z" style="fill:#fff"></path><path d="M370.94,329.92a3,3,0,1,1-2.79-3.19A3,3,0,0,1,370.94,329.92Z" style="fill:#fff"></path><path d="M396.08,320.69a3,3,0,1,1-2.79-3.18A3,3,0,0,1,396.08,320.69Z" style="fill:#fff"></path></g><g style="opacity:0.42"><path d="M130.61,323a2.45,2.45,0,1,1-3-1.81A2.45,2.45,0,0,1,130.61,323Z" style="fill:#fff"></path><path d="M138.77,331.39a2.45,2.45,0,1,1-3-1.81A2.44,2.44,0,0,1,138.77,331.39Z" style="fill:#fff"></path><path d="M150.24,325.56a3,3,0,1,1-3.61-2.21A3,3,0,0,1,150.24,325.56Z" style="fill:#fff"></path><path d="M118.88,321.9a3,3,0,1,1-3.61-2.21A3,3,0,0,1,118.88,321.9Z" style="fill:#fff"></path><path d="M123.05,334.61a3,3,0,1,1-3.61-2.22A3,3,0,0,1,123.05,334.61Z" style="fill:#fff"></path><path d="M144.3,318.32a3,3,0,1,1-3.6-2.21A3,3,0,0,1,144.3,318.32Z" style="fill:#fff"></path></g><g style="opacity:0.42"><path d="M86.58,324a2.45,2.45,0,1,1-3-1.81A2.45,2.45,0,0,1,86.58,324Z" style="fill:#fff"></path><path d="M94.74,332.36a2.45,2.45,0,1,1-2.95-1.81A2.44,2.44,0,0,1,94.74,332.36Z" style="fill:#fff"></path><path d="M106.21,326.53a3,3,0,1,1-3.61-2.21A3,3,0,0,1,106.21,326.53Z" style="fill:#fff"></path><path d="M74.85,322.87a3,3,0,1,1-3.61-2.21A3,3,0,0,1,74.85,322.87Z" style="fill:#fff"></path><path d="M79,335.58a3,3,0,1,1-3.6-2.21A3,3,0,0,1,79,335.58Z" style="fill:#fff"></path><path d="M100.27,319.29a3,3,0,1,1-3.6-2.21A3,3,0,0,1,100.27,319.29Z" style="fill:#fff"></path></g><g style="opacity:0.42"><path d="M45.14,323.87a2.45,2.45,0,1,1-3-1.81A2.44,2.44,0,0,1,45.14,323.87Z" style="fill:#fff"></path><path d="M53.31,332.26a2.45,2.45,0,1,1-3-1.81A2.44,2.44,0,0,1,53.31,332.26Z" style="fill:#fff"></path><path d="M64.77,326.43a3,3,0,1,1-3.6-2.21A3,3,0,0,1,64.77,326.43Z" style="fill:#fff"></path><path d="M33.41,322.77a3,3,0,1,1-3.6-2.21A3,3,0,0,1,33.41,322.77Z" style="fill:#fff"></path><path d="M37.58,335.47a3,3,0,1,1-3.6-2.21A3,3,0,0,1,37.58,335.47Z" style="fill:#fff"></path><path d="M58.84,319.18A3,3,0,1,1,55.23,317,3,3,0,0,1,58.84,319.18Z" style="fill:#fff"></path></g><g style="opacity:0.42"><path d="M456.94,318.23a2.45,2.45,0,1,1-2.28-2.6A2.45,2.45,0,0,1,456.94,318.23Z" style="fill:#fff"></path><path d="M462.24,328.67a2.45,2.45,0,1,1-2.28-2.61A2.45,2.45,0,0,1,462.24,328.67Z" style="fill:#fff"></path><circle cx="471.93" cy="326.32" r="2.99" transform="translate(-93.97 231.67) rotate(-25.17)" style="fill:#fff"></circle><path d="M446.07,313.69a3,3,0,1,1-2.79-3.18A3,3,0,0,1,446.07,313.69Z" style="fill:#fff"></path><path d="M446.26,327.06a3,3,0,1,1-2.78-3.18A3,3,0,0,1,446.26,327.06Z" style="fill:#fff"></path><path d="M471.41,317.84a3,3,0,1,1-2.79-3.19A3,3,0,0,1,471.41,317.84Z" style="fill:#fff"></path></g><g style="opacity:0.42"><path d="M339,312a2.45,2.45,0,1,1-2.69-2.17A2.45,2.45,0,0,1,339,312Z" style="fill:#fff"></path><path d="M346,321.37a2.45,2.45,0,1,1-2.69-2.18A2.45,2.45,0,0,1,346,321.37Z" style="fill:#fff"></path><path d="M358.11,317.09a3,3,0,1,1-3.28-2.66A3,3,0,0,1,358.11,317.09Z" style="fill:#fff"></path><path d="M327.5,309.36a3,3,0,1,1-3.28-2.67A3,3,0,0,1,327.5,309.36Z" style="fill:#fff"></path><path d="M330,322.5a3,3,0,1,1-3.29-2.67A3,3,0,0,1,330,322.5Z" style="fill:#fff"></path><path d="M353.18,309.13a3,3,0,1,1-3.29-2.66A3,3,0,0,1,353.18,309.13Z" style="fill:#fff"></path></g><g style="opacity:0.42"><path d="M290.74,318.68a2,2,0,1,1-2.2-1.79A2,2,0,0,1,290.74,318.68Z" style="fill:#fff"></path><path d="M296.47,326.36a2,2,0,1,1-2.2-1.78A2,2,0,0,1,296.47,326.36Z" style="fill:#fff"></path><path d="M306.41,322.86a2.45,2.45,0,1,1-2.69-2.18A2.45,2.45,0,0,1,306.41,322.86Z" style="fill:#fff"></path><path d="M281.34,316.52a2.45,2.45,0,1,1-2.69-2.18A2.46,2.46,0,0,1,281.34,316.52Z" style="fill:#fff"></path><path d="M283.36,327.29a2.45,2.45,0,1,1-2.69-2.19A2.45,2.45,0,0,1,283.36,327.29Z" style="fill:#fff"></path><path d="M302.37,316.34a2.45,2.45,0,1,1-2.69-2.18A2.45,2.45,0,0,1,302.37,316.34Z" style="fill:#fff"></path></g><g style="opacity:0.42"><path d="M205.23,321.09a2,2,0,1,1-2-2A2,2,0,0,1,205.23,321.09Z" style="fill:#fff"></path><path d="M210.3,329.23a2,2,0,1,1-2.05-2A2,2,0,0,1,210.3,329.23Z" style="fill:#fff"></path><path d="M220.49,326.56a2.45,2.45,0,1,1-2.5-2.4A2.45,2.45,0,0,1,220.49,326.56Z" style="fill:#fff"></path><path d="M196,318.17a2.45,2.45,0,1,1-2.5-2.4A2.45,2.45,0,0,1,196,318.17Z" style="fill:#fff"></path><path d="M197.15,329.06a2.45,2.45,0,1,1-2.5-2.4A2.45,2.45,0,0,1,197.15,329.06Z" style="fill:#fff"></path><path d="M217,319.73a2.45,2.45,0,1,1-2.51-2.4A2.46,2.46,0,0,1,217,319.73Z" style="fill:#fff"></path></g><g style="opacity:0.42"><circle cx="165.03" cy="322.21" r="2" style="fill:#fff"></circle><circle cx="170.1" cy="330.34" r="2" style="fill:#fff"></circle><path d="M182.3,327.63a2.45,2.45,0,1,1-2.51-2.39A2.46,2.46,0,0,1,182.3,327.63Z" style="fill:#fff"></path><path d="M157.83,319.24a2.45,2.45,0,1,1-2.5-2.39A2.43,2.43,0,0,1,157.83,319.24Z" style="fill:#fff"></path><path d="M159,330.14a2.45,2.45,0,1,1-2.51-2.4A2.46,2.46,0,0,1,159,330.14Z" style="fill:#fff"></path><path d="M178.81,320.8a2.45,2.45,0,1,1-2.5-2.39A2.44,2.44,0,0,1,178.81,320.8Z" style="fill:#fff"></path></g><path d="M452.6,322.87a2.45,2.45,0,1,1-2-2.83A2.46,2.46,0,0,1,452.6,322.87Z" style="fill:#fff"></path><path d="M456.79,333.8a2.45,2.45,0,1,1-2-2.83A2.45,2.45,0,0,1,456.79,333.8Z" style="fill:#fff"></path><path d="M469.62,333a3,3,0,1,1-2.44-3.46A3,3,0,0,1,469.62,333Z" style="fill:#fff"></path><path d="M442.26,317.22a3,3,0,1,1-2.44-3.45A3,3,0,0,1,442.26,317.22Z" style="fill:#fff"></path><path d="M441.07,330.54a3,3,0,1,1-2.44-3.46A3,3,0,0,1,441.07,330.54Z" style="fill:#fff"></path><path d="M467,324a3,3,0,1,1-2.44-3.46A3,3,0,0,1,467,324Z" style="fill:#fff"></path><path d="M27.82,349.44s177.66-45.69,459.73,0v36.25S369.36,361,275.09,351.61,50.3,382.79,50.3,382.79L26.37,395.12Z" style="fill:#37474F"></path><g style="clip-path:url(#freepik--clip-path-3--inject-5)"><path d="M27.82,349.44s177.66-45.69,459.73,0v36.25S369.36,361,275.09,351.61,50.3,382.79,50.3,382.79L26.37,395.12Z" style="fill:#fff;opacity:0.5"></path></g><path d="M485.62,232.68V191.87c-42.48,40-134.62,67.69-241.47,67.69-90.73,0-170.86-20-219-50.5v31.61c58,18.73,134.78,30.13,219,30.13C339.75,270.8,425.77,256.11,485.62,232.68Z" style="fill:#37474F"></path><g style="clip-path:url(#freepik--clip-path-4--inject-5)"><path d="M485.62,232.68V191.87c-42.48,40-134.62,67.69-241.47,67.69-90.73,0-170.86-20-219-50.5v31.61c58,18.73,134.78,30.13,219,30.13C339.75,270.8,425.77,256.11,485.62,232.68Z" style="fill:#fff;opacity:0.5"></path></g><path d="M27.82,282.73v30.46c66.26,1.85,140.54,2.89,219,2.89,87.45,0,169.71-1.29,241.47-3.56V278.21c-59.85,13.25-145.87,21.56-241.47,21.56C162.6,299.77,85.82,293.32,27.82,282.73Z" style="fill:#37474F"></path><g style="clip-path:url(#freepik--clip-path-5--inject-5)"><path d="M27.82,282.73v30.46c66.26,1.85,140.54,2.89,219,2.89,87.45,0,169.71-1.29,241.47-3.56V278.21c-59.85,13.25-145.87,21.56-241.47,21.56C162.6,299.77,85.82,293.32,27.82,282.73Z" style="fill:#fff;opacity:0.5"></path></g><path d="M258.29,338.56c-98.77,0-185.37,13.27-234,33.21v34.29H485.81V369.23C436.19,350.71,352.81,338.56,258.29,338.56Z" style="fill:#37474F"></path></g></g><g id="freepik--Shadow--inject-5"><ellipse cx="244.47" cy="373.85" rx="103.13" ry="12.09" style="opacity:0.44"></ellipse></g><g id="freepik--Clouds--inject-5"><path d="M368.16,151c-4.87-2.65-7.08-.44-8.84-2.65s4.86-8-8.4-13.71c0,0-.89-12.37-19-12.82s-13.26,12.38-18.12,15.47-6.19-1.76-11.06,1.33-2.65,9.28-6.63,10.17-9.28-4-14.14-.89-4.86,5.75-7.07,5.75-6.64-1.77-9.29,0-5.74,4-5.74,4H371.69S373,153.61,368.16,151Z" style="fill:#37474F"></path><path d="M191.93,189.53c-3.58-2-5.21-.33-6.52-2s3.59-5.86-6.19-10.1c0,0-.65-9.12-14-9.45s-9.78,9.13-13.36,11.41-4.56-1.31-8.15,1-1.95,6.85-4.88,7.5-6.85-2.93-10.43-.65-3.59,4.23-5.22,4.23-4.88-1.3-6.84,0-4.24,2.94-4.24,2.94h82.45S195.52,191.48,191.93,189.53Z" style="fill:#37474F"></path><g style="opacity:0.4"><path d="M368.16,151c-4.87-2.65-7.08-.44-8.84-2.65s4.86-8-8.4-13.71c0,0-.89-12.37-19-12.82s-13.26,12.38-18.12,15.47-6.19-1.76-11.06,1.33-2.65,9.28-6.63,10.17-9.28-4-14.14-.89-4.86,5.75-7.07,5.75-6.64-1.77-9.29,0-5.74,4-5.74,4H371.69S373,153.61,368.16,151Z" style="fill:#fff"></path><path d="M191.93,189.53c-3.58-2-5.21-.33-6.52-2s3.59-5.86-6.19-10.1c0,0-.65-9.12-14-9.45s-9.78,9.13-13.36,11.41-4.56-1.31-8.15,1-1.95,6.85-4.88,7.5-6.85-2.93-10.43-.65-3.59,4.23-5.22,4.23-4.88-1.3-6.84,0-4.24,2.94-4.24,2.94h82.45S195.52,191.48,191.93,189.53Z" style="fill:#fff"></path></g></g><g id="freepik--Character--inject-5"><path d="M232.15,242.07s-.27,1.9-1.9,8.16-3,13-1.36,16.31,3.81,7.89,3.81,7.89-3,15.5-3,20.94,1.08,20.93.27,23.11-8.16.82-15.23,1.09-14.68,8.7-19,11.42-15.77,7.61-20.12,7.61-11.42-.54-13.59,0-4.36,3.81-3.54,9,.27,10.87,1.63,14.68,1.91,6,5.17,6.53,8.7-.55,8.43-1.91-3.54-2.72-3.54-4.62,5.71-10.33,7.62-11.69,31.54-9.52,43.51-13.6,18.76-2.72,22.84-6.8,12.51-30.45,17.4-43.23c3.74-9.76,9.07-12.14,10.7-24.36.5-3.78.5-19.2.18-22.41C272.4,240.17,256.9,244.52,232.15,242.07Z" style="fill:#fff"></path><g style="clip-path:url(#freepik--clip-path-6--inject-5)"><path d="M185,341.79c8.6-2.23,24.21-5.73,36.63-8.91,9.29-2.39,21.79-9,27.5-12.25,4.12-10,9.1-25,12.43-33.69,1.78-4.64,3.91-7.61,5.84-10.76-12-7.51-23.14-15.6-24.42-20.07-2.13-7.45,3.05-12,4.83-13.3a151,151,0,0,1-15.62-.74s-.27,1.9-1.9,8.16-3,13-1.36,16.31,3.81,7.89,3.81,7.89-3,15.5-3,20.94,1.08,20.93.27,23.11-8.16.82-15.23,1.09-14.68,8.7-19,11.42-15.77,7.61-20.12,7.61-11.42-.54-13.59,0-4.36,3.81-3.54,9a41.37,41.37,0,0,1,.42,4.18,27.08,27.08,0,0,0,6.65-3C169.67,345.94,176.36,344,185,341.79Z" style="fill:#37474F"></path><path d="M185,341.79c8.6-2.23,24.21-5.73,36.63-8.91,9.29-2.39,21.79-9,27.5-12.25,4.12-10,9.1-25,12.43-33.69,1.78-4.64,3.91-7.61,5.84-10.76-12-7.51-23.14-15.6-24.42-20.07-2.13-7.45,3.05-12,4.83-13.3a151,151,0,0,1-15.62-.74s-.27,1.9-1.9,8.16-3,13-1.36,16.31,3.81,7.89,3.81,7.89-3,15.5-3,20.94,1.08,20.93.27,23.11-8.16.82-15.23,1.09-14.68,8.7-19,11.42-15.77,7.61-20.12,7.61-11.42-.54-13.59,0-4.36,3.81-3.54,9a41.37,41.37,0,0,1,.42,4.18,27.08,27.08,0,0,0,6.65-3C169.67,345.94,176.36,344,185,341.79Z" style="fill:#fff;opacity:0.5"></path></g><path d="M232.15,242.07s-.27,1.9-1.9,8.16-3,13-1.36,16.31,3.81,7.89,3.81,7.89-3,15.5-3,20.94,1.08,20.93.27,23.11-8.16.82-15.23,1.09-14.68,8.7-19,11.42-15.77,7.61-20.12,7.61-11.42-.54-13.59,0-4.36,3.81-3.54,9,.27,10.87,1.63,14.68,1.91,6,5.17,6.53,8.7-.55,8.43-1.91-3.54-2.72-3.54-4.62,5.71-10.33,7.62-11.69,31.54-9.52,43.51-13.6,18.76-2.72,22.84-6.8,12.51-30.45,17.4-43.23c3.74-9.76,9.07-12.14,10.7-24.36.5-3.78.5-19.2.18-22.41C272.4,240.17,256.9,244.52,232.15,242.07Z" style="fill:none;stroke:#263238;stroke-linecap:round;stroke-linejoin:round"></path><path d="M245.48,246.69s16.31,2.18,29.09,9.25,34.27,27.73,40.25,31.54,6,6,6,7.07.27,44.6,1.09,50.31,1.36,10.6,3.26,13.86,4.9,5.44,8.7,7.07,6.26,3.81,5.71,4.9-4.89,2.45-10.87,2.45-13.06-3-16.32-4.08-8.7-3.54-8.7-5.44,3.26-7.34,4.62-9.52,1.91-14.68-.54-20.66-7.07-12.24-7.07-17.95,1.63-12.78,1.63-13.6-7.89-4.08-18.22-6.8-24.2-6-34-12.5a63.84,63.84,0,0,1-14.68-13.06" style="fill:#fff"></path><g style="clip-path:url(#freepik--clip-path-7--inject-5)"><path d="M311.74,322.68c-2.23-8.6-.95-18.16.9-22.15s-.9-1.1-4.08-1.74,0,0,1.91-2.87-4.14,1.28-13.7-3.18S245.48,265,242.94,256.11a11.79,11.79,0,0,1-.45-2.63l-7.07,16a63.84,63.84,0,0,0,14.68,13.06c9.79,6.52,23.66,9.78,34,12.5s18.22,6,18.22,6.8-1.63,7.89-1.63,13.6,4.62,12,7.07,17.95,1.9,18.49.54,20.66-4.62,7.62-4.62,9.52a2,2,0,0,0,.66,1.25,134.14,134.14,0,0,0,9-12.56C316.52,346.89,314,331.28,311.74,322.68Z" style="fill:#37474F"></path><path d="M311.74,322.68c-2.23-8.6-.95-18.16.9-22.15s-.9-1.1-4.08-1.74,0,0,1.91-2.87-4.14,1.28-13.7-3.18S245.48,265,242.94,256.11a11.79,11.79,0,0,1-.45-2.63l-7.07,16a63.84,63.84,0,0,0,14.68,13.06c9.79,6.52,23.66,9.78,34,12.5s18.22,6,18.22,6.8-1.63,7.89-1.63,13.6,4.62,12,7.07,17.95,1.9,18.49.54,20.66-4.62,7.62-4.62,9.52a2,2,0,0,0,.66,1.25,134.14,134.14,0,0,0,9-12.56C316.52,346.89,314,331.28,311.74,322.68Z" style="fill:#fff;opacity:0.5"></path></g><path d="M245.48,246.69s16.31,2.18,29.09,9.25,34.27,27.73,40.25,31.54,6,6,6,7.07.27,44.6,1.09,50.31,1.36,10.6,3.26,13.86,4.9,5.44,8.7,7.07,6.26,3.81,5.71,4.9-4.89,2.45-10.87,2.45-13.06-3-16.32-4.08-8.7-3.54-8.7-5.44,3.26-7.34,4.62-9.52,1.91-14.68-.54-20.66-7.07-12.24-7.07-17.95,1.63-12.78,1.63-13.6-7.89-4.08-18.22-6.8-24.2-6-34-12.5a63.84,63.84,0,0,1-14.68-13.06" style="fill:none;stroke:#263238;stroke-linecap:round;stroke-linejoin:round"></path><path d="M339.56,370.69c.55-1.09-1.9-3.26-5.71-4.9s-6.8-3.8-8.7-7.07c0-.06-.06-.13-.1-.19-3.11.82-6.7,1.54-9.14,1.28a36.4,36.4,0,0,1-9.37-2.78c-1.39,2.42-2.87,5.31-2.87,6.59,0,1.9,5.44,4.35,8.7,5.44s10.33,4.08,16.32,4.08S339,371.78,339.56,370.69Z" style="fill:#263238;stroke:#263238;stroke-linecap:round;stroke-linejoin:round"></path><path d="M328.69,373.14c6,0,10.33-1.36,10.87-2.45a1.09,1.09,0,0,0-.14-1c-6.19,2.14-11.91,1.34-20-1.43a148.62,148.62,0,0,1-15.34-6.32,5.38,5.38,0,0,0-.43,1.7c0,1.9,5.44,4.35,8.7,5.44S322.7,373.14,328.69,373.14Z" style="fill:#fff;stroke:#263238;stroke-linecap:round;stroke-linejoin:round"></path><path d="M240,245.33s-4.62,5.71-3.81,6.8,3.81-1.09,4.08.54-1.09,3.81.27,3.81,2.45-.54,4.08,1.09,8.7,5.71,21.21,13.32S294.7,287.48,302.31,291s12,4.89,11.15,6.25-2.72,3-.82,3.26a15.34,15.34,0,0,1,3.27.82s1.63,24.47,1.9,31.81,1.36,20.94-.27,22.3a2.88,2.88,0,0,0-.82,3.26" style="fill:none;stroke:#263238;stroke-linecap:round;stroke-linejoin:round"></path><path d="M173.69,366.88c-.27-1.36-3.54-2.72-3.54-4.62,0-1.11,2-4.46,4-7.31a30.56,30.56,0,0,1-3.41-6c-1.42-3.31-1.19-7.52-.76-10.48-3.32-.11-6.59-.2-7.94.14-2.18.55-4.36,3.81-3.54,9s.27,10.87,1.63,14.68,1.91,6,5.17,6.53S174,368.24,173.69,366.88Z" style="fill:#263238;stroke:#263238;stroke-linecap:round;stroke-linejoin:round"></path><path d="M166.89,366.88c-3.53-.81-4.62-3.8-5.71-11.69-.78-5.66,0-12.86.47-16.47-2.05.78-4,4-3.19,8.86.82,5.16.27,10.87,1.63,14.68s1.91,6,5.17,6.53c2.63.43,6.67-.19,8-1.16A37.6,37.6,0,0,1,166.89,366.88Z" style="fill:#fff;stroke:#263238;stroke-linecap:round;stroke-linejoin:round"></path><path d="M228.64,321.19s2.9,3.17,12.15-.79" style="fill:#fff;stroke:#263238;stroke-linecap:round;stroke-linejoin:round"></path><path d="M223.35,321.45s3.44,3.17,10.84,3.17" style="fill:#fff;stroke:#263238;stroke-linecap:round;stroke-linejoin:round"></path><path d="M304.74,300.84s5.81-5,11.36-5.55" style="fill:#fff;stroke:#263238;stroke-linecap:round;stroke-linejoin:round"></path><path d="M303.42,299.52s2.64-4.75,7.66-5.55" style="fill:#fff;stroke:#263238;stroke-linecap:round;stroke-linejoin:round"></path><path d="M198.16,227.11l-1.9,6.8s-4.08,5.44-4.35,10.06-3.27,26.65-3.27,27.47-4.07,9.79-1.9,12,5.71,0,7.61-4.89,2.45-9.52,4.08-12.24a185.66,185.66,0,0,0,9.25-21.75,140.66,140.66,0,0,0,2.72-14.14Z" style="fill:#fff"></path><g style="clip-path:url(#freepik--clip-path-8--inject-5)"><path d="M206.43,241a11,11,0,0,0,2.15-.23c1-4.73,1.82-10.43,1.82-10.43l-12.24-3.27-1.9,6.8s-4.08,5.44-4.35,10.06c-.16,2.72-1.26,11.47-2.14,18.38L197.89,241Z" style="fill:#37474F"></path><path d="M206.43,241a11,11,0,0,0,2.15-.23c1-4.73,1.82-10.43,1.82-10.43l-12.24-3.27-1.9,6.8s-4.08,5.44-4.35,10.06c-.16,2.72-1.26,11.47-2.14,18.38L197.89,241Z" style="fill:#fff;opacity:0.5"></path></g><path d="M198.16,227.11l-1.9,6.8s-4.08,5.44-4.35,10.06-3.27,26.65-3.27,27.47-4.07,9.79-1.9,12,5.71,0,7.61-4.89,2.45-9.52,4.08-12.24a185.66,185.66,0,0,0,9.25-21.75,140.66,140.66,0,0,0,2.72-14.14Z" style="fill:none;stroke:#263238;stroke-linecap:round;stroke-linejoin:round"></path><path d="M186.74,283.4c2.18,2.18,5.71,0,7.61-4.89,1.21-3.1,1.87-6.09,2.61-8.56-4.17-2.49-6.91-1.37-8.08-.57-.15,1.16-.24,1.92-.24,2.06C188.64,272.25,184.57,281.23,186.74,283.4Z" style="fill:#37474F;stroke:#263238;stroke-linecap:round;stroke-linejoin:round"></path><path d="M91.81,325.55a3.32,3.32,0,0,0,4.27,1.57l36.63-16.34c4.59-2,14.5-6.69,18.68-9.43l47.75-22.65-1.43-.58.57-1.42L149,295.75c-4.87,1.14-15.12,5.06-19.71,7L92.65,319.12a3.32,3.32,0,0,0-1.81,4.17A21.64,21.64,0,0,0,91.81,325.55Z" style="fill:#fff;stroke:#263238;stroke-linecap:round;stroke-linejoin:round"></path><path d="M198.18,275.41a2.31,2.31,0,1,1-1.22,3A2.31,2.31,0,0,1,198.18,275.41Z" style="fill:#fff;stroke:#263238;stroke-linecap:round;stroke-linejoin:round"></path><path d="M138.73,308l-3.55-7.63c-2.31.89-4.41,1.73-5.9,2.37L92.65,319.12a3.32,3.32,0,0,0-1.81,4.17,21.64,21.64,0,0,0,1,2.26,3.32,3.32,0,0,0,4.27,1.57l36.63-16.34C134.26,310.12,136.4,309.14,138.73,308Z" style="fill:#263238;stroke:#263238;stroke-linecap:round;stroke-linejoin:round"></path><path d="M94.18,325a3.19,3.19,0,0,1,1.74-4l35.25-15.72c1.32-.57,3.14-1.31,5.15-2.09l-.85-1.84c-2.23.86-4.24,1.67-5.68,2.29L94.54,319.31a3.18,3.18,0,0,0-1.74,4,19,19,0,0,0,.93,2.18A3.17,3.17,0,0,0,95,326.82C94.68,326.22,94.41,325.59,94.18,325Z" style="fill:#fff"></path><path d="M222.31,177.39s-18.88,11.26-20.4,13.7-8.23,37.77-8.23,37.77,11.27,6.7,21.93,4.87l3-20.1s11.57,18.88,11.57,21.93,0,5.78.92,6.7S253.08,246.52,261,245s12.19-3.66,12.19-5.79-3.35-36.55-5.49-42.94-2.43-7.62-2.43-7.62l14.62-12.79s-4.88-10.05-9.14-10.35-13.1,3.65-15.23,4.57-4,1.52-4,1.52S232.06,167.33,222.31,177.39Z" style="fill:#263238;stroke:#263238;stroke-linecap:round;stroke-linejoin:round"></path><path d="M242.11,141.45s2.74,2.43,2.74,3.65a7.5,7.5,0,0,0,1.22,3.05s4.57.91,4.57,2.43-2.44,4.27-2.44,4.27,1.83,7.92,2.13,10.05-4.26,4.26-6.39,4.57l-2.13.3s3,23.76.3,24.06-21-14.31-21-14.31l-.31-8.23-9.14-14s-2.43-9.13,10.36-17.05S242.11,141.45,242.11,141.45Z" style="fill:#fff"></path><g style="clip-path:url(#freepik--clip-path-9--inject-5)"><path d="M236.93,160.94a11.14,11.14,0,0,1-1.44-7.74l3.16-.32a27.28,27.28,0,0,0,4.11-.31c1.58-.32,1.9-4.11,1.9-4.11l1.08-.86a6,6,0,0,1-.89-2.5c0-1.22-2.74-3.65-2.74-3.65s-7.31-9.14-20.1-1.22-10.36,17.05-10.36,17.05l9.14,14,.31,8.23s3.52,2.81,7.7,5.95c4.95-5.3,13-15.7,13-15.7s4.11-1.72,6-2.35S239.29,164.57,236.93,160.94Z" style="fill:#37474F"></path><path d="M236.93,160.94a11.14,11.14,0,0,1-1.44-7.74l3.16-.32a27.28,27.28,0,0,0,4.11-.31c1.58-.32,1.9-4.11,1.9-4.11l1.08-.86a6,6,0,0,1-.89-2.5c0-1.22-2.74-3.65-2.74-3.65s-7.31-9.14-20.1-1.22-10.36,17.05-10.36,17.05l9.14,14,.31,8.23s3.52,2.81,7.7,5.95c4.95-5.3,13-15.7,13-15.7s4.11-1.72,6-2.35S239.29,164.57,236.93,160.94Z" style="fill:#fff;opacity:0.5"></path></g><path d="M242.11,141.45s2.74,2.43,2.74,3.65a7.5,7.5,0,0,0,1.22,3.05s4.57.91,4.57,2.43-2.44,4.27-2.44,4.27,1.83,7.92,2.13,10.05-4.26,4.26-6.39,4.57l-2.13.3s3,23.76.3,24.06-21-14.31-21-14.31l-.31-8.23-9.14-14s-2.43-9.13,10.36-17.05S242.11,141.45,242.11,141.45Z" style="fill:none;stroke:#263238;stroke-linecap:round;stroke-linejoin:round"></path><path d="M233.89,147.84s4.26,8.53,3,13.1-18.27,13.7-18.27,13.7S208,161.85,205,154.24s6.1-18.88,15.23-23.76,17.36.92,19.8,7.31c0,0,14-4.26,12.79-1.83S237.54,147.54,233.89,147.84Z" style="fill:#263238;stroke:#263238;stroke-linecap:round;stroke-linejoin:round"></path><path d="M229.32,145.41c-.61,2.13,4.57,2.43,4.57,2.43l.51-.09c4.3-1,17.2-9.45,18.37-11.79S240,137.79,240,137.79,229.93,143.27,229.32,145.41Z" style="fill:#fff;stroke:#263238;stroke-linecap:round;stroke-linejoin:round"></path><path d="M242.11,193.83c1.43-.16,1.29-6.68.82-12.89a30.08,30.08,0,0,1-13.51,5C234.63,189.81,240.63,194,242.11,193.83Z" style="fill:#fff;stroke:#263238;stroke-linecap:round;stroke-linejoin:round"></path><path d="M279.88,175.86s-7.21-1.23-12.49,7.31c-2.15,3.48,4.57,8.23,4.57,8.23v4.87c0,1.22-.31,7.61-.31,7.61l11.27-6.09s5.18-7,4.88-12.18S284.14,175.86,279.88,175.86Z" style="fill:#fff"></path><g style="clip-path:url(#freepik--clip-path-10--inject-5)"><path d="M271.87,199a10.19,10.19,0,0,0,.91-1c2.53-3.16,2.84-5.06,2.84-9.17a5.07,5.07,0,0,1,3.48-5.05s-5.69-.95-5.69-3.48c0-1.41,1.76-3.11,3.33-4.34-2.58.53-6.29,2.19-9.35,7.14-2.15,3.48,4.57,8.23,4.57,8.23v4.87C272,196.7,271.92,197.8,271.87,199Z" style="fill:#37474F"></path><path d="M271.87,199a10.19,10.19,0,0,0,.91-1c2.53-3.16,2.84-5.06,2.84-9.17a5.07,5.07,0,0,1,3.48-5.05s-5.69-.95-5.69-3.48c0-1.41,1.76-3.11,3.33-4.34-2.58.53-6.29,2.19-9.35,7.14-2.15,3.48,4.57,8.23,4.57,8.23v4.87C272,196.7,271.92,197.8,271.87,199Z" style="fill:#fff;opacity:0.5"></path></g><path d="M279.88,175.86s-7.21-1.23-12.49,7.31c-2.15,3.48,4.57,8.23,4.57,8.23v4.87c0,1.22-.31,7.61-.31,7.61l11.27-6.09s5.18-7,4.88-12.18S284.14,175.86,279.88,175.86Z" style="fill:none;stroke:#263238;stroke-linecap:round;stroke-linejoin:round"></path><path d="M272,191.4s.57-7.39,9.55-7.66" style="fill:none;stroke:#263238;stroke-linecap:round;stroke-linejoin:round"></path><path d="M282,194.35s-5.13-1.35-8,.55-5.23,7.74-7,9.37-5.3,1.9-4.45,3.26,2.77,1,4.81.14,3.32-3.79,3.32-3.79-2.11,5.42-1.63,6.51a1,1,0,0,0,1.93.27c.36-.68,3.49-7.75,3.49-7.75s-2.41,7.21-2.05,7.48,1.69.54,2.53-1.09,2.89-7.75,2.89-7.75-2.17,8-1.44,8,1.44.28,2.29-1.63,2.28-7.07,2.28-7.07-1.2,6.12-.72,6.12a1.79,1.79,0,0,0,1.93-1.09c.36-1.09.59-6.07.83-8.11A4.8,4.8,0,0,0,282,194.35Z" style="fill:#37474F;stroke:#263238;stroke-linecap:round;stroke-linejoin:round"></path><path d="M184.29,282.47s1.64,3.81,2.45,4.08,6.53-2.18,7.34-3.54-.27-5.16-1.36-5.16S184.84,280.57,184.29,282.47Z" style="fill:#37474F;stroke:#263238;stroke-linecap:round;stroke-linejoin:round"></path><path d="M189.73,271.71l-6,3.81s-2.18,9.78-.82,10.6,2.45-1.36,2.72-2.45.82-4.08.82-4.08,2.72,1.09,4.89-3.26" style="fill:#37474F;stroke:#263238;stroke-linecap:round;stroke-linejoin:round"></path></g><g id="freepik--Lights--inject-5"><circle cx="112.41" cy="232.64" r="8.35" transform="translate(-131.58 147.63) rotate(-45)" style="fill:#fff"></circle><path d="M118.82,234.64l12.68-2-12.68-2a5.31,5.31,0,0,1-4.42-4.42l-2-12.68-2,12.68a5.31,5.31,0,0,1-4.42,4.42l-12.68,2,12.68,2a5.31,5.31,0,0,1,4.42,4.42l2,12.68,2-12.68A5.35,5.35,0,0,1,118.82,234.64Z" style="fill:#fff"></path><circle cx="368.43" cy="232.64" r="8.35" transform="translate(-56.59 328.66) rotate(-45)" style="fill:#fff"></circle><path d="M374.85,234.64l12.68-2-12.68-2a5.31,5.31,0,0,1-4.42-4.42l-2-12.68-2,12.68a5.31,5.31,0,0,1-4.42,4.42l-12.68,2,12.68,2a5.31,5.31,0,0,1,4.42,4.42l2,12.68,2-12.68A5.35,5.35,0,0,1,374.85,234.64Z" style="fill:#fff"></path><circle cx="419.64" cy="215.79" r="8.35" transform="translate(-29.68 359.94) rotate(-45)" style="fill:#fff"></circle><path d="M426.06,217.79l12.68-2-12.68-2a5.31,5.31,0,0,1-4.42-4.42l-2-12.68-2,12.68a5.31,5.31,0,0,1-4.42,4.42l-12.68,2,12.68,2a5.31,5.31,0,0,1,4.42,4.42l2,12.68,2-12.68A5.35,5.35,0,0,1,426.06,217.79Z" style="fill:#fff"></path><circle cx="174.11" cy="245.21" r="6.58" transform="translate(-122.4 194.94) rotate(-45)" style="fill:#fff"></circle><path d="M179.16,246.78l10-1.56-10-1.58a4.18,4.18,0,0,1-3.48-3.48l-1.57-10-1.57,10a4.16,4.16,0,0,1-3.48,3.48l-10,1.58,10,1.56a4.2,4.2,0,0,1,3.48,3.48l1.57,10,1.56-10A4.24,4.24,0,0,1,179.16,246.78Z" style="fill:#fff"></path><circle cx="294.92" cy="245.21" r="6.58" transform="translate(-87.01 280.36) rotate(-45)" style="fill:#fff"></circle><path d="M300,246.78l10-1.56-10-1.58a4.16,4.16,0,0,1-3.48-3.48l-1.57-10-1.58,10a4.16,4.16,0,0,1-3.48,3.48l-10,1.58,10,1.56a4.18,4.18,0,0,1,3.48,3.48l1.57,10,1.57-10A4.23,4.23,0,0,1,300,246.78Z" style="fill:#fff"></path></g></svg>