<svg width="20" height="20" viewBox="0 0 20 20" fill="none" xmlns="http://www.w3.org/2000/svg">
<mask id="path-1-inside-1_1_423" fill="white">
<path fill-rule="evenodd" clip-rule="evenodd" d="M18.1819 19.9989C18.6641 19.9989 19.1265 19.8073 19.4675 19.4663C19.8085 19.1254 20 18.663 20 18.1808V1.81808C20 1.33589 19.8085 0.873458 19.4675 0.532502C19.1265 0.191547 18.6641 0 18.1819 0H1.81923C1.33704 0 0.874606 0.191547 0.533651 0.532502C0.192695 0.873458 0.00114824 1.33589 0.00114824 1.81808V8.18135C0.00114824 8.42244 0.0969219 8.65366 0.2674 8.82414C0.437878 8.99461 0.669095 9.09039 0.910187 9.09039C1.15128 9.09039 1.3825 8.99461 1.55297 8.82414C1.72345 8.65366 1.81923 8.42244 1.81923 8.18135V1.81808H18.1819V18.1808H11.8187C11.5776 18.1808 11.3463 18.2765 11.1759 18.447C11.0054 18.6175 10.9096 18.8487 10.9096 19.0898C10.9096 19.3309 11.0054 19.5621 11.1759 19.7326C11.3463 19.9031 11.5776 19.9989 11.8187 19.9989H18.1819ZM12.7277 8.18135V13.6356C12.7277 13.8767 12.6319 14.1079 12.4614 14.2784C12.291 14.4488 12.0597 14.5446 11.8187 14.5446C11.5776 14.5446 11.3463 14.4488 11.1759 14.2784C11.0054 14.1079 10.9096 13.8767 10.9096 13.6356V10.3758L1.55379 19.7334C1.46927 19.8179 1.36893 19.885 1.2585 19.9307C1.14807 19.9765 1.02971 20 0.910187 20C0.790659 20 0.672302 19.9765 0.561873 19.9307C0.451445 19.885 0.351106 19.8179 0.266587 19.7334C0.182069 19.6489 0.115025 19.5486 0.0692839 19.4381C0.0235428 19.3277 0 19.2093 0 19.0898C0 18.9703 0.0235428 18.8519 0.0692839 18.7415C0.115025 18.6311 0.182069 18.5307 0.266587 18.4462L9.62423 9.09039H6.36442C6.12333 9.09039 5.89211 8.99461 5.72163 8.82414C5.55115 8.65366 5.45538 8.42244 5.45538 8.18135C5.45538 7.94026 5.55115 7.70904 5.72163 7.53856C5.89211 7.36808 6.12333 7.27231 6.36442 7.27231H11.8187C11.9377 7.27183 12.0557 7.29484 12.1658 7.34001C12.276 7.38518 12.3761 7.45164 12.4606 7.53556C12.545 7.61949 12.6121 7.71925 12.6579 7.82913C12.7037 7.939 12.7275 8.05684 12.7277 8.17589"/>
</mask>
<path fill-rule="evenodd" clip-rule="evenodd" d="M18.1819 19.9989C18.6641 19.9989 19.1265 19.8073 19.4675 19.4663C19.8085 19.1254 20 18.663 20 18.1808V1.81808C20 1.33589 19.8085 0.873458 19.4675 0.532502C19.1265 0.191547 18.6641 0 18.1819 0H1.81923C1.33704 0 0.874606 0.191547 0.533651 0.532502C0.192695 0.873458 0.00114824 1.33589 0.00114824 1.81808V8.18135C0.00114824 8.42244 0.0969219 8.65366 0.2674 8.82414C0.437878 8.99461 0.669095 9.09039 0.910187 9.09039C1.15128 9.09039 1.3825 8.99461 1.55297 8.82414C1.72345 8.65366 1.81923 8.42244 1.81923 8.18135V1.81808H18.1819V18.1808H11.8187C11.5776 18.1808 11.3463 18.2765 11.1759 18.447C11.0054 18.6175 10.9096 18.8487 10.9096 19.0898C10.9096 19.3309 11.0054 19.5621 11.1759 19.7326C11.3463 19.9031 11.5776 19.9989 11.8187 19.9989H18.1819ZM12.7277 8.18135V13.6356C12.7277 13.8767 12.6319 14.1079 12.4614 14.2784C12.291 14.4488 12.0597 14.5446 11.8187 14.5446C11.5776 14.5446 11.3463 14.4488 11.1759 14.2784C11.0054 14.1079 10.9096 13.8767 10.9096 13.6356V10.3758L1.55379 19.7334C1.46927 19.8179 1.36893 19.885 1.2585 19.9307C1.14807 19.9765 1.02971 20 0.910187 20C0.790659 20 0.672302 19.9765 0.561873 19.9307C0.451445 19.885 0.351106 19.8179 0.266587 19.7334C0.182069 19.6489 0.115025 19.5486 0.0692839 19.4381C0.0235428 19.3277 0 19.2093 0 19.0898C0 18.9703 0.0235428 18.8519 0.0692839 18.7415C0.115025 18.6311 0.182069 18.5307 0.266587 18.4462L9.62423 9.09039H6.36442C6.12333 9.09039 5.89211 8.99461 5.72163 8.82414C5.55115 8.65366 5.45538 8.42244 5.45538 8.18135C5.45538 7.94026 5.55115 7.70904 5.72163 7.53856C5.89211 7.36808 6.12333 7.27231 6.36442 7.27231H11.8187C11.9377 7.27183 12.0557 7.29484 12.1658 7.34001C12.276 7.38518 12.3761 7.45164 12.4606 7.53556C12.545 7.61949 12.6121 7.71925 12.6579 7.82913C12.7037 7.939 12.7275 8.05684 12.7277 8.17589" fill="#171d25"/>
<path d="M18.1819 0V-1V0ZM1.81923 0V-1V0ZM0.00114824 1.81808H-0.998852H0.00114824ZM1.81923 1.81808V0.818077H0.819226V1.81808H1.81923ZM18.1819 1.81808H19.1819V0.818077H18.1819V1.81808ZM18.1819 18.1808V19.1808H19.1819V18.1808H18.1819ZM10.9096 10.3758H11.9096V7.96122L10.2024 9.66873L10.9096 10.3758ZM1.55379 19.7334L2.26089 20.4405L2.26096 20.4405L1.55379 19.7334ZM0.910187 20V19V20ZM0 19.0898H1H0ZM0.266587 18.4462L-0.440451 17.739L-0.440519 17.7391L0.266587 18.4462ZM9.62423 9.09039L10.3313 9.79756L12.0388 8.09039H9.62423V9.09039ZM11.8187 7.27231V8.27232L11.8227 8.2723L11.8187 7.27231ZM18.1819 20.9989C18.9293 20.9989 19.6461 20.7019 20.1746 20.1735L18.7604 18.7592C18.607 18.9127 18.3989 18.9989 18.1819 18.9989V20.9989ZM20.1746 20.1735C20.7031 19.645 21 18.9282 21 18.1808H19C19 18.3977 18.9138 18.6058 18.7604 18.7592L20.1746 20.1735ZM21 18.1808V1.81808H19V18.1808H21ZM21 1.81808C21 1.07068 20.7031 0.353887 20.1746 -0.174604L18.7604 1.23961C18.9138 1.39303 19 1.60111 19 1.81808H21ZM20.1746 -0.174604C19.6461 -0.703096 18.9293 -1 18.1819 -1V1C18.3989 1 18.607 1.08619 18.7604 1.23961L20.1746 -0.174604ZM18.1819 -1H1.81923V1H18.1819V-1ZM1.81923 -1C1.07183 -1 0.355036 -0.703096 -0.173456 -0.174604L1.24076 1.23961C1.39418 1.08619 1.60226 1 1.81923 1V-1ZM-0.173456 -0.174604C-0.701948 0.353888 -0.998852 1.07068 -0.998852 1.81808H1.00115C1.00115 1.60111 1.08734 1.39303 1.24076 1.23961L-0.173456 -0.174604ZM-0.998852 1.81808V8.18135H1.00115V1.81808H-0.998852ZM-0.998852 8.18135C-0.998852 8.68766 -0.797721 9.17323 -0.439707 9.53124L0.974506 8.11703C0.991565 8.13409 1.00115 8.15722 1.00115 8.18135H-0.998852ZM-0.439707 9.53124C-0.0816934 9.88926 0.403878 10.0904 0.910187 10.0904V8.09039C0.934312 8.09039 0.957448 8.09997 0.974506 8.11703L-0.439707 9.53124ZM0.910187 10.0904C1.4165 10.0904 1.90207 9.88926 2.26008 9.53124L0.845867 8.11703C0.862926 8.09997 0.886062 8.09039 0.910187 8.09039V10.0904ZM2.26008 9.53124C2.61809 9.17323 2.81923 8.68766 2.81923 8.18135H0.819226C0.819226 8.15722 0.828809 8.13409 0.845867 8.11703L2.26008 9.53124ZM2.81923 8.18135V1.81808H0.819226V8.18135H2.81923ZM1.81923 2.81808H18.1819V0.818077H1.81923V2.81808ZM17.1819 1.81808V18.1808H19.1819V1.81808H17.1819ZM18.1819 17.1808H11.8187V19.1808H18.1819V17.1808ZM11.8187 17.1808C11.3123 17.1808 10.8268 17.3819 10.4688 17.7399L11.883 19.1541C11.8659 19.1712 11.8428 19.1808 11.8187 19.1808V17.1808ZM10.4688 17.7399C10.1107 18.0979 9.90961 18.5835 9.90961 19.0898H11.9096C11.9096 19.1139 11.9 19.1371 11.883 19.1541L10.4688 17.7399ZM9.90961 19.0898C9.90961 19.5961 10.1107 20.0817 10.4688 20.4397L11.883 19.0255C11.9 19.0426 11.9096 19.0657 11.9096 19.0898H9.90961ZM10.4688 20.4397C10.8268 20.7977 11.3123 20.9989 11.8187 20.9989V18.9989C11.8428 18.9989 11.8659 19.0084 11.883 19.0255L10.4688 20.4397ZM11.8187 20.9989H18.1819V18.9989H11.8187V20.9989ZM11.7277 8.18135V13.6356H13.7277V8.18135H11.7277ZM11.7277 13.6356C11.7277 13.6115 11.7373 13.5883 11.7543 13.5713L13.1685 14.9855C13.5266 14.6275 13.7277 14.1419 13.7277 13.6356H11.7277ZM11.7543 13.5713C11.7714 13.5542 11.7945 13.5446 11.8187 13.5446V15.5446C12.325 15.5446 12.8105 15.3435 13.1685 14.9855L11.7543 13.5713ZM11.8187 13.5446C11.8428 13.5446 11.8659 13.5542 11.883 13.5713L10.4688 14.9855C10.8268 15.3435 11.3123 15.5446 11.8187 15.5446V13.5446ZM11.883 13.5713C11.9 13.5883 11.9096 13.6115 11.9096 13.6356H9.90961C9.90961 14.1419 10.1107 14.6275 10.4688 14.9855L11.883 13.5713ZM11.9096 13.6356V10.3758H9.90961V13.6356H11.9096ZM10.2024 9.66873L0.846611 19.0264L2.26096 20.4405L11.6168 11.0828L10.2024 9.66873ZM0.84668 19.0263C0.85502 19.018 0.86492 19.0114 0.875817 19.0068L1.64118 20.8546C1.87294 20.7586 2.08352 20.6179 2.26089 20.4405L0.84668 19.0263ZM0.875817 19.0068C0.886718 19.0023 0.898397 19 0.910187 19V21C1.16103 21 1.40943 20.9506 1.64118 20.8546L0.875817 19.0068ZM0.910187 19C0.921977 19 0.933656 19.0023 0.944557 19.0068L0.17919 20.8546C0.410949 20.9506 0.659342 21 0.910187 21V19ZM0.944557 19.0068C0.955454 19.0114 0.965354 19.018 0.973694 19.0263L-0.440519 20.4405C-0.263142 20.6179 -0.0525645 20.7586 0.17919 20.8546L0.944557 19.0068ZM0.973694 19.0263C0.982035 19.0346 0.98865 19.0445 0.993163 19.0554L-0.854596 19.8208C-0.7586 20.0526 -0.617897 20.2631 -0.440519 20.4405L0.973694 19.0263ZM0.993163 19.0554C0.997677 19.0663 1 19.078 1 19.0898H-1C-1 19.3407 -0.950592 19.5891 -0.854596 19.8208L0.993163 19.0554ZM1 19.0898C1 19.1016 0.997677 19.1133 0.993163 19.1242L-0.854596 18.3588C-0.950592 18.5906 -1 18.839 -1 19.0898H1ZM0.993163 19.1242C0.98865 19.1351 0.982035 19.145 0.973694 19.1533L-0.440519 17.7391C-0.617897 17.9165 -0.7586 18.1271 -0.854596 18.3588L0.993163 19.1242ZM0.973625 19.1534L10.3313 9.79756L8.91719 8.38321L-0.440451 17.739L0.973625 19.1534ZM9.62423 8.09039H6.36442V10.0904H9.62423V8.09039ZM6.36442 8.09039C6.38854 8.09039 6.41168 8.09997 6.42874 8.11703L5.01453 9.53124C5.37254 9.88926 5.85811 10.0904 6.36442 10.0904V8.09039ZM6.42874 8.11703C6.4458 8.13409 6.45538 8.15722 6.45538 8.18135H4.45538C4.45538 8.68766 4.65651 9.17323 5.01453 9.53124L6.42874 8.11703ZM6.45538 8.18135C6.45538 8.20547 6.4458 8.22861 6.42874 8.24567L5.01453 6.83145C4.65651 7.18947 4.45538 7.67504 4.45538 8.18135H6.45538ZM6.42874 8.24567C6.41168 8.26273 6.38854 8.27231 6.36442 8.27231V6.27231C5.85811 6.27231 5.37254 6.47344 5.01453 6.83145L6.42874 8.24567ZM6.36442 8.27231H11.8187V6.27231H6.36442V8.27231ZM11.8227 8.2723C11.8102 8.27235 11.7979 8.26995 11.7864 8.26523L12.5453 6.41479C12.3135 6.31973 12.0652 6.27131 11.8146 6.27232L11.8227 8.2723ZM11.7864 8.26523C11.7749 8.26051 11.7644 8.25356 11.7556 8.2448L13.1656 6.82633C12.9879 6.64971 12.7771 6.50986 12.5453 6.41479L11.7864 8.26523ZM11.7556 8.2448C11.7468 8.23603 11.7398 8.22561 11.735 8.21412L13.5808 7.44413C13.4844 7.2129 13.3432 7.00296 13.1656 6.82633L11.7556 8.2448ZM11.735 8.21412C11.7302 8.20264 11.7277 8.19033 11.7277 8.17789L13.7277 8.17389C13.7272 7.92336 13.6773 7.67537 13.5808 7.44413L11.735 8.21412Z" fill="#171d25" mask="url(#path-1-inside-1_1_423)"/>
</svg>
