<svg width="20" height="20" viewBox="0 0 17 17" fill="none" xmlns="http://www.w3.org/2000/svg">
<path fill-rule="evenodd" clip-rule="evenodd" fill="#171d25" d="M16.8 2.5C16.8 1.11929 15.6807 0 14.3 0H6.70002C5.16648 0 3.90169 1.15065 3.72191 2.63569C3.22461 2.73084 2.7927 3.01016 2.4999 3.39994C1.11924 3.39999 1.66893e-06 4.51926 1.43051e-06 5.89994L0 14.4999C-2.38419e-07 15.8807 1.11929 16.9999 2.5 16.9999H10.1C11.752 16.9999 13.0921 15.6647 13.1 14.0145C14.0129 13.8293 14.7 13.0221 14.7 12.0546L14.7 4.6C14.7 3.49543 13.8046 2.6 12.7 2.6L4.10001 2.6C4.01658 2.6 3.93434 2.60511 3.85359 2.61503C4.15516 2.25384 4.8683 2 5.70002 2H14.3C15.1284 2 15.8 2.44771 15.8 3V11.6C15.8 12.7046 15.1284 13.6 14.3 13.6C15.6807 13.6 16.8 12.4807 16.8 11.1V2.5ZM2.4999 3.39994C2.2488 3.73421 2.10001 4.14973 2.10001 4.6L2.10001 12.0545C2.10001 13.1591 2.99543 14.0545 4.1 14.0545L12.7 14.0545C12.8369 14.0545 12.9706 14.0408 13.0998 14.0146C13.0841 14.5601 12.1948 14.9999 11.1 14.9999L2.5 14.9999C1.67157 14.9999 1 14.5522 1 13.9999L1 5.39994C1 4.29541 1.67152 3.40001 2.4999 3.39994ZM4.10001 3.6L12.7 3.6C13.2523 3.6 13.7 4.04772 13.7 4.6L13.7 12.0546C13.7 12.6068 13.2523 13.0545 12.7 13.0545L4.1 13.0545C3.54772 13.0545 3.10001 12.6068 3.10001 12.0545L3.10001 4.6C3.10001 4.04772 3.54772 3.6 4.10001 3.6Z" />
</svg>
