<svg width="34" height="34" viewBox="0 0 34 34" fill="none" xmlns="http://www.w3.org/2000/svg">
<path d="M10.3359 0L4.8291 5.5068V34H29.7624V0H10.3359Z" fill="#E1E6E9"/>
<path d="M26.6653 19.1917C26.1082 18.5555 25.2939 18.1142 24.3734 17.9491C22.918 17.6883 21.5361 17.5922 20.2373 17.6162C19.0553 16.4224 17.9123 15.0132 17.1323 13.4654C17.8146 11.2151 18.1755 9.26917 18.3786 8.17285C18.4831 7.6093 18.3269 7.00973 17.9603 6.56888C17.6139 6.15264 17.1129 5.91406 16.5856 5.91406C16.5852 5.91406 16.5848 5.91406 16.5844 5.91406C16.0717 5.91428 15.636 6.12382 15.3248 6.51987C14.2828 7.84671 14.9949 11.0586 15.1488 11.6907C15.3063 12.331 15.5299 12.9543 15.8048 13.5585C15.2639 15.2638 14.5343 17.1158 13.5469 18.8679C10.2509 20.07 8.28727 21.7218 8.12616 21.8607C7.57909 22.3928 7.30864 22.9271 7.32279 23.4491C7.33085 23.7448 7.43707 24.1821 7.89811 24.5846C8.25133 24.8926 8.70314 25.0466 9.16215 25.0466C9.62761 25.0466 10.1008 24.8882 10.4851 24.5719C12.0762 23.2626 13.3511 21.6379 14.3741 19.9124C15.9054 19.3908 17.7185 18.9787 19.7589 18.8811C21.2263 20.3019 22.689 21.3866 23.6063 22.0161C24.5805 22.6847 25.8824 22.5979 26.7032 21.811C27.4708 21.074 27.4566 20.0948 26.6653 19.1917ZM9.69717 23.6142C9.40203 23.8572 8.96924 23.8734 8.71374 23.6502C8.61566 23.5642 8.56476 23.4854 8.56273 23.4158C8.56113 23.3587 8.58734 23.1421 8.96241 22.7757C8.98986 22.7525 10.2212 21.7168 12.3722 20.7164C11.6059 21.7839 10.7206 22.772 9.69717 23.6142ZM16.3004 7.28592C16.3642 7.20475 16.434 7.15429 16.5854 7.15429C16.8018 7.15429 16.9423 7.28446 17.0069 7.36201C17.1405 7.52268 17.1975 7.74129 17.1595 7.94661V7.94683C17.0109 8.747 16.7756 10.0175 16.3868 11.527C16.3754 11.4834 16.3642 11.4398 16.3532 11.396C16.0311 10.0713 15.8017 7.92069 16.3004 7.28592ZM15.2313 18.333C15.7751 17.2379 16.2293 16.1295 16.6096 15.0575C17.1986 16.0105 17.8946 16.9 18.6262 17.7099C17.4029 17.8293 16.2681 18.0514 15.2313 18.333ZM25.8442 20.9163C25.4465 21.2989 24.8001 21.3307 24.308 20.9934C23.6322 20.5296 22.6431 19.8057 21.5846 18.8798C22.4114 18.9183 23.2693 19.0112 24.1546 19.1698C24.7993 19.2853 25.3597 19.5832 25.7327 20.0088C26.2152 20.5601 26.0009 20.766 25.8442 20.9163Z" fill="#E56353"/>
<path d="M10.3359 5.5068V0L4.8291 5.5068H10.3359Z" fill="#EBF0F3"/>
<path d="M20.9417 29.5649H4.92722C4.24685 29.5649 3.69531 29.0401 3.69531 28.3926V21.8675C3.69531 21.2201 4.24685 20.6953 4.92722 20.6953H20.9417C21.622 20.6953 22.1736 21.2201 22.1736 21.8675V28.3926C22.1736 29.0401 21.622 29.5649 20.9417 29.5649Z" fill="#27A2DB"/>
<path d="M9.28357 22.9785C9.64324 23.2789 9.82317 23.7421 9.82317 24.3679C9.82317 24.9937 9.63969 25.4518 9.27223 25.7426C8.90526 26.0335 8.34228 26.1788 7.58379 26.1788H6.66706V27.694H5.79492V22.5273H7.56879C8.35244 22.5273 8.92391 22.6777 9.28357 22.9785ZM8.66644 25.1108C8.84144 24.9258 8.92874 24.6549 8.92874 24.2976C8.92874 23.9406 8.81806 23.6879 8.5961 23.54C8.37415 23.3923 8.02711 23.3183 7.5537 23.3183H6.66706V25.3878H7.67938C8.16235 25.3878 8.49144 25.2955 8.66644 25.1108Z" fill="#EBF0F3"/>
<path d="M14.7604 23.2038C15.2584 23.6546 15.5068 24.2817 15.5068 25.085C15.5068 25.8879 15.2656 26.5237 14.7827 26.9917C14.2997 27.46 13.5604 27.694 12.5655 27.694H10.8506V22.5273H12.6245C13.5507 22.5273 14.2629 22.7529 14.7604 23.2038ZM14.6274 25.1069C14.6274 23.9243 13.9501 23.333 12.5949 23.333H11.7227V26.8734H12.6911C13.3167 26.8734 13.7961 26.7246 14.1287 26.4262C14.4614 26.1283 14.6274 25.6886 14.6274 25.1069Z" fill="#EBF0F3"/>
<path d="M17.502 23.3406V24.7595H19.7932V25.5653H17.502V27.694H16.6299V22.5273H20.0741L20.0669 23.3406H17.502Z" fill="#EBF0F3"/>
</svg>
