<?xml version="1.0" standalone="no"?>
<!DOCTYPE svg PUBLIC "-//W3C//DTD SVG 20010904//EN"
 "http://www.w3.org/TR/2001/REC-SVG-20010904/DTD/svg10.dtd">
<svg version="1.0" xmlns="http://www.w3.org/2000/svg"
 width="720.000000pt" height="806.000000pt" viewBox="0 0 720.000000 806.000000"
 preserveAspectRatio="xMidYMid meet">

<g transform="translate(0.000000,806.000000) scale(0.100000,-0.100000)"
fill="#000000" stroke="none">
<path d="M3510 7850 c-561 -44 -1013 -391 -1213 -930 -99 -267 -119 -533 -71
-932 l6 -48 -41 0 c-28 0 -48 -7 -68 -24 -27 -23 -28 -28 -27 -108 1 -86 43
-308 72 -383 28 -72 103 -179 184 -259 l79 -79 30 -150 c66 -334 228 -724 391
-944 l31 -43 -9 -148 c-9 -143 -10 -150 -43 -200 -22 -35 -55 -66 -101 -97
-115 -76 -254 -126 -685 -245 -428 -118 -680 -208 -865 -307 -409 -219 -629
-499 -685 -871 -35 -232 -3 -809 51 -913 25 -50 205 -160 524 -320 107 -53
254 -121 325 -149 188 -75 455 -162 485 -157 21 3 20 4 -7 6 -18 0 -33 6 -33
11 0 6 -11 10 -25 10 -14 0 -25 5 -25 10 0 6 -9 10 -20 10 -11 0 -29 4 -40 10
-11 5 -29 14 -40 20 -11 5 -27 10 -35 10 -8 0 -15 5 -15 10 0 6 -5 10 -11 10
-6 0 -17 6 -25 14 -8 8 -39 18 -69 21 -30 4 -55 11 -55 16 0 5 -9 9 -20 9 -11
0 -28 4 -38 9 -19 10 -68 29 -162 65 -34 13 40 -4 105 -24 669 -205 1836 -324
2755 -280 587 28 1177 100 1565 191 74 17 124 24 130 18 5 -5 -1 -9 -17 -9
-15 0 -30 -4 -33 -10 -3 -5 -17 -10 -30 -10 -13 0 -34 -4 -47 -9 -13 -4 -49
-17 -81 -27 -56 -17 -57 -18 -35 -30 l23 -13 -27 -1 c-14 0 -28 -4 -30 -8 -1
-4 -46 -22 -98 -40 -149 -50 -38 -33 140 22 338 103 557 195 895 374 248 131
359 206 376 251 51 132 77 683 44 901 -60 396 -304 687 -760 905 -60 28 -128
58 -150 66 -22 7 -44 16 -50 19 -9 6 -262 88 -346 112 -20 6 -43 8 -50 5 -8
-3 -3 -6 12 -6 14 -1 29 -5 35 -9 5 -5 43 -19 84 -32 41 -13 79 -27 84 -32 6
-4 15 -8 22 -8 7 0 34 -10 61 -22 26 -11 54 -22 60 -22 7 -1 13 -4 13 -8 0 -5
0 -12 0 -18 0 -5 -7 -7 -15 -4 -8 4 -15 2 -15 -4 0 -5 -10 -13 -22 -16 -22 -7
-22 -7 -3 -16 11 -5 16 -9 10 -9 -10 -1 -21 2 -172 42 -93 24 -131 23 -50 -1
238 -73 454 -174 650 -302 70 -47 94 -78 30 -40 -42 25 -124 35 -135 17 -10
-17 -179 -9 -199 9 -13 12 -25 13 -60 5 -28 -6 -45 -7 -47 -1 -2 6 -10 10 -18
10 -8 0 -14 7 -14 16 0 11 -5 14 -17 10 -9 -4 -20 -1 -25 6 -6 10 -10 10 -16
1 -6 -10 -15 -9 -37 3 -27 14 -31 14 -42 -1 -11 -16 -14 -15 -34 4 -13 12 -31
21 -41 21 -20 0 -24 16 -5 23 7 2 8 8 3 13 -5 5 -11 4 -13 -3 -5 -15 -33 -18
-33 -4 0 8 -36 18 -87 25 -13 1 -31 12 -41 24 -11 12 -22 19 -26 15 -3 -3 -6
5 -6 18 0 15 -3 20 -8 12 -6 -9 -19 -4 -47 19 -24 20 -40 28 -42 21 -6 -16
-39 2 -70 37 -13 14 -23 21 -23 15 0 -5 -7 1 -16 13 -8 12 -30 30 -47 39 -37
18 -65 48 -78 80 -5 13 -14 20 -22 17 -8 -3 -20 2 -27 12 -13 15 -9 15 45 10
57 -6 53 -4 -70 39 -263 92 -414 186 -467 290 -25 47 -49 254 -47 392 1 51 -1
94 -4 95 -3 2 -20 -17 -38 -42 -55 -78 -213 -225 -309 -288 -176 -116 -319
-158 -505 -149 -130 7 -216 29 -335 89 -94 47 -216 135 -270 193 -33 35 -30
34 33 -13 77 -58 106 -76 114 -68 3 3 -8 16 -23 30 -36 31 -17 33 39 5 80 -42
267 -83 267 -60 0 6 -11 13 -25 17 -26 6 -32 18 -15 29 6 3 10 15 10 26 0 11
-4 18 -9 15 -11 -7 -21 17 -21 49 0 13 -6 30 -13 37 -8 7 -17 31 -20 53 -4 22
-11 41 -17 43 -13 5 -13 32 0 32 6 0 10 4 10 10 0 5 -7 7 -15 4 -11 -4 -16 6
-21 45 -4 30 -12 51 -19 51 -7 0 -12 14 -13 31 0 17 -6 37 -13 45 -8 10 -8 14
0 14 6 0 11 9 11 20 0 22 -15 27 -23 8 -3 -7 -6 3 -8 22 -1 19 -3 40 -4 45
-13 56 -19 76 -26 81 -5 3 -9 16 -9 30 0 13 -4 24 -9 24 -5 0 -9 26 -8 59 0
46 -5 65 -21 86 -12 15 -22 41 -22 57 0 16 -7 36 -15 44 -10 10 -13 24 -9 40
5 20 2 26 -16 31 -19 5 -22 11 -17 43 3 24 -3 58 -15 91 -24 67 -38 124 -43
169 -6 66 -18 120 -26 126 -5 3 -6 25 -2 50 4 30 2 48 -5 53 -7 4 -13 30 -14
59 -1 29 -6 52 -11 52 -5 0 -7 14 -3 30 4 22 2 30 -8 30 -9 0 -17 16 -21 43
-4 23 -11 47 -16 53 -6 7 -4 16 6 24 16 14 21 60 5 60 -5 0 -13 -8 -19 -17 -7
-13 -8 -5 -4 27 3 25 9 49 14 54 4 5 3 16 -3 25 -8 13 -5 28 11 61 21 44 16
70 -15 70 -13 0 -13 15 2 88 2 12 1 22 -4 22 -8 0 -32 43 -32 55 0 3 9 5 20 5
19 0 20 4 15 53 -5 44 -4 50 7 36 9 -12 20 -14 36 -8 22 8 31 29 12 29 -5 0
-10 5 -10 11 0 6 7 8 15 5 9 -3 23 -2 33 3 9 5 31 14 47 21 17 7 38 17 49 22
10 5 37 11 60 13 22 1 54 8 69 14 16 6 41 11 56 11 15 0 32 5 39 12 10 10 165
28 249 28 16 0 21 5 17 15 -5 11 -22 15 -62 15 -30 0 -53 3 -49 6 3 4 88 1
189 -5 101 -6 263 -13 361 -15 166 -3 177 -2 177 16 0 10 -4 18 -8 18 -5 0
-19 9 -32 20 -28 24 -6 28 28 4 16 -11 41 -15 90 -13 37 2 81 0 97 -4 29 -7
29 -7 5 4 -21 10 -22 13 -7 16 21 5 101 -20 177 -56 30 -14 60 -26 65 -26 6 0
28 -11 50 -23 74 -43 72 -43 68 -14 -6 35 7 19 51 -68 63 -122 121 -351 147
-582 7 -59 16 -105 20 -102 5 3 24 55 43 117 103 326 151 683 127 937 -33 349
-165 648 -391 884 -202 212 -432 344 -713 411 -174 41 -386 59 -557 45z m2450
-4820 c0 -5 -2 -10 -4 -10 -3 0 -8 5 -11 10 -3 6 -1 10 4 10 6 0 11 -4 11 -10z
m-60 -30 c0 -5 -4 -10 -10 -10 -5 0 -10 5 -10 10 0 6 5 10 10 10 6 0 10 -4 10
-10z m237 -2216 c-3 -3 -12 -4 -19 -1 -8 3 -5 6 6 6 11 1 17 -2 13 -5z m-47
-13 c-26 -15 -66 -24 -55 -13 6 5 19 12 30 15 32 8 41 7 25 -2z m-80 -31 c-20
-13 -43 -13 -35 0 3 6 16 10 28 10 18 0 19 -2 7 -10z m-57 -21 c-8 -8 -16 -8
-30 0 -16 9 -14 10 12 11 21 0 26 -3 18 -11z m-78 -16 c-16 -3 -33 -10 -37
-16 -5 -8 -8 -8 -8 -1 0 18 12 24 44 23 l31 -2 -30 -4z"/>
<path d="M5478 3203 c6 -2 18 -2 25 0 6 3 1 5 -13 5 -14 0 -19 -2 -12 -5z"/>
<path d="M5178 3143 c7 -3 16 -2 19 1 4 3 -2 6 -13 5 -11 0 -14 -3 -6 -6z"/>
<path d="M5827 3036 c-21 -16 -22 -26 -3 -26 8 0 17 7 20 16 9 23 4 25 -17 10z"/>
<path d="M1923 523 c9 -2 23 -2 30 0 6 3 -1 5 -18 5 -16 0 -22 -2 -12 -5z"/>
<path d="M5303 483 c9 -2 23 -2 30 0 6 3 -1 5 -18 5 -16 0 -22 -2 -12 -5z"/>
<path d="M5228 463 c6 -2 18 -2 25 0 6 3 1 5 -13 5 -14 0 -19 -2 -12 -5z"/>
</g>
</svg>
