<svg xmlns="http://www.w3.org/2000/svg" viewBox="0 0 4680 3120"><defs><style>.cls-1{fill:#fff;}.cls-2{fill:#f3feff;}.cls-3{fill:#848484;}.cls-4{fill:#e0e0e0;}.cls-5{fill:#ccc;}.cls-6{opacity:0.15;}.cls-7{fill:#898989;}.cls-8{fill:#8ccfbc;}.cls-9{fill:#c9eef4;}.cls-10{fill:#d4f9ff;}.cls-11{fill:#606060;}.cls-12{fill:#146075;}.cls-13{fill:#297b96;}.cls-14{fill:#1e3f42;}.cls-15{fill:#2d6366;}.cls-16{fill:#0b2326;}.cls-17{fill:#153335;}.cls-18{fill:#2e505b;}.cls-19{fill:#fff2e2;}.cls-20{fill:#516f7b;}.cls-21{opacity:0.36;}.cls-22{fill:#133742;}.cls-23{fill:#c0e9f2;}.cls-24{fill:#ffd488;}.cls-25{fill:#d34646;}.cls-26{fill:#efab22;}.cls-27{fill:#185d70;}.cls-28{fill:#aa2727;}.cls-29{fill:#fdc348;}.cls-30{fill:#44959e;}.cls-31{fill:#78c5d1;}.cls-32{fill:#dbb691;}.cls-33{fill:#efcfaf;}.cls-34{fill:#f4ddc3;}.cls-35{opacity:0.17;}.cls-36{fill:#efc19e;}.cls-37{fill:#6a311a;}.cls-38{fill:#512211;}.cls-39{fill:#280b03;}.cls-40{fill:none;}.cls-41{fill:#380e02;}.cls-42{fill:#84391f;}.cls-43{fill:#011722;}.cls-44{fill:#043142;}.cls-45{fill:#ff8f71;}.cls-46{fill:#164260;}.cls-47{fill:#0e3951;}.cls-48{fill:#ffb78f;}.cls-49{fill:#ea6363;}.cls-50{fill:#e55a5a;}.cls-51{fill:#ea6d54;}.cls-52{fill:#062938;}.cls-53{fill:#093a49;}.cls-54{fill:#c64040;}.cls-55{opacity:0.35;}.cls-56{fill:#c68b22;}.cls-57{fill:#ef7070;}.cls-58{fill:#042a33;}.cls-59{fill:#ad3434;}.cls-60{fill:#dd4e4e;}.cls-61{fill:#f7af31;}</style></defs><title>03</title><g id="_03" data-name="03"><rect id="_03-2" data-name="03" class="cls-1" width="4680" height="3120"/><path class="cls-2" d="M3514,1050.38c-35.14-39-93.38-45.13-145.86-45-107.18,0-206.8,59-312.45,67.32-146.47,11.54-175.19-81.87-266.29-195.58C2618.44,663.71,2336.83,365.47,2036,518.65c-201,102.36-338,320-343.36,545.52a606.35,606.35,0,0,0-326.45-76.75c-84.57,4.32-171.76,28.74-232.57,87.66-274.68,266.12,90.35,602,286.47,780.07,273.22,248.08,691.27,378.2,1059.87,382.55,297.71,3.52,602.83-92.88,818.46-298.19s328.14-525.52,251.16-813.13C3542.27,1099.09,3532.9,1071.35,3514,1050.38Z"/><path class="cls-3" d="M3773.64,2745.72c-2.9-.34-4.65-1.59-6.9-3.35-2.74-2.15-5.46-4.33-8.19-6.5l-19.63-15.55-50.26-39.83-61.2-48.5-67.67-53.63-69.67-55.2-67.18-53.25-60.24-47.73-48.82-38.68L3281,2357.41l-12.57-9.95H1607.59l-7,5.56-18.44,14.62L1554,2390l-36.13,28.63-42.37,33.58-46.9,37.17-49.71,39.39L1328.1,2569,1278,2608.67l-47.74,37.84-43.64,34.58-37.81,30-30.25,24-11.75,9.31-4.93,3.91a10.59,10.59,0,0,1-2.43,1.87c-1,.38-13.1-.18-13.1,0,0,3.75-1.65,9.39,3.12,9.83.38,0,.79,0,1.18,0,2.22,0,4.45,0,6.67,0H3782c5.49,0,7.71.09,7.84-5.72.06-3.14,0-6.28,0-9.42C3789.82,2746.29,3775.25,2745.91,3773.64,2745.72Z"/><polygon class="cls-4" points="1234.15 2626.17 1085.01 2750.23 3794.42 2750.23 3645.27 2626.17 1234.15 2626.17"/><polygon class="cls-5" points="1415.26 2475.53 1234.15 2626.17 3645.27 2626.17 3464.17 2475.53 1415.26 2475.53"/><polygon class="cls-4" points="1607.02 2316.02 1415.26 2475.53 3464.17 2475.53 3272.41 2316.02 1607.02 2316.02"/><g class="cls-6"><path class="cls-7" d="M1670.08,2418.08a4,4,0,0,0-4,4v23.46a4,4,0,0,0,8,0v-23.46A4,4,0,0,0,1670.08,2418.08Z"/></g><g class="cls-6"><path class="cls-7" d="M1644.35,2418.08a4,4,0,0,0-4,4v23.46a4,4,0,0,0,8,0v-23.46A4,4,0,0,0,1644.35,2418.08Z"/></g><g class="cls-6"><path class="cls-7" d="M1697.42,2418.08a4,4,0,0,0-4,4v23.46a4,4,0,0,0,8,0v-23.46A4,4,0,0,0,1697.42,2418.08Z"/></g><g class="cls-6"><path class="cls-7" d="M1726,2418.08a4,4,0,0,0-4,4v23.46a4,4,0,0,0,8,0v-23.46A4,4,0,0,0,1726,2418.08Z"/></g><g class="cls-6"><path class="cls-7" d="M1751.41,2418.08a4,4,0,0,0-4,4v23.46a4,4,0,0,0,8,0v-23.46A4,4,0,0,0,1751.41,2418.08Z"/></g><g class="cls-6"><path class="cls-7" d="M1794.32,2416.49a4,4,0,0,0-4,4v23.45a4,4,0,0,0,8,0v-23.45A4,4,0,0,0,1794.32,2416.49Z"/></g><g class="cls-6"><path class="cls-7" d="M1771.56,2416.49a4,4,0,0,0-4,4v23.45a4,4,0,0,0,8,0v-23.45A4,4,0,0,0,1771.56,2416.49Z"/></g><g class="cls-6"><path class="cls-7" d="M1819.55,2416.49a4,4,0,0,0-4,4v23.45a4,4,0,0,0,8,0v-23.45A4,4,0,0,0,1819.55,2416.49Z"/></g><g class="cls-6"><path class="cls-7" d="M1563.6,2485.64a4,4,0,0,0-4,4v23.45a4,4,0,0,0,8,0v-23.45A4,4,0,0,0,1563.6,2485.64Z"/></g><g class="cls-6"><path class="cls-7" d="M1537.86,2485.64a4,4,0,0,0-4,4v23.45a4,4,0,0,0,8,0v-23.45A4,4,0,0,0,1537.86,2485.64Z"/></g><g class="cls-6"><path class="cls-7" d="M1590.93,2485.64a4,4,0,0,0-4,4v23.45a4,4,0,0,0,8,0v-23.45A4,4,0,0,0,1590.93,2485.64Z"/></g><g class="cls-6"><path class="cls-7" d="M1619.54,2485.64a4,4,0,0,0-4,4v23.45a4,4,0,0,0,8,0v-23.45A4,4,0,0,0,1619.54,2485.64Z"/></g><g class="cls-6"><path class="cls-7" d="M1644.92,2485.64a4,4,0,0,0-4,4v23.45a4,4,0,0,0,8,0v-23.45A4,4,0,0,0,1644.92,2485.64Z"/></g><g class="cls-6"><path class="cls-7" d="M1687.84,2484a4,4,0,0,0-4,4v23.45a4,4,0,0,0,8,0V2488A4,4,0,0,0,1687.84,2484Z"/></g><g class="cls-6"><path class="cls-7" d="M1665.07,2484a4,4,0,0,0-4,4v23.45a4,4,0,0,0,8,0V2488A4,4,0,0,0,1665.07,2484Z"/></g><g class="cls-6"><path class="cls-7" d="M1713.06,2484a4,4,0,0,0-4,4v23.45a4,4,0,0,0,8,0V2488A4,4,0,0,0,1713.06,2484Z"/></g><g class="cls-6"><path class="cls-7" d="M1608.21,2527.07a4,4,0,0,0-4,4v23.45a4,4,0,0,0,8,0v-23.45A4,4,0,0,0,1608.21,2527.07Z"/></g><g class="cls-6"><path class="cls-7" d="M1582.48,2527.07a4,4,0,0,0-4,4v23.45a4,4,0,0,0,8,0v-23.45A4,4,0,0,0,1582.48,2527.07Z"/></g><g class="cls-6"><path class="cls-7" d="M1635.55,2527.07a4,4,0,0,0-4,4v23.45a4,4,0,0,0,8,0v-23.45A4,4,0,0,0,1635.55,2527.07Z"/></g><g class="cls-6"><path class="cls-7" d="M1664.16,2527.07a4,4,0,0,0-4,4v23.45a4,4,0,0,0,8,0v-23.45A4,4,0,0,0,1664.16,2527.07Z"/></g><g class="cls-6"><path class="cls-7" d="M1689.54,2527.07a4,4,0,0,0-4,4v23.45a4,4,0,0,0,8,0v-23.45A4,4,0,0,0,1689.54,2527.07Z"/></g><g class="cls-6"><path class="cls-7" d="M1732.46,2525.47a4,4,0,0,0-4,4v23.45a4,4,0,0,0,8,0v-23.45A4,4,0,0,0,1732.46,2525.47Z"/></g><g class="cls-6"><path class="cls-7" d="M1709.69,2525.47a4,4,0,0,0-4,4v23.45a4,4,0,0,0,8,0v-23.45A4,4,0,0,0,1709.69,2525.47Z"/></g><g class="cls-6"><path class="cls-7" d="M1757.68,2525.47a4,4,0,0,0-4,4v23.45a4,4,0,0,0,8,0v-23.45A4,4,0,0,0,1757.68,2525.47Z"/></g><g class="cls-6"><path class="cls-7" d="M2801,2646.77a4,4,0,0,0-4,4v23.46a4,4,0,0,0,8,0v-23.46A4,4,0,0,0,2801,2646.77Z"/></g><g class="cls-6"><path class="cls-7" d="M2775.28,2646.77a4,4,0,0,0-4,4v23.46a4,4,0,0,0,8,0v-23.46A4,4,0,0,0,2775.28,2646.77Z"/></g><g class="cls-6"><path class="cls-7" d="M2828.34,2646.77a4,4,0,0,0-4,4v23.46a4,4,0,0,0,8,0v-23.46A4,4,0,0,0,2828.34,2646.77Z"/></g><g class="cls-6"><path class="cls-7" d="M2857,2646.77a4,4,0,0,0-4,4v23.46a4,4,0,1,0,8,0v-23.46A4,4,0,0,0,2857,2646.77Z"/></g><g class="cls-6"><path class="cls-7" d="M2882.33,2646.77a4,4,0,0,0-4,4v23.46a4,4,0,0,0,8,0v-23.46A4,4,0,0,0,2882.33,2646.77Z"/></g><g class="cls-6"><path class="cls-7" d="M2925.25,2645.18a4,4,0,0,0-4,4v23.45a4,4,0,0,0,8,0v-23.45A4,4,0,0,0,2925.25,2645.18Z"/></g><g class="cls-6"><path class="cls-7" d="M2902.48,2645.18a4,4,0,0,0-4,4v23.45a4,4,0,0,0,8,0v-23.45A4,4,0,0,0,2902.48,2645.18Z"/></g><g class="cls-6"><path class="cls-7" d="M2950.48,2645.18a4,4,0,0,0-4,4v23.45a4,4,0,0,0,8,0v-23.45A4,4,0,0,0,2950.48,2645.18Z"/></g><g class="cls-6"><path class="cls-7" d="M2945.09,2685.8a4,4,0,0,0-4,4v23.45a4,4,0,0,0,8,0V2689.8A4,4,0,0,0,2945.09,2685.8Z"/></g><g class="cls-6"><path class="cls-7" d="M2919.36,2685.8a4,4,0,0,0-4,4v23.45a4,4,0,0,0,8,0V2689.8A4,4,0,0,0,2919.36,2685.8Z"/></g><g class="cls-6"><path class="cls-7" d="M2972.42,2685.8a4,4,0,0,0-4,4v23.45a4,4,0,0,0,8,0V2689.8A4,4,0,0,0,2972.42,2685.8Z"/></g><g class="cls-6"><path class="cls-7" d="M3001,2685.8a4,4,0,0,0-4,4v23.45a4,4,0,0,0,8,0V2689.8A4,4,0,0,0,3001,2685.8Z"/></g><g class="cls-6"><path class="cls-7" d="M3026.42,2685.8a4,4,0,0,0-4,4v23.45a4,4,0,0,0,8,0V2689.8A4,4,0,0,0,3026.42,2685.8Z"/></g><g class="cls-6"><path class="cls-7" d="M3069.33,2684.2a4,4,0,0,0-4,4v23.46a4,4,0,0,0,8,0V2688.2A4,4,0,0,0,3069.33,2684.2Z"/></g><g class="cls-6"><path class="cls-7" d="M3046.57,2684.2a4,4,0,0,0-4,4v23.46a4,4,0,0,0,8,0V2688.2A4,4,0,0,0,3046.57,2684.2Z"/></g><g class="cls-6"><path class="cls-7" d="M3094.56,2684.2a4,4,0,0,0-4,4v23.46a4,4,0,0,0,8,0V2688.2A4,4,0,0,0,3094.56,2684.2Z"/></g><g class="cls-6"><path class="cls-7" d="M2980.16,2576.15a4,4,0,0,0-4,4v23.46a4,4,0,1,0,8,0v-23.46A4,4,0,0,0,2980.16,2576.15Z"/></g><g class="cls-6"><path class="cls-7" d="M2954.43,2576.15a4,4,0,0,0-4,4v23.46a4,4,0,0,0,8,0v-23.46A4,4,0,0,0,2954.43,2576.15Z"/></g><g class="cls-6"><path class="cls-7" d="M3007.5,2576.15a4,4,0,0,0-4,4v23.46a4,4,0,1,0,8,0v-23.46A4,4,0,0,0,3007.5,2576.15Z"/></g><g class="cls-6"><path class="cls-7" d="M3036.11,2576.15a4,4,0,0,0-4,4v23.46a4,4,0,0,0,8,0v-23.46A4,4,0,0,0,3036.11,2576.15Z"/></g><g class="cls-6"><path class="cls-7" d="M3061.49,2576.15a4,4,0,0,0-4,4v23.46a4,4,0,1,0,8,0v-23.46A4,4,0,0,0,3061.49,2576.15Z"/></g><g class="cls-6"><path class="cls-7" d="M3104.4,2574.56a4,4,0,0,0-4,4V2602a4,4,0,0,0,8,0v-23.45A4,4,0,0,0,3104.4,2574.56Z"/></g><g class="cls-6"><path class="cls-7" d="M3081.64,2574.56a4,4,0,0,0-4,4V2602a4,4,0,0,0,8,0v-23.45A4,4,0,0,0,3081.64,2574.56Z"/></g><g class="cls-6"><path class="cls-7" d="M3129.63,2574.56a4,4,0,0,0-4,4V2602a4,4,0,0,0,8,0v-23.45A4,4,0,0,0,3129.63,2574.56Z"/></g><g class="cls-6"><path class="cls-7" d="M3107.37,2480.36a4,4,0,0,0-4,4v23.46a4,4,0,1,0,8,0v-23.46A4,4,0,0,0,3107.37,2480.36Z"/></g><g class="cls-6"><path class="cls-7" d="M3081.64,2480.36a4,4,0,0,0-4,4v23.46a4,4,0,0,0,8,0v-23.46A4,4,0,0,0,3081.64,2480.36Z"/></g><g class="cls-6"><path class="cls-7" d="M3134.7,2480.36a4,4,0,0,0-4,4v23.46a4,4,0,1,0,8,0v-23.46A4,4,0,0,0,3134.7,2480.36Z"/></g><g class="cls-6"><path class="cls-7" d="M3163.31,2480.36a4,4,0,0,0-4,4v23.46a4,4,0,0,0,8,0v-23.46A4,4,0,0,0,3163.31,2480.36Z"/></g><g class="cls-6"><path class="cls-7" d="M3188.69,2480.36a4,4,0,0,0-4,4v23.46a4,4,0,0,0,8,0v-23.46A4,4,0,0,0,3188.69,2480.36Z"/></g><g class="cls-6"><path class="cls-7" d="M3231.61,2478.76a4,4,0,0,0-4,4v23.46a4,4,0,0,0,8,0v-23.46A4,4,0,0,0,3231.61,2478.76Z"/></g><g class="cls-6"><path class="cls-7" d="M3208.84,2478.76a4,4,0,0,0-4,4v23.46a4,4,0,0,0,8,0v-23.46A4,4,0,0,0,3208.84,2478.76Z"/></g><g class="cls-6"><path class="cls-7" d="M3256.84,2478.76a4,4,0,0,0-4,4v23.46a4,4,0,0,0,8,0v-23.46A4,4,0,0,0,3256.84,2478.76Z"/></g><g class="cls-6"><path class="cls-7" d="M2994.93,2437a4,4,0,0,0-4,4v23.45a4,4,0,0,0,8,0V2441A4,4,0,0,0,2994.93,2437Z"/></g><g class="cls-6"><path class="cls-7" d="M2969.19,2437a4,4,0,0,0-4,4v23.45a4,4,0,0,0,8,0V2441A4,4,0,0,0,2969.19,2437Z"/></g><g class="cls-6"><path class="cls-7" d="M3022.26,2437a4,4,0,0,0-4,4v23.45a4,4,0,0,0,8,0V2441A4,4,0,0,0,3022.26,2437Z"/></g><g class="cls-6"><path class="cls-7" d="M3050.87,2437a4,4,0,0,0-4,4v23.45a4,4,0,0,0,8,0V2441A4,4,0,0,0,3050.87,2437Z"/></g><g class="cls-6"><path class="cls-7" d="M3076.25,2437a4,4,0,0,0-4,4v23.45a4,4,0,0,0,8,0V2441A4,4,0,0,0,3076.25,2437Z"/></g><g class="cls-6"><path class="cls-7" d="M3119.17,2435.36a4,4,0,0,0-4,4v23.45a4,4,0,0,0,8,0v-23.45A4,4,0,0,0,3119.17,2435.36Z"/></g><g class="cls-6"><path class="cls-7" d="M3096.4,2435.36a4,4,0,0,0-4,4v23.45a4,4,0,0,0,8,0v-23.45A4,4,0,0,0,3096.4,2435.36Z"/></g><g class="cls-6"><path class="cls-7" d="M3144.39,2435.36a4,4,0,0,0-4,4v23.45a4,4,0,0,0,8,0v-23.45A4,4,0,0,0,3144.39,2435.36Z"/></g><g class="cls-6"><path class="cls-7" d="M3042.53,2362.25a4,4,0,0,0-4,4v23.45a4,4,0,0,0,8,0v-23.45A4,4,0,0,0,3042.53,2362.25Z"/></g><g class="cls-6"><path class="cls-7" d="M3016.8,2362.25a4,4,0,0,0-4,4v23.45a4,4,0,0,0,8,0v-23.45A4,4,0,0,0,3016.8,2362.25Z"/></g><g class="cls-6"><path class="cls-7" d="M3069.87,2362.25a4,4,0,0,0-4,4v23.45a4,4,0,0,0,8,0v-23.45A4,4,0,0,0,3069.87,2362.25Z"/></g><g class="cls-6"><path class="cls-7" d="M3098.48,2362.25a4,4,0,0,0-4,4v23.45a4,4,0,0,0,8,0v-23.45A4,4,0,0,0,3098.48,2362.25Z"/></g><g class="cls-6"><path class="cls-7" d="M3123.86,2362.25a4,4,0,0,0-4,4v23.45a4,4,0,0,0,8,0v-23.45A4,4,0,0,0,3123.86,2362.25Z"/></g><g class="cls-6"><path class="cls-7" d="M3166.78,2360.65a4,4,0,0,0-4,4v23.46a4,4,0,0,0,8,0v-23.46A4,4,0,0,0,3166.78,2360.65Z"/></g><g class="cls-6"><path class="cls-7" d="M3144,2360.65a4,4,0,0,0-4,4v23.46a4,4,0,1,0,8,0v-23.46A4,4,0,0,0,3144,2360.65Z"/></g><g class="cls-6"><path class="cls-7" d="M3192,2360.65a4,4,0,0,0-4,4v23.46a4,4,0,1,0,8,0v-23.46A4,4,0,0,0,3192,2360.65Z"/></g><g class="cls-6"><path class="cls-7" d="M1421,2659.3a4,4,0,0,0-4,4v23.45a4,4,0,0,0,8,0V2663.3A4,4,0,0,0,1421,2659.3Z"/></g><g class="cls-6"><path class="cls-7" d="M1395.26,2659.3a4,4,0,0,0-4,4v23.45a4,4,0,0,0,8,0V2663.3A4,4,0,0,0,1395.26,2659.3Z"/></g><g class="cls-6"><path class="cls-7" d="M1448.33,2659.3a4,4,0,0,0-4,4v23.45a4,4,0,0,0,8,0V2663.3A4,4,0,0,0,1448.33,2659.3Z"/></g><g class="cls-6"><path class="cls-7" d="M1476.94,2659.3a4,4,0,0,0-4,4v23.45a4,4,0,0,0,8,0V2663.3A4,4,0,0,0,1476.94,2659.3Z"/></g><g class="cls-6"><path class="cls-7" d="M1502.32,2659.3a4,4,0,0,0-4,4v23.45a4,4,0,0,0,8,0V2663.3A4,4,0,0,0,1502.32,2659.3Z"/></g><g class="cls-6"><path class="cls-7" d="M1545.24,2657.7a4,4,0,0,0-4,4v23.46a4,4,0,0,0,8,0V2661.7A4,4,0,0,0,1545.24,2657.7Z"/></g><g class="cls-6"><path class="cls-7" d="M1522.47,2657.7a4,4,0,0,0-4,4v23.46a4,4,0,0,0,8,0V2661.7A4,4,0,0,0,1522.47,2657.7Z"/></g><g class="cls-6"><path class="cls-7" d="M1570.46,2657.7a4,4,0,0,0-4,4v23.46a4,4,0,0,0,8,0V2661.7A4,4,0,0,0,1570.46,2657.7Z"/></g><path class="cls-8" d="M3946.29,2048c-9.14-4.49-20.11-9.69-21.23-19-.67-5.62,2.65-10.91,5.86-15.76,39-58.86,78.55-121.11,64.7-192.71-7.56-42.69-30.14-84.07-67.21-111.53-81.69-60.49-178.92-20-246.67,36.48,1-17.54,4.93-38.33,5.15-57.4,1-84-20.48-183.57-81.49-249.56-132.63-143.59-400.35-100.34-505.46,48-37.22,52.52-45.68,108.83-66.19,166-16.44-26.12-37.57-48.94-57.83-73a573,573,0,0,0-86.22-82.73c-68.15-53-111.54-64.43-199.79-42.25-96.52,24.25-180,85.2-230.62,163.15s-68.91,171.84-55.7,261.57c-32.83-52.41-115.83-72.94-173.44-42.9-25.11,13.1-44.46,33.63-60.4,55.49-91.82,125.82-77.59,298.32,2,431.25L3590,2330.5c119.26.62,266.57-35.92,356.86-107.23C4010.34,2173.14,4032.63,2090.41,3946.29,2048Z"/><path class="cls-8" d="M2244.77,1732.06c-96.76-15.75-196.26,8.82-285.8,53.48,34.63-89.9,66.93-181.89,81.54-278.44s10.56-198.83-25.36-287.85-106.71-162.77-191.92-181.46c-46.47-10.19-94.85-4-140.65,9.8-68.32,20.6-132.71,58.54-186,110.88q-16.2,15.9-31,33.55c-78.47,93.86-121,217.74-161.38,338.34-15.43-125.76-156.85-212.79-261.53-194.75h0c-223.9,38.62-208.71,329.45-180.22,517.49-5.88-38.8-111.83-54.1-138.22-52.27h0c-111,7.72-162.58,128.22-163.17,240.73-.74,142.63,69.7,242.3,200.61,248.48,59.55,2.81,113.42,21.61,174,22.59L1582.23,2323c85.35,1.37,168.69-6.26,254.69-4l277.7,7.38c64,1.7,128.57,3.33,191.28-11.23s124.23-47,164.93-102.78c62.22-85.27,63.45-215.37,13.75-310.15S2341.53,1747.81,2244.77,1732.06Z"/><path class="cls-9" d="M3657.12,1003.06c13.52-18.3-8.11-59.44-18.35-75-22.34-34-57.29-53.28-96.95-59-86.45-12.38-177.05,27.94-196.61,120.05-31-57.81-112.54-75.63-169.05-47.52-59.07,29.38-96,96.33-98.39,161.21-1,26.35,5.93,53.87,23.58,73.45,23.36,25.92,59.4,34.88,98.09,37,45.26,2.48,94.16-4.4,130.68-4.45,131.3-.18,262.53-1.42,393.81-1.42,58.26,0,103.39-41.81,112.12-99.07C3850,1016.72,3727,908.38,3657.12,1003.06Z"/><path class="cls-10" d="M3018.41,651.47c10.32-14-6.2-45.41-14-57.33-17.06-26-43.75-40.7-74.05-45-66-9.46-135.25,21.34-150.19,91.7-23.67-44.16-86-57.77-129.13-36.3-45.13,22.45-73.33,73.59-75.17,123.15-.75,20.13,4.53,41.15,18,56.11,17.84,19.79,45.37,26.64,74.93,28.26,34.57,1.89,71.93-3.36,99.82-3.4,100.3-.15,200.55-1.09,300.83-1.09,44.5,0,79-31.94,85.65-75.68C3165.75,661.9,3071.81,579.14,3018.41,651.47Z"/><path class="cls-10" d="M1330.94,1238.29c8.41-11.39-5-37-11.42-46.7-13.9-21.18-35.65-33.15-60.32-36.69-53.8-7.7-110.17,17.39-122.34,74.7-19.28-36-70-47.06-105.19-29.57-36.75,18.28-59.72,59.94-61.22,100.31-.61,16.4,3.69,33.52,14.67,45.7,14.54,16.13,37,21.7,61,23,28.16,1.54,58.59-2.74,81.31-2.77,81.7-.11,163.35-.88,245-.88,36.25,0,64.33-26,69.76-61.65C1451,1246.79,1374.44,1179.38,1330.94,1238.29Z"/><path class="cls-9" d="M1497,787.3c14.57-19.74-8.75-64.1-19.8-80.94-24.09-36.7-61.78-57.46-104.55-63.58-93.24-13.36-191,30.13-212,129.46-33.41-62.34-121.36-81.56-182.31-51.24C914.62,752.69,874.8,824.89,872.2,894.86c-1.06,28.42,6.4,58.09,25.44,79.22,25.19,27.94,64.05,37.61,105.79,39.89,48.81,2.67,101.55-4.74,140.93-4.8,141.61-.2,283.14-1.53,424.71-1.53,62.84,0,111.51-45.09,120.92-106.85C1705.05,802,1572.43,685.19,1497,787.3Z"/><path class="cls-11" d="M4109,2323.8h-3174a10,10,0,0,0,0,20H4109a10,10,0,0,0,0-20Z"/><path class="cls-12" d="M3796.25,1960.49c-22.77,3.63-44.45,12.64-65.23,22.33-40.3,18.81-78.45,44.88-121.47,56.87-47.54,13.24-99.1,11.39-143.41,35.55-41.93,22.87-69.34,64.84-104.33,97.36-26.72,24.83-141.67,80-108.44,115.94,34.31,37.13,148.33-18,184.66-28.25,25.41-7.19,50.95-14.43,74.94-25.49,28.48-13.13,54.24-31.38,79.81-49.52,45.83-32.52,91-66,138.48-95.74a449.37,449.37,0,0,0,110.1-97.45c5-6.19,10.16-14,7.66-21.55C3843.06,1952.55,3809.67,1958.35,3796.25,1960.49Z"/><path class="cls-12" d="M3307.28,1608.16c-4.37-29.34-9.54-72.25-25.42-97.79-14-22.52-33-17.32-42.66,5.06-36.56,84.58-73.9,174.08-63.43,265.62,5.15,45,21.8,87.55,28.38,132.23,6.69,45.47-7,78-13,122a169.85,169.85,0,0,0-.83,33.14c.5,8.35,1.36,16.69,2.23,25l12.69,122c6,57.56,47.3-7.16,54-28.8,49.62-160.56,61.46-330.8,54.63-498.71C3312.76,1661.25,3311.21,1634.56,3307.28,1608.16Z"/><path class="cls-13" d="M3534.27,1459.59c-29.51,17.48-57.36,58.17-77.23,85.55-17.89,24.64-33.52,50.83-48.67,77.24-95.37,166.28-173.08,344.76-207.46,533.33-4.63,25.43,3.07,112.67,39.45,57.59q38.57-58.37,77.11-116.73c5.25-8,10.53-16,15.43-24.13a194.6,194.6,0,0,0,16.62-34c17.11-47.67,20.39-87.82,51.12-130.3,30.18-41.74,69.47-76.05,98.36-118.83,58.82-87.1,68.2-197.32,75.77-302.15C3576.78,1459.45,3560.3,1444.18,3534.27,1459.59Z"/><path class="cls-13" d="M3827.83,1627.72c-34.59,10-73.55,44.09-100.94,66.71-24.63,20.36-47.39,42.88-69.71,65.76-140.53,144-266.31,305.06-350.69,487.73-11.37,24.63-26.41,115.32,25,68.88q54.48-49.23,109-98.44c7.42-6.71,14.87-13.45,22-20.49a203.63,203.63,0,0,0,25.8-30.16c29.89-44,43.75-83.93,86.12-119.05,41.62-34.51,90.56-59.09,131.14-95,82.62-73.12,121-182.7,156.22-287.27C3871.07,1638.72,3858.32,1618.88,3827.83,1627.72Z"/><path class="cls-12" d="M3573.28,1646.85c-7-1.19-13.89,2.46-19.9,6.27-57.55,36.48-94.36,97.28-129.09,155.9-30.57,51.59-61.35,103.62-81,160.3-22.92,66.27-32.66,140.43-42.35,209.08-3.85,27.25,5.89,100.24,40.62,51.66q42.71-59.73,85.4-119.48c5.81-8.13,11.65-16.31,17.11-24.71,7.24-11.14,13.81-22.66,18.75-35,12.37-30.84,19.81-63.58,33.83-93.76,12.93-27.82,34.75-46.12,50.45-70.74,36.41-57.09,47.25-140.4,44.43-206.5C3591,1666.22,3586.76,1649.13,3573.28,1646.85Z"/><path class="cls-13" d="M1481.07,2034.49c-6.41-30.7-18.42-59.89-30.37-88.88-21.42-51.95-43.9-103.5-62.27-156.42a449.32,449.32,0,0,0-70.3-129.13c-4.91-6.28-11.35-13-19.29-12.3-18.86,1.78-20.7,35.62-21.62,49.18-1.56,23,2.36,46.15,7.15,68.57,9.29,43.49,26.16,86.52,28.2,131.13,2.25,49.3-11.11,99.13,2.51,147.73,12.89,46,47.65,82.11,71.5,123.49,18.21,31.6,46.19,156,88.69,131.66,43.88-25.11,15.73-148.57,13.85-186.28C1487.8,2086.85,1486.47,2060.34,1481.07,2034.49Z"/><path class="cls-13" d="M1377.26,2271c-145.35-84.34-308.61-134-473.78-165-26.23-4.92-52.6-9.39-79.21-11.48-29.57-2.31-72.55-6.89-101,2.86-25.08,8.59-24.27,28.28-4.63,42.71,74.24,54.58,153.1,111,244.66,121.34,45,5.07,90.21-1.62,135.22,2,45.81,3.67,74.46,24.32,116,40a170.28,170.28,0,0,0,32.11,8.24c8.25,1.38,16.58,2.41,24.87,3.43l121.73,15C1450.67,2337.12,1396.86,2282.36,1377.26,2271Z"/><path class="cls-12" d="M1302.54,2194c-6.57-6.9-13.17-13.83-20-20.44a194.52,194.52,0,0,0-29.38-23.81c-42.63-27.36-81-39.55-115.53-79-33.91-38.77-58.55-84.75-93.77-122.49-71.7-76.84-177-110.68-277.49-141.55-26.57-8.17-45.15,4.47-36,33.28,10.42,32.68,43.84,68.94,66.07,94.44,20,23,42,44.06,64.37,64.74,140.68,130.21,297.2,245.94,473.28,321.7,23.74,10.22,110.48,22.26,65-25.54Z"/><path class="cls-12" d="M1448.8,2101.45c-4.87-8.74-9.77-17.51-15-26-7-11.31-14.59-22.17-23.62-31.91-36.15-39-72-61.45-96.72-110.61-24.3-48.3-37.29-101.49-63.2-149.09-52.74-96.9-150.92-158.9-245-216.62-24.87-15.27-47.07-7.3-45.29,24.4,2,36,26.49,81.56,42.4,113.32,14.32,28.57,31.17,55.79,48.46,82.67,108.86,169.23,237.62,327.9,396.74,451.07,21.45,16.61,106.47,51.59,72.73-8.93Z"/><path class="cls-13" d="M1340.75,2090.43c-6.63-7.49-13.29-15-20.25-22.21-9.24-9.55-19-18.53-29.9-26.11-27.28-19-57.53-33.56-83.79-54-24.22-18.83-37.17-44.19-57.64-65-47.48-48.28-126.24-77.51-191.29-89.57-13.44-2.49-31-2.2-36.29,10.42-2.73,6.58-.71,14.09,1.65,20.8,22.66,64.26,73.67,113.76,123,160.75,43.43,41.35,87.24,83,138.08,114.81,59.44,37.2,129.54,63.31,194.27,88.14,25.7,9.86,99,16.72,59.45-28Z"/><path class="cls-14" d="M1094.7,1909.55a5,5,0,0,0-3.42,9.4c166.9,60.72,320.58,159.46,444.42,285.55a5,5,0,1,0,7.14-7C1418,2070.35,1263,1970.78,1094.7,1909.55Z"/><path class="cls-13" d="M1393.41,1520c-3.2,3.12-4.26,8.3-6.25,12.2a160.85,160.85,0,0,1-20.31,30.4,175.19,175.19,0,0,1-59,45.31c-3.44,1.62-7.06,3.17-10.86,3.23-9.07.15-11.81-8-3.92-12.68,4.9-2.9,10.42-4.63,15.31-7.52a218.65,218.65,0,0,0,28.83-20.39c20.84-17.44,38.45-37.26,49.68-62,6.48-14.33,7-27.73-5-39.27-9.85-9.47-24.57-15.55-37.45-20-2.31-.78-5-1.44-7,0a8,8,0,0,0-2.31,3.29c-3.7,7.88-5.38,15.53-8.18,23.71a183.08,183.08,0,0,1-10.87,25.23,173.22,173.22,0,0,1-24,35.08,126.64,126.64,0,0,1-31.9,26.34c-4.47,2.53-9.71,7.27-15.09,6.22,4.39-8.64,17.75-16.42,24.84-23.33a257.79,257.79,0,0,0,25.11-28c14.08-18.4,25.13-39.35,29.82-61.85,2.77-13.28,2.92-28.07-8.36-37.23-20-16.27-47.52-25-70.83-35.88-1.88-.88-4-1.78-6-1-4.15,1.56-2.83,7.59-1,11.56,1,2.2,1.89,4.44,2.69,6.72,7.54,21.62,6.19,46.18.46,68.13-4.41,16.86-11.36,32.94-18.86,48.69-3.34,7-6.29,14.84-10.89,21.19-1.48,2-12.27,8.77-12.06,8.28,20.23-46.3,41.09-94.49,30.55-145.69-2.84-13.77-8.08-27.52-18.13-37.42-7.41-7.3-17-12.09-26.88-15.65a141.24,141.24,0,0,0-39.21-8.07c-6.91-.42-13.89-1.25-20.64.92-1.6.51-3.3,1.29-4,2.82-.74,1.77.24,3.73,1.26,5.33,4.93,7.72,11.44,14.3,17.35,21.3,13.2,15.61,23.64,33.68,29,53.35,6.23,22.71,4.18,45-2.79,67.37-1.83,5.87-12.5,42.57-23.86,34.82-1.11-.76-.92-2.42-.56-3.73,1.87-6.91,4.73-13.53,7.06-20.31,8.76-25.5,8.7-52.9,2.09-78.69-9-35-26-84.07-70.26-83.08-9.82.22-19.49,2.62-28.81,5.78a4.29,4.29,0,0,0-2.62,1.72c-2.44,4.61,10.67,13.15,13,15.55,7.11,7.2,13.28,15.46,16.89,24.95,8.07,18,11.4,37.78,13.24,57.45.79,8.53,1.31,17.14.29,25.67-.39,3.25-1,6.59-2.93,9.3s-5.27,4.65-8.5,4a204.05,204.05,0,0,0-35-119.66c-4.25-6.25-10.43-16.31-18.48-17.92-8.87-1.77-23.63,10.06-22.69,19,.35,3.27,2.42,6.06,4.38,8.71,12.5,16.84,23.67,35,30.43,54.89.78,2.27,5.32,12.57,3.94,14.57-2.43,3.52-3.86-1.4-4.66-3.18q-2.37-5.28-4.93-10.46-5.27-10.67-11.31-20.93-7-11.94-15.06-23.25c-4.45-6.27-9.55-16-17.26-18.83-3.91-1.43-8.3-.47-12.42.5-10,2.36-20.48,4.91-28.66,11.39s-13.12,16.14-17.8,25.46l-11.59,23.12c-2.1,4.19-4.26,9-2.77,13.3,1.07,3.12,3.82,5.26,6.46,7.21a502.93,502.93,0,0,0,60.91,38.47q16.15,8.65,32.92,16.13c10.21,4.55,21.27,5.71,31,11.25,1.9,1.07,3.9,2.49,4.27,4.62.43,2.49-1.73,4.88-4.19,5.63s-5.1.29-7.6-.25c-46-9.9-83.65-40.65-121.59-67.85a9.38,9.38,0,0,0-4.72-2.17c-3-.17-5.44,2.46-7.14,5-11.22,16.56-13.24,37.3-14.8,57.07-.15,1.91-.28,3.92.58,5.61s2.58,2.78,4.23,3.76c49,29.14,108,38.14,165.48,39.9,2.39.08,4.9.18,6.91,1.42s3.23,4,1.91,6a6,6,0,0,1-1.81,1.62c-11.48,7.54-26.51,5.87-39.94,3.31a458,458,0,0,1-64.05-17.1c-14.62-5.06-29.44-10.95-45-10.59-9.69.23-20.86,4.37-23.43,13.61-1.8,6.42,1.21,13,4.14,19l12,24.29a9.35,9.35,0,0,0,1.61,2.54c1.29,1.33,3.23,1.8,5.06,2.19a431,431,0,0,0,117.29,9.07c8.68-.52,17.4-1.31,25.83-3.51,6.5-1.7,18.06-6.31,23.71-.61,1.25,1.26,1.78,3.4.68,4.82-.89,1.16-2.5,1.47-4,1.69-25.88,3.91-51.89,10.07-78,8.9a295.51,295.51,0,0,1-90.26-18.29A131.37,131.37,0,0,0,935,1660.16c3.6,5.54,7.73,10.91,13.28,14.48,7,4.49,15.61,5.73,23.92,6.87,35.72,4.89,74.08,9.36,106.83-7.25,6.14-3.11,12-6.79,18.22-9.74a55.09,55.09,0,0,1,9.18-3.5,18,18,0,0,1,4.72-1,2.72,2.72,0,0,1,2.26,1.3c2.08,3.05-11.71,13.26-14.27,15.11a95.76,95.76,0,0,1-22.61,11.89c-13.81,5.16-28.47,7.67-43.09,9.53-5,.64-10.09,1.21-15.16,1.39-18.81.63-37.06-4.2-55.3-7.8-3.53-.7-8.63-2-6.72,3,1.63,4.3,5.05,8.56,7.54,12.42a246.61,246.61,0,0,0,17.13,23.44c4.19,5.08,10.08,11.86,16.73,13.87,6.12,1.86,14.92.18,21.23-.38a211.4,211.4,0,0,0,42.76-8.41c28.07-8.51,54.44-22.33,78-39.63,4.83-3.54,10-7.4,16-7.42-4.6,18.26-20.86,31.5-37.68,40.47a170.45,170.45,0,0,1-43.15,16c-9.92,2.21-20.09,3.56-29.64,7-6.13,2.23-21.69,8.09-21,16.39.22,2.67,3.73,4.88,5.45,6.76a127.87,127.87,0,0,0,9.3,9.18,130.3,130.3,0,0,0,21.1,15.37,129,129,0,0,0,12.09,6.24c4.19,1.89,8.77,3.59,13.36,2.72,5.72-1.08,10-5.83,13.9-10.29,19.88-24.8,43-47.26,62.6-72.11a10.21,10.21,0,0,1,3.45-3.19c1.43-.66,3.4-.48,4.25.82-2.47,11.65-9,22.16-16.9,31.24s-17.1,16.89-25.94,25c-7.43,6.85-15,14.76-16.28,24.66,2.86.47,5.63-1.07,8.23-2.37,18.29-9.14,39.12-10.43,57.33-20.19,19.57-10.5,36.25-31.86,48.4-49.91,13.44-20,23.84-42.52,42.08-58.38,11.24-9.76,24.83-16.4,38.25-22.93,21.73-10.56,46.86-19.42,66.19-34.07,12.8-9.7,22.09-23.49,27.75-38.37s7.87-30.82,8.13-46.65c0-3.17,0-6.44-1.27-9.34C1403.36,1517.21,1397.69,1515.79,1393.41,1520Z"/><path class="cls-15" d="M1174.12,1600.52a1019.55,1019.55,0,0,1-76.14-69.88c-7-7.08-13.88-14.51-20.57-21.7-15.83-17-32.21-34.61-51-49.46-6.68-5.28-13.73-10.42-20.56-15.39-22.4-16.31-45.57-33.19-57.72-57.23a5,5,0,0,0-8.93,4.51c13.24,26.2,37.4,43.79,60.77,60.81,6.74,4.91,13.71,10,20.23,15.14,18.16,14.38,34.27,31.69,49.85,48.43,6.73,7.24,13.7,14.72,20.76,21.9a1027.45,1027.45,0,0,0,76.9,70.57c32,26.55,60,51.35,77.79,86.08a5,5,0,1,0,8.9-4.55C1235.82,1653.32,1207.05,1627.78,1174.12,1600.52Z"/><path class="cls-12" d="M1148.23,1770.92a16,16,0,0,0-5.14-4.55c-3.85-1.85-7.7,0-8.12,4.33-.31,3.23,1.55,6.58,2.28,9.66a115,115,0,0,1,3,26.29,125.58,125.58,0,0,1-11.57,52.65,19.69,19.69,0,0,1-4.55,6.88c-5,4.33-10.42,1.12-8.22-5.15,1.38-3.9,3.65-7.44,5-11.34a155.24,155.24,0,0,0,6.48-24.76c3.41-19.39,3.89-38.58-1.58-57.52-3.16-11-9.25-18.56-21.44-19.3-10-.61-21.15,2.94-30.46,6.54-1.67.65-3.52,1.57-4,3.29a5.77,5.77,0,0,0,.26,2.9c1.66,6.08,4.35,11.08,6.66,16.91a132.67,132.67,0,0,1,5.88,19,123.73,123.73,0,0,1,3.2,30.59,90.37,90.37,0,0,1-5.38,29.48c-1.3,3.49-2,8.57-5.51,10.51-1.64-6.82,2.17-17.38,2.86-24.52a184.36,184.36,0,0,0,.81-27.19c-.83-16.75-4.58-33.5-12.62-48.1-4.75-8.63-11.68-16.86-22.34-16.62-19,.43-38.48,8.51-56.72,13.42-1.47.4-3.09.91-3.84,2.23-1.59,2.81,2,5.51,4.9,6.86,1.6.75,3.17,1.57,4.69,2.45,14.48,8.39,25.37,22.57,32.57,37.37,5.53,11.36,9.26,23.49,12.53,35.7,1.46,5.45,3.51,11.13,3.94,16.79.15,1.83-2.72,10.6-2.83,10.23-10.62-35-21.78-71.39-52-94.69-8.12-6.27-17.58-11.39-27.9-12.14-7.62-.55-15.27,1.31-22.49,4A104.74,104.74,0,0,0,910.89,1787c-4.07,3-8.37,5.83-11.13,10.19a4.24,4.24,0,0,0-.87,3.41c.42,1.32,1.9,1.94,3.23,2.35,6.42,1.94,13.19,2.52,19.83,3.61,14.8,2.42,29.22,7.49,41.57,15.82,14.26,9.6,23.68,22.85,30.39,38.47,1.76,4.09,13.18,29.34,3.14,30.39-1,.11-1.66-.91-2.08-1.79-2.23-4.69-3.77-9.68-5.68-14.51-7.18-18.18-20.21-33.26-36.15-44.4-21.64-15.12-54.45-34.17-78.78-12.88a70.7,70.7,0,0,0-13.4,16.7,3.08,3.08,0,0,0-.66,2.18c.82,3.69,12.22,2.25,14.69,2.46,7.4.64,14.77,2.3,21.29,5.85,13.07,6.15,24.31,15.49,34.67,25.48a87.86,87.86,0,0,1,12.34,14,14.52,14.52,0,0,1,2.77,6.5c.23,2.38-.75,5-2.88,6.18a149.53,149.53,0,0,0-76.38-49.58c-5.35-1.46-13.58-4.11-18.86-1.22-5.81,3.18-8.47,16.63-3.69,21.13,1.75,1.64,4.23,2.21,6.59,2.75,15,3.43,29.85,8.2,43.09,16,1.51.89,8.94,4.44,9.11,6.19.31,3.08-2.83,1-4.12.43q-3.82-1.8-7.72-3.45-8-3.42-16.27-6.25-9.6-3.28-19.46-5.76c-5.48-1.37-13-4.35-18.61-2.29-2.87,1-4.88,3.63-6.72,6.09-4.52,6-9.15,12.32-10.66,19.73s.3,15.05,2.1,22.39q2.24,9.09,4.46,18.19c.81,3.29,1.87,6.94,4.76,8.63,2.08,1.22,4.64,1.11,7,1a375.24,375.24,0,0,0,52.39-7.34q13.15-2.81,26.09-6.54c7.89-2.28,14.64-6.82,22.74-8.36,1.57-.3,3.37-.45,4.59.55,1.42,1.17,1.34,3.5.32,5.07a11.17,11.17,0,0,1-4.38,3.43c-30.46,16.1-66.16,16.8-100.33,19.59a6.94,6.94,0,0,0-3.67,1c-1.78,1.33-1.88,3.91-1.65,6.09,1.57,14.4,10.28,26.78,18.78,38.42a7.59,7.59,0,0,0,3,2.83,7.68,7.68,0,0,0,4.15.08c41.31-6.92,78.59-29.58,111.67-55.58a10.18,10.18,0,0,1,4.54-2.46c1.72-.26,3.74.72,3.93,2.43a4.35,4.35,0,0,1-.25,1.74c-2.85,9.54-12.07,15.67-20.82,20.55a338.63,338.63,0,0,1-44,20.6c-10.6,4.07-21.7,7.77-30.24,15.27-5.33,4.66-9.62,12.18-6.68,18.49,2,4.38,6.86,6.63,11.33,8.53l18.22,7.79a7.17,7.17,0,0,0,2.11.65,7.27,7.27,0,0,0,3.88-1.17,316.89,316.89,0,0,0,70-50,97.45,97.45,0,0,0,12.82-14.05c2.84-4,7.13-11.95,13-11.45a2.78,2.78,0,0,1,2.67,2.34,4.32,4.32,0,0,1-1.42,2.79c-12.65,14.29-24.31,29.89-39.5,41.49A218.37,218.37,0,0,1,911.89,2046a96.69,96.69,0,0,0,32.66,17c4.65,1.37,9.51,2.4,14.31,1.76,6.06-.81,11.47-4.16,16.67-7.43,22.33-14.05,46-29.57,56.43-54.08,2-4.6,3.5-9.37,5.59-13.92a39.68,39.68,0,0,1,3.49-6.24,13.25,13.25,0,0,1,2.19-2.74,2,2,0,0,1,1.88-.35c2.61.71-.28,12.81-.83,15a69.29,69.29,0,0,1-7,17.16c-5.29,9.33-12.32,17.58-19.63,25.46-2.52,2.72-5.08,5.4-7.84,7.88-10.24,9.17-22.76,15.06-34.69,21.63-2.31,1.27-5.78,2.95-2.33,4.83,3,1.6,6.9,2.35,10.12,3.31a183.42,183.42,0,0,0,20.72,4.9c4.76.83,11.28,1.81,16-.19,4.3-1.85,8.44-6.9,11.71-10.17a154.32,154.32,0,0,0,20-24.69,187.74,187.74,0,0,0,24.93-58.44c1-4.22,2.12-8.8,5.46-11.61,6.08,12.23,3.25,27.15-1.92,40a123.74,123.74,0,0,1-16.59,29.06c-4.51,5.87-9.58,11.38-13.28,17.78-2.38,4.1-8.32,14.62-4,18.88,1.39,1.37,4.41.95,6.26,1.18,3.17.39,6.37.62,9.57.7a97.25,97.25,0,0,0,19.11-1.42,93.34,93.34,0,0,0,9.74-2.23c3.24-.92,6.61-2.13,8.78-4.76,2.69-3.28,2.86-7.92,2.91-12.19-.63-23,1.7-46.25.88-69.13a7.3,7.3,0,0,1,.42-3.38,2.54,2.54,0,0,1,2.77-1.54c4.14,7.58,5.45,16.46,5.34,25.16s-1.57,17.33-2.65,26c-.91,7.26-1.42,15.18,2.57,21.23,1.82-1.08,2.65-3.23,3.49-5.16,5.91-13.62,17-24.1,22.55-38,6-15,5.21-34.58,3.46-50.23-1.93-17.31-6.81-34.63-4.1-51.93,1.66-10.66,6.13-20.7,10.56-30.59,7.17-16,17-32.68,20.94-49.83,2.57-11.35,1.23-23.31-2.65-34.17S1155.59,1779.77,1148.23,1770.92Z"/><path class="cls-14" d="M1138.09,1928.25c-27.9-11.45-57.47-12-87.84-11.66a755.53,755.53,0,0,1-75.69-2.84c-7.24-.63-14.63-1.49-21.78-2.32-17-2-34.56-4-52.21-3.39-6.27.22-12.68.7-18.87,1.15-21.08,1.57-41,3-58.91-4.4A5,5,0,0,0,819,1914c20.13,8.36,42.18,6.73,63.49,5.15,6.1-.46,12.4-.92,18.47-1.13,16.91-.58,34.09,1.4,50.72,3.33,7.21.83,14.68,1.7,22.06,2.35a766.32,766.32,0,0,0,76.69,2.87c30.41-.39,57.72.16,83.92,10.91a5,5,0,0,0,6.52-2.73A5,5,0,0,0,1138.09,1928.25Z"/><rect class="cls-16" x="1192.57" y="767.87" width="2239.45" height="1565.93" rx="147"/><path class="cls-17" d="M2010.36,772.22H1347.54A142.28,142.28,0,0,0,1205.26,914.5V924c0,230-2.06,459.49-2.06,689.24v232c0,6.44-3.78,29.28.59,34s14.44,5.84,16.83-1.75l163.65-163.65c4.14,4.35,10.65.08,14.91-4.15,27.59-27.34,57-52.3,84.25-79.52,27.79-27.78,54.84-62.69,86.23-86.23L1869,1244.62l191.34-191.35c4.82-4.81,9.83-9.45,14.71-14.2,37.59-36.55,74.23-74.06,111-111.43,43.07-43.76,91.15-84.16,130-131.85,6.39-7.84,13.48-23.58,25.39-23.61-48,0-95.92.28-143.93.28Q2103.93,772.3,2010.36,772.22Z"/><path class="cls-18" d="M3353.89,1434.92h0a32.86,32.86,0,0,0-32.76,32.77v139.24a32.85,32.85,0,0,0,32.76,32.76h0a32.85,32.85,0,0,0,32.76-32.76V1467.69A32.86,32.86,0,0,0,3353.89,1434.92Z"/><rect class="cls-19" x="1369.37" y="818.38" width="1885.85" height="1456.48" rx="51.21"/><path class="cls-20" d="M3207.32,818.38h-1790a47.9,47.9,0,0,0-47.9,47.91V969.93H3255.22V866.29A47.9,47.9,0,0,0,3207.32,818.38Z"/><circle class="cls-16" cx="2956.35" cy="889.95" r="29.47"/><circle class="cls-16" cx="3048.96" cy="889.95" r="29.47"/><circle class="cls-16" cx="3141.57" cy="889.95" r="29.47"/><g class="cls-21"><path class="cls-22" d="M2916.52,514.79c-153.55,0-307.75,3.37-461.75,3.37h-666c-51.24,0-133.54-14.43-133.54,61.12V2166.47c0,35.47,28.64,64.49,63.64,64.49H2916.52c35,0,63.64-29,63.64-64.49V579.28C2980.16,543.81,2951.52,514.79,2916.52,514.79Z"/></g><path class="cls-23" d="M1630.23,2166.47c0,35.47,28.64,64.49,63.64,64.49H2891.5c35,0,63.64-29,63.64-64.49v-1138H1630.23Z"/><path class="cls-13" d="M2891.5,514.79H1693.87c-35,0-63.64,29-63.64,64.49v449.19H2955.14V579.28C2955.14,543.81,2926.5,514.79,2891.5,514.79Z"/><rect class="cls-13" x="1755.31" y="941.81" width="1096.98" height="1222.33" rx="77.5"/><rect class="cls-24" x="1760.7" y="941.81" width="1071.45" height="1202.49" rx="77.5"/><rect class="cls-25" x="2217.8" y="1302.35" width="161.29" height="181.43"/><rect class="cls-25" x="1895.21" y="1120.91" width="161.29" height="181.43"/><rect class="cls-25" x="2056.51" y="1120.91" width="161.29" height="181.43"/><rect class="cls-25" x="2379.09" y="1670.58" width="161.29" height="186.79"/><rect class="cls-25" x="2540.39" y="1670.58" width="149.77" height="186.79"/><path class="cls-26" d="M2080.83,1302.57,2051.75,1332a4.5,4.5,0,1,0,6.4,6.32l29.08-29.47a4.5,4.5,0,0,0-6.4-6.32Z"/><path class="cls-26" d="M2209.38,1444.5l-37.54,38a4.5,4.5,0,0,0,6.41,6.33l37.53-38a4.5,4.5,0,1,0-6.4-6.32Z"/><path class="cls-26" d="M2113.48,1302.16l-61,61.83a4.5,4.5,0,0,0,6.41,6.32l61-61.82a4.5,4.5,0,1,0-6.4-6.33Z"/><path class="cls-26" d="M2148.72,1304.72l-95,96.26a4.49,4.49,0,0,0,3.2,7.66,4.45,4.45,0,0,0,3.2-1.34l95-96.26a4.5,4.5,0,0,0-6.4-6.32Z"/><path class="cls-26" d="M2183.72,1306.15l-127.9,129.61a4.5,4.5,0,0,0,6.41,6.32l127.9-129.61a4.5,4.5,0,0,0-6.41-6.32Z"/><path class="cls-26" d="M2206.69,1366.1l-113.12,114.63a4.5,4.5,0,0,0,6.41,6.32l113.11-114.62a4.5,4.5,0,1,0-6.4-6.33Z"/><path class="cls-26" d="M2207.22,1410.59,2138.77,1480a4.5,4.5,0,0,0,6.41,6.32l68.45-69.36a4.5,4.5,0,1,0-6.41-6.32Z"/><path class="cls-26" d="M2206.62,1322.26l-151.88,153.9a4.5,4.5,0,1,0,6.41,6.33L2213,1328.58a4.5,4.5,0,0,0-6.4-6.32Z"/><path class="cls-26" d="M2085.79,1671.49,2055.72,1702a4.5,4.5,0,0,0,6.41,6.32l30.07-30.47a4.5,4.5,0,0,0-6.41-6.32Z"/><path class="cls-26" d="M2212.53,1812l-38.81,39.33a4.5,4.5,0,0,0,6.41,6.32l38.81-39.32a4.5,4.5,0,1,0-6.41-6.33Z"/><path class="cls-26" d="M2118.81,1670.32l-63.09,63.93a4.5,4.5,0,0,0,6.41,6.32l63.09-63.93a4.5,4.5,0,0,0-6.41-6.32Z"/><path class="cls-26" d="M2154.38,1672.08l-98.23,99.54a4.5,4.5,0,0,0,6.41,6.32l98.23-99.54a4.5,4.5,0,0,0-6.41-6.32Z"/><path class="cls-26" d="M2189.74,1672.71l-132.25,134a4.49,4.49,0,0,0,3.2,7.66,4.45,4.45,0,0,0,3.2-1.34l132.26-134a4.5,4.5,0,0,0-6.41-6.32Z"/><path class="cls-26" d="M2211.59,1732.79l-117,118.52a4.5,4.5,0,0,0,6.41,6.32l117-118.52a4.5,4.5,0,0,0-6.41-6.32Z"/><path class="cls-26" d="M2211.13,1777.75l-70.78,71.72a4.5,4.5,0,1,0,6.4,6.32l70.78-71.72a4.5,4.5,0,1,0-6.4-6.32Z"/><path class="cls-26" d="M2212.52,1688.47l-157,159.13a4.5,4.5,0,0,0,6.4,6.33l157-159.14a4.5,4.5,0,1,0-6.41-6.32Z"/><path class="cls-26" d="M2569.51,1305.66l-28.89,29.27a4.5,4.5,0,0,0,6.4,6.33l28.9-29.28a4.5,4.5,0,0,0-6.41-6.32Z"/><path class="cls-26" d="M2688.26,1437.58,2651,1475.36a4.49,4.49,0,0,0,3.2,7.66,4.45,4.45,0,0,0,3.2-1.34l37.29-37.78a4.5,4.5,0,1,0-6.4-6.32Z"/><path class="cls-26" d="M2600.87,1304.16l-60.62,61.43a4.5,4.5,0,0,0,6.41,6.32l60.62-61.43a4.5,4.5,0,0,0-6.41-6.32Z"/><path class="cls-26" d="M2634.62,1305.42l-94.38,95.64a4.49,4.49,0,0,0,3.2,7.66,4.45,4.45,0,0,0,3.2-1.34l94.39-95.64a4.5,4.5,0,0,0-6.41-6.32Z"/><path class="cls-26" d="M2668.19,1305.61l-127.08,128.77a4.5,4.5,0,0,0,6.41,6.33l127.07-128.78a4.5,4.5,0,0,0-6.4-6.32Z"/><path class="cls-26" d="M2688.26,1362.4l-112.39,113.88a4.5,4.5,0,0,0,6.41,6.32l112.38-113.88a4.5,4.5,0,0,0-6.4-6.32Z"/><path class="cls-26" d="M2687.31,1405.09l-68,68.91a4.49,4.49,0,0,0,3.2,7.66,4.45,4.45,0,0,0,3.2-1.34l68-68.91a4.5,4.5,0,0,0-6.4-6.32Z"/><path class="cls-26" d="M2689.64,1320.31l-150.9,152.9a4.5,4.5,0,0,0,3.21,7.66,4.45,4.45,0,0,0,3.2-1.34L2696,1326.63a4.5,4.5,0,0,0-6.4-6.32Z"/><path class="cls-26" d="M1925.1,1487.05l-30.47,30.87a4.5,4.5,0,0,0,6.41,6.32l30.46-30.87a4.5,4.5,0,0,0-6.4-6.32Z"/><path class="cls-26" d="M2051.49,1627.35l-39.32,39.84a4.5,4.5,0,0,0,3.21,7.66,4.45,4.45,0,0,0,3.2-1.34l39.32-39.84a4.5,4.5,0,0,0-6.41-6.32Z"/><path class="cls-26" d="M1958.31,1485.61l-63.92,64.77a4.5,4.5,0,1,0,6.41,6.33l63.91-64.77a4.5,4.5,0,1,0-6.4-6.33Z"/><path class="cls-26" d="M1994.06,1487.11,1894.54,1588a4.5,4.5,0,0,0,6.41,6.32l99.52-100.85a4.5,4.5,0,0,0-6.41-6.32Z"/><path class="cls-26" d="M2029.62,1487.47l-134,135.79a4.5,4.5,0,0,0,6.41,6.32l134-135.78a4.5,4.5,0,1,0-6.4-6.33Z"/><path class="cls-26" d="M2051.14,1547.72l-118.5,120.08a4.5,4.5,0,1,0,6.4,6.32L2057.55,1554a4.5,4.5,0,0,0-6.41-6.32Z"/><path class="cls-26" d="M2050.33,1592.93l-71.71,72.67a4.5,4.5,0,0,0,.05,6.36,4.44,4.44,0,0,0,3.16,1.3,4.49,4.49,0,0,0,3.2-1.34l71.71-72.67a4.5,4.5,0,0,0-6.41-6.32Z"/><path class="cls-26" d="M2052.4,1503.14l-159.11,161.23a4.5,4.5,0,1,0,6.41,6.33l159.11-161.24a4.5,4.5,0,0,0-6.41-6.32Z"/><path class="cls-26" d="M2249.16,940.91l-28,28.38a4.5,4.5,0,0,0,6.41,6.32l28-28.38a4.5,4.5,0,0,0-6.4-6.32Z"/><path class="cls-26" d="M2369.33,1073.92l-36.14,36.63a4.5,4.5,0,0,0,6.41,6.32l36.14-36.63a4.5,4.5,0,0,0-6.41-6.32Z"/><path class="cls-26" d="M2280.17,940.08l-58.76,59.54a4.5,4.5,0,0,0,6.41,6.32l58.75-59.54a4.5,4.5,0,0,0-6.4-6.32Z"/><path class="cls-26" d="M2313.59,942l-91.48,92.71a4.5,4.5,0,1,0,6.4,6.32L2320,948.34a4.5,4.5,0,0,0-6.41-6.32Z"/><path class="cls-26" d="M2346.82,942.91l-123.18,124.81a4.5,4.5,0,0,0,6.41,6.32l123.17-124.81a4.5,4.5,0,1,0-6.4-6.32Z"/><path class="cls-26" d="M2367.82,999.52,2258.89,1109.9a4.5,4.5,0,0,0,6.41,6.32l108.93-110.38a4.5,4.5,0,0,0-6.41-6.32Z"/><path class="cls-26" d="M2367.74,1041.75l-65.92,66.8a4.5,4.5,0,0,0,6.41,6.32l65.91-66.8a4.5,4.5,0,0,0-6.4-6.32Z"/><path class="cls-26" d="M2368.34,957.89,2222.08,1106.1a4.5,4.5,0,0,0,6.41,6.32l146.25-148.21a4.5,4.5,0,1,0-6.4-6.32Z"/><path class="cls-19" d="M1895.21,943.78a4,4,0,0,0-4,4V2055.84a4,4,0,0,0,8,0V947.78A4,4,0,0,0,1895.21,943.78Z"/><path class="cls-19" d="M2056.5,943.78a4,4,0,0,0-4,4V2055.84a4,4,0,0,0,8,0V947.78A4,4,0,0,0,2056.5,943.78Z"/><path class="cls-19" d="M2217.8,943.78a4,4,0,0,0-4,4V2055.84a4,4,0,0,0,8,0V947.78A4,4,0,0,0,2217.8,943.78Z"/><path class="cls-19" d="M2379.09,943.78a4,4,0,0,0-4,4V2055.84a4,4,0,0,0,8,0V947.78A4,4,0,0,0,2379.09,943.78Z"/><path class="cls-19" d="M2540.39,943.78a4,4,0,0,0-4,4V2055.84a4,4,0,0,0,8,0V947.78A4,4,0,0,0,2540.39,943.78Z"/><path class="cls-19" d="M2690.16,943.78a4,4,0,0,0-4,4V2055.84a4,4,0,0,0,8,0V947.78A4,4,0,0,0,2690.16,943.78Z"/><path class="cls-19" d="M2828.41,1116.91H1757a4,4,0,0,0,0,8H2828.41a4,4,0,0,0,0-8Z"/><path class="cls-19" d="M2828.41,1301.59H1757a4,4,0,0,0,0,8H2828.41a4,4,0,0,0,0-8Z"/><path class="cls-19" d="M2828.41,1486.27H1757a4,4,0,0,0,0,8H2828.41a4,4,0,0,0,0-8Z"/><path class="cls-19" d="M2828.41,1670.94H1757a4,4,0,0,0,0,8H2828.41a4,4,0,0,0,0-8Z"/><path class="cls-19" d="M2828.41,1855.62H1757a4,4,0,0,0,0,8H2828.41a4,4,0,0,0,0-8Z"/><path class="cls-19" d="M2828.41,2051.84H1757a4,4,0,0,0,0,8H2828.41a4,4,0,0,0,0-8Z"/><rect class="cls-27" x="1796.09" y="694.31" width="213.71" height="198.32" rx="52.66"/><rect class="cls-16" x="1797.65" y="694.05" width="196.58" height="183.9" rx="52.66"/><path class="cls-28" d="M1898.11,714.46A52.26,52.26,0,0,0,1851,744.77c-7.44,16.31-4.24,33.11,4.31,48.18,10.38,18.3,21.79,36,32.89,53.88,1.41,2.27,2.9,4.63,5.15,6.07,3.63,2.33,7.65.75,10.21-2.26,6.9-8.09,12.18-18.13,18-27q9.36-14.26,18.53-28.64c5.44-8.52,9.84-18.42,9.84-28.73A51.79,51.79,0,0,0,1898.11,714.46Z"/><path class="cls-25" d="M1889.92,714.14a52.26,52.26,0,0,0-47.15,30.31c-7.44,16.31-4.24,33.11,4.31,48.19,10.38,18.3,21.79,36,32.89,53.87,1.41,2.28,2.9,4.63,5.15,6.07,3.62,2.33,7.65.75,10.21-2.26,6.9-8.09,12.18-18.13,18-27q9.36-14.26,18.53-28.64c5.44-8.52,9.84-18.41,9.84-28.73A51.79,51.79,0,0,0,1889.92,714.14Z"/><circle class="cls-19" cx="1890.8" cy="765.04" r="27.41"/><rect class="cls-27" x="2024.65" y="694.31" width="213.71" height="198.32" rx="52.66"/><rect class="cls-16" x="2026.99" y="694.05" width="196.58" height="183.9" rx="52.66"/><rect class="cls-27" x="2253.66" y="694.31" width="547.53" height="198.32" rx="52.66"/><rect class="cls-29" x="2256.33" y="694.05" width="532.4" height="183.9" rx="52.66"/><path class="cls-30" d="M2196.79,753.55a4.67,4.67,0,0,0-5.92-2.2l-7,2.85a4.67,4.67,0,0,1-5.51-1.54,55.64,55.64,0,0,0-25.68-19.22,4.68,4.68,0,0,1-3.07-4.87l.78-7.53a4.68,4.68,0,0,0-3.83-5.08,69.73,69.73,0,0,0-11.77-1.15A4.68,4.68,0,0,0,2130,719l-.79,7.63a4.67,4.67,0,0,1-3.94,4.14A55.2,55.2,0,0,0,2097.13,744a4.68,4.68,0,0,1-5.84.28l-5.93-4.29a4.68,4.68,0,0,0-6.36.82c-.86,1.06-1.7,2.15-2.51,3.27a71.11,71.11,0,0,0-4.19,6.51,4.69,4.69,0,0,0,1.31,6.12l6.41,4.63a4.65,4.65,0,0,1,1.66,5.35,55.33,55.33,0,0,0-2.78,26.22,4.66,4.66,0,0,1-2.88,5l-7.06,2.86a4.68,4.68,0,0,0-2.71,5.73,70.65,70.65,0,0,0,4.45,11,4.66,4.66,0,0,0,5.91,2.2l7.06-2.86a4.66,4.66,0,0,1,5.51,1.55,55.7,55.7,0,0,0,25.1,19,4.68,4.68,0,0,1,3,4.86l-.79,7.64a4.67,4.67,0,0,0,3.74,5.06,70.27,70.27,0,0,0,11.81,1.27,4.67,4.67,0,0,0,4.77-4.2l.78-7.53a4.65,4.65,0,0,1,3.95-4.14,55.34,55.34,0,0,0,26.29-11.19,4.65,4.65,0,0,1,5.62-.11l6.41,4.63a4.67,4.67,0,0,0,6.22-.66,74,74,0,0,0,4.88-6c.81-1.12,1.58-2.25,2.31-3.4a4.67,4.67,0,0,0-1.2-6.3l-5.93-4.29a4.69,4.69,0,0,1-1.55-5.65,55.17,55.17,0,0,0,4-29.12,4.69,4.69,0,0,1,2.87-5l7.07-2.86a4.68,4.68,0,0,0,2.71-5.73A70.6,70.6,0,0,0,2196.79,753.55Zm-26.06,47.07a40,40,0,0,1-69,8.83,40,40,0,0,1-5.73-37.26,39.59,39.59,0,0,1,5.29-10.08,40,40,0,0,1,69.48,38.51Z"/><path class="cls-31" d="M2189.82,753.39a4.66,4.66,0,0,0-5.91-2.2l-7.06,2.85a4.65,4.65,0,0,1-5.5-1.55,55.61,55.61,0,0,0-25.69-19.21,4.67,4.67,0,0,1-3.06-4.88l.77-7.52a4.68,4.68,0,0,0-3.83-5.09,70.65,70.65,0,0,0-11.76-1.14,4.68,4.68,0,0,0-4.74,4.19l-.78,7.64a4.69,4.69,0,0,1-3.94,4.14,55.25,55.25,0,0,0-28.16,13.17,4.68,4.68,0,0,1-5.84.29l-5.92-4.29a4.67,4.67,0,0,0-6.36.82c-.87,1.06-1.7,2.15-2.51,3.27a72,72,0,0,0-4.2,6.51,4.69,4.69,0,0,0,1.32,6.12l6.4,4.63a4.66,4.66,0,0,1,1.67,5.35,55.2,55.2,0,0,0-2.78,26.22,4.68,4.68,0,0,1-2.89,4.95l-7.06,2.85a4.69,4.69,0,0,0-2.71,5.74,72.05,72.05,0,0,0,4.45,11,4.68,4.68,0,0,0,5.92,2.2l7.06-2.86a4.68,4.68,0,0,1,5.51,1.54,55.68,55.68,0,0,0,25.09,19,4.69,4.69,0,0,1,3,4.86l-.79,7.63a4.67,4.67,0,0,0,3.74,5.07,70.27,70.27,0,0,0,11.8,1.27,4.69,4.69,0,0,0,4.78-4.2l.77-7.53a4.66,4.66,0,0,1,4-4.14,55.4,55.4,0,0,0,26.28-11.19,4.68,4.68,0,0,1,5.63-.12l6.41,4.64a4.69,4.69,0,0,0,6.22-.66,71.86,71.86,0,0,0,4.87-6c.81-1.12,1.58-2.26,2.32-3.41a4.67,4.67,0,0,0-1.21-6.3l-5.92-4.29a4.66,4.66,0,0,1-1.55-5.64,55.3,55.3,0,0,0,4-29.13,4.69,4.69,0,0,1,2.88-5l7.07-2.86a4.68,4.68,0,0,0,2.71-5.73A70.26,70.26,0,0,0,2189.82,753.39ZM2160,798.59a39.3,39.3,0,0,1-11.86,15.66,38,38,0,0,1-17.1,7.64,36.07,36.07,0,0,1-18.73-1.74,35.39,35.39,0,0,1-16-12.12,36.22,36.22,0,0,1-6.73-17.6,38.07,38.07,0,0,1,2.11-17,39.31,39.31,0,0,1,11.17-16.17,38.07,38.07,0,0,1,18.63-8.75,36,36,0,0,1,18.7,1.85,35.36,35.36,0,0,1,8,4.35,35,35,0,0,1,7.26,7,35.92,35.92,0,0,1,7.13,17.42A38,38,0,0,1,2160,798.59Z"/><path class="cls-1" d="M2706.13,744.68h-367.6a7,7,0,0,0,0,14h367.6a7,7,0,0,0,0-14Z"/><path class="cls-1" d="M2706.13,811.52h-367.6a7,7,0,0,0,0,14h367.6a7,7,0,0,0,0-14Z"/><rect class="cls-12" x="2093.69" y="609.69" width="383.09" height="30.73" rx="12"/><ellipse class="cls-32" cx="1360.73" cy="2349.8" rx="165.04" ry="584.72" transform="translate(-996.71 3697.24) rotate(-89.68)"/><ellipse class="cls-19" cx="1360.94" cy="2312.07" rx="165.04" ry="584.72" transform="translate(-958.78 3659.95) rotate(-89.68)"/><ellipse class="cls-33" cx="1346.93" cy="2288.42" rx="103.74" ry="419.68" transform="translate(-949.06 3622.41) rotate(-89.68)"/><path class="cls-34" d="M1739.91,1806.39c-14.38-4.66-30-4.65-45.27-4.58l-466.66,2c-57.69.25-115.55.49-172.89-5.39-21.15-2.18-42.76-5.16-63.52-.9C912.41,1813.8,954.5,1919,967.9,1967.21c17.22,62,42.93,122.35,78.85,177.39,58.54,89.7,150,171.1,267.25,187.91a310.05,310.05,0,0,0,45.07,3.12c115.19-.49,212.8-66.72,278-148.7,39.58-49.73,69-105.88,90.25-164.07A697.84,697.84,0,0,0,1755,1925.2c5.14-24.84,23-76.67,11.42-99.74C1761.81,1816.32,1749.86,1809.62,1739.91,1806.39Z"/><g class="cls-35"><path class="cls-36" d="M1739.91,1806.39c-14.38-4.66-30-4.65-45.27-4.58l-207.59.9c-65.12.28-111.37-17.45-130,53.72-19.41,74-28.87,150.27-32.9,226.53-3,57.43-23.21,176.06,5.51,227.68,7.31,13.14,17.1,21.76,28.69,26.69,79.17,33.64,242.66-105,278.82-150.4,39.58-49.73,69-105.88,90.25-164.07A697.84,697.84,0,0,0,1755,1925.2c5.14-24.84,23-76.67,11.42-99.74C1761.81,1816.32,1749.86,1809.62,1739.91,1806.39Z"/></g><ellipse class="cls-19" cx="1360.32" cy="1825.31" rx="418.35" ry="161.13" transform="translate(-7.1 5.31) rotate(-0.22)"/><ellipse class="cls-32" cx="1356.06" cy="1818.56" rx="366.58" ry="127.21" transform="translate(-7.19 5.38) rotate(-0.23)"/><path class="cls-37" d="M1355.89,1794.15c-149.7.63-278.18,32.32-334.84,77.19,14.66,11.39,34,21.87,57.27,31.16,67-27.39,166.45-45,277.57-45.44,111.35-.47,211.15,16.36,278.52,43.28,23.28-9.51,42.67-20.2,57.28-31.77C1634.52,1824.16,1505.64,1793.52,1355.89,1794.15Z"/><path class="cls-38" d="M1078.32,1902.5c67.37,26.91,167.17,43.74,278.53,43.27,111.11-.47,210.52-18,277.56-45.43-67.37-26.92-167.17-43.75-278.52-43.28C1244.77,1857.53,1145.36,1875.11,1078.32,1902.5Z"/><g class="cls-35"><path class="cls-22" d="M3453.55,737.67c-3.18-1.73-7.09-3.23-8.16-6.69s1.32-6.92,3.2-10a44.28,44.28,0,0,0,2.54-41c-11.53-25.05-45.91-33-70.16-23.66-3.35,1.29-27.84,14.77-26.41,17.23-10-17.28-5.38-36.65-23.57-50.41-16.8-12.71-39.83-16-60.1-10.24s-37.65,19.9-49.09,37.59c2.13-9.48.35-20.28-6.52-27.16-11.54-11.54-22.75-9-31.86-1.18-28.35-28.84-76.06-33.14-114.12-17.39-10,4.12-21.07,9.18-29.29,16.31-9.41,8.15-22.27,9.88-31.21,18.92-10,10.07-17.73,25.2-14.82,39.64a37,37,0,0,0,4.62,11.68,3,3,0,0,0-.06.32,2,2,0,0,0,1.73,2.29c.8,1.18,1.65,2.34,2.53,3.47,0,1.34.07,2.5,0,3.3-.22,3.29-.36,6.57-.47,9.86a6.53,6.53,0,0,0-1.9,2.21,5.45,5.45,0,0,0-.57,1.93,4.05,4.05,0,0,0-.52,2,6.28,6.28,0,0,0,0,.75,4.68,4.68,0,0,0,2.65,3.78c0,.13,0,.26,0,.39-.08,2.71-.11,5.51-.07,8.36-1.58,2.93-3.43,5.72-4.76,8.8-1.74,4,2.52,5.62,5.69,6.66,2.59,23.14,11.4,46,36.14,52.5,7.31,1.92,13.26,4.7,17.83,9.65.74,1.05,1.34,2,1.68,2.49a44.09,44.09,0,0,1,4.34,7.18c.56,1.34,1.06,2.7,1.51,4.07.83,3,1.26,6.06,2.26,9,1.09,5.74,1.64,11.63,2.16,17.45q1,10.59,1.93,21.18a7.88,7.88,0,0,0-4,2.13,9.36,9.36,0,0,0-2.16,7.31,53.52,53.52,0,0,0,1.66,7.67c1.22,5.29,1.95,13,.15,18.2-1.49,4.33-6.4,8.28-9.82,11.06-1.92,1.55-3.92,3-5.95,4.38a42.33,42.33,0,0,0-8.18.68c-22.81,4.08-39.7,19.55-52.44,39.91a1.4,1.4,0,0,1-.1.16c-21.11,33.23-29.29,73.81-37,111.86-.54,2.65-1.06,5.31-1.58,8-4.28,22.2-7.81,44.57-11.94,66.79a8.4,8.4,0,0,0-2.13-.27h-36.11a8.65,8.65,0,0,0-5.63,2.11l.18-.51h-3.87l-.54-1.61H2716.11l.82,2.45-.61,1.79a8.71,8.71,0,0,0-7.31-4.24h-32.82a7.11,7.11,0,0,0-2.43-.77,3.83,3.83,0,0,0-2.85.84,8.83,8.83,0,0,0-6.29,4.33,10.41,10.41,0,0,0-3.51,5l-1.3,3.93a106.7,106.7,0,0,0-12.84-4.72c-1.2-.34-3.59-1.65-4.83-1.14-3.58,1.47,8,10.71,9.4,11.89,1.63,1.33,3.31,2.57,5,3.76l-1.36,4.1-.24-.06c-7-2-14.69-6.71-21.89-7.25a1.94,1.94,0,0,0-1.12.16c-.95.54-.5,2,.09,2.92,4.68,7.26,11.57,12.46,19,16.72l-1,3.06c-3.52-.73-7.1-1.55-10.53-2.51-4.37-1.21-10.57-5-15.11-4.46a3,3,0,0,0-2.67,2.36c-.23,2.21,2.87,4.23,4.31,5.54,2.43,2.18,4.92,4.3,7.48,6.33a116.3,116.3,0,0,0,11.46,8l-.53,1.59c-6.18-1.32-15.22-2.9-15.51-.18a2.54,2.54,0,0,0,.45,1.54,13.82,13.82,0,0,0,4.61,4.14c2.35,1.5,4.76,2.91,7.22,4.26l-414,1248.6c-2.29,6.92,2.37,14.23,9.05,14.21l35.75-.15,175.55-.69,54.23-160.93,7.21,0L2460.2,2464.4c-2.19,6.61,2.27,13.61,8.66,13.58l37.72-.15a9.23,9.23,0,0,0,8.57-6.63l291-877.84,76.38,231.92a122.61,122.61,0,0,1-4.24,12.5c-1.9,4.76-4.17,9.93-2.63,14.82a18.38,18.38,0,0,0,3.35,5.66,82.71,82.71,0,0,0,20.42,18.35L3011.9,2218c-1.12.27-2.23.56-3.34.88-7.37,2.11-14.87,6-20.23,11.4a42.8,42.8,0,0,0-6.78,6.61c-6.25,7.78-9.06,18.39-6.82,28.12,3.39,14.75,17.48,25.11,32.2,28.63,9.9,2.37,20.11,2.23,30.3,1.26l57,173.17a9.11,9.11,0,0,0,8.43,6.6h37c6.26,0,10.6-7,8.43-13.62L3099.65,2314h7.07l53.78,160.71h207.11c6.54,0,11.08-7.34,8.81-14.24L3314,2270.9c1-.1,1.93-.2,2.89-.32,25.05-3,49.48-10,73-19.17,10.13-3.93,24.44-9.76,28-21.29,1.14-3.68.61-6.58-.91-8.9a14.37,14.37,0,0,0,2.13-6.56c2.14-12.49-11-38.48-23.21-43.65a25.48,25.48,0,0,0-2.58-.92c-2.35-14-10.9-28.62-15.46-41.14-3-8.21-5.82-16.5-8.33-24.88a260.93,260.93,0,0,1-7.49-31.57c-1.21-7.26-.19-14.66-8.05-18.78-3.44-1.81-7.4-1.65-11.29-.83-.57-1.66-1.13-3.32-1.71-5-16.33-47.35-33.46-94.42-49.87-141.74-.92-2.65-1.82-5.3-2.72-8,16.62-7,18.41-24.76,13.16-46.14-12.21-49.68-12.11-101.45-11.93-152.62,0-1.86,0-3.72,0-5.58.12-20.4.75-41,6.91-60.41,2.94-9.25,7.09-18.06,10.33-27.2a274.7,274.7,0,0,0,8.13-29.58c16.06-69.09,28.23-143.28,2.84-209.5-8.79-22.92-21.78-44.43-27.92-68.33-1.63-6.32-1.13-15.79-1.44-25,2.38-14.45-1.13-24.73-13.54-28.12h0l-.76-.19c-.17,0-.33-.08-.5-.12l-.79-.15-.49-.1-.66-.1-.63-.09-.64-.07-.66-.07-.78,0-.54,0-1,0h-1.69l-1,0h-.38l-.88.06-.47,0-.7.07-.66.06-.91.11-.45,0-.73.11c-.21,0-.43,0-.64.09l-1,.15-.41.07-.86.16-.52.09-.91.18-.46.09-1.22.26c-.42-6.17-.59-12.34-.55-18.52a207.4,207.4,0,0,0,36.54-9.77c7.15-2.68,14.86-6.87,18.45-13.14a40,40,0,0,0,6.67-2.06c16.25-6.66,26.12-24.06,28.4-41.47s-1.82-35-6.49-51.91a727.18,727.18,0,0,0-38.14-105.55q-3.72-8.24-7.64-16.37c-19.65-40.79-52.81-77.82-93.89-97.73a135.58,135.58,0,0,0-16.08-6.91l-.75-.61c-6.61-5.36-10-13.22-12.62-21.27a13,13,0,0,0-1.93-4.31c-2.58-3.28-6.52-3-10.05-1.92q-2.37-10.6-5-21.17-5-20.31-10.84-40.39l.2.16a2.5,2.5,0,0,1-.22-.24l-.66-2.24c12.93-8.65,24.53-21.15,34-32.92,3.94-4.88,7.83-9.86,11.5-15a75.21,75.21,0,0,0,19,13.43l.54.26q1.34.65,2.7,1.23h0c1.3.55,2.62,1,4,1.47a52.7,52.7,0,0,0,6,1.61c.83.16,1.66.31,2.49.44a52.27,52.27,0,0,0,7.27.59l.77,0a48.78,48.78,0,0,0,5-.3,44.53,44.53,0,0,0,6.91-1.4,40.38,40.38,0,0,0,6.74-2.58c.15-.07.28-.16.42-.23a36.78,36.78,0,0,0,4.5-2.71c-15.11,22.42-1.49,53,20.83,64.48,20,10.29,42.21,7.07,62.42-.47,7-2.6,14.84-8.78,22.11-7.75,13,1.84,20,19.7,31.42,25.17h0a61.88,61.88,0,0,0,18.44,5.28c9.07,1.23,18.33,2,26.32-.84a70.07,70.07,0,0,0,9.28-2.49C3481.31,824.43,3492.93,759.09,3453.55,737.67ZM2523.08,2274.76l-7,0,48.52-144,6.19,0Zm61.46-185.39a20.8,20.8,0,0,0-5.66-.9l42.82-127.07,5.28,0ZM2641,1919l-5.05,0,51.38-152.45,4.21,0Zm64.58-194.8-4,0,40-118.58h3.35ZM2759,1563.31h-3.12l20.47-60.74,1.39,4.21Zm92.79-2.15-17.38-52.76,1.38-4.17,19.05,56.93Zm33.4,101.43-19.47-59.14H2869l17,50.92C2885.67,1657.1,2885.4,1659.85,2885.15,1662.59Zm127.62-306.46-1.24-3.76q2.82-2.17,5.52-4.55C3015.64,1350.59,3014.2,1353.36,3012.77,1356.13Zm267.71,798.95c5.92,12.06,9.65,26,16.77,37.55-2.67.95-5.37,1.85-8.05,2.77-.06-.14-.13-.28-.2-.42l-20.27-61.55C3273,2140.43,3276.88,2147.73,3280.48,2155.08Z"/></g><path class="cls-32" d="M1111.49,2197.65c-3-5.83-8.59-10.22-14.38-13.92-65.44-41.79-163.09-11.58-229.79-51.68-4.07-2.44-8.73-5.27-13.43-4.09-13.55,3.39,2.31,18.66,6.41,22.45,19.39,17.9,39.06,36,62.83,48.78,42.11,22.64,93.08,26.52,141.95,25.89,13-.17,26.52-.73,38.09-6.17,9.33-4.39,13.23-11.57,8.46-21Z"/><path class="cls-19" d="M1091.07,2202.25a385.46,385.46,0,0,1-143.27-14.06c-31-9.15-61.6-23-81.79-46.27s-27.49-57.65-10.71-83.05c13.38-20.26,38.89-31.23,64.08-36.94s51.46-7.3,76.14-14.63c12.62-3.75,26.38-10.92,28-22.93,3.17-23.19-37.84-49.82-59.9-54.34-32.19-6.6-74.76,11.28-99,29.11-61.45,45.12-68.63,130.12-20.59,186,25.29,29.41,61.59,49.49,99.38,64,48.91,18.79,102.91,29.31,155.33,21.82,10.89-1.55,24.35-7,23.28-17C1120.8,2202.66,1103.51,2201.12,1091.07,2202.25Z"/><path class="cls-39" d="M2880.73,1265.58l-199.44.79a21.15,21.15,0,0,0,.17,42.3l199.44-.8a21.19,21.19,0,0,0,21.06-21.23h0A21.21,21.21,0,0,0,2880.73,1265.58Z"/><path class="cls-39" d="M2842.31,1409.53l-199.44.79a21.15,21.15,0,1,0,.17,42.29l199.44-.79a21.2,21.2,0,0,0,21.06-21.23h0A21.19,21.19,0,0,0,2842.31,1409.53Z"/><path class="cls-39" d="M2788.33,1562l-199.44.79a21.22,21.22,0,0,0-21.07,21.23h0a21.21,21.21,0,0,0,21.23,21.06l199.45-.79a21.21,21.21,0,0,0,21.06-21.23h0A21.2,21.2,0,0,0,2788.33,1562Z"/><path class="cls-39" d="M2726.59,1723l-199.45.79a21.2,21.2,0,0,0-21.06,21.23h0a21.2,21.2,0,0,0,21.23,21.06l199.44-.79a21.22,21.22,0,0,0,21.07-21.23h0A21.21,21.21,0,0,0,2726.59,1723Z"/><path class="cls-39" d="M2665,1917.75l-199.44.79a21.21,21.21,0,0,0-21.06,21.23h0a21.2,21.2,0,0,0,21.23,21.06l199.44-.79a21.15,21.15,0,1,0-.17-42.29Z"/><path class="cls-39" d="M2541.62,2273.5l-199.45.79a21.2,21.2,0,0,0-21.06,21.23h0a21.2,21.2,0,0,0,21.23,21.06l199.44-.79a21.22,21.22,0,0,0,21.07-21.23h0A21.21,21.21,0,0,0,2541.62,2273.5Z"/><path class="cls-39" d="M2595.46,2087.2,2396,2088a21.15,21.15,0,1,0,.17,42.29l199.44-.79a21.15,21.15,0,0,0-.17-42.29Z"/><polygon class="cls-40" points="2286.02 2477.52 2464.74 2476.81 2912.84 1147.04 2734.12 1147.74 2286.02 2477.52"/><path class="cls-41" d="M2957.81,1146.86l-37.72.15a9.25,9.25,0,0,0-8.58,6.63l-434.16,1309.5c-2.19,6.61,2.27,13.61,8.65,13.58l37.72-.15a9.25,9.25,0,0,0,8.58-6.63l434.17-1309.5C2968.66,1153.83,2964.2,1146.83,2957.81,1146.86Z"/><path class="cls-41" d="M2724.06,1147.79l-36.84.14a9.68,9.68,0,0,0-9,6.93L2244.4,2463.45c-2.29,6.91,2.37,14.22,9,14.2l36.84-.15a9.67,9.67,0,0,0,9-6.93L2733.1,1162C2735.4,1155.08,2730.73,1147.76,2724.06,1147.79Z"/><rect class="cls-42" x="2744.46" y="1263.86" width="236.95" height="42.29" rx="21.15"/><path class="cls-42" d="M2998.48,1407.65H2803.83a21.21,21.21,0,0,0-21.15,21.15h0a21.21,21.21,0,0,0,21.15,21.14h194.65a21.21,21.21,0,0,0,21.15-21.14h0A21.21,21.21,0,0,0,2998.48,1407.65Z"/><path class="cls-42" d="M3052,1559.9H2857.33a21.15,21.15,0,1,0,0,42.29H3052a21.15,21.15,0,0,0,0-42.29Z"/><path class="cls-42" d="M3113.13,1720.61H2918.48a21.15,21.15,0,1,0,0,42.3h194.65a21.15,21.15,0,0,0,0-42.3Z"/><rect class="cls-42" x="2958.48" y="1915.16" width="236.95" height="42.29" rx="21.15"/><rect class="cls-42" x="3080.78" y="2270.41" width="236.95" height="42.29" rx="21.15"/><rect class="cls-42" x="3027.27" y="2084.33" width="236.95" height="42.29" rx="21.15"/><polygon class="cls-40" points="2733.26 1145.44 3177.64 2473.42 3352.82 2473.42 2908.43 1145.44 2733.26 1145.44"/><path class="cls-37" d="M2734.58,1152a9.09,9.09,0,0,0-8.43-6.6h-37c-6.26,0-10.61,7-8.43,13.62L3111.4,2466.82a9.11,9.11,0,0,0,8.43,6.6h37c6.26,0,10.61-7,8.43-13.62Z"/><path class="cls-37" d="M2963.22,1152.33a9.52,9.52,0,0,0-8.82-6.89h-36.1c-6.55,0-11.09,7.33-8.81,14.23l430.35,1306.85a9.5,9.5,0,0,0,8.81,6.9h36.1c6.55,0,11.09-7.34,8.82-14.24Z"/><path class="cls-43" d="M3417.39,2211.32c-28.54-7.08-49.95,4.75-77.39,9.28a80.37,80.37,0,0,1-52.31-9.32,11.17,11.17,0,0,0-3.32-1.46c-2.1-.4-4.23.53-6,1.68-10.44,6.72-13.64,21.66-9,33.16s15.77,19.52,27.68,23.05,24.63,3.08,37,1.62c25-3,49.48-10,73-19.18,10.13-3.93,24.44-9.76,28-21.29S3426.19,2213.5,3417.39,2211.32Z"/><path class="cls-44" d="M3413,2169.75c-6.83-2.89-15.45-2.65-22.7-3.34-11.27-1.08-24.87-4.4-35.78-.22-8.14,3.11-13.74,10.49-20.74,15.68-11.22,8.33-25.63,10.78-38.41,16.45s-25.19,17.24-23.75,31.15c.64,6.19,4,11.84,8.44,16.25,10,10,24.84,14,39,13.69s27.94-4.37,41.52-8.41l42.93-12.8c11.33-3.37,23.61-7.44,30-17.37a15.13,15.13,0,0,0,2.67-7.43C3438.39,2200.91,3425.25,2174.92,3413,2169.75Z"/><path class="cls-43" d="M3305.38,2192.21c-1.81-3.12-7.49-8.06-9.57-2.42-1.24,3.36-1.3,8.17-.2,12.52.92,3.67,2.67,7,5.24,8.87a5.76,5.76,0,0,0,5.29,1c2-.77,3.14-3,3.31-5.12a18.72,18.72,0,0,0-1-6.31A35.24,35.24,0,0,0,3305.38,2192.21Z"/><path class="cls-45" d="M3358.14,2046.65c-16.33-47.35-33.46-94.42-49.87-141.74-32.1-92.55-50.21-184.07-63.39-280.29-12.17-88.85-21.69-179.37-27.13-268.24-2.26-36.74-1.2-62-37.26-51.63-14.45,4.14-43.2,7.74-52.51,21.37-7.69,11.25-8.71,44.45-12.44,59.47-10.46,42.16-23.33,83.11-31.17,126.55-9.95,55.18-6.46,102.78,9.89,159.66,18.27,63.58,38.35,126.64,58.43,189.68,23.63,74.2,58.65,144.2,99.41,209.7,20.16,32.39,41.76,63.74,64.31,94.27,8.59,11.64,18.28,23.39,30.55,31.34,14.7,9.53,24.06,4.64,39.69-1.06l1.22-.45a14.54,14.54,0,0,0,4.62-2.61,16.18,16.18,0,0,0,3.52-5.52c10.7-23.94-7.24-47.61-14.66-70.89S3366.12,2069.77,3358.14,2046.65Z"/><path class="cls-29" d="M3386.68,2102.81a259.06,259.06,0,0,1-7.49-31.57c-1.21-7.26-.19-14.66-8.05-18.78-5-2.6-11-1.13-16.34.51-27.52,8.42-54.28,19.91-82.69,24.54-6,1-12.26,1.73-17.27,5.13-4.16,2.81-6.37,6.7-5.59,11.72,1.06,6.88,5.53,6.07,10.73,8.63a33,33,0,0,1,9.51,7.27c11.87,12.71,20.52,28,28.14,43.56,7.78,15.85,11.76,34.88,24.66,47.71,16.11,16,39.49,8.73,58.44,2.46,12.65-4.19,29.38-10.59,30.29-26.24,1-16.6-10.48-34.85-16-50.05C3392,2119.48,3389.18,2111.19,3386.68,2102.81Z"/><path class="cls-46" d="M3470.7,736.41c-3.19-1.73-7.09-3.23-8.16-6.69s1.31-6.92,3.2-10a44.28,44.28,0,0,0,2.54-41c-11.53-25.05-45.91-33-70.17-23.66-3.35,1.29-27.83,14.77-26.41,17.23-10-17.28-5.37-36.65-23.57-50.41-16.79-12.71-39.83-16-60.09-10.24s-37.66,19.9-49.09,37.59c2.12-9.48.35-20.28-6.52-27.15-18.5-18.51-36.15-.88-45.63,16.85-10.3,19.3-13.83,41.56-8.32,62.91,6.07,23.52,23,45.22,45.62,54.83,14.16,6,31.53,5.77,44.09-3.13-15.12,22.42-1.5,53,20.83,64.48,19.94,10.29,42.21,7.07,62.42-.47,7-2.6,14.83-8.77,22.11-7.75,13,1.84,20,19.7,31.42,25.17h0a62,62,0,0,0,18.44,5.28,79.44,79.44,0,0,0,35.61-3.33C3498.46,823.17,3510.08,757.83,3470.7,736.41Z"/><path class="cls-47" d="M3460.49,784.62c-2.38-1.7-5.25-2.67-7.42-4.61-6.76-6-3.37-16.93-3.54-26-.26-14.22-11.25-26.75-24.51-31.91s-28.25-4-41.94-.09-26.5,10.31-39.67,15.69c1-12.23-3.76-24.25-9.91-34.88-3.26-5.64-7-11.13-12.14-15.17-12.1-9.57-30-9.1-43.8-2.25s-24.25,19-33.06,31.69c-2.88-12.38-5.94-25.11-13.41-35.39s-26.7-17.89-37.75-11.61c-16.79,9.55-12.79,35.33-6.27,50.17a72,72,0,0,0,37,36.38c14.16,6,31.53,5.77,44.09-3.13-15.12,22.42-1.5,53,20.83,64.48,19.94,10.29,42.21,7.07,62.42-.47,7-2.6,14.83-8.77,22.11-7.75,13,1.84,20,19.7,31.42,25.17h0a62,62,0,0,0,18.44,5.28c13.94,1.88,28.32,2.63,37.83-8.86,8.27-10,10.38-23,6.58-35.28C3466.48,791.67,3464.24,787.32,3460.49,784.62Z"/><path class="cls-43" d="M3161,2238.29a10.57,10.57,0,0,0-5.87-1.6c-4.22-.19-8.24,1-12.36,1-4.44,0-8.78,1.06-13.2,1.4s-8.82-.74-13.49-.93c-9.95-.41-18.64,3.77-28,4.18-10.16.44-21.62-3-31-6.66-10.83-4.27-21.09-9.85-32.37-12.93-9.09-2.49-20.67,6.23-26,12.92-6.26,7.78-9.06,18.39-6.83,28.12,3.39,14.75,17.49,25.12,32.21,28.63s30.13,1.5,45.12-.55l46.81-6.37c12.3-1.68,24.78-3.41,36.14-8.43,12.58-5.56,15.85-20.63,12.27-32.93C3163.78,2241.91,3162.87,2239.65,3161,2238.29Z"/><path class="cls-44" d="M3146.15,2205.5c-6.37-3.81-14.94-4.76-22-6.44-11-2.61-24-7.77-35.41-5.13-8.49,2-15.05,8.5-22.69,12.68-12.27,6.71-26.88,7.16-40.31,11s-27.33,13.62-27.81,27.59c-.21,6.22,2.38,12.28,6.12,17.25,8.54,11.31,22.69,17.27,36.76,18.93s28.28-.49,42.29-2.63l44.28-6.77c11.69-1.79,24.41-4.13,32.13-13.09a15.2,15.2,0,0,0,3.67-7C3167,2239.84,3157.53,2212.29,3146.15,2205.5Z"/><path class="cls-43" d="M3037.2,2209.88c-6.9,3.3-2.72,17.64,1.21,21.67,1.59,1.63,4,2.91,6.1,2.17s3.22-3.18,3.42-5.43C3048.34,2223.65,3045.1,2206.1,3037.2,2209.88Z"/><path class="cls-48" d="M3116.64,1314.71c-15,.78-43.83-2.19-56,9-10,9.23-18.51,41.34-25.52,55.13-19.7,38.71-41.48,75.71-58.91,116.26-22.14,51.52-29.47,98.68-26.37,157.78,3.46,66.06,8.81,132,14.15,198,6.29,77.6,24.63,153.71,49.57,226.71,12.33,36.1,26.3,71.52,41.39,106.34,5.75,13.28,12.53,26.91,22.69,37.42,12.18,12.61,22.4,9.95,38.91,7.92l1.29-.17a14.4,14.4,0,0,0,5.09-1.49,16.2,16.2,0,0,0,4.67-4.59c15.83-20.9,3.69-48,1.71-72.37s-4.36-48.73-6.92-73c-5.23-49.81-11.3-99.53-16.62-149.33-10.4-97.41-7.4-190.66,1.45-287.37,8.18-89.31,19.31-179.64,34.05-267.45C3147.39,1337.12,3154.1,1312.77,3116.64,1314.71Z"/><path class="cls-1" d="M3116.1,1039.07l-81.44,49.47,80.52,140.82a26.28,26.28,0,0,0,36.22,9.58l36-21.37a27.31,27.31,0,0,0,9.69-36.81Z"/><path d="M3116.45,1037.68l-83.14,50.51,81,141.66a27.13,27.13,0,0,0,16.74,12.86,27.53,27.53,0,0,0,7,.91,27.1,27.1,0,0,0,13.85-3.82l36-21.37a28.27,28.27,0,0,0,10-38.17Zm70.47,179-36,21.37a25.27,25.27,0,0,1-34.84-9.22l-80-140,79.73-48.43,80.51,140.8A26.25,26.25,0,0,1,3186.92,1216.71Z"/><path class="cls-1" d="M3123.12,1024c-2.31-4.38-8.25-5.75-13.19-3l-87.72,48.2c-4.94,2.71-7.08,8.51-4.76,12.9l6.49,12.27c2.32,4.39,8.26,5.75,13.19,3l87.73-48.19c4.93-2.72,7.08-8.52,4.76-12.91Z"/><path d="M3124,1023.51a9.28,9.28,0,0,0-5.62-4.51,11.74,11.74,0,0,0-8.94,1.06l-87.73,48.2c-5.42,3-7.73,9.37-5.16,14.24l6.5,12.28a9.25,9.25,0,0,0,5.62,4.51,10.51,10.51,0,0,0,3.12.45,12.13,12.13,0,0,0,5.81-1.51l87.73-48.2c5.42-3,7.74-9.37,5.16-14.24Zm.37,24.77-87.73,48.19a9.69,9.69,0,0,1-7.4.91,7.3,7.3,0,0,1-4.43-3.54l-6.49-12.27c-2.07-3.92-.12-9.1,4.36-11.56l87.73-48.19a10.06,10.06,0,0,1,4.84-1.27,9.08,9.08,0,0,1,2.55.36,7.3,7.3,0,0,1,4.43,3.54l6.49,12.27C3130.8,1040.64,3128.85,1045.82,3124.38,1048.28Z"/><path class="cls-1" d="M3207.94,1189c-3.37-6.33-9.68-9.54-14-7.13l-77,42.74c-4.33,2.4-5.11,9.54-1.74,15.87l9.45,17.72c3.38,6.32,9.68,9.53,14,7.13l77-42.74c4.33-2.41,5.11-9.55,1.74-15.88Z"/><path d="M3208.82,1188.56c-2.13-4-5.52-7-9.07-8.06a8,8,0,0,0-6.31.52l-77,42.74c-4.82,2.68-5.78,10.4-2.14,17.22l9.45,17.72c2.14,4,5.53,7,9.07,8.06a9.69,9.69,0,0,0,2.65.4,7.43,7.43,0,0,0,3.66-.93l77-42.74c4.81-2.67,5.77-10.4,2.13-17.22Zm6.35,33.18-77,42.74a6.11,6.11,0,0,1-4.77.36c-3.05-.9-6-3.55-7.88-7.09L3116.1,1240c-3.08-5.76-2.46-12.42,1.34-14.53l77-42.74a5.53,5.53,0,0,1,2.69-.67,7.12,7.12,0,0,1,2.08.32c3,.89,6,3.54,7.87,7.08l9.45,17.71C3219.58,1213,3219,1219.63,3215.17,1221.74Z"/><path class="cls-1" d="M3218.64,1192.16c-3.37-6.33-10.16-9.28-15.08-6.55L3116,1234.08c-4.93,2.72-6.21,10.13-2.84,16.46l9.44,17.72c3.37,6.33,10.16,9.28,15.09,6.55l87.58-48.46c4.93-2.73,6.2-10.14,2.83-16.47Z"/><path d="M3219.53,1191.69a15.36,15.36,0,0,0-8.86-7.64,9.84,9.84,0,0,0-7.6.68l-87.58,48.47c-5.41,3-6.86,11-3.23,17.81l9.44,17.72a15.26,15.26,0,0,0,8.86,7.64,11.06,11.06,0,0,0,3.08.46,9.32,9.32,0,0,0,4.51-1.14l87.58-48.47-.48-.87.48.87c5.42-3,6.87-11,3.23-17.81Zm5.23,33.78-87.58,48.47a7.71,7.71,0,0,1-6,.51,13.3,13.3,0,0,1-7.67-6.66l-9.43-17.72c-3.13-5.86-2-12.65,2.43-15.12l87.58-48.47a7.29,7.29,0,0,1,3.53-.89,9.08,9.08,0,0,1,2.53.38,13.25,13.25,0,0,1,7.66,6.66l9.44,17.72C3230.32,1216.22,3229.23,1223,3224.76,1225.47Z"/><path class="cls-47" d="M3086.45,603.47c-10,4.12-21.07,9.18-29.29,16.31-9.41,8.15-22.27,9.88-31.21,18.92-10,10.07-17.73,25.2-14.83,39.64,3,14.88,15.58,24.62,24.65,35.82,11.51,14.22,20.82,29.12,33.95,42.27,10.84,10.84,14.19,25.56,27.65,35.06,13,9.17,25.82,10.81,38,7.84,21.37-5.24,40.62-24.77,55-42.62,12.18-15.1,23.94-31.09,29.81-49.58a89,89,0,0,0-3.22-62C3195.07,595.12,3133.4,584,3086.45,603.47Z"/><path class="cls-48" d="M3167.83,832.34q-11.6-47.13-27.67-93c-.76-2.17-1.53-4.57-.65-6.68a11.73,11.73,0,0,1,3-3.59c7.55-7.38,12.5-21.36,5.45-30.58a18.07,18.07,0,0,0-19.86-5.87c-8.36,3-13.46,11.82-21.67,15.22a19.4,19.4,0,0,1-22.71-6.74c-3.54-5.17-4.24-11.6-5.55-17.79-.25-1.15-.51-2.3-.82-3.42a4.74,4.74,0,0,0-1.12-2.26c-1.71-1.62-4.63,0-5.74,2s-1.35,4.6-2.82,6.44c-2.89,3.62-8.52,2.68-13,1.4l-24.59-7.08c-2.1-.6-4.36-1.21-6.46-.55-5.32,1.66-3.42,15.28-3.7,19.53-.45,7-.59,13.92-.78,20.88-.78,28.8,3.55,67.57,37,76.32,10.92,2.86,18.81,7.64,23.6,18.71,4.21,9.74,5.22,20.52,6.18,31.09q3,33.47,6.08,66.91c.57,6.24,1.2,12.69,4.22,18.18,4.66,8.47,14.15,13.1,23.44,15.75,13.17,3.75,27.66,4.52,40.32-.7,10.24-4.22,20.61-14.64,23.92-26.16s-3.2-28-5.48-39.73Q3173.75,856.38,3167.83,832.34Z"/><path class="cls-45" d="M3273.21,1145.66c-15-25.58-68.48,35.31-81.88,46.75-9.58,8.18-14.28,13.81-26.83,14.79-12.73,1-25.88-.12-38.58-1.19-16.57-1.39-24.71-2.18-36.7-12.94-8.31-7.45-16.92-20.67-28.68-22.28-6-.82-13.1,2.55-14.11,8.55-.73,4.28,1.68,8.38,3.75,12.2a98.49,98.49,0,0,1,4,84c-1.87,4.4-4.09,8.77-4.55,13.53-3,30.18,142.5,20.48,164.48,18.34,19.63-1.91,55.19-.21,59.25-24.92,1.35-8.25-.23-16.66-1.3-25-2.7-21-2-42.31,0-63.37C3273.38,1180.62,3280.77,1158.56,3273.21,1145.66Z"/><path class="cls-44" d="M3315.74,1002.63q-3.7-8.24-7.63-16.37c-19.66-40.79-52.81-77.82-93.89-97.73C3192.53,878,3179,873,3164.84,895.91c-11.54,18.76-15.48,41.63-16.17,63.34a270,270,0,0,0,23.86,119.55c3.68,8.13,7.77,16.07,11.89,24,6.79,13.06,13.73,26.17,22.93,37.66,16.31,20.39,38.87,34.71,61.5,47.73,19.34,11.12,42.48,21.84,63.12,13.38,16.25-6.66,26.13-24.06,28.4-41.47s-1.81-35-6.49-51.9A725.69,725.69,0,0,0,3315.74,1002.63Z"/><path class="cls-43" d="M3293.21,1103.47c-6.4-27.86-14.16-55.68-22.58-83.11-8.71-28.4-18.59-56.54-31.55-83.32-6.87-14.21-14.56-28.18-25-40.14A132.83,132.83,0,0,0,3197.39,881c-6.61-5.36-10-13.22-12.62-21.27a13.44,13.44,0,0,0-1.93-4.31c-3.18-4-8.41-2.63-12.4-1.11A133.21,133.21,0,0,1,3153.9,859c-19.36,4.59-39,9.2-58.89,8.28-3.92-.19-8.4-.39-11.14,2.43a9.39,9.39,0,0,0-2.15,7.31,53.49,53.49,0,0,0,1.65,7.67c1.23,5.29,2,13,.16,18.2-1.49,4.33-6.4,8.28-9.83,11.06-8,6.5-17.44,11-25.28,17.78-12.39,10.62-23.5,26.4-28.79,41.86-15.3,44.8-3.18,93.55,1.66,139,2.66,25,4.53,50,4.89,75.17.23,15.88-8.4,42.17,8.43,50.31a20.61,20.61,0,0,0,2.65,1.06c6.77,2.2,14.07,1.84,21.17,1.47l53.13-2.83,92.37-4.91c34.82-1.85,70.28-3.83,102.93-16.08,9.31-3.5,19.6-9.54,20.45-19.45.38-4.46-1.33-8.81-3-13C3313.72,1158.09,3299.51,1130.92,3293.21,1103.47Z"/><path class="cls-45" d="M3150.52,771.51c-2.17-6.69-4.49-13.18-6.91-19.76q-2.49-6.72-5-13.44c-.23-.62-.68-1.38-1.33-1.25a1.42,1.42,0,0,0-.57.33c-2.39,2.09-3.08,5.45-4.07,8.46-3,9.23-11,16.18-18.09,22.38-8.11,7.08-15.35,15-23.91,21.64-1.74,1.35-3.51,2.65-5.31,3.92-1.15.8-2.31,1.6-3.49,2.37-3.9,2.58-8,5-12.65,5.79,2.09-.35,5.46,5.4,6.47,6.8a37.4,37.4,0,0,1,5.51,10.14c1.25,3.8,1.57,7.89,3.17,11.56-.65-1.5.41-6.64.88-8.22.56-1.87,2.07-3.67,3.07-5.37a103.66,103.66,0,0,1,8.54-12.36A102,102,0,0,1,3119.15,784c3.53-2.39,7.3-4.59,11.47-5.51,6.38-1.42,10.67.65,15.58,4.66l11,9c-1.62-1.46-2.4-7.41-3.09-9.56Z"/><path class="cls-48" d="M3051.23,1054.84c-18.87-7.91-39.14-13.17-59.3-16.45a6.15,6.15,0,0,0-3.85.22,6.08,6.08,0,0,0-2.37,3.2c-4.4,10.3-7.13,21.22-9.6,32.15-7.47,33.11-12.62,66.71-20.57,99.72-3.91,16.23-9.84,31.82-14.05,47.91-.07.3-.15.59-.24.88v0c-4.32,14.91-19.77,14.36-32.22,11.12q-7.83-2-15.68-4c-23.6-5.92-47.27-11.59-70.64-18.37s-46.77-14.69-68.94-25.1a204.08,204.08,0,0,1-30.71-17.72c-9.87-7-18.13-16.42-28.63-22.42a9.1,9.1,0,0,0-3.53-1.34,3.55,3.55,0,0,0-3.33,1.39q4,8.65,8.56,17c.78,1.44,3.68,4.75,1,4.72-1.53,0-3.23-1.47-4.59-2.08l-8.1-3.62c-6.67-3-13.3-6-20.32-8-1.2-.34-3.6-1.65-4.84-1.14-3.57,1.47,8,10.71,9.4,11.89a126.28,126.28,0,0,0,15.62,10.42c-.91-.54-4-.52-5.18-.79q-3.52-.84-7-1.83c-7-2-14.69-6.71-21.89-7.25a1.94,1.94,0,0,0-1.12.16c-1,.54-.51,2,.09,2.92,7.13,11.08,19.41,17.38,31,22.81-2.34-1.1-5.51-1.57-8.05-2-5-.94-10.41-2.08-15.48-3.49-4.36-1.21-10.57-5-15.1-4.46a3,3,0,0,0-2.67,2.36c-.23,2.21,2.86,4.23,4.31,5.54q3.63,3.28,7.48,6.33a106.38,106.38,0,0,0,16.31,10.75c-2.64-.44-20.49-5.18-20.9-1.34a2.55,2.55,0,0,0,.46,1.54,13.72,13.72,0,0,0,4.61,4.14c13.2,8.47,28.52,14.26,43.38,19.19,59.61,19.75,114.07,52.67,170.64,79.44,13.85,6.56,27.79,12.93,41.87,19,19.72,8.46,41.2,19,62.53,22.5,32.58,5.35,45.23-29.58,55.83-53.47,24.74-55.78,45.6-113,66.41-170.35,5.9-16.26,11.87-32.8,12.87-50.07-10.86-3.85-22.27-6.69-33-10.9C3064.36,1063,3058.59,1057.92,3051.23,1054.84Z"/><path class="cls-45" d="M3051.23,1054.84c-18.87-7.91-39.14-13.17-59.3-16.45a6.15,6.15,0,0,0-3.85.22,6.08,6.08,0,0,0-2.37,3.2c-4.4,10.3-7.13,21.22-9.6,32.15-7.47,33.11-12.62,66.71-20.57,99.72-3.91,16.23-9.84,31.82-14.05,47.91-.07.3-.15.59-.24.9-4.32,14.91-19.77,14.36-32.22,11.12q-7.83-2-15.68-4c-23.6-5.92-47.27-11.59-70.64-18.37s-46.77-14.69-68.94-25.1c-8.15-3.83-12.21-7.27-20.39-2a62.42,62.42,0,0,0-18.33,17.68c-5.39,8.11-8.49,17.91-7.81,27.63.49,7,9.12,8.16,14.48,10.31q10.49,4.21,20.8,8.82c14.12,6.28,28,13,41.85,20,27,13.53,53.55,27.77,80.81,40.67,13.85,6.56,27.79,12.93,41.87,19,19.72,8.46,41.2,19,62.53,22.5,32.58,5.35,45.23-29.58,55.83-53.47,24.74-55.78,45.6-113,66.41-170.35,5.9-16.26,11.87-32.8,12.87-50.07-10.86-3.85-22.27-6.69-33-10.9C3064.36,1063,3058.59,1057.92,3051.23,1054.84Z"/><path class="cls-47" d="M3025.94,687.35a13.26,13.26,0,0,0-5.1-.13c-1.46.25-3.82.55-4.76,1.93a2.37,2.37,0,0,0-.39,1.19c-.16,2.64,2.61,2.49,4.41,2.38a27.51,27.51,0,0,1,6.08.31c1.71.27,3.63,1.26,5.33,1.28,2.58,0,2.92-1.79,1.38-3.42A14.31,14.31,0,0,0,3025.94,687.35Z"/><path class="cls-45" d="M3052.32,708.9a20.5,20.5,0,1,0,22.4,18.41A20.5,20.5,0,0,0,3052.32,708.9Z"/><path class="cls-45" d="M3014.35,737.45c-1.85,4.29,3.15,5.83,6.33,6.87l-.33-18.14C3018.6,730.07,3016.05,733.52,3014.35,737.45Z"/><path class="cls-49" d="M3307.08,1297.6c-3.86-15,4.27-47.9-15-53.16-13.42-3.67-29.37,3.51-42.85,5.61-18.88,2.93-37.8,5.69-56.79,7.81-37.78,4.21-76,6-113.88,1.87-17.88-2-27.29,4.85-29.78,22.22-3,20.84.5,34.24-9.36,54.16-26.93,54.39-59,106.05-85.77,160.53-29.68,60.47-53,125.87-52.64,193.23.25,49.34,12.82,100.87-5.55,146.65-1.91,4.76-4.17,9.93-2.63,14.82a18.19,18.19,0,0,0,3.35,5.66,84.19,84.19,0,0,0,57.95,31.22c19,1.67,38.83-3.18,57,2.72,13.18,4.28,24.22,13.87,37.55,17.67,21.2,6,43.33-3.55,65.22-6.21,28-3.4,56,4.65,84.09,6.35,31.13,1.9,60.56-7.89,91-8.69,31.69-.82,36.3-22.19,29.65-49.24-12.21-49.68-12.1-101.45-11.92-152.62,0-1.86,0-3.72,0-5.58.12-20.4.75-41,6.91-60.41,2.93-9.25,7.08-18.06,10.32-27.2a274.75,274.75,0,0,0,8.14-29.58c16-69.09,28.23-143.28,2.83-209.5C3326.21,1343,3313.23,1321.5,3307.08,1297.6Z"/><path class="cls-50" d="M3292.1,1244.43c-13.42-3.66-29.36,3.52-42.84,5.62-18.88,2.93-37.8,5.69-56.79,7.81-37.78,4.21-76,6-113.88,1.87-17.88-2-27.29,4.85-29.78,22.22-3,20.84.5,34.24-9.36,54.16-26.93,54.39-59,106.05-85.77,160.53-29.68,60.47-53,125.87-52.64,193.23.25,49.34,12.82,100.87-5.55,146.65-1.91,4.76-4.17,9.93-2.63,14.82a18.19,18.19,0,0,0,3.35,5.66,84.19,84.19,0,0,0,57.95,31.22c19,1.67,38.83-3.18,57,2.72,34,11,43.87,25,73.81-4.77,17.42-17.35,27.92-41.37,35.16-64.48,14.58-46.55,19.93-95.48,24.59-144.47,6.71-70.56,12-141.22,41.48-205C3199.3,1443.89,3353.1,1261.09,3292.1,1244.43Z"/><path class="cls-45" d="M3034,751.87a3.28,3.28,0,0,0-2.24-.28l-6.91.77a9,9,0,0,1-1.16,0c-.56,0-1.08-.2-1.54.18-1,.85,0,2.82.69,3.58a5.58,5.58,0,0,0,4.23,1.73c2,0,5-.29,6.67-1.46C3035.15,755.39,3035.58,753,3034,751.87Z"/><path class="cls-51" d="M3033.82,751.5c-2.58.14-5.16.15-7.74.3-1.11.06-4.52-.75-4.19,1.39.36,2.35,2.46,3.21,4.87,3.19,3.89,0,8.58-2.36,8.06-4.39C3034.71,751.54,3034.21,751.47,3033.82,751.5Z"/><path class="cls-52" d="M3028,687.65c-3.39.64-3.88,2.13-4.2,4.17l0,.15a1,1,0,0,0,.83,1.14h.16a1,1,0,0,0,1-.84l0-.16c.24-1.55.32-2.07,2.59-2.5a1,1,0,0,0,.8-1.17A1,1,0,0,0,3028,687.65Z"/><path class="cls-52" d="M3022.07,687a6.9,6.9,0,0,0-3.81,1.89,3.34,3.34,0,0,0-.78,3.59,1,1,0,1,0,1.85-.75,1.41,1.41,0,0,1,.4-1.48,5,5,0,0,1,2.69-1.28,1,1,0,1,0-.35-2Z"/><path class="cls-45" d="M3024.54,707.92a6.85,6.85,0,0,0-6.94,3.55,5,5,0,0,0-.57,2.93,77.08,77.08,0,0,1,13.33.15l-.26-1.18A6.85,6.85,0,0,0,3024.54,707.92Z"/><path d="M3021.2,711c-2.47.37-4.65,1.6-4.69,4.36a6.27,6.27,0,0,0,0,.75,4.73,4.73,0,0,0,5.17,4.24,3.74,3.74,0,0,0,3.11-1.9c.57-1.05.46-2.5,1.58-3.09a.64.64,0,0,1,.31-.06l3.08-.16a.37.37,0,0,0,.18,0,.46.46,0,0,0,.11-.16,2.87,2.87,0,0,0-.77-2.83C3027.54,710.16,3023.6,710.64,3021.2,711Z"/><path d="M3021.05,710c-3.48.53-5.5,2.47-5.54,5.34a6.19,6.19,0,0,0,0,.86,5.73,5.73,0,0,0,5.69,5.17,5.25,5.25,0,0,0,.56,0,4.71,4.71,0,0,0,3.9-2.42,6.83,6.83,0,0,0,.51-1.4c.18-.64.3-1,.57-1.24l3.06-.15a1.41,1.41,0,0,0,.68-.2,1.32,1.32,0,0,0,.49-.64,3.85,3.85,0,0,0-1-3.86C3028.1,709.28,3024.4,709.51,3021.05,710Zm8.09,4.57Zm-2.49-.28a1.72,1.72,0,0,0-.72.17,3.61,3.61,0,0,0-1.65,2.52,5.19,5.19,0,0,1-.34,1,2.76,2.76,0,0,1-2.33,1.38,3.73,3.73,0,0,1-4.07-3.35h0a4.43,4.43,0,0,1,0-.63c0-1.87,1.32-3,3.84-3.39a22.71,22.71,0,0,1,3.48-.33c1.47,0,3,.25,3.73,1.12a2.36,2.36,0,0,1,.65,1.39Z"/><path class="cls-47" d="M3135.28,705.29a4.28,4.28,0,0,0-1.5.21,7.15,7.15,0,0,1,4.06-4.72,1.5,1.5,0,1,0-1.16-2.77c-5.64,2.35-7.22,9-5.84,14,.94,3.4,4.34,7.39,7.73,7.68l.4,0c1.33,0,3.41-.57,4.85-3.64a6,6,0,0,0-.41-5.81A11,11,0,0,0,3135.28,705.29Zm5.83,9.51c-1,2-2,1.93-2.28,1.9-2-.17-4.46-3.16-5.09-5.49a10.27,10.27,0,0,1-.37-2.44,8.53,8.53,0,0,0,.88-.27,2.8,2.8,0,0,1,.88-.21,8,8,0,0,1,5.71,3.52A3,3,0,0,1,3141.11,714.8Z"/><path class="cls-44" d="M3059.58,919c-60.63,10.85-79.46,102.17-89.53,151.93-.53,2.65-1.06,5.31-1.57,8-8.42,43.68-13.93,88-26.86,130.59-14.8,48.73-118.59-2.44-147.43-15.65-15.58-7.13-37.52-33.76-49.67-10.25l-30,58c-1.45,2.81-2.93,5.75-3,8.91-.14,7.32,7,12.39,13.37,16,46.34,26.58,95,48.93,141.71,74.35,41.74,22.73,94,41.08,140.81,22.51,31.21-12.39,53.94-45.45,68.39-74.18,42.31-84.11,70.47-179.94,54.84-274.55C3125.19,981.5,3106.71,910.59,3059.58,919Z"/><path class="cls-53" d="M3007,959.09c-21.11,33.23-29.29,73.81-37,111.86-.53,2.65-1.06,5.31-1.57,8-8.42,43.68-13.93,88-26.86,130.59-14.8,48.73-118.59-2.44-147.43-15.65-15.58-7.13-37.52-33.76-49.67-10.25,0,5.24-6.75,9.28-7.2,14.89-2.26,28.83,58,53.54,78.38,61.94a270.26,270.26,0,0,0,118.57,20c49.82-3,83.43-37.86,102-82.45q4.72-11.34,8.89-23c24.15-67.55,34.28-142,36.37-212.79C3083.45,898.16,3029.42,923.86,3007,959.09Z"/><path class="cls-29" d="M3137.55,2138.72a260.27,260.27,0,0,1-.18-32.45c.46-7.34,3.12-14.32-3.6-20.11-4.25-3.65-10.45-3.57-16-3.19-28.72,2-57.38,7.16-86.1,5.27-6-.4-12.33-1.08-18,1.1-4.68,1.8-7.71,5.09-8.08,10.16-.52,6.94,4,7.16,8.51,10.82a33,33,0,0,1,7.62,9.23c8.7,15.06,13.68,31.94,17.59,48.78,4,17.2,3.59,36.64,13.27,52,12.09,19.23,36.51,17.42,56.38,15.58,13.27-1.22,31-3.69,35.43-18.73,4.68-16-2.35-36.32-4.32-52.38C3139,2156.17,3138.1,2147.45,3137.55,2138.72Z"/><path class="cls-54" d="M3101.61,1260.74a3,3,0,0,0-3.52,2.38c-4.42,23.09-15.18,45-24.67,64.24q-8.46,17.21-17,34.39c-36.23,73.09-73.68,148.67-101,227-35.84,102.74-48.91,197.9-38.83,282.83a3,3,0,0,0,3,2.65l.36,0a3,3,0,0,0,2.63-3.33c-10-84,3-178.28,38.54-280.15,27.2-78,64.57-153.37,100.71-226.29q8.53-17.2,17-34.41c9.65-19.63,20.6-41.88,25.18-65.76A3,3,0,0,0,3101.61,1260.74Z"/><path class="cls-54" d="M3124.76,1264.47h-.08a3,3,0,0,0-2.92,3.07c.75,29.12-10.91,58-21.2,83.4l-30.27,74.85c-12.92,32-26.29,65-37.33,98.34a819.72,819.72,0,0,0-34.26,363.52,3,3,0,0,0,3,2.6,2.68,2.68,0,0,0,.4,0,3,3,0,0,0,2.58-3.37,813.68,813.68,0,0,1,34-360.85c11-33.14,24.3-66.1,37.19-98l30.28-74.85c10.5-26,22.41-55.43,21.62-85.8A3,3,0,0,0,3124.76,1264.47Z"/><path class="cls-54" d="M3156,1262.5h-.05a3,3,0,0,0-3,3c.89,59.74-12.19,119.49-24.84,177.28-5.59,25.53-11.37,51.92-15.89,78-21.69,125.34-16.3,254.12-11.08,378.65a3,3,0,0,0,3,2.88h.12a3,3,0,0,0,2.88-3.12c-5.21-124.22-10.59-252.67,11-377.38,4.5-26,10.27-52.31,15.84-77.78,12.73-58.12,25.88-118.21,25-178.65A3,3,0,0,0,3156,1262.5Z"/><path class="cls-54" d="M3188.31,1260.62a3,3,0,0,0-2.93,3.06c1.8,84.57-3.34,170.46-8.31,253.52-1.37,22.82-2.78,46.41-4,69.61-4.34,81-3.78,163.1-3.23,242.53.17,24.48.34,49.79.37,74.71a3,3,0,0,0,3,3h0a3,3,0,0,0,3-3c0-24.94-.2-50.26-.37-74.75-.55-79.34-1.11-161.38,3.23-242.17,1.24-23.18,2.65-46.76,4-69.57,5-83.18,10.13-169.19,8.31-254A3,3,0,0,0,3188.31,1260.62Z"/><path class="cls-54" d="M3217.8,1259.77a3,3,0,1,0-6,.34c6.52,116.64,11.49,235.24,16.3,349.94l12,287.48.13,3a3,3,0,0,0,3,2.87h.12a3,3,0,0,0,2.87-3.12l-12.18-290.5C3229.29,1495.08,3224.32,1376.46,3217.8,1259.77Z"/><path class="cls-54" d="M3291.37,1834.81c-4.54-66.25-2.23-133.85,0-199.21,1-30.5,2.12-62,2.49-93.06,1-83-2.46-190.84-38.37-289.66a3,3,0,1,0-5.63,2c18.68,51.43,39.89,130.59,38,287.54-.37,31-1.45,62.46-2.49,92.92-2.24,65.52-4.56,133.27,0,199.83,1.74,25.23,4.1,44.31,7.66,61.88a3,3,0,0,0,2.94,2.41,3.05,3.05,0,0,0,.6-.06,3,3,0,0,0,2.34-3.54C3295.41,1878.61,3293.08,1859.76,3291.37,1834.81Z"/><g class="cls-55"><path class="cls-22" d="M2243.72,695.31c-.42-.3-.84-.57-1.27-.84-.2-.13-.41-.25-.62-.37l-.49-.28c-13.92-7.73-31.12,1-43.39,8.7q-1.71,1.08-3.39,2.19l-.1.06c-6.64,4.38-16.41,9.78-21.29,16.13-1.54,1.25-3,2.41-4.22,3.42-28,22.46-55,46-81.27,70.44-21,19.53-40.55,40-55.51,64a10.19,10.19,0,0,0-2.49,3.21l-1.33,2.67-.11.22c-.5,1-1.13,2.27-1.87,3.78q-3.72,6.75-6.91,13.89l-2.1,4.22-1.82,3.66-1.51,3.05-2.58,5.19-5.22,10.5-1.88,3.78-1.37,2.77-4.89,9.83-1.56,3.14-2.28,4.59-7.11,14.3-2.37,4.77-4.83,9.72-2.88,5.8-3.2,6.44-7.42,14.93-1.49,3c-1,2.1-2.1,4.21-3.16,6.34l-9.43,19-4,8-3.93,7.9c-.21.43-.42.86-.64,1.29l-8,16.18c-.57,1.15-1.15,2.3-1.72,3.46l-2.29,4.62-2.88,5.78-6.75,13.58q-1.55,3.12-3.11,6.25l-1.54,3.12-6.26,12.59-.52,1-3.92,7.89-2.33,4.69c-.08.17-.17.33-.25.5-2-2.07-4.19-4.11-6.5-6.15-9.79-8.64-20.66-17.74-33.83-18.55a54.48,54.48,0,0,0-8.52.14c-2.62-1.28-5.39-2.55-8.16-3.87h.18c-.7-11.86-13.1-19-24.56-23.58a63.34,63.34,0,0,1-2.09-11c-.25-2.31-.38-4.74-1.63-6.72a12.11,12.11,0,0,0-5.14-4h0l-1.1-.54q1.15-7.43,2.35-14.86c1.31-5.34,2.48-11.26,2.63-12.19,1.15-7.09,2.39-14.18,3.6-21.26.13-.62.26-1.24.4-1.86,1.66-7.3,2.62-18.26,6.64-24.67,3-4.79,7.93-4,13.62-3.67,10.48.61,24.92,4.28,32.06-5.82,2.49-3.52,3.61-7.77,4.54-12a311.17,311.17,0,0,0,6.11-47.29,6,6,0,0,0,.76-.12c1.64-.41,3.46-1.17,4.17-2.79a4.88,4.88,0,0,0-.12-3.62,43,43,0,0,0-4.14-7.78q.09-3,.17-6a5,5,0,0,0,.17-9.88c0-3.85.07-7.7.07-11.53,0-1.94.18-4.75.37-8.06l.64,0c2,.19,5,.45,4.92-2.37a2.48,2.48,0,0,0-.38-1.3c-.93-1.43-3.3-1.87-4.89-2.19a107.7,107.7,0,0,0-.78-20.47c7-5.75,16-8.47,23.19-15,10-9.12,1-20.62-3.22-30.25-3.52-8-2.83-16.46-3.29-25-1-18.65-14.38-28.07-32.65-28.52-9.64-.24-19.56-.44-28.6,2.85-5.86,2.14-12.14,5.74-17.92,3.39-2.29-.93-4.1-2.69-6-4.22-7.44-5.87-18.44-8.41-27-3.37-4,2.35-7,6-10.78,8.67-13.2,9.54-28.55,4.89-43.42,5.89a49.31,49.31,0,0,0-13.32,2.77c-23.57,8.51-36.81,33.83-37.8,57.29-.92,21.64,10.64,44,17.59,64,4.85,14,9.44,28.12,14.34,42.12,2.84,8.11,5.81,16.18,9,24.18.84,9,3.09,18.59,10,22.54-6.5,22.92-15,45.24-24.26,67.26l-2-.59a8.82,8.82,0,0,0-4.63-.57c-1.75.44-3,1.87-4.21,3.18a49.86,49.86,0,0,1-13.8,10.51c-15.43-1.09-30.29.23-48.84,5.46-2.84.8-5.85,1.7-7.77,3.9-2.5,2.87-2.42,7-2.1,10.81,0,.26,0,.51.07.77a123.4,123.4,0,0,0-21.83,15.34c-2.22.68-4.34,1.42-6.31,2.16-101,38.06-159.78,204.36-180.83,297.64-7,31.09-11.73,64-2,94.37,8.06,25.07,24.69,41.56,45.47,51.49q-8.91,39.86-16.68,79.94c-3.15,16.41-10,32.8-9,49.75,1,17.46,14.48,28.67,16,45.93q16.52,3,33.09,5.77c-10.71,89.46-8.2,181.15-5,270.5,6,169.72,23.13,343.12,3.87,512.29a153.1,153.1,0,0,0-.51,23.69c-5.12-.14-10.13.4-12.38,3.25-3.94,5-1.89,18.66-2.05,24.52a12.42,12.42,0,0,0,.71,5.57,9.9,9.9,0,0,0,3.53,3.71c7.93,5.63,17.35,8.42,26.74,10.12,3.59.66,7.2,1.16,10.82,1.56-8.34,22-18,56.2-13.83,57.52l0,0c-2.6,6.39-.81,14.64,5,18.84,3.74,2.71,8.39,3.88,12.93,4.88a325.67,325.67,0,0,0,46.89,6.49c14.79,1,29.65,1.29,44.47,1.16,8.14-.06,16.29-.24,24.38-1.11A143.07,143.07,0,0,0,1669,2625c5.87-2.32,12.08-5.54,14.32-11.32a19.6,19.6,0,0,0,.42-10.74c-1.11-10-10.25-19-20.08-23.45a135.52,135.52,0,0,0-17.2-6,9.29,9.29,0,0,0,.84-2.79c.41-3.49-3.3-7-6.3-4a13.1,13.1,0,0,0-2.56,4.24c-1.71-.59-3.4-1.22-5.06-1.92a14.14,14.14,0,0,0,1.54-4.84c.64-5.39-5.1-10.78-9.74-6.2a17,17,0,0,0-3.11,4.67,46.44,46.44,0,0,1-13-15.34,50.55,50.55,0,0,0,9.4-2.36,72.22,72.22,0,0,0,10.58-35.34,4.8,4.8,0,0,0-.54-2.94,4.29,4.29,0,0,0-2.53-1.42q-3.46-1-7-1.81c.39-1.29.79-2.62,1.23-4q9.21-29.22,17.08-58.83c27.29-102.7,42.11-207.9,59.49-312.54,2.62-15.72,5.23-31.45,7.42-47.23,3-21.7,5.21-43.49,6.8-65.33q14.49-28.32,26.5-57.89a11.5,11.5,0,0,0,1.06-1.69l7.24-14.58q6.12,26.79,10.52,53.91,1,6.26,2,12.52c7.82,52,11.54,104.54,13.6,157.05,4.43,113.13.94,226.65,12.4,339.46a66.9,66.9,0,0,0,3.21,14.42,6.39,6.39,0,0,0-1.6,1.41c-3.94,5-1.89,18.65-2.05,24.52a12.36,12.36,0,0,0,.71,5.56,10.08,10.08,0,0,0,3.53,3.72c7,5,15.13,7.71,23.4,9.46-5,14.41-10,31.42-11.54,41.41-2,6.86-.58,18.09,3.43,22.41,2.39,2.57,5.92,3.78,9.33,4.78,16.74,4.94,34,7.23,51.51,8.21,17.23,1,34.65.63,51.9.28,16.09-.32,32.51-.7,47.64-6,7.54-2.66,15.17-7.14,18-14.41l3.69-.88c3.48-12.51-7.52-24.72-19.54-30.22a86.46,86.46,0,0,0-8.71-3.35,11.17,11.17,0,0,0,2.56-5.52c.41-3.49-3.3-7-6.3-4-1.59,1.57-2.71,4.38-3.64,7.22-2-.6-4-1.2-5.92-1.82a16.73,16.73,0,0,0,3.49-7.92c.63-5.39-5.11-10.78-9.75-6.2-2.19,2.16-3.8,5.83-5.14,9.71-1.26-.6-2.5-1.25-3.71-2a46.28,46.28,0,0,1-10.07-8,54.05,54.05,0,0,0,13.39-2.86,72.31,72.31,0,0,0,10.59-35.34,4.83,4.83,0,0,0-.55-2.93,4.31,4.31,0,0,0-2.53-1.43c-3-.84-6-1.59-9-2.28,19-44.94,15.35-127.2,18.91-161.44,8.18-78.77,12.87-157.91,13.32-237.1.79-138.89-11.5-278-40.09-414.11,4.26-.72,6.33-3,4.87-10.66-5.84-30.83-11.61-61.13-15.57-92.23l25.1-50.5a83.43,83.43,0,0,0,33.17,0c32-6.55,71.82-38.14,75.38-71.54,1.62-15.19-2.15-30.44-7-45-5.71-17.1-12-34-18.4-50.83L2230,967.14a11,11,0,0,0,.27-9c9.39-27.16,13.22-55.63,14.84-85.15q3.3-60.26,9.18-120.19c.5-3.9.76-7.74,1.09-11.06.4-3.85.8-8,.94-12.25C2256.72,716.74,2254.88,703.31,2243.72,695.31Z"/></g><g class="cls-21"><path class="cls-22" d="M1969.59,2610.51c-86.38-13.62-173.9-18.17-261.26-19.07-42.26-.44-85.38,3-127.52.06-24.77-1.72-48.32-11.52-73.33-8.48-31.79,3.85-77.81,37.75-30.88,63.14,13.89,7.51,30.44,7.69,46.23,7.69l94.09,0c28.21,0,57.2-.16,83.42-10.57,5.52-2.19,11-4.85,16.85-5.68,8.26-1.16,16.53,1.37,24.54,3.66a452.36,452.36,0,0,0,233,3.63c8.41-2.11,18.27-6.08,19.59-14.65C1996.16,2618.57,1981.23,2612.34,1969.59,2610.51Z"/></g><path class="cls-49" d="M1679.22,1871.74c-12.34-10-24.71-20.12-38.07-28.66a203.12,203.12,0,0,0-57-25.12c-7-1.86-14.31-3.34-21.36-2.21s-13.89,5.32-16.42,12l-14.21,8.37-7.84,14.21c-14.15,25.69-30.89,51-41.53,78.59-8.18,21.16-14.29,45.29-4.26,67.8,8.71,19.56,27.45,32.23,45.5,43.37,32.69,20.18,70.52,39.55,107.44,30.07,28.08-7.2,46.37-27.51,58.94-52.57a745.44,745.44,0,0,0,36.57-86C1710.35,1913,1698.5,1887.45,1679.22,1871.74Z"/><path class="cls-19" d="M2211,696.38c-22-16.13-58.06,16.73-73,29-27.32,22.46-53.73,46-79.36,70.44-28.67,27.31-54.58,56.55-69.34,94.39,17.67,34.61,40.77,75,73.24,95.89,18.37,11.82,39.58,17.69,60.41,23.39a24.9,24.9,0,0,0,6.69,1.19,24,24,0,0,0,7.51-1.66l8.35-2.83c9.05-3.05,37.21-12.27,41.49-20.87,17.34-34.86,23.21-72.16,25.31-111.31q3.52-65.79,10-131.24C2223.91,727.36,2225.56,707.05,2211,696.38Z"/><path class="cls-43" d="M2211,696.38c-15.26-11.2-35.43.92-48.08,9.46-6.49,4.38-16,9.78-20.8,16.12-7.63,10.17.08,20.11,9.12,29.1A108.87,108.87,0,0,0,2190.19,776a41.94,41.94,0,0,0,8.84,2.39,19.63,19.63,0,0,0,6.17-.1c15.79-2.95,15.92-22.91,17.17-35.49C2223.91,727.36,2225.56,707.05,2211,696.38Z"/><path class="cls-56" d="M2192.5,953.13l-175.85-94.61a10.49,10.49,0,0,0-14.59,4.5l-479.77,988.76a11.61,11.61,0,0,0,5.09,15.08l175.86,94.6a10.49,10.49,0,0,0,14.59-4.49l479.76-988.76A11.59,11.59,0,0,0,2192.5,953.13Z"/><path class="cls-29" d="M2059.51,881.58l-42.86-23.06a10.49,10.49,0,0,0-14.59,4.5l-479.77,988.76c-3.52,7.26,1.43,12.57,7.51,16.29,23.33,14.25,47.42,27.16,71.69,39.56,2.27,1.16,35.3,16.76,35,18l1.1-2.36q2.78-5.91,5.56-11.8c16-33.94,32.32-67.64,48.29-101.67l74.79-159.33q81.79-174.29,163.61-348.58l139.5-297.2c12.1-25.79,26.14-51.34,36.57-77.93,1-2.64,6.23-9.35,5.78-12.31C2109.59,900.69,2071.34,888,2059.51,881.58Z"/><path class="cls-57" d="M1635.55,2037.7c-22.59-13-45.49-25.75-70.09-34.53-11.69-4.18-72.45-22.86-78.66-6-5.34,14.46,37.65,37.08,47,42.82,41.45,25.58,83.35,45.17,126.66,16.47C1653.86,2048.36,1644.61,2042.92,1635.55,2037.7Z"/><path class="cls-58" d="M1657.66,2596.52c-8.87-.92-18.37-.79-27.35-.82l-99.92-.33-25-.08c-6.41,0-12.85-.29-18.15,3.93-7.47,5.94-6.91,18.91.7,24.56,3.65,2.7,8.19,3.88,12.62,4.87a308.4,308.4,0,0,0,45.79,6.49c14.43,1,28.94,1.29,43.41,1.17a233.34,233.34,0,0,0,23.8-1.11,137,137,0,0,0,36.3-9.15c5.72-2.32,11.79-5.54,14-11.32C1666,2609.11,1664.78,2597.27,1657.66,2596.52Z"/><path class="cls-58" d="M1947.15,2599.61c-6.72-5-14.25-3.88-22.36-3.91l-99.92-.33-25-.08c-7.44,0-16.27.48-20.75,7.34-3.79,5.81-2.65,20.52,2,25.6,2.34,2.58,5.79,3.79,9.11,4.79,16.35,4.93,33.23,7.23,50.29,8.2,16.83,1,33.84.64,50.68.29,15.7-.32,31.74-.71,46.51-6,7.53-2.72,15.16-7.34,17.82-14.89C1958.4,2612.39,1953.58,2604.43,1947.15,2599.61Z"/><path class="cls-50" d="M1644.66,2580.54c-11.73-5.5-25.14-7.16-36.24-13.85a45.8,45.8,0,0,1-18.29-20.94c-1.24-2.87-2.23-5.93-4.29-8.27-2.58-2.91-6.46-4.25-10.18-5.39-18.54-5.7-55.11-19.55-71-2.19-6.77,7.4-27.31,73.17-21.65,75a326.21,326.21,0,0,0,180.7,5.84C1667.14,2598.25,1656.4,2586,1644.66,2580.54Z"/><path class="cls-50" d="M1939.85,2590c-11.74-5.5-25.14-7.17-36.24-13.85a45.85,45.85,0,0,1-18.3-21c-1.24-2.86-2.22-5.93-4.29-8.26-2.58-2.91-6.45-4.26-10.17-5.4-18.55-5.7-55.12-19.54-71-2.19-6.77,7.4-27.31,73.18-21.64,75a326.3,326.3,0,0,0,180.7,5.83C1962.32,2607.67,1951.58,2595.46,1939.85,2590Z"/><path class="cls-53" d="M1822.87,1473.4c-1.34-6.85-2.53-14.45-7.92-18.88-6.64-5.46-16.42-3.59-24.74-1.43-16.59,4.29-32.5,10-49.69,9.64-18.11-.37-36.22-1.67-54.21-3.8a563,563,0,0,1-103.73-22.31c-48.84-15.46-41.36,17.15-58.75,55.83-66.22,147.27-62.74,312.39-57.28,470.24,5.87,169.72,22.58,343.11,3.77,512.29-1.68,15.1.09,30.95.63,46.21,5.87,5.17,14.44,5.46,22.26,5.47l82.67.13c20.78,0,21.15-9.26,26.4-26.32q9-29.2,16.67-58.82c26.65-102.7,41.11-207.9,58.09-312.54,2.55-15.73,5.1-31.45,7.24-47.23,5-36.87,7.74-74,9.08-111.18s-.85-74.84-1.4-112.08c.15,8.45,9.49,17,13.6,23.81,6.37,10.58,9.55,20.26,12.74,32.52,7,26.81,12.5,54,16.87,81.35q1,6.26,1.92,12.52c7.64,52,11.27,104.54,13.28,157,4.33,113.13.91,226.65,12.11,339.46,1.21,12.14,5.87,21.47,9.86,32.7,5.32,14.95,2.12,15.76,18.36,18.61,25.9,4.54,74.15,7.59,97-8.57,38.47-27.23,31.89-143.76,36.2-186.26,8-78.78,12.57-157.92,13-237.1.88-158.19-14.8-316.71-51.71-470.67C1870.18,1591.51,1835.23,1536.36,1822.87,1473.4Z"/><path class="cls-58" d="M1858.58,1986c-15.67-154.23-29.08-310.94-65.91-461.87-12.05-49.33-26.57-60.6-74.24-62-46.09-1.4-92-11.57-135.85-25.45-48.84-15.46-41.36,17.15-58.75,55.83-66.22,147.27-62.74,312.39-57.28,470.24,5.87,169.72,22.58,343.11,3.77,512.29-1.68,15.1.09,30.95.63,46.21,5.87,5.17,14.44,5.46,22.26,5.47l82.67.13c20.78,0,21.15-9.26,26.4-26.32q9-29.2,16.67-58.82c26.65-102.7,41.11-207.9,58.09-312.54,2.55-15.73,5.1-31.45,7.24-47.23,5-36.87,7.74-74,9.08-111.18s-.85-74.84-1.4-112.08c.15,8.45,9.49,17,13.6,23.81,6.37,10.58,9.55,20.26,12.74,32.52,7,26.81,12.5,54,16.87,81.35q1,6.26,1.92,12.52c7.64,52,11.27,104.54,13.28,157,4.33,113.13.91,226.65,12.11,339.46,1.21,12.14,5.87,21.47,9.86,32.7,5.32,14.95,2.12,15.76,18.36,18.61,52,9.12,77.53,7.9,86.17-48.31,12.28-79.83,1.19-172-1.13-252.7C1873.16,2165.59,1867.69,2075.61,1858.58,1986Z"/><path class="cls-59" d="M1682.34,1245.69c-3.78-22.15-2.59-44.94-6.48-67.3a347.82,347.82,0,0,0-20.63-71.81c-6.14-15-14.39-32.8-29-41.45-12.21-7.2-30.91-2.71-43.55,2.17-98.66,38-156,204.36-176.56,297.64-6.85,31.09-11.45,64-1.92,94.37,22.35,71.26,112.34,73.24,170.76,52.18,38.22-13.78,74.63-37.58,94-73.31,12.86-23.81,17.3-51.12,21.55-77.84,2.65-16.67,5.31-33.5,4.29-50.35C1693.41,1288.18,1686,1267.23,1682.34,1245.69Z"/><path class="cls-43" d="M1877.79,751.43c-1-18.65-14-28.07-31.87-28.52-9.42-.24-19.1-.44-27.93,2.85-5.72,2.14-11.86,5.74-17.5,3.39-2.24-.93-4-2.7-5.88-4.22-7.26-5.87-18-8.41-26.38-3.37-3.9,2.34-6.87,6-10.53,8.67-12.88,9.54-27.87,4.89-42.39,5.89a46.64,46.64,0,0,0-13,2.77c-23,8.51-35.94,33.83-36.91,57.29-.9,21.63,10.39,44,17.17,64.05,4.73,14,9.22,28.11,14,42.12,3.32,9.69,6.79,19.34,10.58,28.85,2.69,6.72,6,13.9,12.46,17.18,5.07,2.59,11.07,2.23,16.77,2,21.89-.94,43.49,4,65.16,2.92,4-.2,8.36-.69,11.52-3.24,8.4-6.76,7-23.68,9.12-33.23,2.81-12.59,8.39-24.34,13.79-36A256.3,256.3,0,0,0,1846.5,856c2.78-8.1,3.88-16.51,7.37-24.35,6.29-14.14,20.14-15.63,30.28-25.05,9.8-9.11,1-20.61-3.14-30.24C1877.57,768.39,1878.24,759.94,1877.79,751.43Z"/><path d="M1847.08,762.5c-5.34.93-10.12,3.76-14.77,6.55l-20,12c-2,1.22-4.16,2.47-6.53,2.72-4.81.5-9-3.18-13.72-4.25-8.42-1.91-16.41,4.77-21.12,12s-8,15.73-14.78,21.07c-7.35,5.8-17.28,6.72-26.56,8s-19.34,3.6-25,11c-5.21,6.77-5.43,16-5.09,24.56.79,19.44,4.52,38.39,5.27,57.75.4,10.35.08,30.83,11.73,35.88,8.28,3.6,23.46.64,32.35.62q9.9,0,19.78,0c5,0,9.09,1.85,14,2.36a125.19,125.19,0,0,0,19,.5c4-.2,8.36-.69,11.52-3.24,6.72-5.41,5.71-17.66,7.64-25.33,2.68-10.67,4.47-24.15,10-34.21,7.42-13.5,14-26.43,19.39-41.17,4.79-13.15,11.54-25.58,14.74-39.29,2.53-10.81,4-33.47-3-42.79C1858.51,762.93,1852.42,761.56,1847.08,762.5Z"/><path d="M1846.91,761.51c-5.59,1-10.65,4-15.12,6.68l-20,12c-1.85,1.1-3.93,2.35-6.12,2.58-2.67.28-5.19-.88-7.86-2.12a28.23,28.23,0,0,0-5.54-2.1c-9-2-17.38,5.08-22.18,12.43-1.38,2.12-2.65,4.36-3.88,6.53-3.09,5.47-6,10.63-10.68,14.31-6.57,5.18-15.39,6.35-23.91,7.48l-2.17.29c-9.35,1.27-19.71,3.62-25.7,11.41-5.27,6.86-5.65,16.17-5.29,25.21.39,9.72,1.54,19.45,2.64,28.86s2.26,19.21,2.63,28.89c0,.79.06,1.65.09,2.55.34,11,.91,29.29,12.24,34.21,6.12,2.66,15.56,1.89,23.88,1.22,3.27-.27,6.35-.52,8.88-.52,5.87,0,12.81,0,19.76,0a34.2,34.2,0,0,1,7.75,1.2,49.15,49.15,0,0,0,6.16,1.15,125.23,125.23,0,0,0,12.88.66q3.12,0,6.24-.15c4.32-.22,8.77-.78,12.1-3.46,5.09-4.1,6-11.73,6.81-18.46a62.12,62.12,0,0,1,1.17-7.41c.67-2.69,1.28-5.5,1.92-8.48,1.92-8.89,3.91-18.08,8-25.49,6.78-12.31,13.82-25.84,19.46-41.3,1.7-4.66,3.68-9.32,5.59-13.82,3.5-8.2,7.1-16.68,9.19-25.59,2.2-9.41,4.44-33.46-3.23-43.63C1859.38,762.42,1853.23,760.4,1846.91,761.51Zm16.95,48.31c-2,8.75-5.62,17.14-9.07,25.26-1.93,4.53-3.93,9.21-5.64,13.92-5.59,15.34-12.6,28.79-19.33,41-4.22,7.66-6.32,17.42-8.18,26-.64,3-1.24,5.76-1.91,8.41a64.3,64.3,0,0,0-1.22,7.67c-.76,6.35-1.62,13.54-6.07,17.13-3,2.44-7.24,2.84-11,3a124.21,124.21,0,0,1-18.82-.5,47.54,47.54,0,0,1-5.91-1.11,37.13,37.13,0,0,0-8.18-1.25c-4.28,0-8.55,0-12.57,0h-7.22v0c-2.6,0-5.73.25-9,.52-8.09.66-17.26,1.41-22.92-1-10.17-4.42-10.72-22-11-32.45,0-.9-.06-1.76-.09-2.55-.38-9.77-1.53-19.57-2.64-29s-2.24-19.07-2.63-28.71c-.33-8.07-.24-17.24,4.88-23.91,5.54-7.21,15.43-9.43,24.38-10.65l2.16-.29c8.79-1.16,17.89-2.37,24.89-7.89,5-3.93,8.13-9.5,11.18-14.89,1.22-2.15,2.47-4.36,3.82-6.43,4.42-6.79,12-13.39,20.06-11.57a26.26,26.26,0,0,1,5.14,2c2.8,1.29,5.7,2.63,8.91,2.29,2.63-.27,4.91-1.64,6.93-2.85l20-12c4.53-2.71,9.21-5.51,14.43-6.43,5.59-1,11,.74,13.73,4.38C1867.83,776.93,1866.24,799.66,1863.86,809.82Z"/><path class="cls-48" d="M1851.41,805.88a6.05,6.05,0,0,0-3.4.58L1805,822.93a11.14,11.14,0,0,0-3.46,1.82c-1.84,1.62-2.38,4.23-2.82,6.65q-1.26,6.95-2.51,13.88c-1.65,9.12-4.21,14.87-13.73,16.8-8.54,1.73-15.3-.62-21.19-7.17-2.92-3.24-4.22-5.75-8.18-8-14.06-7.9-34.22-2.32-34.76,15.71-.29,9.52,3.51,14.6,6.92,22.58,2.54,6,1,11.11.11,17.34-1.56,10.76-4,21.33-6.51,31.91-8.36,35.6-22.06,69.67-36.38,103.22-4.42,10.35-9,20.93-9.73,32.16a36.57,36.57,0,0,0,2.88,16.56c5.06,12.13,16,22.17,27.79,27.53,13.33,6.06,28.84,5.8,43.06,2.28,9.16-2.28,18.52-3.84,27.77-6.07,3.93-5.34,5.67-12,7.13-18.41,7.56-33.26,10.38-67.38,17.75-100.68,1.62-7.31,2.56-18.26,6.49-24.67,2.93-4.79,7.73-4,13.29-3.67,10.23.61,24.33,4.28,31.3-5.82,2.44-3.52,3.52-7.78,4.44-12,6.13-29,7-59.39,7-89C1861.65,845.4,1866.58,809.39,1851.41,805.88Z"/><path class="cls-50" d="M1885.48,1591.75c-5.42-53.24-9.43-106.63-13.19-160-10-142.35-17.69-291.48-22.34-319.13-.7-4.14-1.48-8.45-3.94-11.86-2.33-3.21-5.88-5.27-9.33-7.24-9-5.12-21.59-9.53-29.19-16.53-6.19-5.7-8.6-16.21-9.46-24.43-.24-2.31-.37-4.74-1.59-6.73a11.87,11.87,0,0,0-5-4c-7.81-4-16.6-5.39-25.21-7a620.42,620.42,0,0,1-76.72-19.09,8.36,8.36,0,0,0-4.53-.57c-1.7.43-2.93,1.87-4.1,3.18-16,17.85-39.29,17.32-59.93,26.12-20,8.5-37.24,23-50.11,40.39-23.94,32.26-34.42,72.25-44.4,111.16l-22.77,88.78c-17.24,67.25-34.49,134.5-49.79,202.22-7.78,34.45-15.07,69-21.57,103.72-3.08,16.41-9.73,32.8-8.77,49.75,1,17.45,14.14,28.67,15.65,45.93a1699.49,1699.49,0,0,0,341.53,29.2c23.87-.37,47.71-1.53,71.55-2.74,11.93-.61,23.85-1.26,35.77-1.81,10.15-.46,16.76,1.24,14.47-11.14C1895.82,1663.86,1889.23,1628.52,1885.48,1591.75Z"/><path class="cls-60" d="M1885.48,1591.75c-5.42-53.24-9.43-106.63-13.19-160-10-142.35-17.69-291.48-22.34-319.13-.7-4.14-1.48-8.45-3.94-11.86-2.33-3.21-5.88-5.27-9.33-7.24-9-5.12-21.59-9.53-29.19-16.53-6.19-5.7-8.6-16.21-9.46-24.43-.24-2.31-.37-4.74-1.59-6.73a11.87,11.87,0,0,0-5-4l0,0c-39.9-20.13-35.43,9.93-39.22,41.39q-6,50.28-12.11,100.56-11.83,98.17-23.66,196.34c-13.31,110.46-26.64,221.17-28.15,332.41,29.53-4.42,61.39,3.61,92.44,3.15,23.87-.37,47.71-1.53,71.55-2.74,11.93-.61,23.85-1.26,35.77-1.81,10.15-.46,16.76,1.24,14.47-11.14C1895.82,1663.86,1889.23,1628.52,1885.48,1591.75Z"/><path class="cls-45" d="M1790.7,954.65c-12.12-3.25-23.82-7.89-35.39-12.76,1.71.72,3.46,15,3.93,17.19,1.25,5.79,2,11.53,2.78,17.4q1.39,10.78,3.31,21.49c1,5.73,1.12,13.68,5.18,18.15a50,50,0,0,0,4,3.51c5.42,4.86,8,13.06,14.86,15.66,1.6.61,5.49-19.33,5.77-21.11,1.85-11.65,4-23.3,5.72-34.95,1.07-7.06,3.67-15,10.72-18.21-6-3-12.73-4.26-19.25-5.93Z"/><path d="M1862,842.05a14.28,14.28,0,0,0-5.45-.06,15.24,15.24,0,0,0-7.57,3.53c-1.71,1.68-1.41,3.63,1.35,3.7,1.81,0,3.9-.94,5.74-1.17a29.53,29.53,0,0,1,6.51-.09c1.92.19,4.88.45,4.81-2.38a2.54,2.54,0,0,0-.38-1.29C1866.09,842.78,1863.58,842.37,1862,842.05Z"/><path d="M1867.89,843.76c-1.11-1.77-3.64-2.28-5.32-2.62l-.34-.07a15.5,15.5,0,0,0-5.84-.06,16.14,16.14,0,0,0-8.08,3.79,3.47,3.47,0,0,0-1.19,3.66c.25.63,1,1.7,3.21,1.76h.16a13.19,13.19,0,0,0,3.48-.65,16,16,0,0,1,2.25-.53,28.24,28.24,0,0,1,6.3-.08c1.45.14,3.65.35,5-.86a3.18,3.18,0,0,0,1-2.54,3.57,3.57,0,0,0-.53-1.8Zm-1.78,2.87c-.65.6-2.37.44-3.4.34a30.29,30.29,0,0,0-6.73.09,19.14,19.14,0,0,0-2.55.58,10.68,10.68,0,0,1-3,.58c-.9,0-1.31-.28-1.4-.49s.08-.86.73-1.5a14.46,14.46,0,0,1,7-3.25,12.83,12.83,0,0,1,2.4-.22,13.12,13.12,0,0,1,2.66.27l.35.07c1.34.27,3.37.68,4,1.72a1.49,1.49,0,0,1,.23.79C1866.44,846.33,1866.19,846.56,1866.11,846.63Z"/><path class="cls-45" d="M1826.18,871.06c-8.78-1.06-16.84,4.54-18,12.53s5,15.31,13.77,16.38,16.85-4.54,18-12.52S1835,872.13,1826.18,871.06Z"/><path d="M1861.18,867.42c-5.17-.69-11.44,2.58-12.23,8.05a1.31,1.31,0,0,0,.29,1.24c.49.37,1.18,0,1.61-.46,1-1,1.82-2.19,2.92-3.1.53-.44,1.53-1.09,2.27-.83s1.06,1.33,1.23,2a8.38,8.38,0,0,0,.71,2.19,2.31,2.31,0,0,0,1.86.92,5.06,5.06,0,0,0,1.34-10Z"/><path d="M1861.32,866.43c-5.61-.75-12.47,2.72-13.36,8.9a2.14,2.14,0,0,0,.67,2.17c.81.62,2,.41,2.93-.54.44-.44.85-.91,1.23-1.36a15.24,15.24,0,0,1,1.61-1.68,2.23,2.23,0,0,1,1.31-.66s.3.17.59,1.33l.11.42a7,7,0,0,0,.71,2,3.24,3.24,0,0,0,2.59,1.41,7.34,7.34,0,0,0,.81,0,6.06,6.06,0,0,0,.8-12.06Zm3.21,6.54a4.05,4.05,0,0,1-4.55,3.48c-.71-.09-1-.2-1.14-.43a5.29,5.29,0,0,1-.49-1.47l-.11-.46c-.27-1.06-.73-2.33-1.87-2.72a2.13,2.13,0,0,0-.7-.11,4.33,4.33,0,0,0-2.54,1.12,15.79,15.79,0,0,0-1.85,1.91c-.38.45-.74.86-1.13,1.24a1.18,1.18,0,0,1-.22.19s0-.07,0-.11c.7-4.87,6.45-7.82,11.11-7.2a4.09,4.09,0,0,1,2.69,1.56A4,4,0,0,1,1864.53,873Z"/><path class="cls-45" d="M1861.19,883.3l-2,14.42a5.9,5.9,0,0,0,2.09-.18c1.6-.4,3.38-1.17,4.07-2.78a4.93,4.93,0,0,0-.12-3.62A43.84,43.84,0,0,0,1861.19,883.3Z"/><path class="cls-45" d="M1855.26,911.53l-7.35-1.09a3.48,3.48,0,0,0-2.41.22c-1,.63-1.09,2-1.08,3.19a1.34,1.34,0,0,0,1.32,1.53c2.3.73,4.54,1.82,7,1.91s5.12-1.18,5.63-3.54a4.4,4.4,0,0,0,.07-2.38A8,8,0,0,1,1855.26,911.53Z"/><path class="cls-59" d="M1947.72,1267c-9.22-28.46-18.88-56.78-30.53-84.37-12.12-28.69-20.19-51.76-44-73.27-9.56-8.64-20.18-17.74-33-18.55-66.62-4.18-59.41,111.91-55.86,152.12,7.12,80.51,33.34,157.88,59.37,233.88,8.36,24.38,17.62,50.1,37.69,66.26,17.28,13.91,41.11,18.69,62.82,14.14,31.25-6.56,70.12-38.15,73.6-71.54,1.58-15.19-2.1-30.44-6.84-45C1991.83,1382.13,1966.77,1325.82,1947.72,1267Z"/><path class="cls-43" d="M1607.87,2506.3a169.68,169.68,0,0,0-31.33-6c-10.87-1-21.79-1-32.69-1l-61.95.14c-5.8,0-20-3-24.16,2.44-3.85,5-1.84,18.65-2,24.52a12.64,12.64,0,0,0,.69,5.56,10,10,0,0,0,3.45,3.72c7.75,5.63,16.94,8.41,26.11,10.12,15,2.79,30.22,2.95,45.4,3.09q20.23.2,40.46.37c9.67.08,19.54.11,28.69-3.3a73.5,73.5,0,0,0,10.33-35.35,4.84,4.84,0,0,0-.53-2.93A4.17,4.17,0,0,0,1607.87,2506.3Z"/><path class="cls-43" d="M1914.18,2525.53a170.45,170.45,0,0,0-31.34-6c-10.86-1-21.78-1-32.68-1l-62,.14c-5.81,0-20-3-24.16,2.44-3.85,5-1.84,18.66-2,24.53a12.64,12.64,0,0,0,.69,5.56,10,10,0,0,0,3.45,3.72c7.74,5.63,16.94,8.41,26.11,10.12,15,2.79,30.22,2.94,45.4,3.09q20.23.2,40.46.37c9.67.08,19.54.1,28.69-3.31a73.43,73.43,0,0,0,10.33-35.34,5,5,0,0,0-.53-2.94A4.22,4.22,0,0,0,1914.18,2525.53Z"/><path class="cls-58" d="M1622.54,2567.75c-2.87,2.89-4.16,10-5.65,13.76-.21.54-.4,1.22,0,1.64a1.3,1.3,0,0,0,.71.33c2.22.42,4.19-1.36,5.76-3,2.4-2.52,4.94-5.29,5.34-8.75S1625.46,2564.79,1622.54,2567.75Z"/><path class="cls-58" d="M1607.09,2559c-4.43,4.47-6.43,15.42-8.73,21.28-.33.83-.62,1.88,0,2.54a1.91,1.91,0,0,0,1.1.51c3.43.64,6.48-2.1,8.89-4.62,3.73-3.88,7.65-8.17,8.26-13.51S1611.62,2554.45,1607.09,2559Z"/><path class="cls-58" d="M1927.69,2577.08c-2.86,2.89-4.16,10-5.65,13.76-.21.54-.4,1.22,0,1.64a1.3,1.3,0,0,0,.71.33c2.22.42,4.19-1.36,5.75-3,2.41-2.52,4.94-5.29,5.34-8.75S1930.62,2574.12,1927.69,2577.08Z"/><path class="cls-58" d="M1912.25,2568.36c-4.43,4.47-6.43,15.42-8.74,21.28-.32.83-.62,1.88,0,2.54a2,2,0,0,0,1.11.51c3.43.64,6.48-2.1,8.89-4.62,3.72-3.88,7.65-8.17,8.26-13.51S1916.78,2563.78,1912.25,2568.36Z"/><path class="cls-47" d="M1746.3,858.25a16.65,16.65,0,0,0-15.46-.61,1.5,1.5,0,1,0,1.36,2.67,13.55,13.55,0,0,1,12.59.54l.11.06a17.07,17.07,0,0,0-3.43,1,9.47,9.47,0,0,0-5.36,5.75,9.57,9.57,0,0,0,.83,7.9c1.69,2.87,4.14,4.43,6.82,4.43a7.66,7.66,0,0,0,2.14-.32c4.29-1.29,7.33-5.94,7.08-10.8A12.79,12.79,0,0,0,1746.3,858.25ZM1745,876.76c-2.14.65-4.09-.33-5.51-2.75a6.6,6.6,0,0,1-.58-5.43,6.5,6.5,0,0,1,3.66-3.93,21.48,21.48,0,0,1,5.3-1.16A9.52,9.52,0,0,1,1750,869,7.72,7.72,0,0,1,1745,876.76Z"/><path class="cls-29" d="M1798.44,1062.84c-31.34-7.83-61.08-21-93-27.77-32.75-7-53.59-10-85.77-.76-2.78.8-5.71,1.71-7.59,3.9-2.44,2.87-2.36,7.06-2,10.82,3.28,39.54,17.21,77.33,31.38,114.39,2.93,7.64,6.7,16.13,14.41,18.87,8,2.82,16.54-1.77,23.26-6.88,18.93-14.36,33.35-33.83,51.3-49.4a162.21,162.21,0,0,1,93.65-38.93C1823.34,1074.64,1810.05,1067.36,1798.44,1062.84Z"/><path class="cls-61" d="M1798.44,1062.84c-13.08-3.27-25.9-7.48-38.69-11.74-9.65-3.21-24.52-12.14-33.36-5.84-16,11.37-22.27,33.28-29,50.65a334,334,0,0,1-39.27,73.1c-13.92,19.59,11.16,13.85,21,6.4,18.93-14.36,33.35-33.83,51.3-49.4a162.21,162.21,0,0,1,93.65-38.93C1823.34,1074.64,1810.05,1067.36,1798.44,1062.84Z"/><path class="cls-31" d="M3661.81,360l-215.62,1.92c-69,.62-124.86,57.53-124.25,126.48.08,9.47,0,14-6,21.77a59.46,59.46,0,0,1-17.3,14.82c-10.26,5.89-22,9-33.71,10.19,3.6-.37,9.82,2.74,13.55,3.46,12.57,2.44,25.23,3.65,37.93,5.09,8,.91,16.22,2.85,22.36,8a50.09,50.09,0,0,1,5.55,5.82c24.46,28.6,49.33,49.11,87.94,53.8a194.73,194.73,0,0,0,24.35,1.18c11.49,0,23-.63,34.47-.38,20.77.44,41.57-.31,62.34-.49l99.74-.89,10.89-.09c68.94-.62,124.85-57.53,124.24-126.48S3730.75,359.39,3661.81,360Z"/><path class="cls-44" d="M3624.16,462.21a12.53,12.53,0,1,0,12.53,12.53A12.53,12.53,0,0,0,3624.16,462.21Z"/><path class="cls-44" d="M3511.38,462.21a12.53,12.53,0,1,0,12.53,12.53A12.54,12.54,0,0,0,3511.38,462.21Z"/><path class="cls-44" d="M3567.77,462.21a12.53,12.53,0,1,0,12.53,12.53A12.53,12.53,0,0,0,3567.77,462.21Z"/><path class="cls-12" d="M1540.31,632.59c-6-7.75-6.09-12.3-6-21.77.62-69-55.29-125.86-124.24-126.47l-215.62-1.92c-69-.61-125.86,55.3-126.48,124.24s55.3,125.87,124.25,126.48l10.88.1,99.74.88c20.77.19,41.57.93,62.34.49,11.49-.24,23,.34,34.47.39a194.9,194.9,0,0,0,24.36-1.19c38.61-4.68,63.47-25.2,87.94-53.79a50.91,50.91,0,0,1,5.54-5.83c6.14-5.19,14.37-7.14,22.36-8.05,12.7-1.44,25.36-2.65,37.94-5.08,3.72-.72,9.94-3.84,13.55-3.46-11.77-1.23-23.46-4.31-33.71-10.19A59.41,59.41,0,0,1,1540.31,632.59Z"/><path class="cls-19" d="M1232.08,584.63a12.53,12.53,0,1,0,12.53,12.53A12.53,12.53,0,0,0,1232.08,584.63Z"/><path class="cls-19" d="M1344.87,584.63a12.53,12.53,0,1,0,12.53,12.53A12.53,12.53,0,0,0,1344.87,584.63Z"/><path class="cls-19" d="M1288.47,584.63A12.53,12.53,0,1,0,1301,597.16,12.53,12.53,0,0,0,1288.47,584.63Z"/></g></svg>