<svg xmlns="http://www.w3.org/2000/svg" viewBox="0 0 4680 3120"><defs><style>.cls-1,.cls-35{fill:#fff;}.cls-1{opacity:0;}.cls-2{fill:#080859;}.cls-3{fill:#6cafb3;}.cls-4{fill:#a4d7cf;}.cls-5{fill:#cbe7e2;}.cls-6{fill:#3b8989;}.cls-7{fill:#c4f2e9;}.cls-8{fill:#d7f7f1;}.cls-9{fill:#84bde3;}.cls-10{fill:#536ec1;}.cls-11{fill:#ffb655;}.cls-12{fill:#54a5d3;}.cls-13{fill:#374680;}.cls-14{fill:#112156;}.cls-15{fill:#ff9517;}.cls-16{fill:#ffd6a4;}.cls-17{opacity:0.5;}.cls-18{fill:#b3e0ff;}.cls-19{fill:#344f93;}.cls-20{fill:#6182d6;}.cls-21{fill:#ffdce0;}.cls-22{fill:#ff8b89;}.cls-23{fill:#231f20;}.cls-24{fill:#f3532d;}.cls-25{fill:#3e559e;}.cls-26{fill:#4c70c9;}.cls-27{fill:#89c1ef;}.cls-28{fill:#ff8d76;}.cls-29{fill:#c43418;}.cls-30{fill:#eefffb;}.cls-31{fill:#ffe4cf;}.cls-32{fill:#5da6d8;}.cls-33{fill:#ffca7d;}.cls-34{fill:#455ba3;}.cls-36{fill:#7f1c09;}.cls-37{fill:#b7230f;}.cls-38{fill:#ffdcae;}</style></defs><title>04</title><g id="_04" data-name="04"><rect id="_04-2" data-name="04" class="cls-1" width="4680" height="3120"/><path class="cls-2" d="M1039.76,1691.05c-25.91,276,117.46,538,323.51,697.48s466.92,229,727.2,259.39c207.12,24.18,424.82,13.63,627.11-47.48,211.21-63.81,393.17-187.71,561.14-327.83,85-70.87,169.48-145.76,229.63-240.19s93.5-212.39,65.86-317.05c-46.06-174.32-236.42-251.34-409.85-271.3s-360-8.12-508.81-96.63c-160-95.14-239.88-284-329.32-452.23S2107,555.78,1919.59,541c-61.19-4.82-123.5,8-183.77,25.92-182.43,54.2-356.68,158.44-482.39,310.85-91.28,110.67-154.78,246.33-175.79,388.59-7,47.43-7,94-6,141.78,1.23,56.68-10.26,110.69-17.23,166.5C1049.59,1613.38,1043.41,1652.17,1039.76,1691.05Z"/><path class="cls-3" d="M1253.06,1984.15s20.17-241.21,55.72-269.15S1451,1608.35,1451,1608.35l94-38.09,2.54,238.7-193.41,154Z"/><path class="cls-4" d="M1312.27,1535.37l43.19,10.12s-10.12,120.62-15.18,165.08c-4.32,38-53.09,209.36-67.21,258.51-2.39,8.38-3.8,13.22-3.8,13.22h-17.8L1119.35,1736s-82.59-187.89-86.42-261.52l58.4,25.37-58.4-76.17s17.69-218.38-23-294.55A36,36,0,0,1,1017,1126c23.54-8.32,105-19.31,234.22,147.86,0,0,67.33,110.43,71.14,142.18l-30.46,35.55,48.25,5.07s16.51,36.81,15.25,53.31S1312.27,1535.37,1312.27,1535.37Z"/><path class="cls-5" d="M1251.34,1982.33s-90.15-45.71-259-53.35l-70.88-50.25,40.94-50.48-66.15,32.62L852.67,1830l-119.36-58.41s2.77-1.93,7.8-5.28c22.95-15.19,93.22-59.83,164.07-85.2l19.5,35.36,7.45-44c24.14-6.76,47.58-10.41,68.56-9.18l1.9,51.9,40.71-42.75c85.46,29.79,139.48,111.82,139.48,111.82l59.38,171.59s0,0,0,0Z"/><path class="cls-3" d="M1268.17,1978.3l-7.77,1.36-198,34.55S945.76,2075.65,885,2080.13c-57.93,4.32-209.11,15.09-222.84,16.08l-1,.07s181-161.59,207.3-170.45,164.78-40.36,164.78-40.36l7.93,46.06,27.14-57.89S1213.82,1909.84,1268.17,1978.3Z"/><path class="cls-3" d="M1273.07,1969.08c-2.39,8.38-3.8,13.22-3.8,13.22h-17.8L1119.35,1736s-82.59-187.89-86.42-261.52l58.4,25.37-58.4-76.17s17.69-218.38-23-294.55A36,36,0,0,1,1017,1126c27.08,12.12,55.54,31.33,72.82,61.44C1126.63,1251.58,1253.92,1770.42,1273.07,1969.08Z"/><path class="cls-4" d="M1251.34,1982.33s-90.15-45.71-259-53.35l-70.88-50.25,40.94-50.48-66.15,32.62L852.67,1830l-119.36-58.41s2.77-1.93,7.8-5.28c82.84-5.61,199-9,264.71,8.57,76.49,20.5,180.22,121.39,236.34,181,0,0,0,0,0,0Z"/><path class="cls-6" d="M1260.4,1979.66l-198,34.55S945.76,2075.65,885,2080.13c-57.93,4.32-209.11,15.09-222.84,16.08,59.6-37.68,168.52-96.21,309.19-126.87C1095.72,1942.26,1196.61,1959.67,1260.4,1979.66Z"/><path class="cls-6" d="M1087.9,1176.77c4.57,1.83,58.49,170.32,92.32,312.94s83.19,413.23,83.19,413.23Z"/><path class="cls-7" d="M1251.85,1336.9c34.88,88.53,35.14,173.21,7.18,184.22s-39.08-64.71-74-153.24-76.89-158.09-48.93-169.1S1217,1248.38,1251.85,1336.9Z"/><path class="cls-7" d="M1305.85,1611.74c5.48,32.39-.59,60.43-13.54,62.62s-18.86-24.12-24.34-56.51-8.46-58.61,4.5-60.8S1300.37,1579.34,1305.85,1611.74Z"/><path class="cls-6" d="M830.76,1765.1s128.5-15.56,209.65,24.35S1219,1936.88,1219,1936.88s-153.66-126.7-187-142.45C986.67,1773.07,830.76,1765.1,830.76,1765.1Z"/><path class="cls-8" d="M1123.86,1809.79c2.58-14.87-41.35-76.21-85.95-84s-95.78-4.44-98.37,10.43,49.58,21.15,94.19,28.91S1121.27,1824.65,1123.86,1809.79Z"/><path class="cls-8" d="M1252.18,1980.63a155.74,155.74,0,0,0-16.17-5.94l-8.27-2.42c-2.75-.8-5.56-1.42-8.33-2.13l-4.17-1.05-4.21-.9-8.42-1.78c-5.63-1.06-11.3-1.93-16.94-2.93l-17-2.26-17.12-1.6c-1.42-.13-2.84-.31-4.28-.39l-4.29-.23-8.58-.47-8.57-.48-8.6-.13c-5.73-.05-11.45-.24-17.18-.25l-17.18.36-8.59.18-8.58.52-17.17,1c-2.86.11-5.71.42-8.56.69l-8.56.81-17.12,1.62-34.11,4.44.41-.09c-18.25,5.29-36.48,10.72-54.72,16.09l-27.32,8.21q-13.66,4.07-27.3,8.26L844,2008.18c-9.08,2.82-18.11,5.78-27.16,8.71s-18,6-27,9.21c-2.24.79-4.46,1.64-6.69,2.46s-4.42,1.73-6.64,2.58a121.06,121.06,0,0,0-13,5.92c8.12-5,16.93-8.78,25.7-12.48s17.69-7.1,26.61-10.44,17.89-6.54,26.88-9.69l13.49-4.68,13.54-4.55q13.56-4.52,27.14-8.93l27.23-8.61c18.16-5.72,36.38-11.21,54.66-16.59l.22-.06.19,0c11.45-1.52,22.89-3.1,34.35-4.52l17.25-1.55,8.63-.78c2.88-.26,5.75-.55,8.64-.65l17.31-.86,8.66-.4,8.66-.06,17.34-.11c5.77.1,11.55.35,17.33.56l8.66.34,8.64.68,8.64.68,4.32.34c1.44.12,2.87.33,4.31.49,5.74.7,11.47,1.4,17.2,2.16l17.09,2.84,8.49,1.78c2.82.63,5.66,1.16,8.46,1.85l8.39,2.15,4.19,1.08,4.15,1.25A184.9,184.9,0,0,1,1252.18,1980.63Z"/><path class="cls-9" d="M2120.27,1926.19l-124.08,6.13L1819,1941.11c-2.09-45.2-26.53-80.13-26.53-80.13-79-44.06-285.64-26.63-285.64-26.63s23.88-238.77,18.35-262.65-60.6-45.94-60.6-45.94c2.86-2,19.83-8,37.83-14.1,22.56-7.61,46.68-15.26,46.68-15.26l39.32-18.6a221.94,221.94,0,0,1,55.93-17.85l20.19-3.61,73.74-13.22c38.58-16.54,165.31,33.05,165.31,33.05l42.9,27.74,109.84,71,21.75,29.86L2095,1733.4Z"/><polygon class="cls-10" points="2120.27 1926.19 1996.19 1932.32 2060.82 1579.91 2079.11 1599.83 2120.27 1926.19"/><polygon class="cls-11" points="1814.04 1546.72 1782.3 1566.18 1791.48 1601.08 1826.38 1602.92 1838.81 1564.92 1814.04 1546.72"/><polygon class="cls-11" points="1791.48 1601.08 1742.99 1737.99 1800.95 1936.74 1852.55 1762.2 1826.38 1602.92 1791.48 1601.08"/><polygon class="cls-12" points="1672.36 1454.61 1619.51 1578.14 1699.3 1648.3 1693.65 1581.22 1672.36 1454.61"/><polygon class="cls-12" points="1623.55 1661.87 1737.37 1851.81 1758.47 1857.09 1657.85 1643.78 1623.55 1661.87"/><polygon class="cls-13" points="1721.69 1444.95 1732.71 1667.2 1798.83 1939.05 1639.38 1653.2 1692.3 1623.12 1639.46 1573.95 1672.36 1454.61 1721.69 1444.95"/><polygon class="cls-12" points="1903.53 1476.18 1969.72 1597.45 1919.5 1632.86 1893.11 1603.89 1924.65 1570.41 1903.53 1476.18"/><polygon class="cls-12" points="1958.63 1639.65 1972.29 1646.38 1865.43 1866.55 1857.7 1859.46 1893.11 1690.15 1958.63 1639.65"/><polygon class="cls-13" points="1868.63 1500.06 1814.05 1943.98 1958.63 1639.65 1916.39 1619.45 1956.8 1593.73 1903.53 1476.18 1868.63 1500.06"/><polygon class="cls-14" points="1721.69 1444.95 1706.62 1448.42 1690.35 1504.55 1727.77 1579.39 1728.58 1523.26 1721.69 1444.95"/><polygon class="cls-14" points="1903.53 1476.18 1916.43 1544.35 1876.63 1612.49 1856.39 1608.44 1857.06 1586.85 1896.19 1523.44 1903.53 1476.18"/><path class="cls-15" d="M1791.48,1601.08l34.9,1.84h0a93.36,93.36,0,0,0-38.83,56L1775.92,1708a192.22,192.22,0,0,0,.23,89.58l12.09,49.88-15.11.67-27.53-126Z"/><polygon class="cls-15" points="1784.44 1574.84 1814.72 1557.43 1834.02 1579.67 1836.99 1571.37 1814.78 1545.65 1782.3 1566.18 1784.44 1574.84"/><path class="cls-10" d="M1721.69,1445c2.83,7.63,5.86,15.2,9,22.7,2.63,6.24,5.35,12.46,8.34,18.54,2.64,5.38,5,10.87,9.39,15,5.83,5.48,13.51,8.25,20.09,12.64,6.39,4.26,12.68,8.67,18.94,13.12q13.4,9.51,26.57,19.3l.36.27-32.1,19.61-29.39,36.74-51-100.16Z"/><polygon class="cls-10" points="1815.24 1546.91 1861.28 1531.28 1868.63 1500.06 1903.53 1476.18 1907.2 1544.14 1866.79 1604.75 1815.24 1546.91"/><path class="cls-16" d="M1834,1725c0,46.2-20,105.67-30.82,105.67s4-61.07,4-107.28-5-74.45,5.6-76.85C1821.61,1644.53,1834,1678.78,1834,1725Z"/><g class="cls-17"><path class="cls-18" d="M2095,1733.4c-25.68,7.68-68.47,2.8-85.4-19.55-24-31.63,14.38-57-18.21-83.42-22.49-18.17-37.69-86.14-44.91-126.52l109.84,71,24.12,24.59Z"/></g><g class="cls-17"><path class="cls-18" d="M1664.48,1456.34c-19.13,31.17-58.66,57.59-97.55,67.93-21,5.64-45.13-2.55-64.57-12.61,22.56-7.61,46.68-15.26,46.68-15.26l39.32-18.6a221.94,221.94,0,0,1,55.93-17.85Z"/></g><path class="cls-10" d="M1819,1941.11l-33,1.63-150.61,1.84-292.08,20.47-3.65-40.7,74.17-274.55a568.92,568.92,0,0,1,38.47-102.75c1-1.91,1.88-3.76,2.76-5.53,4.29-8.39,7.8-14.52,9.5-15.76,0,0,33.43-.14,57.13,13.71,25.75,15,63.39,67.21,66.22,79.64C1593.41,1643,1526,1818.3,1526,1818.3s187.46-1.38,266.45,42.68a170.76,170.76,0,0,1,24.44,61.81A138.23,138.23,0,0,1,1819,1941.11Z"/><path class="cls-19" d="M1819,1941.11l-33,1.63-150.61,1.84-292.08,20.47-3.65-40.7,74.17-274.55a568.92,568.92,0,0,1,38.47-102.75c1-1.91,1.88-3.76,2.76-5.53l9.46-15.69c-1.45,5.39-104.53,385.2-83.42,394.48,21.26,9.39,215-3.11,215-3.11l220.82,5.59A138.23,138.23,0,0,1,1819,1941.11Z"/><path class="cls-20" d="M1648.6,1859.08c-59.3-4.21-128.68,4.51-127.39-13.71s61.58-19.18,120.88-15,118.47,23.5,117.18,41.72S1707.9,1863.29,1648.6,1859.08Z"/><path class="cls-21" d="M1903.53,1476.17a91.3,91.3,0,0,1-4.57,15.45c-19,47.78-71.9,56.67-71.9,56.67C1709.5,1536,1721.68,1445,1721.68,1445l10.84-1.21,5.7-.64C1766.45,1404.94,1903.53,1476.17,1903.53,1476.17Z"/><path class="cls-22" d="M1903.53,1476.17a91.3,91.3,0,0,1-4.57,15.45l-37.85,20.5a25.72,25.72,0,0,1-18.24,2.41c-15.71-3.74-46.52-11.64-61.59-19.18-16.54-8.25-42-37.85-48.76-51.59l5.7-.64C1766.45,1404.94,1903.53,1476.17,1903.53,1476.17Z"/><path class="cls-21" d="M1723.52,1351.27l15.72,87a39.38,39.38,0,0,0,19.86,27.57c21.48,11.74,57.23,31.08,65.45,34.24,11.94,4.6,44.08,0,44.08,0l27.51-18.34a62.07,62.07,0,0,0,26.71-40.85l21.09-119s-4.59-96.43-16.53-112-86.33-33.06-86.33-33.06l-88.17,9.18-40.41,82.66Z"/><path class="cls-21" d="M1723.52,1351.27l-36.73-22-11.43,16.62a25.77,25.77,0,0,0-1.61,26.51l7.18,13.75a51.23,51.23,0,0,0,22.59,22.17l33.87,16.86Z"/><path class="cls-23" d="M1850,1448.18a12.57,12.57,0,0,1-2.2-.19l-40-7a1.61,1.61,0,0,1,.55-3.18l40,7a9.62,9.62,0,0,0,3.78-.09l38.21-8.69a1.62,1.62,0,0,1,.72,3.15l-38.21,8.68A13.18,13.18,0,0,1,1850,1448.18Z"/><path class="cls-22" d="M1672.54,1351.05l77.72,59s54.68,4.35,88.23,1.86,89.9-2.65,89.9-2.65l5.88-31.92-257.8-33.12-2.31,3.43Z"/><path class="cls-24" d="M1723.52,1351.27l64.29-112-20.2-14.7-70-31.67L1657.4,1309S1666.58,1364.13,1723.52,1351.27Z"/><path class="cls-24" d="M1694.13,1226.37s53.27-89.08,71.64-90,115.72,11,115.72,11,36.73-11,45.92-16.53c0,0,0,15.61-11,23.88,0,0,14.69,9.18,55.1-9.19,0,0-13.77,70.72-55.1,86.33l-66.13,25.72-62.45-18.37Z"/><polygon class="cls-24" points="1934.76 1191.47 1975.16 1252.09 1943.94 1321.88 1927.41 1209.84 1934.76 1191.47"/><polygon class="cls-23" points="1747.06 1302.8 1663.3 1291.17 1657.4 1309.03 1662.36 1333.81 1756.59 1402.7 1747.06 1302.8"/><path class="cls-25" d="M1970.34,1385a17.6,17.6,0,0,1-3.16,7.58,17.92,17.92,0,0,1-13.35,7.37c-44.31,2.72-179.62,10.41-197.26,2.76-16.22-7.09-23.77-61.92-26.42-86.89a13.69,13.69,0,0,1,11-14.81c.85-.17,1.67-.31,2.52-.46,89.61-17.1,177.46-12.22,213.91-9a20.79,20.79,0,0,1,18.87,20.33C1977.1,1338.67,1973.14,1368.1,1970.34,1385Z"/><path class="cls-26" d="M1970.34,1385a17.6,17.6,0,0,1-3.16,7.58l-223.5-92c89.61-17.1,177.46-12.22,213.91-9a20.79,20.79,0,0,1,18.87,20.33C1977.1,1338.67,1973.14,1368.1,1970.34,1385Z"/><path class="cls-27" d="M1930.68,1301.17s21.21-.23,28.51,1.36,8.66,6.16,9.8,14.14.46,21,.46,21-2.84-21.89-12.77-26.22C1944.14,1306,1930.68,1301.17,1930.68,1301.17Z"/><path class="cls-28" d="M1692.24,1256.52c.85-12.69,7.57-25.15,15.12-35.1,10.57-13.93,26.8-20.33,36-35.78,7.16-12,9.64-27.86,24-33,16.44-5.83,35.13-7.4,52.43-6.15,13,1,36.26,6.32,29.07,23.83-4.68,11.43-16.58,20.71-26.11,28.05a151.51,151.51,0,0,1-34.39,20.19c-9.16,3.79-19.11,4.92-28.43,8.18-10.24,3.58-18.23,10.18-26.1,17.46-8.95,8.27-18.07,21.86-29.19,27.21-2.65,1.27-6.07,1.42-8.36-.43a9.3,9.3,0,0,1-2.54-3.71A23.33,23.33,0,0,1,1692.24,1256.52Z"/><polygon class="cls-29" points="2074.35 1701.18 1915.47 2006.09 2373.75 1995.99 2511.51 1707.61 2074.35 1701.18"/><path class="cls-2" d="M3038.5,1355.6c22.35-1,44.77-.17,67.11,1.41s44.62,4.25,66.8,7.63,44.2,7.81,66.06,13,43.47,11.38,64.85,18.36c5.37,1.66,10.65,3.6,16,5.42,2.65.93,5.33,1.8,8,2.79l7.9,3,7.91,3,7.82,3.16c5.2,2.14,10.46,4.16,15.6,6.47s10.34,4.45,15.45,6.79l15.31,7.15c10.09,5,20.21,10,30.08,15.4l7.45,4c2.46,1.39,4.89,2.84,7.33,4.27l7.31,4.31,3.66,2.15,3.57,2.3,14.24,9.24,13.86,9.85a433.32,433.32,0,0,1,51.4,44.51,365.44,365.44,0,0,1,75.39,112.71,380,380,0,0,1,20.7,64.8l3.25,16.69c.6,2.77.92,5.59,1.34,8.39l1.19,8.41c.9,5.6,1.26,11.25,1.79,16.88l.76,8.46c.16,2.82.25,5.64.38,8.47l.35,8.47.17,4.23v4.24l-.09,16.93-.83,16.91-.22,4.22-.41,4.21-.82,8.41-.81,8.41-1.16,8.37-1.17,8.36c-.4,2.79-.73,5.58-1.28,8.34l-3,16.6c-.45,2.78-1.1,5.51-1.71,8.26l-1.84,8.22-1.87,8.22c-.65,2.73-1.43,5.43-2.14,8.14l-4.36,16.26-4.94,16.08c-.84,2.68-1.59,5.38-2.52,8l-2.78,7.94c-7.11,21.26-15.81,41.92-24.81,62.37l5.74-15.75,2.88-7.87c.95-2.62,1.77-5.29,2.66-7.94l5.31-15.88c1.69-5.31,3.21-10.68,4.82-16l2.38-8c.78-2.68,1.44-5.38,2.17-8.07l4.26-16.16,3.68-16.28c.6-2.72,1.26-5.42,1.8-8.15l1.52-8.2,1.55-8.19c.51-2.73,1.07-5.45,1.43-8.21l2.47-16.47c.46-2.74.69-5.51,1-8.27l.9-8.27.88-8.27.54-8.3.55-8.29.28-4.14.12-4.15.44-16.6-.29-16.59-.07-4.14-.26-4.14-.54-8.26c-.18-2.76-.33-5.52-.55-8.27l-.93-8.22c-.64-5.48-1.11-11-2.11-16.41L3626,1734c-.44-2.72-.79-5.45-1.41-8.14l-3.38-16.17a367.61,367.61,0,0,0-20.89-62.48,362.45,362.45,0,0,0-31.65-57.67,357.72,357.72,0,0,0-41.76-50.87,419.29,419.29,0,0,0-49.65-43.39c-17.61-13.29-36.49-24.72-55.79-35.56-38.65-21.73-79.55-39.36-121.38-54.28-20.94-7.42-42.22-13.88-63.69-19.7s-43.19-10.75-65.07-14.94-43.9-7.68-66.06-10.3q-16.61-2-33.31-3.27C3060.83,1356.41,3049.68,1355.77,3038.5,1355.6Z"/><path class="cls-5" d="M3297,1717.43l-51.6-3.38,40.77,19.08-24.75,44-50.74,90.26L3029,2068.91,3005,2095.6l-2.16,1.84-62,52.8-24.66,21-34.43,29.3-11.41,9.71,6-10.61,6.9-12.18,129.48-228.35,60-105.76,34.68-145.09,58.09-48.8L3111,1669.85l49.83-155s65.82-98.34,75.37-131.71a28.94,28.94,0,0,0,1-4.64s72.94,67.47,92.35,141.19S3297,1717.43,3297,1717.43Z"/><path class="cls-3" d="M2880.83,2214.25a24,24,0,0,1,4.25-5.21Z"/><path class="cls-3" d="M4018.8,1866.35l-1.13.38-131.24,43.64-55.72-55.32,4.71,73.42s-146.64,34-167.57,30-155.25-49.48-202-48.35S3300.6,2013,3263.55,2026.87c-13,4.86-61.42,25-119.75,50.58l-3.83,1.7h0c-92.62,40.74-208.41,94.61-246.88,123.27h0a79.65,79.65,0,0,0-7.93,6.62l5.77-7,35.67-43.53h0l.1-.14,63.9-77.93,113.67-138.6,104.53-127.48,83.63-59.12L3416,1667.92l289-61.35S3925.47,1658.32,4018.8,1866.35Z"/><path class="cls-5" d="M3750.73,2397.41c-31.1,77.33-335-12.18-335-12.18l-123-105.84L3302,2243l-44.35,22.38L3112,2239l-42.64-7.12-176.33-29.43-2.2-.39-16.47-2.73-1.59-.28-3.44-.57s2.63-2.3,7.73-6.34a485,485,0,0,1,49.23-33.47.79.79,0,0,1,.25-.14c1.84-1.14,3.75-2.27,5.7-3.4,11.41-6.66,24.3-13.68,38.61-20.72a634.2,634.2,0,0,1,369.33-58.52c286.7,40,426,178.38,426,178.38S3781.83,2320.12,3750.73,2397.41Z"/><path class="cls-4" d="M3886.43,1910.37l-55.72-55.32,4.71,73.42s-146.64,34-167.57,30-155.25-49.48-202-48.35S3300.6,2013,3263.55,2026.87c-13,4.86-61.42,25-119.75,50.58-2.77.85-5.53,1.67-8.26,2.48-53.55,16.19-94.89,29.44-94.89,29.44l-4.53-2.62-14.34,12.48-21.28,10.29L2974.42,2100l-9.61-16.47,65.21-37.07,76.19-81,118.84-99.38,100.84-63.16,245.19-101.37L3762,1722.78l255.67,144Z"/><path class="cls-3" d="M3750.73,2397.41c-31.1,77.33-335-12.18-335-12.18l-123-105.84L3302,2243l-44.35,22.38L3112,2239l-42.64-7.12-116-65-21.08-11.79-.85-.46-1.17-.68-21.82-12.18-11.54-6.48s5.66-.11,15.69-.22c8.39-.14,19.83-.28,33.54-.46l11-.1c4.39,0,9-.11,13.78-.14,14.91-.15,31.42-.29,48.85-.43,110.9-.74,260.06-.5,282.62,6.06,36.52,10.62,259.28,122.59,259.28,122.59Z"/><path class="cls-4" d="M3228.94,1588.85c-28.78,98.18-106,274.76-162.75,399.35-14,30.72-26.72,58.28-37.17,80.71-10.34,22.15-18.43,39.33-23.33,49.64-3.36,7.13-5.19,11-5.19,11l.64-9,1.65-23,2.51-35,7.38-103.38,60-105.76,34.68-145.09,58.09-48.8L3111,1669.85l49.83-155s65.82-98.34,75.37-131.71C3247.86,1431,3254.34,1502.3,3228.94,1588.85Z"/><path class="cls-6" d="M3030,2046.47c16.42-20.28,34-39.59,52.09-58.47s36.67-37.23,56-54.89c4.74-4.49,9.63-8.83,14.49-13.2l7.29-6.56,3.64-3.28,3.71-3.22,14.88-12.78,3.73-3.19,3.78-3.11,7.58-6.24,7.57-6.24,3.79-3.12,3.85-3L3227.8,1857c2.58-2,5.11-4.08,7.75-6l7.87-5.86,15.76-11.72.17-.13.27-.16c12.23-7.19,24.48-14.14,36.83-21s24.74-13.66,37.31-20.13c25.13-13,50.5-25.55,77-36.23,13.16-5.13,26.34-10.06,39.53-15l39.55-14.93,39.55-14.94,39.62-14.75,1.34-.5,1.37.16,47.69,5.66c15.9,1.84,31.78,3.87,47.67,5.82l47.67,5.88,47.64,6.1.76.09.56.32c11,6.19,22.09,12.35,33.08,18.61l33,18.71,33,18.85q16.47,9.45,32.87,19-17-8.41-34-17l-33.88-17.15L3794,1743.37c-11.28-5.74-22.51-11.57-33.75-17.38l1.32.41-47.81-4.51-47.8-4.72c-15.93-1.6-31.86-3.11-47.78-4.79l-47.77-5,2.71-.33-39.37,15.28-39.43,15.1c-26.29,10-52.57,20.2-78.87,30.16-25.81,10.24-51.06,22.57-76,35.33s-49.77,26.06-74.14,39.89l.44-.28L3250,1854c-5.25,3.82-10.57,7.55-15.73,11.49l-15.59,11.68-3.9,2.93-3.83,3-7.67,6-7.67,6-3.84,3-3.78,3.07-15.1,12.33-3.79,3.07-3.74,3.13-7.46,6.28c-5,4.19-10,8.34-14.85,12.65l-14.7,12.83-14.52,13c-9.64,8.75-19.22,17.56-28.62,26.57C3066.29,2009,3047.76,2027.35,3030,2046.47Z"/><path class="cls-6" d="M3019.72,2134q17.67-.43,35.35-.67l17.68-.24,17.68-.14c23.56-.25,47.13-.19,70.69-.25l70.68.35q35.34.3,70.67.83h1.31l1.26.6,35.83,17.15,35.78,17.27,35.72,17.38,35.66,17.5,35.61,17.61,35.55,17.75,35.46,17.92,17.73,9,17.67,9.08.47.24.26.21,23.87,19.81,23.74,20c7.94,6.64,15.78,13.38,23.67,20.07q5.91,5,11.78,10.1l11.74,10.15-12.58-9.09q-6.28-4.55-12.53-9.15c-8.33-6.14-16.69-12.23-25-18.43l-24.88-18.53-24.76-18.69.73.46-18.07-8.25-18-8.37-36-16.73-35.95-16.9-35.89-17-35.83-17.15L3371,2180.46l-35.72-17.39-35.67-17.5,2.57.62q-35.33-1-70.64-2.2l-70.64-2.68c-23.54-1.07-47.08-2-70.61-3.28l-17.66-.9-17.65-1Q3037.37,2135.15,3019.72,2134Z"/><path class="cls-6" d="M3244.91,1473c.39,5.61.66,11.22,1,16.83l.84,16.84c.3,5.61.47,11.22.72,16.84l.68,16.83,0,.46-.22.68q-13.22,39.81-27.16,79.35t-28.42,78.88q-14.48,39.35-29.46,78.5t-30.6,78.07l-.19.46-.14.24q-7.52,12.45-15.14,24.85c-5.09,8.25-10.16,16.52-15.34,24.73s-10.27,16.47-15.53,24.63-10.47,16.34-15.84,24.45q6.39-13.11,13-26.06c4.35-8.68,8.88-17.26,13.33-25.89s9-17.19,13.52-25.77,9.11-17.12,13.72-25.66l-.33.7q13.67-39.64,27.93-79.07t29.07-78.64q14.8-39.21,30.1-78.25t31.37-77.79l-.21,1.13.69-16.83c.24-5.62.42-11.23.72-16.84l.83-16.84C3244.24,1484.24,3244.52,1478.63,3244.91,1473Z"/><path class="cls-7" d="M3820.62,1806.78c0,37.91-74.85,109.4-156.6,109.4s-183.42-35-183.42-72.93,106-92.25,187.71-92.25S3820.62,1768.87,3820.62,1806.78Z"/><path class="cls-7" d="M3453.79,1850.76c-9.47-19.77-75.75-27-118-6.84s-73.85,66.44-64.38,86.21,56.44,5.59,98.65-14.62S3463.25,1870.52,3453.79,1850.76Z"/><path class="cls-30" d="M3715.08,2297.05c-13.39,27-50.9-26.84-104.25-53.34s-104.07-32.2-90.68-59.16,63.5-27.47,116.86-1S3728.47,2270.09,3715.08,2297.05Z"/><ellipse class="cls-30" cx="3444.99" cy="2138.97" rx="21.82" ry="66.43" transform="translate(326.38 4730.77) rotate(-71.57)"/><polygon class="cls-6" points="3485.57 1730.71 3631.05 1763.74 3631.77 1763.9 3632.27 1764.24 3776.44 1863.54 3628.43 1770.05 3629.65 1770.56 3482.96 1743.34 3485.57 1730.71"/><polygon class="cls-6" points="3301.78 2133.59 3385.49 2128.57 3386 2128.54 3386.29 2128.57 3547.02 2149.37 3385.42 2137.03 3386.22 2137.03 3302.89 2146.43 3301.78 2133.59"/><polygon class="cls-6" points="3470.62 2214.26 3551.96 2214.92 3552.31 2214.93 3552.43 2214.94 3712.7 2233.72 3551.66 2223.4 3552.12 2223.42 3470.86 2227.15 3470.62 2214.26"/><polygon class="cls-6" points="3394.38 2178.78 3449.76 2292.84 3449.96 2293.26 3450 2293.57 3459.66 2367.77 3445.22 2294.36 3445.46 2295.09 3382.97 2184.77 3394.38 2178.78"/><polygon class="cls-6" points="3358.26 1778.44 3426.77 1696.96 3427.24 1696.4 3427.72 1696.16 3512.75 1653.91 3430.59 1701.51 3431.54 1700.72 3368.39 1786.42 3358.26 1778.44"/><g class="cls-17"><rect class="cls-27" x="1047.57" y="392.5" width="933.41" height="525.04"/></g><g class="cls-17"><rect class="cls-27" x="2232.64" y="769.6" width="417.92" height="235.08"/></g><path class="cls-21" d="M1792.42,1861l43.63-11.13,50.36,1,39.06,32.89,14.4,48.31-120.92,9S1818.17,1886.51,1792.42,1861Z"/><path class="cls-11" d="M2978.2,2234.64c-.92-.32-1.84-.6-2.76-.85C2974.73,2233,2975.51,2233.15,2978.2,2234.64Z"/><path class="cls-31" d="M3976.84,2717.89c10.37,0,10.38-16.12,0-16.12s-10.39,16.12,0,16.12Z"/><rect class="cls-32" x="1311.57" y="2072.68" width="104.98" height="104.98"/><rect class="cls-32" x="1421.77" y="1169.57" width="102.85" height="102.85"/><rect class="cls-2" x="3318.82" y="1208.93" width="75.3" height="75.3"/><rect class="cls-32" x="3779.31" y="2059.06" width="75.3" height="75.3"/><rect class="cls-32" x="3128.09" y="2538.71" width="51.69" height="51.69"/><rect class="cls-2" x="899.84" y="2329.52" width="80.95" height="80.95"/><rect class="cls-32" x="969.57" y="2702.3" width="43.82" height="43.82"/><rect class="cls-32" x="759.27" y="1252.22" width="87.11" height="87.11"/><rect class="cls-2" x="2906.95" y="2745.27" width="96.08" height="96.08"/><rect class="cls-32" x="3777.5" y="1386.04" width="43.82" height="43.82"/><rect class="cls-32" x="2795.78" y="612.4" width="43.82" height="43.82"/><rect class="cls-2" x="1437.93" y="2706.24" width="43.82" height="43.82"/><rect class="cls-32" x="1631.69" y="2149.59" width="60.36" height="60.36"/><rect class="cls-32" x="1619.88" y="2389.67" width="40.68" height="40.68"/><polygon class="cls-6" points="3236.76 1849.58 3408.8 1840.42 3409.34 1840.39 3409.73 1840.56 3482.76 1872.57 3408.19 1844.34 3409.12 1844.48 3237.78 1862.43 3236.76 1849.58"/><polygon class="cls-27" points="1836.22 2361.69 2262 2577.39 2711.65 2382.85 1836.22 2361.69"/><polygon class="cls-10" points="2295.45 2474.67 2711.28 2354.89 2213.33 2258.21 2295.45 2474.67"/><polygon class="cls-33" points="2238.66 2304 2525.77 2361.1 2270.21 2432.66 2238.66 2304"/><polygon class="cls-13" points="1761.32 1850.39 1836.22 2361.69 2295.45 2474.67 2221.75 1795.79 1761.32 1850.39"/><polygon class="cls-13" points="2295.45 2474.67 2711.43 2354.81 2711.65 2382.85 2295.94 2503.51 2295.45 2474.67"/><polygon class="cls-13" points="2296.02 2503.67 1836.22 2361.69 2295.45 2474.67 2296.02 2503.67"/><polygon class="cls-34" points="2221.75 1795.79 1836.22 2361.69 1761.32 1850.39 2221.75 1795.79"/><ellipse class="cls-33" cx="1999.29" cy="2110.33" rx="72.68" ry="64.8" transform="translate(-167.83 4047.92) rotate(-88.35)"/><path class="cls-2" d="M1048.4,2131.13c3.34,9.14,7.26,18,11.34,26.86s8.48,17.49,13,26.07q13.65,25.74,29.42,50.25t33.21,47.78c11.64,15.51,23.74,30.68,36.46,45.31l4.73,5.51,4.85,5.42c3.24,3.6,6.42,7.25,9.71,10.82,6.64,7,13.17,14.21,20,21,13.47,13.93,27.64,27.16,41.92,40.24a1013.67,1013.67,0,0,0,90.74,72.41c7.82,5.72,15.93,11,23.94,16.44l6,4.05c2,1.34,4.07,2.61,6.11,3.92l12.25,7.78q24.6,15.42,49.95,29.58a1159.13,1159.13,0,0,0,104.16,51.24l13.33,5.74c2.22,1,4.44,1.92,6.7,2.8l6.74,2.7,13.47,5.42c4.49,1.8,9,3.64,13.52,5.27l27.23,10.1,27.49,9.37,6.87,2.34,6.94,2.16,13.86,4.32,13.87,4.31,14,4,14,4c4.66,1.32,9.31,2.67,14,3.82l28.16,7.17c4.67,1.25,9.41,2.25,14.13,3.36l14.16,3.26,14.16,3.26,14.24,2.91c9.49,1.92,19,3.91,28.49,5.76l28.62,5.07,7.16,1.27c2.38.43,4.77.86,7.17,1.2l14.37,2.18,14.37,2.18,7.19,1.09c2.39.38,4.79.74,7.2,1l28.85,3.67c4.81.59,9.61,1.26,14.43,1.79l14.46,1.52a2212.08,2212.08,0,0,0,232.39,12.38l29.12-.17c9.7-.06,19.41,0,29.12-.39l29.12-.78,14.56-.38,14.55-.65,29.11-1.32c4.85-.23,9.7-.41,14.55-.69l14.54-.95,29.08-1.91c4.85-.34,9.7-.61,14.54-1l14.52-1.23c77.5-6.1,154.77-15.22,231.83-26.12q-114.9,20.61-231.26,32.42l-14.53,1.52c-4.84.47-9.7.83-14.55,1.25l-29.11,2.44-14.56,1.22c-4.86.36-9.72.63-14.58.95l-29.17,1.85-14.58.91-14.6.6L2286.3,2730c-9.74.48-19.48.58-29.23.77l-29.23.54c-4.87.14-9.74.09-14.62.08l-14.62,0-29.25-.12-29.24-.8c-9.74-.3-19.49-.43-29.23-1-19.47-1.05-39-1.75-58.42-3.39l-29.18-2.16-29.13-2.84-14.57-1.42c-4.85-.49-9.69-1.17-14.53-1.75l-29.06-3.62c-2.42-.27-4.83-.63-7.25-1l-7.24-1.08-14.48-2.16-14.48-2.16c-2.41-.34-4.82-.76-7.22-1.19l-7.21-1.26-28.86-5c-9.58-1.84-19.15-3.82-28.72-5.72l-14.36-2.9-14.28-3.25-14.29-3.25c-4.75-1.11-9.54-2.09-14.26-3.37l-28.37-7.3c-4.75-1.17-9.44-2.55-14.13-3.89l-14.09-4-14.09-4-14-4.39-14-4.39-7-2.2-6.93-2.38-27.72-9.53-27.46-10.27c-4.6-1.66-9.12-3.52-13.65-5.36l-13.59-5.5c-9.1-3.55-18-7.6-27-11.52a1171.81,1171.81,0,0,1-104.8-52.58q-25.5-14.47-50.21-30.3l-12.27-8c-2-1.34-4.1-2.66-6.12-4l-6-4.17c-8-5.59-16.14-11-24-16.91a983.44,983.44,0,0,1-90.58-74.36c-14.18-13.45-28.22-27-41.55-41.33-6.79-7-13.24-14.35-19.81-21.58-3.24-3.65-6.39-7.38-9.59-11.07l-4.78-5.54-4.64-5.67c-12.48-15-24.31-30.56-35.66-46.43s-22.15-32.13-32.22-48.83-19.5-33.78-28.13-51.25c-4.28-8.75-8.41-17.58-12.21-26.54S1051.4,2140.39,1048.4,2131.13Z"/><path class="cls-2" d="M2122.41,723H1403.05V278.65h719.36Zm-712.92-6.44H2116V285.1H1409.49Z"/><path class="cls-35" d="M2282.74,1066.41h-412V812.09h412ZM1874,1063.18h405.54V815.31H1874Z"/><path class="cls-35" d="M1647.82,1055.4H1332.57V860.5h315.25Zm-312-3.23H1644.6V863.72H1335.79Z"/><rect class="cls-32" x="2260.83" y="1126.14" width="60.36" height="60.36"/><rect class="cls-32" x="2078.18" y="942.49" width="29.46" height="29.46"/><rect class="cls-32" x="1747.9" y="1024.16" width="29.46" height="29.46"/><path class="cls-27" d="M2645.18,1689.86s91.23-29.49,130.86,7.37S2753.92,2193,2753.92,2193l-134.18.38S2479.31,1891.67,2645.18,1689.86Z"/><path class="cls-10" d="M2652.25,1789.18s-30.13,8.16-37,91-3.14,310.78-3.14,310.78,46.27,9.6,99.73,3.86c0,0-65.87-23.09-68.38-87.14S2652.25,1789.18,2652.25,1789.18Z"/><path class="cls-33" d="M3093.85,1850.07l-38,162.52.53,30.21c1,59.47,1.66,120.47,37.93,167.58l9,27.84s-74.46,8.18-116.43-1.24a88.64,88.64,0,0,1-8.65-2.34c-.92-.32-1.84-.6-2.76-.85a108.76,108.76,0,0,0-45.59-3.9,441,441,0,0,1-76.79,3.26l-40.41-2s-97.77-24-100.85-36.31c-2.94-11.86-39-230.41-20-349.74.67-4.33,1.45-8.54,2.26-12.65,10.35-51,42.61-113.2,75.87-167.36a1465.93,1465.93,0,0,1,88.84-128.19l133.93,9.24,44.66,9.43s28.45,9.81,36.91,13.67,40,50.79,40,50.79l9.24,103.15-17.46,74.56Z"/><path class="cls-15" d="M2694.09,1832.47s-9.46,36.73-3.33,50.51c4.41,9.93,104.78,107,160.58,160.53a99.94,99.94,0,0,0,86.35,26.32l27-4.72a24.34,24.34,0,0,0,16.73-11.49L3088,1875.41l27.56-115.32-124.51,48-89.81,83.69Z"/><polygon class="cls-11" points="2803.32 1694.27 2841.03 1687.98 2893.41 1751.88 2916.46 1668.08 2933.22 1663.89 2916.08 1721.95 2909.91 1795.84 2803.32 1694.27"/><path class="cls-11" d="M2733.43,2038.65s71,105.16,109.19,130.61,157.88-39.74,157.88-39.74S2894.19,2175.29,2733.43,2038.65Z"/><path class="cls-11" d="M3103.28,2238.22s-74.46,8.18-116.43-1.24a48.06,48.06,0,0,0,5.84.22c45.36-.83,74.48-48.8,56.32-90.37-2.38-5.44-4.93-11-7.65-16.75-20.83-43.61-6.94-182.81-6.94-182.81l19.8-38.64,39.63-58.56-38,162.52.53,30.21c1,59.47,1.66,120.47,37.93,167.58Z"/><path class="cls-36" d="M2633.4,1430s25.78,87.89,5.5,129.31-77.33,87-68.88,126.76c0,0,49,41.42,105.64,29.58s60.85-20.28,60.85-20.28-2.54-139-2.54-177.48-43.94-143.67-71.83-132.68S2631.29,1415.24,2633.4,1430Z"/><path class="cls-37" d="M2654.19,1431.94a160,160,0,0,1,4,111.61c-11.65,34.85-36.71,63-54.87,94.44-9.75,16.87-17.72,34.9-20.43,54.33-.42,3,4.23,4.36,4.66,1.28,5.17-37.06,28.95-67.52,48.86-97.94,9.89-15.1,19.23-30.6,25.35-47.66a163.8,163.8,0,0,0-3-117.35c-1.18-2.83-5.86-1.58-4.66,1.29Z"/><path class="cls-37" d="M2672.12,1429.19a199.77,199.77,0,0,0,9,43.75c4.66,14.15,12.47,27.32,16.06,41.8,2.8,11.31.64,23.45-2.65,34.42s-8.21,22.17-15.92,30.82c-2.06,2.31,1.35,5.74,3.42,3.41,7.65-8.58,12.71-19.32,16.29-30.17s6-22.68,4.59-34c-1.74-14.31-9.72-27.28-14.69-40.59a193.1,193.1,0,0,1-11.28-49.4c-.29-3.07-5.13-3.1-4.84,0Z"/><path class="cls-36" d="M2633.92,1434.68c17,34.75,2.41,73.75-15.05,105.12-17.76,31.9-38.65,62.94-51.11,97.5-5.06,14-7.73,31.22,3.52,43,2.15,2.25,5.57-1.17,3.42-3.42-11.27-11.82-5.84-30.17-.28-43.42a523,523,0,0,1,25.53-51.35c17.06-30.67,38.94-60.48,44.78-95.87,3-18.36,1.61-37.16-6.64-54-1.37-2.79-5.54-.35-4.17,2.44Z"/><path class="cls-21" d="M2868.29,1472.13l-2.09,12.12-33.54,194.28-126.24-20,12.29-118.45,4.07-39.25.57-5.45a571.37,571.37,0,0,1,59.26-24.94C2819.73,1457.47,2861.78,1448.68,2868.29,1472.13Z"/><path class="cls-22" d="M2868.29,1472.13l-2.09,12.12c-28.94,20.4-67.9,47.28-79.69,52.92-13.25,6.3-47.33,4.6-67.8,2.9l4.07-39.25,59.83-30.39C2819.73,1457.47,2861.78,1448.68,2868.29,1472.13Z"/><path class="cls-21" d="M2659.87,1355l20.64,104.5c7.57,18,22.58,34.11,34.68,44.55l12.82,11.14c6.88,4.13,12.36,9.88,20.38,9.88l11.14.46a53.4,53.4,0,0,0,26.25-6.89l82.52-46.51s50.82-100.77,48.23-148.14S2827,1184.46,2827,1184.46h-91.3s-82.68,56.85-82.68,81S2659.87,1355,2659.87,1355Z"/><path class="cls-23" d="M2747.21,1469.91a35.82,35.82,0,0,1-15.91-3.73L2706.57,1454a1.61,1.61,0,1,1,1.42-2.89l24.74,12.23a32.56,32.56,0,0,0,28.24.35l41.47-19.26a1.62,1.62,0,0,1,1.36,2.93l-41.48,19.25A35.81,35.81,0,0,1,2747.21,1469.91Z"/><path class="cls-22" d="M2675.62,1435l86.49-9.32,104.24-41.25,29,3.26,5.07-17-65.52-.47-78.07,34.15s-85.83,12.42-84.72,12.42S2675.62,1435,2675.62,1435Z"/><path class="cls-22" d="M2670,1279s60.83-33.2,76.79-49.42c0,0,76.28,77.81,104.67,79.33l-3.55-78.57-87.18-50.17L2653,1265.42Z"/><path class="cls-36" d="M2928.35,1318.47a542.56,542.56,0,0,0-54.08,101.84c-23.58,59.43-28.67,92.68-57.29,115.63-29.81,23.91-53,118-51.31,145.52,0,0,6.33,19.43,63,12.25s51.13-22.82,89.58-7.61,82.43-51.1,82.43-51.1-61.91-177-52.94-294.94C2947.7,1340.06,2957.09,1295.66,2928.35,1318.47Z"/><path class="cls-37" d="M2907.24,1377.34c-8.36,43.11-16.95,87.37-38.36,126.24-10.53,19.11-25,35.18-37.76,52.71s-21.32,36.58-23.5,58.48c-1.27,12.73-.83,25.77,0,38.51.88,12.91,3,25.66,7.37,37.86,1,2.9,5.72,1.65,4.66-1.29-7.78-21.56-8.91-45.9-7.71-68.64,1.24-23.48,9.58-43.64,23.32-62.48,12.29-16.83,26.2-32.26,36.52-50.48,10.5-18.52,18.11-38.56,24.06-59,6.77-23.2,11.44-47,16-70.66.59-3-4.07-4.34-4.67-1.29Z"/><path class="cls-37" d="M2924.73,1374.84a232.1,232.1,0,0,1-6.21,68.93c-5.65,23-15.16,44.31-26.68,64.9-11.06,19.79-23.14,39.09-31.63,60.19-8.08,20.08-11.75,40.86-9.9,62.48,1.67,19.52,8.16,38.33,25.32,49.34,2.63,1.68,5.06-2.5,2.44-4.18-16.33-10.48-21.82-28.94-23.09-47.38-1.53-22.16,3-43.14,11.76-63.45,9-20.68,21.2-39.7,32-59.44,10.31-18.86,18.72-38.55,24-59.43a236.32,236.32,0,0,0,6.82-72c-.18-3.09-5-3.11-4.83,0Z"/><path class="cls-37" d="M2937.34,1377c1.3,38.75,2.59,77.68-1.41,116.33a363.22,363.22,0,0,1-11.15,58.93c-4.64,16.92-8.58,33.52-7.35,51.2a166.37,166.37,0,0,0,12.78,53c1.22,2.85,5.38.39,4.18-2.44a159.59,159.59,0,0,1-12-49c-1.48-18.15,2.54-35,7.3-52.43,9.91-36.15,13.38-73.27,13.73-110.66.2-21.66-.52-43.32-1.25-65-.1-3.1-4.94-3.12-4.83,0Z"/><path class="cls-36" d="M2943.39,1429.32c1.65,27.47,17.79,49.7,27.84,74.45,5.18,12.73,9.15,27,6.68,40.77-2.35,13.15-10,24.48-18.06,34.86-3.76,4.86,3,11.75,6.84,6.83,8.2-10.59,16.11-21.8,19.6-34.93,3.66-13.76,1.79-28.26-2.6-41.62-8.93-27.13-28.87-51.09-30.63-80.36-.37-6.19-10-6.23-9.67,0Z"/><path class="cls-36" d="M2942.38,1384.31a198.46,198.46,0,0,0,22.37,85.66c7,13.42,16.39,25,24.53,37.65,8.51,13.27,12.16,28.51,6.65,43.74-5.79,16-20.37,26.87-37,29.14-3.07.42-1.76,5.08,1.28,4.67,28.53-3.9,48.2-31.59,42.17-59.86-3.37-15.75-14.82-27.83-23.45-40.86a191.58,191.58,0,0,1-21.77-44.62,193.59,193.59,0,0,1-9.91-55.52c-.1-3.1-4.93-3.12-4.84,0Z"/><path class="cls-37" d="M2923.41,1413.67c3.45,41.79-13.52,80.94-24.12,120.52-10.12,37.79-19.25,81-5.85,119.16,4.86,13.87,13.87,29.27,29.9,31,3.09.34,3.07-4.5,0-4.84-14.86-1.61-22.68-18.66-26.46-31.21-5.54-18.42-5.91-38.31-4-57.32,4-39.65,18.3-76.86,28.45-115.09,5.41-20.36,8.66-41.14,6.92-62.24-.25-3.08-5.09-3.1-4.84,0Z"/><path class="cls-36" d="M2635.5,1294.65s96.69-59.24,115.93-82c0,0,28.11,50.43,146.18,113.4l49.14,16.35,10.8-14.07a67,67,0,0,0,13.87-42l-.92-51.83a55.67,55.67,0,0,0-16.85-38.94c-16.24-15.8-32.74-31.48-50.31-45.81-19.71-16.07-43.94-31.48-69.41-33.54-31.65-2.57-67.67-3.63-97.21,12-42.69,22.63-109.37,65.56-107.64,121.44C2629.54,1264.58,2633.3,1279.89,2635.5,1294.65Z"/><path class="cls-37" d="M2771.42,1178a197.55,197.55,0,0,0,69.9,89.35c11.29,8,23.83,13.55,35.45,20.94,11.13,7.08,18.85,20.52,20.73,33.58.44,3.07,5.1,1.76,4.66-1.28-1.44-10.07-6.81-20.83-13.29-28.58-8.19-9.82-22-14.39-32.77-20.8a192.41,192.41,0,0,1-80-94.49c-1.12-2.87-5.8-1.62-4.66,1.28Z"/><path class="cls-37" d="M2812.32,1167.23c6.7,14,13.09,28.34,21.63,41.39a93.87,93.87,0,0,0,13.21,16.46c6.17,5.94,13.46,10.86,20.22,16.12,27.59,21.46,58.6,49.91,54,88.48-.36,3.09,4.48,3.06,4.84,0,4.37-37-23.18-66.26-49.88-87.51-13.58-10.82-27.6-20.09-37.41-34.72-9-13.38-15.56-28.16-22.47-42.66-1.34-2.8-5.51-.35-4.18,2.44Z"/><path class="cls-37" d="M2861.49,1151.84c9.45,24.91,27,48.29,45.51,67.25,20.36,20.85,45.69,44.72,42.46,76.47-1.54,15.19-7.74,31-18.87,41.74-2.25,2.16,1.18,5.58,3.42,3.42,17.94-17.26,26.53-49.26,16.66-72.58-12.45-29.45-39.42-48.72-58.33-73.61-10.23-13.48-20.16-28.07-26.19-44-1.09-2.88-5.77-1.63-4.66,1.29Z"/><path class="cls-37" d="M2754.3,1203.33c7.65-14.53,8.59-31.73,18.48-45.27,14.74-20.18,45.34-23.72,68.31-21,3.09.37,3.06-4.47,0-4.83-23.31-2.79-53.72,1-69.89,20-12,14.17-12.73,32.72-21.07,48.59-1.45,2.75,2.72,5.2,4.17,2.44Z"/><path class="cls-37" d="M2736,1170.34c-19.71,13.05-34.46,31.51-49.63,49.31-7.64,9-15.48,17.8-24.25,25.67-4.16,3.73-7.14,5.62-12.76,6.12-4.39.38-9.89.56-14-1.39-2.8-1.34-5.25,2.83-2.44,4.17,7,3.35,18.15,3.34,25.21.17,4.55-2,8.41-6.5,11.94-9.92,4.71-4.54,9.16-9.35,13.49-14.25,17.24-19.53,32.83-41.14,54.85-55.7,2.58-1.71.16-5.9-2.45-4.18Z"/><path class="cls-37" d="M2760.65,1130.71c-20.85,5-39.83,15.33-56.67,28.46a291.76,291.76,0,0,0-24,21.57,78.63,78.63,0,0,1-13.38,11c-3.94,2.43-11.32,8.42-16,6.9-3-1-4.24,3.7-1.29,4.67,4.36,1.42,7.92-.34,11.6-2.67,4.44-2.81,9.11-5.1,13.27-8.34,9.1-7.09,16.71-15.95,25.46-23.46,18.08-15.51,38.94-27.94,62.26-33.52,3-.73,1.74-5.39-1.29-4.66Z"/><path class="cls-36" d="M2881.19,1151.39c26.38,14.92,53.28,30.46,74.34,52.61,21.22,22.32,39.46,57.59,24.32,88-8.1,16.24-22.55,28.23-36.25,39.61-4.8,4,2.08,10.78,6.83,6.83,13.23-11,26.72-22.49,35.55-37.49,9.24-15.69,10.95-33.82,6.65-51.37-8-32.5-32.28-57.55-58.56-76.66-15.25-11.09-31.6-20.56-48-29.84-5.42-3.07-10.3,5.28-4.88,8.35Z"/><path class="cls-36" d="M2854.68,1126.86c17,4.38,34.11,8.32,50.92,13.23,15.18,4.44,27.51,12.84,36.35,26.08,18.63,27.91,16.49,62.73,14.29,94.68-.22,3.11,4.62,3.1,4.83,0,2.29-33.25,4.2-69.64-15.8-98.37a66.54,66.54,0,0,0-33.36-25.47c-18.13-6.24-37.38-10-55.94-14.81-3-.78-4.3,3.88-1.29,4.66Z"/><path class="cls-37" d="M2837.21,1156.72c3.81,15.23,8.26,30.32,16.31,43.91,7.73,13,17.86,24.48,27.91,35.77,20.57,23.11,44.78,50.93,40.14,84.31-.42,3,4.24,4.36,4.66,1.29,4.39-31.57-14.85-58.84-34.61-81.37-10.65-12.15-21.89-23.91-30.8-37.45-9.62-14.62-14.73-30.9-19-47.75-.75-3-5.42-1.73-4.66,1.29Z"/><path class="cls-13" d="M2866.59,1377.45l-98,35.18-12.22,4.39-12.08-153.3s10,3.08,24.51,7.65c5,1.59,10.59,3.36,16.51,5.2,25.15,8,56,18.1,74.73,25Z"/><path class="cls-23" d="M2860,1301.58l88,39-.54,39.82-80.83-2.92S2844.61,1349.4,2860,1301.58Z"/><polygon class="cls-23" points="2790.74 1303.78 2795.14 1365.35 2850.11 1362.05 2849.01 1315.87 2790.74 1303.78"/><path class="cls-25" d="M2774.71,1374.19a33.94,33.94,0,0,1-4.5,18.85l-13.88,24-1.7.21c-20.26,2.37-215.08,25.15-241.18,17-19.24-6-21.68-67.47-21.4-104a32,32,0,0,1,10.7-23.69,31.5,31.5,0,0,1,15.8-7.69l211.57-37a33.57,33.57,0,0,1,17.53,1.63l21.11,7.86v0Z"/><ellipse class="cls-27" cx="2816.99" cy="1295.77" rx="2.06" ry="25.46" transform="translate(787.97 3640.44) rotate(-73.83)"/><path class="cls-26" d="M2774.71,1374.19a33.94,33.94,0,0,1-4.5,18.85l-13.88,24-1.7.21-251.88-110.72a31.5,31.5,0,0,1,15.8-7.69l211.57-37a33.57,33.57,0,0,1,17.53,1.63l21.11,7.86v0Z"/><path class="cls-27" d="M2675.16,1287.08s54.54-13.62,64.54-8.6,15.83,9.66,17.82,16.64,4.91,25.5,4.91,25.5-6.88-26.36-37.48-29.82S2675.16,1287.08,2675.16,1287.08Z"/><ellipse class="cls-27" cx="2761.68" cy="1341.4" rx="1.96" ry="16.46" transform="translate(-53.51 116.28) rotate(-2.39)"/><ellipse class="cls-27" cx="2623.75" cy="1292.37" rx="40.59" ry="1.83" transform="translate(-135.09 321.25) rotate(-6.83)"/><path class="cls-21" d="M2434.24,1663.63l-44.26,75,17.15,62.86,3.48,12.7s8.35,56.12-3.48,95.47c-5.32,17.83-14.79,32.24-31.07,36.4a41.15,41.15,0,0,1-11.38,1.19c-66-1.77-74.3-55.09-74.3-55.09l13.67-53.7L2288,1743.9l-21.4-57.06-11.07-21a58.84,58.84,0,0,1-6.79-27.44v-62.12s5.39-3.26,11.7-6.48c6-3,13-6,16.86-6,8,0,23.18-14.28,23.18-14.28l21.4,3.58,35.68-7.16,21.41,8.93,14.25,23.18s12.5-14.25,19.63-14.25,32.1,46.35,32.1,46.35Z"/><path class="cls-22" d="M2407.13,1909.64a462.34,462.34,0,0,1-31.07,36.4,41.15,41.15,0,0,1-11.38,1.19c-66-1.77-74.3-55.09-74.3-55.09l13.67-53.7L2288,1743.9l-21.4-57.06-9.44-17.92a73.09,73.09,0,0,1-8.42-34.06v-58.61s5.39-3.26,11.7-6.48c1.1,28,3.42,72.52,7.35,80,5.81,11,33.59,69.46,33.59,69.46s17.92,126.78,17.38,143.58c-.55,16.31,53-8.39,88.38-61.31l3.48,12.7S2419,1870.29,2407.13,1909.64Z"/><path class="cls-22" d="M2393.21,1578c-7.48,6.46-14.82,13.18-20.93,20.86a47,47,0,0,0-4.12,6,20.7,20.7,0,0,0-1.48,3.22,8.6,8.6,0,0,0-.58,3.25,2.73,2.73,0,0,0,.09.76l.06.37.13.31a2.62,2.62,0,0,0,.77,1,6.26,6.26,0,0,0,2.88,1.1,25.65,25.65,0,0,0,7-.13,101.91,101.91,0,0,0,14.26-3.24c2.36-.69,4.7-1.43,7-2.2l3.48-1.2.87-.31.44-.16a4.58,4.58,0,0,1,.51-.16,5,5,0,0,1,2.59-.12,5.3,5.3,0,0,1,3.8,3.27,5,5,0,0,1,.3,2.58,3.46,3.46,0,0,1-.13.64,5.1,5.1,0,0,1-.16.56l-.3.87-2.4,7-4.81,14-2.47,7.07a10.82,10.82,0,0,1-5.92,6,10.34,10.34,0,0,1-2.08.62c-.77.14-1.3.19-1.93.28l-3.66.5c-2.43.35-4.87.74-7.3,1.13-9.69,1.61-19.39,3.57-28.58,6.8-4.53,1.7-9.07,3.63-12.18,7.18a43.15,43.15,0,0,0-7.36,12.42c-3.76,9.06-6,18.78-7.56,28.53a125.89,125.89,0,0,1,2.13-14.71,102.27,102.27,0,0,1,4-14.39,44,44,0,0,1,7.25-13.25,16.08,16.08,0,0,1,1.32-1.43,15.29,15.29,0,0,1,1.46-1.31,15.7,15.7,0,0,1,1.58-1.13,16.6,16.6,0,0,1,1.63-1c1.12-.61,2.24-1.25,3.4-1.74l1.73-.79,1.75-.69a111.24,111.24,0,0,1,14.34-4.4c4.85-1.19,9.73-2.18,14.62-3.06,2.45-.45,4.91-.83,7.36-1.2l3.69-.52a11.54,11.54,0,0,0,3.22-.71,7.68,7.68,0,0,0,4.17-4.28l2.39-7,4.87-14,2.44-7,.3-.88a1.55,1.55,0,0,0,.1-.33.88.88,0,0,0,.06-.27,1.92,1.92,0,0,0-.11-1.06,2.33,2.33,0,0,0-1.58-1.4,2.1,2.1,0,0,0-1.08,0,3.77,3.77,0,0,0-.37.11l-.44.15-.88.3-3.55,1.16c-2.38.75-4.76,1.47-7.17,2.13a94.3,94.3,0,0,1-14.73,3,28,28,0,0,1-7.75-.08,8.52,8.52,0,0,1-3.91-1.68,4.83,4.83,0,0,1-1.35-2,5.27,5.27,0,0,1-.19-.56l-.09-.54a5.07,5.07,0,0,1-.09-1.09,10.84,10.84,0,0,1,.84-4,22.28,22.28,0,0,1,1.74-3.45,45.3,45.3,0,0,1,4.5-6.08,115.41,115.41,0,0,1,10.59-10.51C2385.37,1584.08,2389.22,1581,2393.21,1578Z"/><path class="cls-22" d="M2279.76,1564.31c.58,5.88.86,11.75,1,17.63.11,2.93.11,5.87.16,8.8l0,8.81-.2,8.8c-.13,2.94-.2,5.87-.39,8.8-.31,5.87-.74,11.74-1.49,17.6-.59-5.88-.87-11.76-1-17.63-.12-2.94-.1-5.87-.16-8.81l0-8.8.2-8.81c.13-2.93.2-5.86.39-8.8C2278.58,1576,2279,1570.17,2279.76,1564.31Z"/><path class="cls-22" d="M2321.87,1552.52c-.5,6.64-1.31,13.22-2.24,19.78-.43,3.29-1,6.55-1.47,9.83l-1.65,9.79-1.82,9.77c-.67,3.25-1.27,6.5-2,9.74-1.39,6.47-2.89,12.93-4.71,19.34.49-6.64,1.31-13.22,2.23-19.78.43-3.29,1-6.56,1.48-9.83l1.65-9.8,1.82-9.76c.67-3.25,1.28-6.5,2-9.74C2318.56,1565.38,2320.06,1558.92,2321.87,1552.52Z"/><path class="cls-22" d="M2361.48,1547.15c-1.59,6.39-3.47,12.68-5.47,18.93-1,3.14-2,6.24-3.07,9.35l-3.23,9.29-3.41,9.23c-1.19,3-2.32,6.13-3.57,9.16-2.44,6.1-5,12.15-7.83,18.09,1.58-6.39,3.47-12.68,5.46-18.94,1-3.13,2-6.23,3.07-9.34l3.24-9.29,3.41-9.23c1.19-3.05,2.33-6.13,3.58-9.16C2356.09,1559.15,2358.64,1553.09,2361.48,1547.15Z"/><path class="cls-11" d="M2588.56,1716.67,2461,1917.74l-51.47-113.33-28,62.06-41.32,24-27.26-3.38a15.69,15.69,0,0,1-13.62-17.76l4.73-33.63-25,28.54s22.72,105.81,50.37,159.32,88.45,136.36,88.45,136.36l61.62,17.53,40.65-1.87S2591.23,1775.53,2588.56,1716.67Z"/><path class="cls-15" d="M2461,1917.74s12.22,25.9,12.63,55c0,0,6.66-61.57,4.16-82.37Z"/><path class="cls-15" d="M2588.56,1716.67l-91.44,462.09-17.61-1.31L2441.83,2167s34.15-36.55,62.31-131.82S2545.34,1779.85,2588.56,1716.67Z"/><path class="cls-15" d="M2440.7,1875.59l14.67,29.34s5,22.29-13.5,79.79C2441.87,1984.72,2451,1910.21,2440.7,1875.59Z"/><path class="cls-33" d="M2704.82,1608.27c-4.1-3-8.13-6.2-12.21-9.12-8.3-5.93-16.32-11.46-24.63-18l-72.76,122.37c-29.51,68.46-44.49,116.94-53.87,176.27-13.54,85.59-31.2,202.69-46.5,299.9l124.89,13.68s-16.06-107.91-4.46-308.57l0-.51a194.89,194.89,0,0,1,45.91-113.2c30.53-36.14,97.41-94.81,73.8-139.27-2.91-5.46-3.83-7.24-9.22-9.41C2718.81,1619.61,2711,1612.87,2704.82,1608.27Z"/><path class="cls-11" d="M2591.46,1894.68s-35.65,213.38-61,234.56c0,0,40.82-48,54.25-86.28S2591.46,1894.68,2591.46,1894.68Z"/><path class="cls-21" d="M2732.66,1627.85l-93.77-68.53-24.82-11.6s-67-160.88-72.36-163.17a.26.26,0,0,0-.16-.06c-6.26-2.58-13,2.61-12.61,9.37.65,10.55,3,25.66,3.45,33.69a29.33,29.33,0,0,1,.1,3.22c-5.67-15-19.73-56.37-23.08-63.47a12.82,12.82,0,0,0-11.67-7.83,8.21,8.21,0,0,0-8.06,10.09l13.57,49.06s-47.16-59.12-50.25-55.28,33.2,69.79,34.3,71.78l-53.8-46.77a1.85,1.85,0,0,0-3.06,1.26c-1.07,27.69,45.87,74.88,45.87,74.88l40.13,74.62a87.79,87.79,0,0,1,9.89,31.69l-77-9.25s-27.72,0-23.08,13.86,49.25,18.47,49.25,18.47l27.69,24.62,53.9,18.47,72.33,24.63,58.5,81.59C2814.18,1747.05,2732.66,1627.85,2732.66,1627.85Zm-135.54-12.41-.81-2.09c.45.45.91.9,1.39,1.32Z"/><path class="cls-22" d="M2570.11,1565.45c-9.54-10.67-14.61-35.36-34.78-125.65-.94-4.22-1.94-8.32-2.94-12.25a29.33,29.33,0,0,1,.1,3.22c-5.67-15-19.73-56.37-23.08-63.47a12.82,12.82,0,0,0-11.67-7.83,8.21,8.21,0,0,0-8.06,10.09l13.57,49.06s-24.83-40.49-39.4-55.5c-4.86-5-11.9,2-12.68,2.93-3,3.8,35,67.08,36.13,69.07l-53.8-46.77a1.85,1.85,0,0,0-3.06,1.26c-1.07,27.69,45.87,74.88,45.87,74.88l40.13,74.62a87.79,87.79,0,0,1,9.89,31.69l-77-9.25s-27.72,0-23.08,13.86,49.25,18.47,49.25,18.47l27.69,24.62,53.9,18.48,72.33,24.62-20.08-42.87S2579.62,1576.08,2570.11,1565.45Z"/><path class="cls-22" d="M2667.57,1715.26l19.6,26.74c78.6-52.27,47.3-113.31,47.3-113.31C2706.73,1742.78,2667.57,1715.26,2667.57,1715.26Z"/><polygon class="cls-15" points="2638.65 1778.52 2687.49 1743 2667.57 1715.26 2638.65 1778.52"/><path class="cls-33" d="M3076.14,1561.89c-8.46-3.86-43.42-7.23-43.42-7.23s-42.33,12-62.38,27a34,34,0,0,0-8.08,8c-12.32,18.49-46.18,132.37-46.18,132.37l-6.17,73.89-138.1-138.11-37.34-29c1.38,2.55,23.73,37.55-29.29,101l-54.37,35.17c-7,4-12.86,8.4-11.41,16.33l4.22,2.37,50.05,54.2,165.34,179a80.94,80.94,0,0,0,64.93,25.83l36.83-2.5a27.65,27.65,0,0,0,22.55-14.63l98.28-185.37,26.35-49.73,17.46-74.56-9.24-103.15S3084.61,1565.75,3076.14,1561.89Z"/><path class="cls-11" d="M2905,1786.28c21,27.07,65.58,115.44,65.58,115.44C2976,1820.09,2905,1786.28,2905,1786.28Z"/><path class="cls-11" d="M2878.19,1763.75c18.47,24.24,36.38,138,36.38,138,22.55-21-16.18-118.35-16.18-118.35Z"/><path class="cls-38" d="M2744,1699.23c-10.85,14.7,13.29,61.09,61.13,96.38s69.34,66.4,80.18,51.7,7.88-47.76-31.19-96C2816.68,1705.05,2754.79,1684.54,2744,1699.23Z"/><path class="cls-38" d="M3076.14,1561.89c-8.46-3.86-43.42-7.23-43.42-7.23s-42.33,12-62.38,27c7.94,16.93,15.9,32.09,21.82,39.18,17.53,21,23.24,90.67,51.25,111.71s-2.19,58.27,3.51,77.11c3.86,12.79,10.77,35.5,34.68,30.5l26.35-49.73,17.46-74.56-9.24-103.15S3084.61,1565.75,3076.14,1561.89Z"/><g class="cls-17"><rect class="cls-27" x="1896.54" y="1177.59" width="685.17" height="385.41"/></g><g class="cls-17"><rect class="cls-27" x="1278.32" y="1498.13" width="417.92" height="235.08"/></g></g></svg>