<svg width="720" height="114" viewBox="0 0 720 114" fill="none" xmlns="http://www.w3.org/2000/svg">
<g opacity="0.4">
<rect x="186.11" y="30.0781" width="302" height="22.5587" rx="4" fill="#BDBDBD"/>
<path d="M317.82 37.978L315.46 42.528V44.958H314.06V42.528L311.69 37.978H313.27L314.77 41.168L316.26 37.978H317.82ZM321.287 45.048C320.754 45.048 320.274 44.9313 319.847 44.698C319.42 44.458 319.084 44.1213 318.837 43.688C318.597 43.2547 318.477 42.7547 318.477 42.188C318.477 41.6213 318.6 41.1213 318.847 40.688C319.1 40.2547 319.444 39.9213 319.877 39.688C320.31 39.448 320.794 39.328 321.327 39.328C321.86 39.328 322.344 39.448 322.777 39.688C323.21 39.9213 323.55 40.2547 323.797 40.688C324.05 41.1213 324.177 41.6213 324.177 42.188C324.177 42.7547 324.047 43.2547 323.787 43.688C323.534 44.1213 323.187 44.458 322.747 44.698C322.314 44.9313 321.827 45.048 321.287 45.048ZM321.287 43.828C321.54 43.828 321.777 43.768 321.997 43.648C322.224 43.5213 322.404 43.3347 322.537 43.088C322.67 42.8413 322.737 42.5413 322.737 42.188C322.737 41.6613 322.597 41.258 322.317 40.978C322.044 40.6913 321.707 40.548 321.307 40.548C320.907 40.548 320.57 40.6913 320.297 40.978C320.03 41.258 319.897 41.6613 319.897 42.188C319.897 42.7147 320.027 43.1213 320.287 43.408C320.554 43.688 320.887 43.828 321.287 43.828ZM330.634 39.418V44.958H329.224V44.258C329.044 44.498 328.807 44.688 328.514 44.828C328.227 44.9613 327.914 45.028 327.574 45.028C327.141 45.028 326.757 44.938 326.424 44.758C326.091 44.5713 325.827 44.3013 325.634 43.948C325.447 43.588 325.354 43.1613 325.354 42.668V39.418H326.754V42.468C326.754 42.908 326.864 43.248 327.084 43.488C327.304 43.7213 327.604 43.838 327.984 43.838C328.371 43.838 328.674 43.7213 328.894 43.488C329.114 43.248 329.224 42.908 329.224 42.468V39.418H330.634ZM333.615 40.278C333.795 39.9847 334.029 39.7547 334.315 39.588C334.609 39.4213 334.942 39.338 335.315 39.338V40.808H334.945C334.505 40.808 334.172 40.9113 333.945 41.118C333.725 41.3247 333.615 41.6847 333.615 42.198V44.958H332.215V39.418H333.615V40.278ZM343.791 37.978V39.108H341.931V44.958H340.531V39.108H338.671V37.978H343.791ZM344.652 42.168C344.652 41.608 344.762 41.1113 344.982 40.678C345.209 40.2447 345.512 39.9113 345.892 39.678C346.279 39.4447 346.709 39.328 347.182 39.328C347.596 39.328 347.956 39.4113 348.262 39.578C348.576 39.7447 348.826 39.9547 349.012 40.208V39.418H350.422V44.958H349.012V44.148C348.832 44.408 348.582 44.6247 348.262 44.798C347.949 44.9647 347.586 45.048 347.172 45.048C346.706 45.048 346.279 44.928 345.892 44.688C345.512 44.448 345.209 44.1113 344.982 43.678C344.762 43.238 344.652 42.7347 344.652 42.168ZM349.012 42.188C349.012 41.848 348.946 41.558 348.812 41.318C348.679 41.0713 348.499 40.8847 348.272 40.758C348.046 40.6247 347.802 40.558 347.542 40.558C347.282 40.558 347.042 40.6213 346.822 40.748C346.602 40.8747 346.422 41.0613 346.282 41.308C346.149 41.548 346.082 41.8347 346.082 42.168C346.082 42.5013 346.149 42.7947 346.282 43.048C346.422 43.2947 346.602 43.4847 346.822 43.618C347.049 43.7513 347.289 43.818 347.542 43.818C347.802 43.818 348.046 43.7547 348.272 43.628C348.499 43.4947 348.679 43.308 348.812 43.068C348.946 42.8213 349.012 42.528 349.012 42.188ZM354.11 45.048C353.656 45.048 353.25 44.968 352.89 44.808C352.53 44.6413 352.243 44.418 352.03 44.138C351.823 43.858 351.71 43.548 351.69 43.208H353.1C353.126 43.4213 353.23 43.598 353.41 43.738C353.596 43.878 353.826 43.948 354.1 43.948C354.366 43.948 354.573 43.8947 354.72 43.788C354.873 43.6813 354.95 43.5447 354.95 43.378C354.95 43.198 354.856 43.0647 354.67 42.978C354.49 42.8847 354.2 42.7847 353.8 42.678C353.386 42.578 353.046 42.4747 352.78 42.368C352.52 42.2613 352.293 42.098 352.1 41.878C351.913 41.658 351.82 41.3613 351.82 40.988C351.82 40.6813 351.906 40.4013 352.08 40.148C352.26 39.8947 352.513 39.6947 352.84 39.548C353.173 39.4013 353.563 39.328 354.01 39.328C354.67 39.328 355.196 39.4947 355.59 39.828C355.983 40.1547 356.2 40.598 356.24 41.158H354.9C354.88 40.938 354.786 40.7647 354.62 40.638C354.46 40.5047 354.243 40.438 353.97 40.438C353.716 40.438 353.52 40.4847 353.38 40.578C353.246 40.6713 353.18 40.8013 353.18 40.968C353.18 41.1547 353.273 41.298 353.46 41.398C353.646 41.4913 353.936 41.588 354.33 41.688C354.73 41.788 355.06 41.8913 355.32 41.998C355.58 42.1047 355.803 42.2713 355.99 42.498C356.183 42.718 356.283 43.0113 356.29 43.378C356.29 43.698 356.2 43.9847 356.02 44.238C355.846 44.4913 355.593 44.6913 355.26 44.838C354.933 44.978 354.55 45.048 354.11 45.048ZM360.919 44.958L359.039 42.598V44.958H357.639V37.558H359.039V41.768L360.899 39.418H362.719L360.279 42.198L362.739 44.958H360.919Z" fill="white"/>
<rect x="186.11" y="62.0361" width="163" height="22.5587" rx="4" fill="#E0E0E0"/>
<path d="M250.709 73.416C250.709 72.7293 250.863 72.116 251.169 71.576C251.483 71.0293 251.906 70.606 252.439 70.306C252.979 69.9993 253.583 69.846 254.249 69.846C255.029 69.846 255.713 70.046 256.299 70.446C256.886 70.846 257.296 71.3993 257.529 72.106H255.919C255.759 71.7727 255.533 71.5227 255.239 71.356C254.953 71.1893 254.619 71.106 254.239 71.106C253.833 71.106 253.469 71.2027 253.149 71.396C252.836 71.5827 252.589 71.8493 252.409 72.196C252.236 72.5427 252.149 72.9493 252.149 73.416C252.149 73.876 252.236 74.2827 252.409 74.636C252.589 74.9827 252.836 75.2527 253.149 75.446C253.469 75.6327 253.833 75.726 254.239 75.726C254.619 75.726 254.953 75.6427 255.239 75.476C255.533 75.3027 255.759 75.0493 255.919 74.716H257.529C257.296 75.4293 256.886 75.986 256.299 76.386C255.719 76.7793 255.036 76.976 254.249 76.976C253.583 76.976 252.979 76.826 252.439 76.526C251.906 76.2193 251.483 75.796 251.169 75.256C250.863 74.716 250.709 74.1027 250.709 73.416ZM262.045 71.296C262.465 71.296 262.838 71.3893 263.165 71.576C263.492 71.756 263.745 72.026 263.925 72.386C264.112 72.7393 264.205 73.166 264.205 73.666V76.916H262.805V73.856C262.805 73.416 262.695 73.0793 262.475 72.846C262.255 72.606 261.955 72.486 261.575 72.486C261.188 72.486 260.882 72.606 260.655 72.846C260.435 73.0793 260.325 73.416 260.325 73.856V76.916H258.925V69.516H260.325V72.066C260.505 71.826 260.745 71.6393 261.045 71.506C261.345 71.366 261.678 71.296 262.045 71.296ZM266.446 70.716C266.2 70.716 265.993 70.6393 265.826 70.486C265.666 70.326 265.586 70.1293 265.586 69.896C265.586 69.6627 265.666 69.4693 265.826 69.316C265.993 69.156 266.2 69.076 266.446 69.076C266.693 69.076 266.896 69.156 267.056 69.316C267.223 69.4693 267.306 69.6627 267.306 69.896C267.306 70.1293 267.223 70.326 267.056 70.486C266.896 70.6393 266.693 70.716 266.446 70.716ZM267.136 71.376V76.916H265.736V71.376H267.136ZM270.12 69.516V76.916H268.72V69.516H270.12ZM271.343 74.126C271.343 73.566 271.453 73.0693 271.673 72.636C271.899 72.2027 272.206 71.8693 272.593 71.636C272.979 71.4027 273.409 71.286 273.883 71.286C274.243 71.286 274.586 71.366 274.913 71.526C275.239 71.6793 275.499 71.886 275.693 72.146V69.516H277.113V76.916H275.693V76.096C275.519 76.3693 275.276 76.5893 274.963 76.756C274.649 76.9227 274.286 77.006 273.873 77.006C273.406 77.006 272.979 76.886 272.593 76.646C272.206 76.406 271.899 76.0693 271.673 75.636C271.453 75.196 271.343 74.6927 271.343 74.126ZM275.703 74.146C275.703 73.806 275.636 73.516 275.503 73.276C275.369 73.0293 275.189 72.8427 274.963 72.716C274.736 72.5827 274.493 72.516 274.233 72.516C273.973 72.516 273.733 72.5793 273.513 72.706C273.293 72.8327 273.113 73.0193 272.973 73.266C272.839 73.506 272.773 73.7927 272.773 74.126C272.773 74.4593 272.839 74.7527 272.973 75.006C273.113 75.2527 273.293 75.4427 273.513 75.576C273.739 75.7093 273.979 75.776 274.233 75.776C274.493 75.776 274.736 75.7127 274.963 75.586C275.189 75.4527 275.369 75.266 275.503 75.026C275.636 74.7793 275.703 74.486 275.703 74.146ZM280.933 70.916V69.626H283.343V76.916H281.903V70.916H280.933Z" fill="#757575"/>
<rect x="237.807" y="91.1748" width="163" height="22.5587" rx="4" fill="#E0E0E0"/>
<path d="M301.347 102.555C301.347 101.868 301.5 101.255 301.807 100.715C302.12 100.168 302.543 99.7447 303.077 99.4447C303.617 99.138 304.22 98.9847 304.887 98.9847C305.667 98.9847 306.35 99.1847 306.937 99.5847C307.523 99.9847 307.933 100.538 308.167 101.245H306.557C306.397 100.911 306.17 100.661 305.877 100.495C305.59 100.328 305.257 100.245 304.877 100.245C304.47 100.245 304.107 100.341 303.787 100.535C303.473 100.721 303.227 100.988 303.047 101.335C302.873 101.681 302.787 102.088 302.787 102.555C302.787 103.015 302.873 103.421 303.047 103.775C303.227 104.121 303.473 104.391 303.787 104.585C304.107 104.771 304.47 104.865 304.877 104.865C305.257 104.865 305.59 104.781 305.877 104.615C306.17 104.441 306.397 104.188 306.557 103.855H308.167C307.933 104.568 307.523 105.125 306.937 105.525C306.357 105.918 305.673 106.115 304.887 106.115C304.22 106.115 303.617 105.965 303.077 105.665C302.543 105.358 302.12 104.935 301.807 104.395C301.5 103.855 301.347 103.241 301.347 102.555ZM312.683 100.435C313.103 100.435 313.476 100.528 313.803 100.715C314.129 100.895 314.383 101.165 314.563 101.525C314.749 101.878 314.843 102.305 314.843 102.805V106.055H313.443V102.995C313.443 102.555 313.333 102.218 313.113 101.985C312.893 101.745 312.593 101.625 312.213 101.625C311.826 101.625 311.519 101.745 311.293 101.985C311.073 102.218 310.963 102.555 310.963 102.995V106.055H309.563V98.6547H310.963V101.205C311.143 100.965 311.383 100.778 311.683 100.645C311.983 100.505 312.316 100.435 312.683 100.435ZM317.084 99.8547C316.837 99.8547 316.631 99.778 316.464 99.6247C316.304 99.4647 316.224 99.268 316.224 99.0347C316.224 98.8014 316.304 98.608 316.464 98.4547C316.631 98.2947 316.837 98.2147 317.084 98.2147C317.331 98.2147 317.534 98.2947 317.694 98.4547C317.861 98.608 317.944 98.8014 317.944 99.0347C317.944 99.268 317.861 99.4647 317.694 99.6247C317.534 99.778 317.331 99.8547 317.084 99.8547ZM317.774 100.515V106.055H316.374V100.515H317.774ZM320.757 98.6547V106.055H319.357V98.6547H320.757ZM321.98 103.265C321.98 102.705 322.09 102.208 322.31 101.775C322.537 101.341 322.844 101.008 323.23 100.775C323.617 100.541 324.047 100.425 324.52 100.425C324.88 100.425 325.224 100.505 325.55 100.665C325.877 100.818 326.137 101.025 326.33 101.285V98.6547H327.75V106.055H326.33V105.235C326.157 105.508 325.914 105.728 325.6 105.895C325.287 106.061 324.924 106.145 324.51 106.145C324.044 106.145 323.617 106.025 323.23 105.785C322.844 105.545 322.537 105.208 322.31 104.775C322.09 104.335 321.98 103.831 321.98 103.265ZM326.34 103.285C326.34 102.945 326.274 102.655 326.14 102.415C326.007 102.168 325.827 101.981 325.6 101.855C325.374 101.721 325.13 101.655 324.87 101.655C324.61 101.655 324.37 101.718 324.15 101.845C323.93 101.971 323.75 102.158 323.61 102.405C323.477 102.645 323.41 102.931 323.41 103.265C323.41 103.598 323.477 103.891 323.61 104.145C323.75 104.391 323.93 104.581 324.15 104.715C324.377 104.848 324.617 104.915 324.87 104.915C325.13 104.915 325.374 104.851 325.6 104.725C325.827 104.591 326.007 104.405 326.14 104.165C326.274 103.918 326.34 103.625 326.34 103.285ZM332.18 104.475C332.82 103.941 333.33 103.498 333.71 103.145C334.09 102.785 334.407 102.411 334.66 102.025C334.914 101.638 335.04 101.258 335.04 100.885C335.04 100.545 334.96 100.278 334.8 100.085C334.64 99.8914 334.394 99.7947 334.06 99.7947C333.727 99.7947 333.47 99.908 333.29 100.135C333.11 100.355 333.017 100.658 333.01 101.045H331.65C331.677 100.245 331.914 99.638 332.36 99.2247C332.814 98.8114 333.387 98.6047 334.08 98.6047C334.84 98.6047 335.424 98.808 335.83 99.2147C336.237 99.6147 336.44 100.145 336.44 100.805C336.44 101.325 336.3 101.821 336.02 102.295C335.74 102.768 335.42 103.181 335.06 103.535C334.7 103.881 334.23 104.301 333.65 104.795H336.6V105.955H331.66V104.915L332.18 104.475Z" fill="#757575"/>
<rect x="552.689" y="69.5557" width="167" height="22.5587" rx="4" fill="#E0E0E0"/>
<path d="M609.955 84.5055C609.468 84.5055 609.028 84.4222 608.635 84.2555C608.248 84.0889 607.941 83.8489 607.715 83.5355C607.488 83.2222 607.371 82.8522 607.365 82.4255H608.865C608.885 82.7122 608.985 82.9389 609.165 83.1055C609.351 83.2722 609.605 83.3555 609.925 83.3555C610.251 83.3555 610.508 83.2789 610.695 83.1255C610.881 82.9655 610.975 82.7589 610.975 82.5055C610.975 82.2989 610.911 82.1289 610.785 81.9955C610.658 81.8622 610.498 81.7589 610.305 81.6855C610.118 81.6055 609.858 81.5189 609.525 81.4255C609.071 81.2922 608.701 81.1622 608.415 81.0355C608.135 80.9022 607.891 80.7055 607.685 80.4455C607.485 80.1789 607.385 79.8255 607.385 79.3855C607.385 78.9722 607.488 78.6122 607.695 78.3055C607.901 77.9989 608.191 77.7655 608.565 77.6055C608.938 77.4389 609.365 77.3555 609.845 77.3555C610.565 77.3555 611.148 77.5322 611.595 77.8855C612.048 78.2322 612.298 78.7189 612.345 79.3455H610.805C610.791 79.1055 610.688 78.9089 610.495 78.7555C610.308 78.5955 610.058 78.5155 609.745 78.5155C609.471 78.5155 609.251 78.5855 609.085 78.7255C608.925 78.8655 608.845 79.0689 608.845 79.3355C608.845 79.5222 608.905 79.6789 609.025 79.8055C609.151 79.9255 609.305 80.0255 609.485 80.1055C609.671 80.1789 609.931 80.2655 610.265 80.3655C610.718 80.4989 611.088 80.6322 611.375 80.7655C611.661 80.8989 611.908 81.0989 612.115 81.3655C612.321 81.6322 612.425 81.9822 612.425 82.4155C612.425 82.7889 612.328 83.1355 612.135 83.4555C611.941 83.7755 611.658 84.0322 611.285 84.2255C610.911 84.4122 610.468 84.5055 609.955 84.5055ZM619.068 78.8955V84.4355H617.658V83.7355C617.478 83.9755 617.242 84.1655 616.948 84.3055C616.662 84.4389 616.348 84.5055 616.008 84.5055C615.575 84.5055 615.192 84.4155 614.858 84.2355C614.525 84.0489 614.262 83.7789 614.068 83.4255C613.882 83.0655 613.788 82.6389 613.788 82.1455V78.8955H615.188V81.9455C615.188 82.3855 615.298 82.7255 615.518 82.9655C615.738 83.1989 616.038 83.3155 616.418 83.3155C616.805 83.3155 617.108 83.1989 617.328 82.9655C617.548 82.7255 617.658 82.3855 617.658 81.9455V78.8955H619.068ZM620.29 81.6655C620.29 81.0922 620.406 80.5922 620.64 80.1655C620.873 79.7322 621.196 79.3989 621.61 79.1655C622.023 78.9255 622.496 78.8055 623.03 78.8055C623.716 78.8055 624.283 78.9789 624.73 79.3255C625.183 79.6655 625.486 80.1455 625.64 80.7655H624.13C624.05 80.5255 623.913 80.3389 623.72 80.2055C623.533 80.0655 623.3 79.9955 623.02 79.9955C622.62 79.9955 622.303 80.1422 622.07 80.4355C621.836 80.7222 621.72 81.1322 621.72 81.6655C621.72 82.1922 621.836 82.6022 622.07 82.8955C622.303 83.1822 622.62 83.3255 623.02 83.3255C623.586 83.3255 623.956 83.0722 624.13 82.5655H625.64C625.486 83.1655 625.183 83.6422 624.73 83.9955C624.276 84.3489 623.71 84.5255 623.03 84.5255C622.496 84.5255 622.023 84.4089 621.61 84.1755C621.196 83.9355 620.873 83.6022 620.64 83.1755C620.406 82.7422 620.29 82.2389 620.29 81.6655ZM626.505 81.6655C626.505 81.0922 626.622 80.5922 626.855 80.1655C627.089 79.7322 627.412 79.3989 627.825 79.1655C628.239 78.9255 628.712 78.8055 629.245 78.8055C629.932 78.8055 630.499 78.9789 630.945 79.3255C631.399 79.6655 631.702 80.1455 631.855 80.7655H630.345C630.265 80.5255 630.129 80.3389 629.935 80.2055C629.749 80.0655 629.515 79.9955 629.235 79.9955C628.835 79.9955 628.519 80.1422 628.285 80.4355C628.052 80.7222 627.935 81.1322 627.935 81.6655C627.935 82.1922 628.052 82.6022 628.285 82.8955C628.519 83.1822 628.835 83.3255 629.235 83.3255C629.802 83.3255 630.172 83.0722 630.345 82.5655H631.855C631.702 83.1655 631.399 83.6422 630.945 83.9955C630.492 84.3489 629.925 84.5255 629.245 84.5255C628.712 84.5255 628.239 84.4089 627.825 84.1755C627.412 83.9355 627.089 83.6022 626.855 83.1755C626.622 82.7422 626.505 82.2389 626.505 81.6655ZM638.231 81.5455C638.231 81.7455 638.218 81.9255 638.191 82.0855H634.141C634.174 82.4855 634.314 82.7989 634.561 83.0255C634.808 83.2522 635.111 83.3655 635.471 83.3655C635.991 83.3655 636.361 83.1422 636.581 82.6955H638.091C637.931 83.2289 637.624 83.6689 637.171 84.0155C636.718 84.3555 636.161 84.5255 635.501 84.5255C634.968 84.5255 634.488 84.4089 634.061 84.1755C633.641 83.9355 633.311 83.5989 633.071 83.1655C632.838 82.7322 632.721 82.2322 632.721 81.6655C632.721 81.0922 632.838 80.5889 633.071 80.1555C633.304 79.7222 633.631 79.3889 634.051 79.1555C634.471 78.9222 634.954 78.8055 635.501 78.8055C636.028 78.8055 636.498 78.9189 636.911 79.1455C637.331 79.3722 637.654 79.6955 637.881 80.1155C638.114 80.5289 638.231 81.0055 638.231 81.5455ZM636.781 81.1455C636.774 80.7855 636.644 80.4989 636.391 80.2855C636.138 80.0655 635.828 79.9555 635.461 79.9555C635.114 79.9555 634.821 80.0622 634.581 80.2755C634.348 80.4822 634.204 80.7722 634.151 81.1455H636.781ZM641.573 84.5255C641.119 84.5255 640.713 84.4455 640.353 84.2855C639.993 84.1189 639.706 83.8955 639.493 83.6155C639.286 83.3355 639.173 83.0255 639.153 82.6855H640.563C640.589 82.8989 640.693 83.0755 640.873 83.2155C641.059 83.3555 641.289 83.4255 641.563 83.4255C641.829 83.4255 642.036 83.3722 642.183 83.2655C642.336 83.1589 642.413 83.0222 642.413 82.8555C642.413 82.6755 642.319 82.5422 642.133 82.4555C641.953 82.3622 641.663 82.2622 641.263 82.1555C640.849 82.0555 640.509 81.9522 640.243 81.8455C639.983 81.7389 639.756 81.5755 639.563 81.3555C639.376 81.1355 639.283 80.8389 639.283 80.4655C639.283 80.1589 639.369 79.8789 639.543 79.6255C639.723 79.3722 639.976 79.1722 640.303 79.0255C640.636 78.8789 641.026 78.8055 641.473 78.8055C642.133 78.8055 642.659 78.9722 643.053 79.3055C643.446 79.6322 643.663 80.0755 643.703 80.6355H642.363C642.343 80.4155 642.249 80.2422 642.083 80.1155C641.923 79.9822 641.706 79.9155 641.433 79.9155C641.179 79.9155 640.983 79.9622 640.843 80.0555C640.709 80.1489 640.643 80.2789 640.643 80.4455C640.643 80.6322 640.736 80.7755 640.923 80.8755C641.109 80.9689 641.399 81.0655 641.793 81.1655C642.193 81.2655 642.523 81.3689 642.783 81.4755C643.043 81.5822 643.266 81.7489 643.453 81.9755C643.646 82.1955 643.746 82.4889 643.753 82.8555C643.753 83.1755 643.663 83.4622 643.483 83.7155C643.309 83.9689 643.056 84.1689 642.723 84.3155C642.396 84.4555 642.013 84.5255 641.573 84.5255ZM647.222 84.5255C646.769 84.5255 646.362 84.4455 646.002 84.2855C645.642 84.1189 645.355 83.8955 645.142 83.6155C644.935 83.3355 644.822 83.0255 644.802 82.6855H646.212C646.239 82.8989 646.342 83.0755 646.522 83.2155C646.709 83.3555 646.939 83.4255 647.212 83.4255C647.479 83.4255 647.685 83.3722 647.832 83.2655C647.985 83.1589 648.062 83.0222 648.062 82.8555C648.062 82.6755 647.969 82.5422 647.782 82.4555C647.602 82.3622 647.312 82.2622 646.912 82.1555C646.499 82.0555 646.159 81.9522 645.892 81.8455C645.632 81.7389 645.405 81.5755 645.212 81.3555C645.025 81.1355 644.932 80.8389 644.932 80.4655C644.932 80.1589 645.019 79.8789 645.192 79.6255C645.372 79.3722 645.625 79.1722 645.952 79.0255C646.285 78.8789 646.675 78.8055 647.122 78.8055C647.782 78.8055 648.309 78.9722 648.702 79.3055C649.095 79.6322 649.312 80.0755 649.352 80.6355H648.012C647.992 80.4155 647.899 80.2422 647.732 80.1155C647.572 79.9822 647.355 79.9155 647.082 79.9155C646.829 79.9155 646.632 79.9622 646.492 80.0555C646.359 80.1489 646.292 80.2789 646.292 80.4455C646.292 80.6322 646.385 80.7755 646.572 80.8755C646.759 80.9689 647.049 81.0655 647.442 81.1655C647.842 81.2655 648.172 81.3689 648.432 81.4755C648.692 81.5822 648.915 81.7489 649.102 81.9755C649.295 82.1955 649.395 82.4889 649.402 82.8555C649.402 83.1755 649.312 83.4622 649.132 83.7155C648.959 83.9689 648.705 84.1689 648.372 84.3155C648.045 84.4555 647.662 84.5255 647.222 84.5255ZM653.211 84.5255C652.678 84.5255 652.198 84.4089 651.771 84.1755C651.345 83.9355 651.008 83.5989 650.761 83.1655C650.521 82.7322 650.401 82.2322 650.401 81.6655C650.401 81.0989 650.525 80.5989 650.771 80.1655C651.025 79.7322 651.368 79.3989 651.801 79.1655C652.235 78.9255 652.718 78.8055 653.251 78.8055C653.785 78.8055 654.268 78.9255 654.701 79.1655C655.135 79.3989 655.475 79.7322 655.721 80.1655C655.975 80.5989 656.101 81.0989 656.101 81.6655C656.101 82.2322 655.971 82.7322 655.711 83.1655C655.458 83.5989 655.111 83.9355 654.671 84.1755C654.238 84.4089 653.751 84.5255 653.211 84.5255ZM653.211 83.3055C653.465 83.3055 653.701 83.2455 653.921 83.1255C654.148 82.9989 654.328 82.8122 654.461 82.5655C654.595 82.3189 654.661 82.0189 654.661 81.6655C654.661 81.1389 654.521 80.7355 654.241 80.4555C653.968 80.1689 653.631 80.0255 653.231 80.0255C652.831 80.0255 652.495 80.1689 652.221 80.4555C651.955 80.7355 651.821 81.1389 651.821 81.6655C651.821 82.1922 651.951 82.5989 652.211 82.8855C652.478 83.1655 652.811 83.3055 653.211 83.3055ZM658.958 80.0455V82.7255C658.958 82.9122 659.002 83.0489 659.088 83.1355C659.182 83.2155 659.335 83.2555 659.548 83.2555H660.198V84.4355H659.318C658.138 84.4355 657.548 83.8622 657.548 82.7155V80.0455H656.888V78.8955H657.548V77.5255H658.958V78.8955H660.198V80.0455H658.958ZM663.525 84.5255C663.072 84.5255 662.665 84.4455 662.305 84.2855C661.945 84.1189 661.658 83.8955 661.445 83.6155C661.238 83.3355 661.125 83.0255 661.105 82.6855H662.515C662.542 82.8989 662.645 83.0755 662.825 83.2155C663.012 83.3555 663.242 83.4255 663.515 83.4255C663.782 83.4255 663.988 83.3722 664.135 83.2655C664.288 83.1589 664.365 83.0222 664.365 82.8555C664.365 82.6755 664.272 82.5422 664.085 82.4555C663.905 82.3622 663.615 82.2622 663.215 82.1555C662.802 82.0555 662.462 81.9522 662.195 81.8455C661.935 81.7389 661.708 81.5755 661.515 81.3555C661.328 81.1355 661.235 80.8389 661.235 80.4655C661.235 80.1589 661.322 79.8789 661.495 79.6255C661.675 79.3722 661.928 79.1722 662.255 79.0255C662.588 78.8789 662.978 78.8055 663.425 78.8055C664.085 78.8055 664.612 78.9722 665.005 79.3055C665.398 79.6322 665.615 80.0755 665.655 80.6355H664.315C664.295 80.4155 664.202 80.2422 664.035 80.1155C663.875 79.9822 663.658 79.9155 663.385 79.9155C663.132 79.9155 662.935 79.9622 662.795 80.0555C662.662 80.1489 662.595 80.2789 662.595 80.4455C662.595 80.6322 662.688 80.7755 662.875 80.8755C663.062 80.9689 663.352 81.0655 663.745 81.1655C664.145 81.2655 664.475 81.3689 664.735 81.4755C664.995 81.5822 665.218 81.7489 665.405 81.9755C665.598 82.1955 665.698 82.4889 665.705 82.8555C665.705 83.1755 665.615 83.4622 665.435 83.7155C665.262 83.9689 665.008 84.1689 664.675 84.3155C664.348 84.4555 663.965 84.5255 663.525 84.5255Z" fill="#757575"/>
<rect width="130" height="22.5587" rx="4" fill="#E0E0E0"/>
<path d="M35.6806 10.0599C35.6806 10.4332 35.5906 10.7832 35.4106 11.1099C35.2373 11.4365 34.9606 11.6999 34.5806 11.8999C34.2073 12.0999 33.7339 12.1999 33.1606 12.1999H31.9906V14.8799H30.5906V7.89988H33.1606C33.7006 7.89988 34.1606 7.99322 34.5406 8.17988C34.9206 8.36655 35.2039 8.62322 35.3906 8.94988C35.5839 9.27655 35.6806 9.64655 35.6806 10.0599ZM33.1006 11.0699C33.4873 11.0699 33.7739 10.9832 33.9606 10.8099C34.1473 10.6299 34.2406 10.3799 34.2406 10.0599C34.2406 9.37988 33.8606 9.03988 33.1006 9.03988H31.9906V11.0699H33.1006ZM38.2746 10.1999C38.4546 9.90655 38.6879 9.67655 38.9746 9.50988C39.2679 9.34322 39.6013 9.25988 39.9746 9.25988V10.7299H39.6046C39.1646 10.7299 38.8313 10.8332 38.6046 11.0399C38.3846 11.2465 38.2746 11.6065 38.2746 12.1199V14.8799H36.8746V9.33988H38.2746V10.1999ZM46.2676 11.9899C46.2676 12.1899 46.2542 12.3699 46.2276 12.5299H42.1776C42.2109 12.9299 42.3509 13.2432 42.5976 13.4699C42.8442 13.6965 43.1476 13.8099 43.5076 13.8099C44.0276 13.8099 44.3976 13.5865 44.6176 13.1399H46.1276C45.9676 13.6732 45.6609 14.1132 45.2076 14.4599C44.7542 14.7999 44.1976 14.9699 43.5376 14.9699C43.0042 14.9699 42.5242 14.8532 42.0976 14.6199C41.6776 14.3799 41.3476 14.0432 41.1076 13.6099C40.8742 13.1765 40.7576 12.6765 40.7576 12.1099C40.7576 11.5365 40.8742 11.0332 41.1076 10.5999C41.3409 10.1665 41.6676 9.83322 42.0876 9.59988C42.5076 9.36655 42.9909 9.24988 43.5376 9.24988C44.0642 9.24988 44.5342 9.36322 44.9476 9.58988C45.3676 9.81655 45.6909 10.1399 45.9176 10.5599C46.1509 10.9732 46.2676 11.4499 46.2676 11.9899ZM44.8176 11.5899C44.8109 11.2299 44.6809 10.9432 44.4276 10.7299C44.1742 10.5099 43.8642 10.3999 43.4976 10.3999C43.1509 10.3999 42.8576 10.5065 42.6176 10.7199C42.3842 10.9265 42.2409 11.2165 42.1876 11.5899H44.8176ZM47.1294 12.0899C47.1294 11.5299 47.2394 11.0332 47.4594 10.5999C47.6861 10.1665 47.9928 9.83322 48.3794 9.59988C48.7661 9.36655 49.1961 9.24988 49.6694 9.24988C50.0294 9.24988 50.3728 9.32988 50.6994 9.48988C51.0261 9.64322 51.2861 9.84988 51.4794 10.1099V7.47988H52.8994V14.8799H51.4794V14.0599C51.3061 14.3332 51.0628 14.5532 50.7494 14.7199C50.4361 14.8865 50.0728 14.9699 49.6594 14.9699C49.1928 14.9699 48.7661 14.8499 48.3794 14.6099C47.9928 14.3699 47.6861 14.0332 47.4594 13.5999C47.2394 13.1599 47.1294 12.6565 47.1294 12.0899ZM51.4894 12.1099C51.4894 11.7699 51.4228 11.4799 51.2894 11.2399C51.1561 10.9932 50.9761 10.8065 50.7494 10.6799C50.5228 10.5465 50.2794 10.4799 50.0194 10.4799C49.7594 10.4799 49.5194 10.5432 49.2994 10.6699C49.0794 10.7965 48.8994 10.9832 48.7594 11.2299C48.6261 11.4699 48.5594 11.7565 48.5594 12.0899C48.5594 12.4232 48.6261 12.7165 48.7594 12.9699C48.8994 13.2165 49.0794 13.4065 49.2994 13.5399C49.5261 13.6732 49.7661 13.7399 50.0194 13.7399C50.2794 13.7399 50.5228 13.6765 50.7494 13.5499C50.9761 13.4165 51.1561 13.2299 51.2894 12.9899C51.4228 12.7432 51.4894 12.4499 51.4894 12.1099ZM59.6168 11.9899C59.6168 12.1899 59.6035 12.3699 59.5768 12.5299H55.5268C55.5601 12.9299 55.7001 13.2432 55.9468 13.4699C56.1934 13.6965 56.4968 13.8099 56.8568 13.8099C57.3768 13.8099 57.7468 13.5865 57.9668 13.1399H59.4768C59.3168 13.6732 59.0101 14.1132 58.5568 14.4599C58.1034 14.7999 57.5468 14.9699 56.8868 14.9699C56.3534 14.9699 55.8734 14.8532 55.4468 14.6199C55.0268 14.3799 54.6968 14.0432 54.4568 13.6099C54.2234 13.1765 54.1068 12.6765 54.1068 12.1099C54.1068 11.5365 54.2234 11.0332 54.4568 10.5999C54.6901 10.1665 55.0168 9.83322 55.4368 9.59988C55.8568 9.36655 56.3401 9.24988 56.8868 9.24988C57.4134 9.24988 57.8834 9.36322 58.2968 9.58988C58.7168 9.81655 59.0401 10.1399 59.2668 10.5599C59.5001 10.9732 59.6168 11.4499 59.6168 11.9899ZM58.1668 11.5899C58.1601 11.2299 58.0301 10.9432 57.7768 10.7299C57.5234 10.5099 57.2134 10.3999 56.8468 10.3999C56.5001 10.3999 56.2068 10.5065 55.9668 10.7199C55.7334 10.9265 55.5901 11.2165 55.5368 11.5899H58.1668ZM60.4787 12.1099C60.4787 11.5365 60.5953 11.0365 60.8287 10.6099C61.062 10.1765 61.3853 9.84322 61.7987 9.60988C62.212 9.36988 62.6853 9.24988 63.2187 9.24988C63.9053 9.24988 64.472 9.42322 64.9187 9.76988C65.372 10.1099 65.6753 10.5899 65.8287 11.2099H64.3187C64.2387 10.9699 64.102 10.7832 63.9087 10.6499C63.722 10.5099 63.4887 10.4399 63.2087 10.4399C62.8087 10.4399 62.492 10.5865 62.2587 10.8799C62.0253 11.1665 61.9087 11.5765 61.9087 12.1099C61.9087 12.6365 62.0253 13.0465 62.2587 13.3399C62.492 13.6265 62.8087 13.7699 63.2087 13.7699C63.7753 13.7699 64.1453 13.5165 64.3187 13.0099H65.8287C65.6753 13.6099 65.372 14.0865 64.9187 14.4399C64.4653 14.7932 63.8987 14.9699 63.2187 14.9699C62.6853 14.9699 62.212 14.8532 61.7987 14.6199C61.3853 14.3799 61.062 14.0465 60.8287 13.6199C60.5953 13.1865 60.4787 12.6832 60.4787 12.1099ZM72.2043 11.9899C72.2043 12.1899 72.191 12.3699 72.1643 12.5299H68.1143C68.1476 12.9299 68.2876 13.2432 68.5343 13.4699C68.781 13.6965 69.0843 13.8099 69.4443 13.8099C69.9643 13.8099 70.3343 13.5865 70.5543 13.1399H72.0643C71.9043 13.6732 71.5976 14.1132 71.1443 14.4599C70.691 14.7999 70.1343 14.9699 69.4743 14.9699C68.941 14.9699 68.461 14.8532 68.0343 14.6199C67.6143 14.3799 67.2843 14.0432 67.0443 13.6099C66.811 13.1765 66.6943 12.6765 66.6943 12.1099C66.6943 11.5365 66.811 11.0332 67.0443 10.5999C67.2776 10.1665 67.6043 9.83322 68.0243 9.59988C68.4443 9.36655 68.9276 9.24988 69.4743 9.24988C70.001 9.24988 70.471 9.36322 70.8843 9.58988C71.3043 9.81655 71.6276 10.1399 71.8543 10.5599C72.0876 10.9732 72.2043 11.4499 72.2043 11.9899ZM70.7543 11.5899C70.7476 11.2299 70.6176 10.9432 70.3643 10.7299C70.111 10.5099 69.801 10.3999 69.4343 10.3999C69.0876 10.3999 68.7943 10.5065 68.5543 10.7199C68.321 10.9265 68.1776 11.2165 68.1243 11.5899H70.7543ZM75.5462 14.9699C75.0928 14.9699 74.6862 14.8899 74.3262 14.7299C73.9662 14.5632 73.6795 14.3399 73.4662 14.0599C73.2595 13.7799 73.1462 13.4699 73.1262 13.1299H74.5362C74.5628 13.3432 74.6662 13.5199 74.8462 13.6599C75.0328 13.7999 75.2628 13.8699 75.5362 13.8699C75.8028 13.8699 76.0095 13.8165 76.1562 13.7099C76.3095 13.6032 76.3862 13.4665 76.3862 13.2999C76.3862 13.1199 76.2928 12.9865 76.1062 12.8999C75.9262 12.8065 75.6362 12.7065 75.2362 12.5999C74.8228 12.4999 74.4828 12.3965 74.2162 12.2899C73.9562 12.1832 73.7295 12.0199 73.5362 11.7999C73.3495 11.5799 73.2562 11.2832 73.2562 10.9099C73.2562 10.6032 73.3428 10.3232 73.5162 10.0699C73.6962 9.81655 73.9495 9.61655 74.2762 9.46988C74.6095 9.32322 74.9995 9.24988 75.4462 9.24988C76.1062 9.24988 76.6328 9.41655 77.0262 9.74988C77.4195 10.0765 77.6362 10.5199 77.6762 11.0799H76.3362C76.3162 10.8599 76.2228 10.6865 76.0562 10.5599C75.8962 10.4265 75.6795 10.3599 75.4062 10.3599C75.1528 10.3599 74.9562 10.4065 74.8162 10.4999C74.6828 10.5932 74.6162 10.7232 74.6162 10.8899C74.6162 11.0765 74.7095 11.2199 74.8962 11.3199C75.0828 11.4132 75.3728 11.5099 75.7662 11.6099C76.1662 11.7099 76.4962 11.8132 76.7562 11.9199C77.0162 12.0265 77.2395 12.1932 77.4262 12.4199C77.6195 12.6399 77.7195 12.9332 77.7262 13.2999C77.7262 13.6199 77.6362 13.9065 77.4562 14.1599C77.2828 14.4132 77.0295 14.6132 76.6962 14.7599C76.3695 14.8999 75.9862 14.9699 75.5462 14.9699ZM81.1954 14.9699C80.742 14.9699 80.3354 14.8899 79.9754 14.7299C79.6154 14.5632 79.3287 14.3399 79.1154 14.0599C78.9087 13.7799 78.7954 13.4699 78.7754 13.1299H80.1854C80.212 13.3432 80.3154 13.5199 80.4954 13.6599C80.682 13.7999 80.912 13.8699 81.1854 13.8699C81.452 13.8699 81.6587 13.8165 81.8054 13.7099C81.9587 13.6032 82.0354 13.4665 82.0354 13.2999C82.0354 13.1199 81.942 12.9865 81.7554 12.8999C81.5754 12.8065 81.2854 12.7065 80.8854 12.5999C80.472 12.4999 80.132 12.3965 79.8654 12.2899C79.6054 12.1832 79.3787 12.0199 79.1854 11.7999C78.9987 11.5799 78.9054 11.2832 78.9054 10.9099C78.9054 10.6032 78.992 10.3232 79.1654 10.0699C79.3454 9.81655 79.5987 9.61655 79.9254 9.46988C80.2587 9.32322 80.6487 9.24988 81.0954 9.24988C81.7554 9.24988 82.282 9.41655 82.6754 9.74988C83.0687 10.0765 83.2854 10.5199 83.3254 11.0799H81.9854C81.9654 10.8599 81.872 10.6865 81.7054 10.5599C81.5454 10.4265 81.3287 10.3599 81.0554 10.3599C80.802 10.3599 80.6054 10.4065 80.4654 10.4999C80.332 10.5932 80.2654 10.7232 80.2654 10.8899C80.2654 11.0765 80.3587 11.2199 80.5454 11.3199C80.732 11.4132 81.022 11.5099 81.4154 11.6099C81.8154 11.7099 82.1454 11.8132 82.4054 11.9199C82.6654 12.0265 82.8887 12.1932 83.0754 12.4199C83.2687 12.6399 83.3687 12.9332 83.3754 13.2999C83.3754 13.6199 83.2854 13.9065 83.1054 14.1599C82.932 14.4132 82.6787 14.6132 82.3454 14.7599C82.0187 14.8999 81.6354 14.9699 81.1954 14.9699ZM87.1846 14.9699C86.6513 14.9699 86.1713 14.8532 85.7446 14.6199C85.3179 14.3799 84.9813 14.0432 84.7346 13.6099C84.4946 13.1765 84.3746 12.6765 84.3746 12.1099C84.3746 11.5432 84.4979 11.0432 84.7446 10.6099C84.9979 10.1765 85.3413 9.84322 85.7746 9.60988C86.2079 9.36988 86.6913 9.24988 87.2246 9.24988C87.7579 9.24988 88.2413 9.36988 88.6746 9.60988C89.1079 9.84322 89.4479 10.1765 89.6946 10.6099C89.9479 11.0432 90.0746 11.5432 90.0746 12.1099C90.0746 12.6765 89.9446 13.1765 89.6846 13.6099C89.4313 14.0432 89.0846 14.3799 88.6446 14.6199C88.2113 14.8532 87.7246 14.9699 87.1846 14.9699ZM87.1846 13.7499C87.4379 13.7499 87.6746 13.6899 87.8946 13.5699C88.1213 13.4432 88.3013 13.2565 88.4346 13.0099C88.5679 12.7632 88.6346 12.4632 88.6346 12.1099C88.6346 11.5832 88.4946 11.1799 88.2146 10.8999C87.9413 10.6132 87.6046 10.4699 87.2046 10.4699C86.8046 10.4699 86.4679 10.6132 86.1946 10.8999C85.9279 11.1799 85.7946 11.5832 85.7946 12.1099C85.7946 12.6365 85.9246 13.0432 86.1846 13.3299C86.4513 13.6099 86.7846 13.7499 87.1846 13.7499ZM92.7015 10.1999C92.8815 9.90655 93.1149 9.67655 93.4015 9.50988C93.6949 9.34322 94.0282 9.25988 94.4015 9.25988V10.7299H94.0315C93.5915 10.7299 93.2582 10.8332 93.0315 11.0399C92.8115 11.2465 92.7015 11.6065 92.7015 12.1199V14.8799H91.3015V9.33988H92.7015V10.1999ZM97.6645 14.9699C97.2112 14.9699 96.8045 14.8899 96.4445 14.7299C96.0845 14.5632 95.7978 14.3399 95.5845 14.0599C95.3778 13.7799 95.2645 13.4699 95.2445 13.1299H96.6545C96.6812 13.3432 96.7845 13.5199 96.9645 13.6599C97.1512 13.7999 97.3812 13.8699 97.6545 13.8699C97.9212 13.8699 98.1278 13.8165 98.2745 13.7099C98.4278 13.6032 98.5045 13.4665 98.5045 13.2999C98.5045 13.1199 98.4112 12.9865 98.2245 12.8999C98.0445 12.8065 97.7545 12.7065 97.3545 12.5999C96.9412 12.4999 96.6012 12.3965 96.3345 12.2899C96.0745 12.1832 95.8478 12.0199 95.6545 11.7999C95.4678 11.5799 95.3745 11.2832 95.3745 10.9099C95.3745 10.6032 95.4612 10.3232 95.6345 10.0699C95.8145 9.81655 96.0678 9.61655 96.3945 9.46988C96.7278 9.32322 97.1178 9.24988 97.5645 9.24988C98.2245 9.24988 98.7512 9.41655 99.1445 9.74988C99.5378 10.0765 99.7545 10.5199 99.7945 11.0799H98.4545C98.4345 10.8599 98.3412 10.6865 98.1745 10.5599C98.0145 10.4265 97.7978 10.3599 97.5245 10.3599C97.2712 10.3599 97.0745 10.4065 96.9345 10.4999C96.8012 10.5932 96.7345 10.7232 96.7345 10.8899C96.7345 11.0765 96.8278 11.2199 97.0145 11.3199C97.2012 11.4132 97.4912 11.5099 97.8845 11.6099C98.2845 11.7099 98.6145 11.8132 98.8745 11.9199C99.1345 12.0265 99.3578 12.1932 99.5445 12.4199C99.7378 12.6399 99.8378 12.9332 99.8445 13.2999C99.8445 13.6199 99.7545 13.9065 99.5745 14.1599C99.4012 14.4132 99.1478 14.6132 98.8145 14.7599C98.4878 14.8999 98.1045 14.9699 97.6645 14.9699Z" fill="#757575"/>
<path d="M153.681 11.2793H154.181V10.7793H153.681V11.2793ZM153.681 41.3576H153.181V41.8576H153.681V41.3576ZM186.11 41.3576L181.11 38.4709V44.2444L186.11 41.3576ZM129.713 11.7793H153.681V10.7793H129.713V11.7793ZM153.181 11.2793V41.3576H154.181V11.2793H153.181ZM153.681 41.8576H181.61V40.8576H153.681V41.8576Z" fill="#9E9E9E"/>
<path d="M511.802 41.3574H512.302V40.8574H511.802V41.3574ZM511.802 82.7151H511.302V83.2151H511.802V82.7151ZM552.689 82.7151L547.689 79.8284V85.6019L552.689 82.7151ZM487.833 41.8574H511.802V40.8574H487.833V41.8574ZM511.302 41.3574V82.7151H512.302V41.3574H511.302ZM511.802 83.2151H548.189V82.2151H511.802V83.2151Z" fill="#9E9E9E"/>
</g>
</svg>
