<svg width="17" height="16" viewBox="0 0 17 16" fill="none" xmlns="http://www.w3.org/2000/svg">
<g clip-path="url(#clip0)">
<path d="M0 2C0 0.895431 0.89543 0 2 0H14.2388C15.3434 0 16.2388 0.895431 16.2388 2V14C16.2388 15.1046 15.3434 16 14.2388 16H2C0.895431 16 0 15.1046 0 14V2Z" fill="#F4CB60"/>
<rect width="20" height="80" fill="#F4CB60"/>
<path d="M15.4268 0L8.93123 16L0.811831 16L7.30735 -3.49691e-07L15.4268 0Z" fill="#212121"/>
</g>
<defs>
<clipPath id="clip0">
<path d="M0 2C0 0.895431 0.89543 0 2 0H14.2388C15.3434 0 16.2388 0.895431 16.2388 2V14C16.2388 15.1046 15.3434 16 14.2388 16H2C0.895431 16 0 15.1046 0 14V2Z" fill="white"/>
</clipPath>
</defs>
</svg>
