<svg width="271" height="161" viewBox="0 0 271 161" fill="none" xmlns="http://www.w3.org/2000/svg">
<g opacity="0.4">
<path d="M166.755 7.26758H100.54V57.6022H166.755V7.26758Z" fill="#979797"/>
<path d="M166.756 7.26709C166.756 11.2812 151.934 14.5342 133.648 14.5342C115.362 14.5342 100.541 11.2812 100.541 7.26709C100.541 3.25295 115.362 0 133.648 0C151.934 0 166.756 3.25295 166.756 7.26709Z" fill="#B5B5B5"/>
<path d="M137.324 32.4324C125.02 34.5508 109.588 23.9625 100.54 16.541V57.6015C100.54 61.6157 115.361 64.8687 133.648 64.8687C151.934 64.8687 166.755 61.6157 166.755 57.6015V21.7005C158.824 25.7398 147.636 30.6587 137.324 32.4324Z" fill="#808484"/>
<path d="M132.545 0.00390625C114.769 0.133163 100.54 3.33585 100.54 7.2674C100.54 11.0697 113.836 14.1898 130.775 14.5094C130.355 8.91185 131.569 3.38253 132.545 0.00390625Z" fill="#ACAEAE"/>
<path fill-rule="evenodd" clip-rule="evenodd" d="M166.756 7.26709C166.756 11.2812 151.934 14.5342 133.648 14.5342C115.362 14.5342 100.541 11.2812 100.541 7.26709C100.541 3.25295 115.362 0 133.648 0C151.934 0 166.756 3.25295 166.756 7.26709ZM165.61 7.26709C165.61 5.13077 154.634 1.14534 133.648 1.14534C112.662 1.14534 101.686 5.13077 101.686 7.26709C101.686 9.40341 112.662 13.3888 133.648 13.3888C154.634 13.3888 165.61 9.40341 165.61 7.26709Z" fill="#ACB7B7"/>
<path d="M142.261 17.0868C142.261 17.392 142.017 17.6361 141.712 17.6361C141.41 17.6361 141.166 17.392 141.166 17.0868C141.166 16.7852 141.41 16.541 141.712 16.541C142.017 16.541 142.261 16.7852 142.261 17.0868Z" fill="#818189"/>
<path d="M145.697 19.1411C145.697 19.3637 145.518 19.5468 145.291 19.5468C145.069 19.5468 144.886 19.3637 144.886 19.1411C144.886 18.9149 145.069 18.7354 145.291 18.7354C145.518 18.7354 145.697 18.9149 145.697 19.1411Z" fill="#818189"/>
<path d="M141.712 20.3478C141.712 20.4986 141.59 20.6206 141.439 20.6206C141.288 20.6206 141.166 20.4986 141.166 20.3478C141.166 20.1934 141.288 20.0713 141.439 20.0713C141.59 20.0713 141.712 20.1934 141.712 20.3478Z" fill="#818189"/>
<path d="M150.864 17.6435C150.864 17.9486 150.616 18.1964 150.307 18.1964C150.002 18.1964 149.754 17.9486 149.754 17.6435C149.754 17.3383 150.002 17.0869 150.307 17.0869C150.616 17.0869 150.864 17.3383 150.864 17.6435Z" fill="#818189"/>
<path d="M154.613 23.643C154.613 23.9302 154.379 24.1636 154.092 24.1636C153.805 24.1636 153.571 23.9302 153.571 23.643C153.571 23.3557 153.805 23.126 154.092 23.126C154.379 23.126 154.613 23.3557 154.613 23.643Z" fill="#818189"/>
<path d="M132.79 20.0809C132.79 20.3789 132.549 20.6194 132.251 20.6194C131.957 20.6194 131.716 20.3789 131.716 20.0809C131.716 19.7865 131.957 19.5459 132.251 19.5459C132.549 19.5459 132.79 19.7865 132.79 20.0809Z" fill="#818189"/>
<path d="M122.266 18.1677C122.266 18.4586 122.032 18.6919 121.742 18.6919C121.451 18.6919 121.214 18.4586 121.214 18.1677C121.214 17.8769 121.451 17.6436 121.742 17.6436C122.032 17.6436 122.266 17.8769 122.266 18.1677Z" fill="#818189"/>
<path d="M132.79 26.1352C132.79 26.4333 132.549 26.6702 132.251 26.6702C131.957 26.6702 131.716 26.4333 131.716 26.1352C131.716 25.8372 131.957 25.5967 132.251 25.5967C132.549 25.5967 132.79 25.8372 132.79 26.1352Z" fill="#818189"/>
<path d="M136.775 17.3022C136.775 17.7259 136.559 18.067 136.297 18.067C136.032 18.067 135.82 17.7259 135.82 17.3022C135.82 16.8821 136.032 16.541 136.297 16.541C136.559 16.541 136.775 16.8821 136.775 17.3022Z" fill="#818189"/>
<path d="M160.224 14.0923C160.224 14.3221 160.041 14.5088 159.812 14.5088C159.582 14.5088 159.395 14.3221 159.395 14.0923C159.395 13.8625 159.582 13.6758 159.812 13.6758C160.041 13.6758 160.224 13.8625 160.224 14.0923Z" fill="#818189"/>
<path d="M105.373 13.0547C105.373 13.3994 105.093 13.6759 104.752 13.6759C104.407 13.6759 104.131 13.3994 104.131 13.0547C104.131 12.7136 104.407 12.4336 104.752 12.4336C105.093 12.4336 105.373 12.7136 105.373 13.0547Z" fill="#818189"/>
<path d="M103.761 14.9219C103.761 15.1374 103.589 15.3097 103.373 15.3097C103.161 15.3097 102.985 15.1374 102.985 14.9219C102.985 14.7065 103.161 14.5342 103.373 14.5342C103.589 14.5342 103.761 14.7065 103.761 14.9219Z" fill="#818189"/>
<path d="M106.874 17.3634C106.874 17.5142 106.666 17.6363 106.411 17.6363C106.152 17.6363 105.944 17.5142 105.944 17.3634C105.944 17.2126 106.152 17.0869 106.411 17.0869C106.666 17.0869 106.874 17.2126 106.874 17.3634Z" fill="#818189"/>
<path d="M105.373 20.3837C105.373 20.5524 105.233 20.6924 105.061 20.6924C104.892 20.6924 104.752 20.5524 104.752 20.3837C104.752 20.2113 104.892 20.0713 105.061 20.0713C105.233 20.0713 105.373 20.2113 105.373 20.3837Z" fill="#818189"/>
<path d="M0 16.3477V27.5607L64.9981 73.6155V59.9969L0 16.3477Z" fill="#808484"/>
<path d="M122.266 52.7295L64.998 59.9966V73.6152L122.266 64.7396V52.7295Z" fill="#9FA1A2"/>
<path d="M0 16.3473L47.8178 11.6689L122.266 52.7295L64.9981 59.9965L0 16.3473Z" fill="#A7A7AF"/>
<path d="M76.5236 66.1722C76.5236 68.5024 74.6314 70.3946 72.3012 70.3946C69.9674 70.3946 68.0752 68.5024 68.0752 66.1722C68.0752 63.8384 69.9674 61.9463 72.3012 61.9463C74.6314 61.9463 76.5236 63.8384 76.5236 66.1722Z" fill="#8A8A8F"/>
<path d="M72.3011 61.9463C70.987 61.9463 69.8166 62.5459 69.041 63.4866C69.7699 62.8834 70.707 62.5208 71.7267 62.5208C74.0605 62.5208 75.9491 64.4129 75.9491 66.7431C75.9491 67.7664 75.59 68.6999 74.9868 69.4288C75.9239 68.6568 76.5235 67.4827 76.5235 66.1722C76.5235 63.8384 74.6314 61.9463 72.3011 61.9463Z" fill="#939396"/>
<path d="M89.5533 64.2185C89.5533 66.5523 87.6612 68.4445 85.3274 68.4445C82.9971 68.4445 81.105 66.5523 81.105 64.2185C81.105 61.8883 82.9971 59.9961 85.3274 59.9961C87.6612 59.9961 89.5533 61.8883 89.5533 64.2185Z" fill="#87878A"/>
<path d="M85.3274 59.9961C83.9307 59.9961 82.6956 60.6711 81.9272 61.7159C82.6274 61.2025 83.4927 60.8973 84.4298 60.8973C86.76 60.8973 88.6522 62.7859 88.6522 65.1197C88.6522 66.0568 88.347 66.9221 87.83 67.6222C88.8748 66.8539 89.5534 65.6152 89.5534 64.2185C89.5534 61.8883 87.6612 59.9961 85.3274 59.9961Z" fill="#939396"/>
<path d="M103.01 62.3054C103.01 64.6392 101.118 66.5278 98.7844 66.5278C96.4542 66.5278 94.562 64.6392 94.562 62.3054C94.562 59.9716 96.4542 58.083 98.7844 58.083C101.118 58.083 103.01 59.9716 103.01 62.3054Z" fill="#87878A"/>
<path d="M116.037 60.3559C116.037 62.6897 114.148 64.5782 111.814 64.5782C109.48 64.5782 107.592 62.6897 107.592 60.3559C107.592 58.0221 109.48 56.1299 111.814 56.1299C114.148 56.1299 116.037 58.0221 116.037 60.3559Z" fill="#87878A"/>
<path opacity="0.329" d="M64.9981 59.9968V73.6154L0 27.5605C40.1809 56.2376 61.8493 67.0484 64.9981 59.9968Z" fill="#87878A"/>
<g style="mix-blend-mode:screen" opacity="0.322">
<path d="M84.2178 33.5712C59.0846 18.143 35.3409 11.12 31.1903 17.8844C27.0398 24.6489 44.0514 42.6371 69.1846 58.0617C69.8237 58.4531 70.4628 58.8408 71.1019 59.2214L111.423 54.105C104.63 47.5381 95.1975 40.3105 84.2178 33.5712Z" fill="#CACAD8"/>
</g>
<path d="M3.86328 4.67871V15.8953L68.865 61.9466V48.3279L3.86328 4.67871Z" fill="#808484"/>
<path d="M126.133 41.0605L68.8652 48.3276V61.9463L126.133 53.0706V41.0605Z" fill="#9FA2A3"/>
<path d="M3.86328 4.67838L51.6846 0L126.133 41.0605L68.865 48.3276L3.86328 4.67838Z" fill="#CACAD8"/>
<path d="M80.3902 54.5036C80.3902 56.8374 78.4981 58.726 76.1643 58.726C73.8341 58.726 71.9419 56.8374 71.9419 54.5036C71.9419 52.1698 73.8341 50.2812 76.1643 50.2812C78.4981 50.2812 80.3902 52.1698 80.3902 54.5036Z" fill="#8A8A8F"/>
<path d="M76.1644 50.2812C74.8539 50.2812 73.6798 50.8772 72.9043 51.8179C73.6368 51.2147 74.5703 50.8521 75.5935 50.8521C77.9238 50.8521 79.8159 52.7443 79.8159 55.0745C79.8159 56.0978 79.4533 57.0349 78.8501 57.7638C79.7908 56.9882 80.3904 55.8141 80.3904 54.5036C80.3904 52.1698 78.4982 50.2812 76.1644 50.2812Z" fill="#939396"/>
<path d="M93.4164 52.5531C93.4164 54.8833 91.5243 56.7755 89.1941 56.7755C86.8603 56.7755 84.9717 54.8833 84.9717 52.5531C84.9717 50.2193 86.8603 48.3271 89.1941 48.3271C91.5243 48.3271 93.4164 50.2193 93.4164 52.5531Z" fill="#87878A"/>
<path d="M89.1943 48.3271C87.7976 48.3271 86.5625 49.0058 85.7905 50.047C86.4907 49.5336 87.3596 49.2284 88.2931 49.2284C90.6269 49.2284 92.519 51.1169 92.519 53.4507C92.519 54.3879 92.2139 55.2531 91.6968 55.9533C92.7417 55.1849 93.4167 53.9462 93.4167 52.5531C93.4167 50.2193 91.5281 48.3271 89.1943 48.3271Z" fill="#939396"/>
<path d="M106.873 50.6364C106.873 52.9702 104.985 54.8624 102.651 54.8624C100.317 54.8624 98.4287 52.9702 98.4287 50.6364C98.4287 48.3062 100.317 46.4141 102.651 46.4141C104.985 46.4141 106.873 48.3062 106.873 50.6364Z" fill="#8A8A8F"/>
<path d="M119.903 48.6863C119.903 51.0201 118.011 52.9086 115.681 52.9086C113.347 52.9086 111.455 51.0201 111.455 48.6863C111.455 46.3525 113.347 44.4639 115.681 44.4639C118.011 44.4639 119.903 46.3525 119.903 48.6863Z" fill="#8A8A8F"/>
<path opacity="0.329" d="M68.865 48.3272V61.9458L3.86328 15.8945C44.0477 44.568 65.7126 55.3788 68.865 48.3272Z" fill="#87878A"/>
<g style="mix-blend-mode:screen" opacity="0.322">
<path d="M88.0846 21.9021C62.9477 6.47751 39.2076 -0.545454 35.057 6.21538C30.9065 12.9798 47.9181 30.968 73.0513 46.3963C73.6904 46.7876 74.3295 47.1718 74.965 47.556L115.289 42.436C108.496 35.869 99.0642 28.6414 88.0846 21.9021Z" fill="#CACAD8"/>
</g>
<path d="M1.5729 19.3779C1.5729 19.5754 1.41492 19.737 1.21744 19.737C1.01997 19.737 0.858398 19.5754 0.858398 19.3779C0.858398 19.1804 1.01997 19.0225 1.21744 19.0225C1.41492 19.0225 1.5729 19.1804 1.5729 19.3779Z" fill="#6D6D72"/>
<path d="M2.88659 19.7725C2.88659 19.8587 2.81478 19.9269 2.7322 19.9269C2.64603 19.9269 2.57422 19.8587 2.57422 19.7725C2.57422 19.6864 2.64603 19.6182 2.7322 19.6182C2.81478 19.6182 2.88659 19.6864 2.88659 19.7725Z" fill="#6D6D72"/>
<path d="M2.01438 20.9975C2.01438 21.0837 1.94256 21.1555 1.8528 21.1555C1.76663 21.1555 1.69482 21.0837 1.69482 20.9975C1.69482 20.9077 1.76663 20.8359 1.8528 20.8359C1.94256 20.8359 2.01438 20.9077 2.01438 20.9975Z" fill="#6D6D72"/>
<path d="M1.01272 18.0026C1.01272 18.1355 0.905003 18.2468 0.768566 18.2468C0.632128 18.2468 0.524414 18.1355 0.524414 18.0026C0.524414 17.8662 0.632128 17.7549 0.768566 17.7549C0.905003 17.7549 1.01272 17.8662 1.01272 18.0026Z" fill="#6D6D72"/>
<path d="M1.13478 21.8052C1.13478 21.9057 1.0522 21.9883 0.951669 21.9883C0.851136 21.9883 0.768555 21.9057 0.768555 21.8052C0.768555 21.7047 0.851136 21.6221 0.951669 21.6221C1.0522 21.6221 1.13478 21.7047 1.13478 21.8052Z" fill="#6D6D72"/>
<path d="M4.25114 22.0453C4.25114 22.1781 4.14343 22.2858 4.01058 22.2858C3.87773 22.2858 3.77002 22.1781 3.77002 22.0453C3.77002 21.9124 3.87773 21.8047 4.01058 21.8047C4.14343 21.8047 4.25114 21.9124 4.25114 22.0453Z" fill="#6D6D72"/>
<path d="M3.77011 20.179C3.77011 20.2364 3.71985 20.2867 3.6624 20.2867C3.60136 20.2867 3.55469 20.2364 3.55469 20.179C3.55469 20.1179 3.60136 20.0713 3.6624 20.0713C3.71985 20.0713 3.77011 20.1179 3.77011 20.179Z" fill="#6D6D72"/>
<path d="M4.74668 6.388C4.74668 6.44545 4.7 6.49569 4.63896 6.49569C4.58151 6.49569 4.53125 6.44545 4.53125 6.388C4.53125 6.32697 4.58151 6.28027 4.63896 6.28027C4.7 6.28027 4.74668 6.32697 4.74668 6.388Z" fill="#6D6D72"/>
<path d="M5.18837 7.84905C5.18837 7.93881 5.11657 8.00701 5.0268 8.00701C4.94063 8.00701 4.86523 7.93881 4.86523 7.84905C4.86523 7.75929 4.94063 7.6875 5.0268 7.6875C5.11657 7.6875 5.18837 7.75929 5.18837 7.84905Z" fill="#6D6D72"/>
<path d="M7.83802 8.69644C7.83802 8.78979 7.75903 8.86877 7.66568 8.86877C7.56874 8.86877 7.48975 8.78979 7.48975 8.69644C7.48975 8.59949 7.56874 8.52051 7.66568 8.52051C7.75903 8.52051 7.83802 8.59949 7.83802 8.69644Z" fill="#6D6D72"/>
<path d="M8.10356 10.3401C8.10356 10.4622 8.00303 10.5592 7.88455 10.5592C7.76247 10.5592 7.66553 10.4622 7.66553 10.3401C7.66553 10.218 7.76247 10.1211 7.88455 10.1211C8.00303 10.1211 8.10356 10.218 8.10356 10.3401Z" fill="#6D6D72"/>
<path d="M6.80045 7.36409C6.80045 7.46463 6.71787 7.54362 6.62093 7.54362C6.5204 7.54362 6.44141 7.46463 6.44141 7.36409C6.44141 7.26715 6.5204 7.18457 6.62093 7.18457C6.71787 7.18457 6.80045 7.26715 6.80045 7.36409Z" fill="#6D6D72"/>
<path d="M10.2473 9.85171C10.2473 9.95583 10.1647 10.0384 10.0641 10.0384C9.96002 10.0384 9.87744 9.95583 9.87744 9.85171C9.87744 9.74758 9.96002 9.66504 10.0641 9.66504C10.1647 9.66504 10.2473 9.74758 10.2473 9.85171Z" fill="#6D6D72"/>
<path d="M10.2471 11.4894C10.2471 11.5899 10.2076 11.6689 10.1537 11.6689C10.1035 11.6689 10.064 11.5899 10.064 11.4894C10.064 11.3925 10.1035 11.3135 10.1537 11.3135C10.2076 11.3135 10.2471 11.3925 10.2471 11.4894Z" fill="#6D6D72"/>
<path d="M39.6928 45.6096C39.6928 45.7173 39.603 45.8035 39.4953 45.8035C39.3876 45.8035 39.2979 45.7173 39.2979 45.6096C39.2979 45.4983 39.3876 45.4121 39.4953 45.4121C39.603 45.4121 39.6928 45.4983 39.6928 45.6096Z" fill="#6D6D72"/>
<path d="M41.7681 46.6291C41.7681 46.787 41.6389 46.9127 41.4845 46.9127C41.3229 46.9127 41.1973 46.787 41.1973 46.6291C41.1973 46.4711 41.3229 46.3418 41.4845 46.3418C41.6389 46.3418 41.7681 46.4711 41.7681 46.6291Z" fill="#6D6D72"/>
<path d="M44.6332 47.6313C44.6332 47.8503 44.4572 48.0227 44.2382 48.0227C44.0228 48.0227 43.8433 47.8503 43.8433 47.6313C43.8433 47.4123 44.0228 47.2363 44.2382 47.2363C44.4572 47.2363 44.6332 47.4123 44.6332 47.6313Z" fill="#6D6D72"/>
<path d="M42.949 49.0459C42.949 49.1716 42.8449 49.2757 42.7156 49.2757C42.59 49.2757 42.4858 49.1716 42.4858 49.0459C42.4858 48.9166 42.59 48.8125 42.7156 48.8125C42.8449 48.8125 42.949 48.9166 42.949 49.0459Z" fill="#6D6D72"/>
<path d="M46.9956 50.4745C46.9956 50.7223 46.7945 50.9233 46.5468 50.9233C46.299 50.9233 46.1016 50.7223 46.1016 50.4745C46.1016 50.2304 46.299 50.0293 46.5468 50.0293C46.7945 50.0293 46.9956 50.2304 46.9956 50.4745Z" fill="#6D6D72"/>
<path d="M47.4337 53.0562C47.4337 53.2393 47.2865 53.3829 47.107 53.3829C46.9275 53.3829 46.7803 53.2393 46.7803 53.0562C46.7803 52.8767 46.9275 52.7295 47.107 52.7295C47.2865 52.7295 47.4337 52.8767 47.4337 53.0562Z" fill="#6D6D72"/>
<path d="M51.9791 53.0562C51.9791 53.2393 51.8319 53.3829 51.6524 53.3829C51.4729 53.3829 51.3257 53.2393 51.3257 53.0562C51.3257 52.8767 51.4729 52.7295 51.6524 52.7295C51.8319 52.7295 51.9791 52.8767 51.9791 53.0562Z" fill="#6D6D72"/>
<path d="M50.2702 51.398C50.2702 51.5631 50.1373 51.6924 49.9757 51.6924C49.8106 51.6924 49.6777 51.5631 49.6777 51.398C49.6777 51.2364 49.8106 51.1035 49.9757 51.1035C50.1373 51.1035 50.2702 51.2364 50.2702 51.398Z" fill="#6D6D72"/>
<path d="M56.2123 55.6024C56.2123 55.7783 56.0723 55.9184 55.8964 55.9184C55.724 55.9184 55.584 55.7783 55.584 55.6024C55.584 55.4301 55.724 55.29 55.8964 55.29C56.0723 55.29 56.2123 55.4301 56.2123 55.6024Z" fill="#6D6D72"/>
<path d="M65.1275 47.9109C65.1275 48.0653 65.0054 48.1909 64.8474 48.1909C64.693 48.1909 64.5674 48.0653 64.5674 47.9109C64.5674 47.7565 64.693 47.6309 64.8474 47.6309C65.0054 47.6309 65.1275 47.7565 65.1275 47.9109Z" fill="#AEAEB3"/>
<path d="M67.5978 49.2039C67.5978 49.4229 67.4219 49.5988 67.2029 49.5988C66.9875 49.5988 66.8115 49.4229 66.8115 49.2039C66.8115 48.9885 66.9875 48.8125 67.2029 48.8125C67.4219 48.8125 67.5978 48.9885 67.5978 49.2039Z" fill="#AEAEB3"/>
<path d="M67.3932 51.2147C67.3932 51.3727 67.2603 51.5055 67.1023 51.5055C66.9408 51.5055 66.8115 51.3727 66.8115 51.2147C66.8115 51.0531 66.9408 50.9238 67.1023 50.9238C67.2603 50.9238 67.3932 51.0531 67.3932 51.2147Z" fill="#AEAEB3"/>
<path d="M62.6359 44.9237C62.6359 45.0997 62.4922 45.2433 62.3127 45.2433C62.1368 45.2433 61.9932 45.0997 61.9932 44.9237C61.9932 44.7442 62.1368 44.6006 62.3127 44.6006C62.4922 44.6006 62.6359 44.7442 62.6359 44.9237Z" fill="#AEAEB3"/>
<path d="M64.8474 50.9203C64.8474 51.0783 64.7217 51.204 64.5637 51.204C64.4094 51.204 64.2837 51.0783 64.2837 50.9203C64.2837 50.7659 64.4094 50.6367 64.5637 50.6367C64.7217 50.6367 64.8474 50.7659 64.8474 50.9203Z" fill="#AEAEB3"/>
<path d="M67.8417 53.7024C67.8417 53.8783 67.6981 54.0219 67.5222 54.0219C67.3462 54.0219 67.2026 53.8783 67.2026 53.7024C67.2026 53.5264 67.3462 53.3828 67.5222 53.3828C67.6981 53.3828 67.8417 53.5264 67.8417 53.7024Z" fill="#AEAEB3"/>
<path d="M60.0183 45.2937C60.0183 45.5019 59.8495 45.667 59.6449 45.667C59.4366 45.667 59.2715 45.5019 59.2715 45.2937C59.2715 45.089 59.4366 44.9238 59.6449 44.9238C59.8495 44.9238 60.0183 45.089 60.0183 45.2937Z" fill="#AEAEB3"/>
<path d="M62.3124 47.0746C62.3124 47.1644 62.1759 47.2362 62.0108 47.2362C61.842 47.2362 61.7056 47.1644 61.7056 47.0746C61.7056 46.9885 61.842 46.9131 62.0108 46.9131C62.1759 46.9131 62.3124 46.9885 62.3124 47.0746Z" fill="#AEAEB3"/>
<path d="M57.4114 42.4028C57.4114 42.5644 57.2821 42.6901 57.1241 42.6901C56.9662 42.6901 56.8369 42.5644 56.8369 42.4028C56.8369 42.2448 56.9662 42.1191 57.1241 42.1191C57.2821 42.1191 57.4114 42.2448 57.4114 42.4028Z" fill="#AEAEB3"/>
<path d="M66.524 56.0683C66.524 56.3233 66.3983 56.5315 66.2368 56.5315C66.0824 56.5315 65.9531 56.3233 65.9531 56.0683C65.9531 55.8098 66.0824 55.6016 66.2368 55.6016C66.3983 55.6016 66.524 55.8098 66.524 56.0683Z" fill="#AEAEB3"/>
<path d="M46.4644 117.721L56.9413 121.031V135.472L46.4644 131.26V117.721Z" fill="#818189"/>
<path d="M221.924 27.4707L61.5232 92.7524L46.4648 117.721L56.9418 121.031L84.1108 102.379L247.129 31.9839L221.924 27.4707Z" fill="#CACACA"/>
<path d="M56.9414 135.472L84.6023 141.626L247.128 63.7384V31.9844L84.1104 102.379L56.9414 121.031V135.472Z" fill="#909090"/>
<path d="M84.6023 140.736L84.1104 102.379L56.9414 121.031V135.472L84.6023 140.736Z" fill="#E5E5EA"/>
<path d="M61.5229 92.7524L84.1105 102.379L247.128 31.9839L221.923 27.4707L61.5229 92.7524Z" fill="#E5E5EA"/>
<path d="M88.4478 103.772C88.4478 104.123 88.1354 104.411 87.7512 104.411C87.367 104.411 87.0547 104.123 87.0547 103.772C87.0547 103.416 87.367 103.129 87.7512 103.129C88.1354 103.129 88.4478 103.416 88.4478 103.772Z" fill="#E5E5EA"/>
<path d="M93.7649 101.891C93.7649 102.16 93.528 102.379 93.2335 102.379C92.9391 102.379 92.7021 102.16 92.7021 101.891C92.7021 101.621 92.9391 101.402 93.2335 101.402C93.528 101.402 93.7649 101.621 93.7649 101.891Z" fill="#E5E5EA"/>
<path d="M89.6757 108.658C89.6757 108.971 89.3992 109.222 89.0617 109.222C88.7206 109.222 88.4478 108.971 88.4478 108.658C88.4478 108.346 88.7206 108.095 89.0617 108.095C89.3992 108.095 89.6757 108.346 89.6757 108.658Z" fill="#E5E5EA"/>
<path d="M93.2337 106.307C93.2337 106.569 93.0039 106.781 92.7239 106.781C92.4402 106.781 92.2104 106.569 92.2104 106.307C92.2104 106.048 92.4402 105.84 92.7239 105.84C93.0039 105.84 93.2337 106.048 93.2337 106.307Z" fill="#E5E5EA"/>
<path d="M91.6394 104.785C91.6394 104.993 91.4563 105.162 91.2301 105.162C91.0039 105.162 90.8208 104.993 90.8208 104.785C90.8208 104.576 91.0039 104.411 91.2301 104.411C91.4563 104.411 91.6394 104.576 91.6394 104.785Z" fill="#E5E5EA"/>
<path d="M86.6452 105.499C86.6452 105.685 86.4801 105.84 86.279 105.84C86.0743 105.84 85.9092 105.685 85.9092 105.499C85.9092 105.312 86.0743 105.161 86.279 105.161C86.4801 105.161 86.6452 105.312 86.6452 105.499Z" fill="#E5E5EA"/>
<path d="M85.6218 108.942C85.6218 109.096 85.4853 109.222 85.3166 109.222C85.1478 109.222 85.0078 109.096 85.0078 108.942C85.0078 108.784 85.1478 108.658 85.3166 108.658C85.4853 108.658 85.6218 108.784 85.6218 108.942Z" fill="#E5E5EA"/>
<path d="M86.2791 111.62C86.2791 111.864 86.0637 112.062 85.798 112.062C85.5323 112.062 85.3169 111.864 85.3169 111.62C85.3169 111.376 85.5323 111.179 85.798 111.179C86.0637 111.179 86.2791 111.376 86.2791 111.62Z" fill="#E5E5EA"/>
<path d="M92.5444 112.037C92.5444 112.266 92.3398 112.453 92.0921 112.453C91.8407 112.453 91.6396 112.266 91.6396 112.037C91.6396 111.807 91.8407 111.62 92.0921 111.62C92.3398 111.62 92.5444 111.807 92.5444 112.037Z" fill="#E5E5EA"/>
<path d="M99.535 99.3873C99.535 99.6494 99.3052 99.8577 99.0252 99.8577C98.7415 99.8577 98.5117 99.6494 98.5117 99.3873C98.5117 99.1288 98.7415 98.917 99.0252 98.917C99.3052 98.917 99.535 99.1288 99.535 99.3873Z" fill="#E5E5EA"/>
<path d="M107.513 96.0986C107.513 96.3679 107.276 96.5869 106.982 96.5869C106.687 96.5869 106.45 96.3679 106.45 96.0986C106.45 95.8294 106.687 95.6104 106.982 95.6104C107.276 95.6104 107.513 95.8294 107.513 96.0986Z" fill="#E5E5EA"/>
<path d="M87.9954 117.099C87.9954 117.339 87.7871 117.533 87.525 117.533C87.2665 117.533 87.0547 117.339 87.0547 117.099C87.0547 116.862 87.2665 116.668 87.525 116.668C87.7871 116.668 87.9954 116.862 87.9954 117.099Z" fill="#E5E5EA"/>
<path d="M84.1104 102.379L84.6023 141.626L56.9414 135.472C73.1164 133.691 82.1716 122.661 84.1104 102.379Z" fill="#BABABF"/>
<path d="M69.5615 136.302L80.0385 139.612V154.053L69.5615 149.841V136.302Z" fill="#818189"/>
<path d="M245.02 46.0518L84.6199 111.334L69.5615 136.302L80.0385 139.612L107.208 120.96L270.225 50.5649L245.02 46.0518Z" fill="#CACACA"/>
<path d="M80.0386 154.053L107.699 160.211L270.225 82.3195V50.5654L107.208 120.96L80.0386 139.612V154.053Z" fill="#909090"/>
<path opacity="0.671" d="M270.226 82.3195V50.5654C268.685 52.1057 174.942 123.761 127.182 150.876L270.226 82.3195Z" fill="#9C9CA0"/>
<path d="M107.699 159.317L107.208 120.96L80.0386 139.612V154.053L107.699 159.317Z" fill="#E5E5EA"/>
<path d="M84.6201 111.334L107.208 120.96L270.225 50.5649L245.02 46.0518L84.6201 111.334Z" fill="#E5E5EA"/>
<path d="M111.545 122.353C111.545 122.705 111.233 122.992 110.849 122.992C110.465 122.992 110.156 122.705 110.156 122.353C110.156 122.001 110.465 121.714 110.849 121.714C111.233 121.714 111.545 122.001 111.545 122.353Z" fill="#E5E5EA"/>
<path d="M116.863 120.472C116.863 120.745 116.626 120.96 116.331 120.96C116.037 120.96 115.8 120.745 115.8 120.472C115.8 120.202 116.037 119.983 116.331 119.983C116.626 119.983 116.863 120.202 116.863 120.472Z" fill="#E5E5EA"/>
<path d="M112.773 127.243C112.773 127.552 112.496 127.807 112.159 127.807C111.821 127.807 111.545 127.552 111.545 127.243C111.545 126.931 111.821 126.68 112.159 126.68C112.496 126.68 112.773 126.931 112.773 127.243Z" fill="#E5E5EA"/>
<path d="M116.331 124.891C116.331 125.15 116.102 125.362 115.822 125.362C115.538 125.362 115.308 125.15 115.308 124.891C115.308 124.633 115.538 124.421 115.822 124.421C116.102 124.421 116.331 124.633 116.331 124.891Z" fill="#E5E5EA"/>
<path d="M114.737 123.369C114.737 123.577 114.554 123.743 114.328 123.743C114.102 123.743 113.918 123.577 113.918 123.369C113.918 123.161 114.102 122.992 114.328 122.992C114.554 122.992 114.737 123.161 114.737 123.369Z" fill="#E5E5EA"/>
<path d="M109.742 124.083C109.742 124.27 109.581 124.421 109.376 124.421C109.172 124.421 109.006 124.27 109.006 124.083C109.006 123.897 109.172 123.742 109.376 123.742C109.581 123.742 109.742 123.897 109.742 124.083Z" fill="#E5E5EA"/>
<path d="M108.723 127.523C108.723 127.678 108.583 127.807 108.414 127.807C108.245 127.807 108.109 127.678 108.109 127.523C108.109 127.369 108.245 127.243 108.414 127.243C108.583 127.243 108.723 127.369 108.723 127.523Z" fill="#E5E5EA"/>
<path d="M109.376 130.201C109.376 130.446 109.161 130.643 108.895 130.643C108.629 130.643 108.414 130.446 108.414 130.201C108.414 129.957 108.629 129.76 108.895 129.76C109.161 129.76 109.376 129.957 109.376 130.201Z" fill="#E5E5EA"/>
<path d="M115.642 130.619C115.642 130.848 115.441 131.035 115.189 131.035C114.938 131.035 114.737 130.848 114.737 130.619C114.737 130.389 114.938 130.202 115.189 130.202C115.441 130.202 115.642 130.389 115.642 130.619Z" fill="#E5E5EA"/>
<path d="M122.632 117.972C122.632 118.231 122.406 118.443 122.122 118.443C121.839 118.443 121.609 118.231 121.609 117.972C121.609 117.71 121.839 117.502 122.122 117.502C122.406 117.502 122.632 117.71 122.632 117.972Z" fill="#E5E5EA"/>
<path d="M130.614 114.68C130.614 114.949 130.373 115.172 130.079 115.172C129.788 115.172 129.547 114.949 129.547 114.68C129.547 114.41 129.788 114.191 130.079 114.191C130.373 114.191 130.614 114.41 130.614 114.68Z" fill="#E5E5EA"/>
<path d="M111.096 135.684C111.096 135.921 110.885 136.115 110.626 136.115C110.364 136.115 110.156 135.921 110.156 135.684C110.156 135.444 110.364 135.25 110.626 135.25C110.885 135.25 111.096 135.444 111.096 135.684Z" fill="#E5E5EA"/>
<path d="M107.208 120.96L107.699 160.211L80.0386 154.053C96.2136 152.272 105.269 141.242 107.208 120.96Z" fill="#BABABF"/>
<path d="M56.2844 96.0264L66.6429 99.4732L66.1618 113.153L55.832 108.848L56.2844 96.0264Z" fill="#818189"/>
<path d="M234.673 15.7764L72.172 72.8252L56.2842 96.0268L66.6427 99.4736L94.4257 82.6164L259.713 20.803L234.673 15.7764Z" fill="#CACACA"/>
<path d="M66.1616 113.153L93.5999 119.81L258.65 50.88L259.713 20.8027L94.4257 82.6161L66.6427 99.4733L66.1616 113.153Z" fill="#909090"/>
<path d="M93.6287 118.966L94.4257 82.6162L66.6427 99.4734L66.1616 113.153L93.6287 118.966Z" fill="#E5E5EA"/>
<path d="M72.1724 72.8252L94.426 82.6164L259.713 20.803L234.673 15.7764L72.1724 72.8252Z" fill="#A7A7AF"/>
<path d="M98.7128 84.0635C98.702 84.401 98.3788 84.6596 97.9947 84.6488C97.6105 84.638 97.3089 84.358 97.3232 84.024C97.334 83.6901 97.6536 83.428 98.0378 83.4388C98.4219 83.4496 98.7235 83.7296 98.7128 84.0635Z" fill="#E5E5EA"/>
<path d="M104.091 82.4442C104.084 82.6991 103.837 82.8966 103.546 82.8894C103.251 82.8822 103.018 82.6668 103.029 82.4119C103.036 82.157 103.284 81.9559 103.578 81.9631C103.869 81.9738 104.102 82.1857 104.091 82.4442Z" fill="#E5E5EA"/>
<path d="M99.7756 88.7314C99.7649 89.0294 99.4812 89.2591 99.1437 89.2484C98.8026 89.2376 98.5369 88.9899 98.5477 88.6955C98.5585 88.401 98.8421 88.1712 99.1796 88.182C99.5207 88.1892 99.7864 88.4369 99.7756 88.7314Z" fill="#E5E5EA"/>
<path d="M103.413 86.6124C103.402 86.8565 103.168 87.0504 102.885 87.0432C102.601 87.0324 102.382 86.8278 102.389 86.5801C102.4 86.3359 102.633 86.142 102.917 86.1528C103.197 86.16 103.42 86.3646 103.413 86.6124Z" fill="#E5E5EA"/>
<path d="M101.869 85.123C101.862 85.3205 101.672 85.4749 101.445 85.4677C101.223 85.4605 101.043 85.2954 101.051 85.0979C101.058 84.9004 101.248 84.746 101.471 84.7532C101.697 84.7604 101.876 84.9255 101.869 85.123Z" fill="#E5E5EA"/>
<path d="M96.8533 85.6504C96.8497 85.8263 96.6774 85.9664 96.4763 85.9592C96.2716 85.952 96.1137 85.8048 96.1208 85.6288C96.1244 85.4493 96.2968 85.3129 96.4978 85.3165C96.7025 85.3237 96.8605 85.4744 96.8533 85.6504Z" fill="#E5E5EA"/>
<path d="M95.7187 88.8781C95.7116 89.0253 95.5715 89.1402 95.4028 89.1366C95.2304 89.133 95.0976 89.0074 95.1048 88.8601C95.1084 88.7129 95.252 88.5981 95.4207 88.6016C95.5895 88.6052 95.7223 88.7309 95.7187 88.8781Z" fill="#E5E5EA"/>
<path d="M96.2822 91.435C96.2751 91.6684 96.0525 91.8479 95.7868 91.8407C95.5211 91.8335 95.3128 91.6396 95.32 91.4062C95.3308 91.1765 95.5498 90.9969 95.8155 91.0041C96.0812 91.0113 96.2894 91.2052 96.2822 91.435Z" fill="#E5E5EA"/>
<path d="M102.529 92.0166C102.522 92.2356 102.314 92.4043 102.063 92.3971C101.815 92.3899 101.618 92.2068 101.625 91.9914C101.632 91.7724 101.84 91.6001 102.091 91.6108C102.343 91.618 102.537 91.8011 102.529 92.0166Z" fill="#E5E5EA"/>
<path d="M109.94 80.2471C109.933 80.4913 109.696 80.6851 109.416 80.6744C109.133 80.6672 108.91 80.4626 108.921 80.2148C108.928 79.9707 109.165 79.7768 109.445 79.7875C109.729 79.7947 109.951 79.9994 109.94 80.2471Z" fill="#E5E5EA"/>
<path d="M118.026 77.3676C118.019 77.6225 117.771 77.8236 117.481 77.8164C117.186 77.8056 116.956 77.5902 116.964 77.3353C116.974 77.0804 117.218 76.8793 117.513 76.8901C117.807 76.8972 118.037 77.1127 118.026 77.3676Z" fill="#E5E5EA"/>
<path d="M97.8154 96.6762C97.8082 96.906 97.5892 97.0819 97.3307 97.0747C97.0722 97.0675 96.8675 96.8772 96.8747 96.651C96.8819 96.4248 97.1009 96.2489 97.3594 96.2561C97.6215 96.2633 97.8226 96.4536 97.8154 96.6762Z" fill="#E5E5EA"/>
<path d="M94.4257 82.6162L93.5999 119.81L66.1616 113.153C82.3869 111.95 91.8083 101.771 94.4257 82.6162Z" fill="#BABABF"/>
<path d="M93.5996 119.81L258.65 50.88L259.712 20.8027L257.849 49.8496L93.5996 119.81Z" fill="#9FA2A3"/>
<path d="M270.225 50.5645V82.3185L107.699 160.21L80.0386 154.052L107.699 159.316L269.303 81.7764L270.225 50.5645Z" fill="#9FA2A3"/>
<g style="mix-blend-mode:multiply" opacity="0.09">
<path d="M99.0894 117.501L107.207 120.959L107.699 159.316L270.225 82.3185V50.5645L258.649 50.8804L99.0894 117.501Z" fill="#AAA59B"/>
</g>
</g>
</svg>
