<svg width="102" height="72" viewBox="0 0 102 72" fill="none" xmlns="http://www.w3.org/2000/svg">
<g clip-path="url(#clip0)">
<path d="M30.0389 47.7644C29.0388 48.4313 27.7052 48.7649 26.1049 48.7649C24.2378 48.7649 22.7708 48.2979 21.6373 47.4308C20.5037 46.5636 19.9035 45.4294 19.8369 44.0284H16.1694C16.1694 46.4968 17.103 48.4313 18.97 49.8323C20.8371 51.2333 23.1709 51.9002 26.2382 51.9002C27.9052 51.9002 29.4389 51.6335 30.8392 51.0331C32.2396 50.4327 33.3065 49.6321 34.1065 48.5647C34.9067 47.4973 35.3067 46.2966 35.3067 44.8959C35.3067 43.2946 34.9067 42.0273 34.1065 41.0933C33.3065 40.1593 32.2396 39.4921 30.9725 39.092C29.6389 38.6918 27.9719 38.3582 25.9715 38.0914C24.5045 37.8912 23.4376 37.7578 22.7708 37.6244C22.104 37.491 21.5039 37.1574 21.0371 36.7573C20.5704 36.3568 20.3703 35.7564 20.3703 34.9558C20.3703 33.8887 20.8371 33.0213 21.8373 32.4209C22.8375 31.8205 24.0378 31.4204 25.6381 31.4204C27.1718 31.4204 28.4387 31.8205 29.4389 32.6211C30.4392 33.4218 31.0393 34.4223 31.1727 35.6231H34.8399C34.6401 33.2884 33.7065 31.4869 32.0394 30.2196C30.3724 28.952 28.172 28.3517 25.4381 28.3517C23.771 28.3517 22.304 28.6185 20.9705 29.2188C19.6368 29.8192 18.5699 30.6198 17.8364 31.6872C17.103 32.7545 16.7029 33.9553 16.7029 35.2895C16.7029 36.8238 17.103 37.958 17.9031 38.8252C18.7033 39.6924 19.7035 40.2927 20.9705 40.6929C22.2374 41.0933 23.8377 41.427 25.8381 41.6269C27.2384 41.8271 28.372 41.9605 29.1055 42.1607C29.8391 42.3607 30.5057 42.6943 30.9725 43.1613C31.4393 43.6283 31.706 44.362 31.706 45.2292C31.5726 46.2966 31.0393 47.164 30.0389 47.7644Z" fill="#1D211F"/>
<path d="M41.5748 20.0797H37.9072V51.6335H41.5748V20.0797Z" fill="#1D211F"/>
<path d="M63.9796 51.6335V36.6905C63.9796 34.0222 63.1797 31.954 61.5792 30.5533C59.9789 29.1523 57.7118 28.4185 54.7777 28.4185C52.0438 28.4185 49.7766 29.0189 48.043 30.2862C46.3092 31.5538 45.3091 33.2881 45.0424 35.5563H48.71C48.9766 34.3555 49.5768 33.4218 50.6437 32.7546C51.7106 32.0208 52.9773 31.6872 54.5779 31.6872C56.3782 31.6872 57.7783 32.0874 58.7787 32.9548C59.7788 33.822 60.3124 34.9559 60.3124 36.4903V38.0247H53.5109C50.5103 38.0247 48.2432 38.625 46.6427 39.8926C45.0424 41.0934 44.2422 42.8945 44.2422 45.2292C44.2422 47.2974 45.0424 48.9652 46.5762 50.166C48.1099 51.3667 50.1769 51.9671 52.7107 51.9671C56.0447 51.9671 58.6454 50.6995 60.4457 48.1646V51.7003H63.9796V51.6335ZM60.2456 42.2942C60.2456 44.2287 59.5789 45.8296 58.3119 47.0304C57.0449 48.2311 55.2445 48.8315 52.9773 48.8315C51.4436 48.8315 50.2434 48.4982 49.3101 47.7644C48.3765 47.0972 47.9762 46.1632 47.9762 45.0293C47.9762 42.4941 49.7101 41.2268 53.1107 41.2268H60.2456V42.2942Z" fill="#1D211F"/>
<path d="M100.788 40.8931C100.854 40.1593 100.854 39.6258 100.854 39.2922C100.788 37.0906 100.321 35.1561 99.3874 33.4883C98.4538 31.8205 97.187 30.5532 95.5865 29.6858C93.9863 28.8186 92.1191 28.3517 89.9853 28.3517C87.8515 28.3517 85.9846 28.8186 84.3176 29.8192C82.6505 30.82 81.3835 32.1541 80.4499 33.9553C79.5166 35.7564 79.0498 37.7578 79.0498 40.1593C79.0498 42.4943 79.5166 44.4954 80.4499 46.2966C81.3835 48.0977 82.717 49.4987 84.4509 50.4327C86.1844 51.3667 88.1849 51.9002 90.4521 51.9002C93.0527 51.9002 95.253 51.1665 97.0534 49.6989C98.8538 48.2314 99.9875 46.2966 100.454 43.9619H96.7202C96.32 45.4294 95.5865 46.5636 94.3863 47.4308C93.186 48.2979 91.8525 48.6981 90.1854 48.6981C88.0516 48.6981 86.3181 48.0312 84.9842 46.697C83.6506 45.3629 82.984 43.5614 82.9172 41.2933V40.96H100.788V40.8931ZM85.451 33.3549C86.7846 32.221 88.3183 31.6206 90.0521 31.6206C91.9858 31.6206 93.6528 32.1541 94.9199 33.2215C96.1866 34.2889 96.9201 35.8233 97.1202 37.7578H83.2506C83.384 35.9567 84.1174 34.4891 85.451 33.3549Z" fill="#1D211F"/>
<path d="M72.6482 45.8296V32.0208H78.5161V28.6186H72.6482V22.1477H68.9807V28.6186H64.8467V32.0208H68.9807V45.8296C68.9807 49.0317 71.5813 51.7003 74.8486 51.7003H79.2495V48.0312H74.8486C73.5818 47.9643 72.6482 47.0306 72.6482 45.8296Z" fill="#1D211F"/>
<path d="M68.9806 65.8427C68.9806 67.0435 67.9805 67.9775 66.8468 67.9775H6.83421C5.63397 67.9775 4.70044 66.9766 4.70044 65.8427V5.80377C4.63375 4.6697 5.63397 3.66905 6.83421 3.66905H66.8468C68.0473 3.66905 68.9806 4.6697 68.9806 5.80377V15.4767H72.6481V5.87047C72.6481 2.6684 70.0475 0 66.7802 0H6.76755C3.56686 0 0.966309 2.60169 0.966309 5.87047V65.9093C0.966309 69.1114 3.56686 71.78 6.83421 71.78H66.8468C70.0475 71.78 72.7149 69.1782 72.7149 65.9093V58.3045H68.9806V65.8427Z" fill="#1D211F"/>
</g>
<defs>
<clipPath id="clip0">
<rect width="100.068" height="72" fill="white" transform="translate(0.966309)"/>
</clipPath>
</defs>
</svg>
