<svg width="21" height="21" viewBox="0 0 21 21" fill="none" xmlns="http://www.w3.org/2000/svg">
<path d="M13 0.999683C11.363 1.00101 9.77824 1.576 8.52127 2.62469C7.26431 3.67338 6.41463 5.12944 6.11997 6.73968C5.2584 7.2045 4.52365 7.87308 3.97981 8.68708C3.43598 9.50109 3.09958 10.4358 2.99997 11.4097C2.25572 11.7371 1.60253 12.241 1.09701 12.8778C0.591503 13.5147 0.248922 14.2652 0.0989613 15.0643C-0.0509992 15.8634 -0.00381364 16.6871 0.236428 17.4638C0.47667 18.2406 0.902719 18.9471 1.47765 19.522C2.05258 20.0969 2.75905 20.523 3.53582 20.7632C4.31259 21.0035 5.13624 21.0507 5.93536 20.9007C6.73449 20.7507 7.48499 20.4082 8.12182 19.9026C8.75865 19.3971 9.26259 18.7439 9.58997 17.9997C10.561 17.9032 11.4938 17.5713 12.3076 17.0329C13.1213 16.4944 13.7915 15.7657 14.26 14.9097C16.0109 14.6288 17.5899 13.6939 18.6782 12.2937C19.7664 10.8936 20.2827 9.13263 20.1227 7.36656C19.9627 5.60049 19.1384 3.96095 17.8163 2.77915C16.4942 1.59734 14.7729 0.961365 13 0.999683ZM7.99997 16.4297C7.99997 16.5297 7.99997 16.6297 7.92997 16.7397C7.8008 17.2544 7.53742 17.7256 7.1667 18.1053C6.79597 18.485 6.33117 18.7595 5.8197 18.901C5.30823 19.0424 4.7684 19.0456 4.25528 18.9103C3.74216 18.775 3.27411 18.506 2.89888 18.1308C2.52365 17.7555 2.25466 17.2875 2.11935 16.7744C1.98405 16.2613 1.98727 15.7214 2.12869 15.21C2.27011 14.6985 2.54467 14.2337 2.92436 13.863C3.30404 13.4922 3.77527 13.2289 4.28997 13.0997L4.56997 12.9997C5.03955 12.9119 5.52344 12.9399 5.97976 13.0813C6.43608 13.2226 6.8511 13.473 7.18889 13.8108C7.52667 14.1486 7.77707 14.5636 7.91839 15.0199C8.05971 15.4762 8.08772 15.9601 7.99997 16.4297ZM13 12.7597C12.9868 12.8239 12.9701 12.8873 12.95 12.9497C12.907 13.1337 12.8502 13.3142 12.78 13.4897C12.5497 14.0735 12.1854 14.5949 11.7163 15.0118C11.2473 15.4288 10.6867 15.7295 10.08 15.8897C10.08 15.7097 10.08 15.5397 10.02 15.3597C9.95997 15.1797 10.02 15.0897 10.02 14.9597C10.02 14.8297 9.89997 14.5797 9.83997 14.3897C9.77997 14.1997 9.76997 14.1497 9.71997 14.0297C9.63377 13.8392 9.53349 13.6553 9.41997 13.4797C9.41997 13.3897 9.32997 13.2897 9.26997 13.1997C9.0921 12.939 8.89131 12.6947 8.66997 12.4697L8.46997 12.2997C8.30234 12.1456 8.12534 12.0019 7.93997 11.8697C7.83102 11.7988 7.71743 11.7353 7.59997 11.6797C7.43992 11.5779 7.27283 11.4877 7.09997 11.4097C6.97081 11.3544 6.83694 11.3109 6.69997 11.2797C6.53161 11.2114 6.35762 11.1578 6.17997 11.1197C6.03997 11.1197 5.88997 11.1197 5.73997 11.0597L5.12997 10.9997C5.28916 10.394 5.58835 9.83406 6.00347 9.3651C6.41859 8.89613 6.93803 8.5312 7.51997 8.29968C7.69148 8.22806 7.86879 8.17118 8.04997 8.12968L8.24997 8.07968C8.49663 8.02781 8.74791 8.00101 8.99997 7.99968C10.0608 7.99968 11.0783 8.42111 11.8284 9.17126C12.5785 9.9214 13 10.9388 13 11.9997C12.9986 12.255 12.9718 12.5096 12.92 12.7597H13ZM15 12.5997C15 12.3997 15 12.1997 15 11.9997C15 10.4084 14.3678 8.88226 13.2426 7.75704C12.1174 6.63182 10.5913 5.99968 8.99997 5.99968C8.79997 5.99968 8.59997 5.99968 8.39997 5.99968C8.72959 5.25823 9.23471 4.60814 9.87172 4.10553C10.5087 3.60292 11.2585 3.2629 12.0563 3.1148C12.8541 2.96671 13.6759 3.01501 14.4509 3.25552C15.2258 3.49603 15.9306 3.92153 16.5044 4.49529C17.0781 5.06905 17.5036 5.77383 17.7441 6.54878C17.9846 7.32374 18.0329 8.14558 17.8848 8.94337C17.7368 9.74116 17.3967 10.4909 16.8941 11.1279C16.3915 11.7649 15.7414 12.2701 15 12.5997Z" fill="#BDBDBD"/>
</svg>
