<svg width="21" height="19" viewBox="0 0 21 19" fill="none" xmlns="http://www.w3.org/2000/svg">
<path d="M0 15.2V12.54C0 12.0017 0.1387 11.5067 0.4161 11.0552C0.692867 10.6042 1.06083 10.26 1.52 10.0225C2.50167 9.53167 3.49917 9.16338 4.5125 8.91765C5.52583 8.67255 6.555 8.55 7.6 8.55C8.3125 8.55 9.01708 8.60542 9.71375 8.71625C10.4104 8.82708 11.1071 9.00125 11.8038 9.23875C11.5346 9.46042 11.2892 9.70172 11.0675 9.96265C10.8458 10.2242 10.6479 10.5054 10.4737 10.8062C9.99875 10.6796 9.52375 10.5884 9.04875 10.5326C8.57375 10.4775 8.09083 10.45 7.6 10.45C6.71333 10.45 5.83458 10.5567 4.96375 10.7702C4.09292 10.9842 3.23 11.305 2.375 11.7325C2.2325 11.8117 2.11787 11.9225 2.0311 12.065C1.9437 12.2075 1.9 12.3658 1.9 12.54V13.3H9.57125C9.53958 13.6167 9.52375 13.9333 9.52375 14.25C9.52375 14.5667 9.53958 14.8833 9.57125 15.2H0ZM7.6 7.6C6.555 7.6 5.66042 7.22792 4.91625 6.48375C4.17208 5.73958 3.8 4.845 3.8 3.8C3.8 2.755 4.17208 1.86042 4.91625 1.11625C5.66042 0.372083 6.555 0 7.6 0C8.645 0 9.53958 0.372083 10.2837 1.11625C11.0279 1.86042 11.4 2.755 11.4 3.8C11.4 4.845 11.0279 5.73958 10.2837 6.48375C9.53958 7.22792 8.645 7.6 7.6 7.6ZM7.6 5.7C8.1225 5.7 8.56995 5.5138 8.94235 5.1414C9.31412 4.76963 9.5 4.3225 9.5 3.8C9.5 3.2775 9.31412 2.83005 8.94235 2.45765C8.56995 2.08588 8.1225 1.9 7.6 1.9C7.0775 1.9 6.63037 2.08588 6.2586 2.45765C5.8862 2.83005 5.7 3.2775 5.7 3.8C5.7 4.3225 5.8862 4.76963 6.2586 5.1414C6.63037 5.5138 7.0775 5.7 7.6 5.7ZM17.1 3.8C17.1 4.845 16.7279 5.73958 15.9838 6.48375C15.2396 7.22792 14.345 7.6 13.3 7.6C13.1258 7.6 12.9042 7.58037 12.635 7.5411C12.3658 7.5012 12.1442 7.4575 11.97 7.41C12.3975 6.90333 12.7259 6.34125 12.9551 5.72375C13.1851 5.10625 13.3 4.465 13.3 3.8C13.3 3.135 13.1851 2.49375 12.9551 1.87625C12.7259 1.25875 12.3975 0.696667 11.97 0.19C12.1917 0.110833 12.4133 0.0592167 12.635 0.03515C12.8567 0.0117167 13.0783 0 13.3 0C14.345 0 15.2396 0.372083 15.9838 1.11625C16.7279 1.86042 17.1 2.755 17.1 3.8ZM16.15 19C14.8358 19 13.7158 18.537 12.7899 17.6111C11.8633 16.6845 11.4 15.5642 11.4 14.25C11.4 12.92 11.8633 11.7958 12.7899 10.8775C13.7158 9.95917 14.8358 9.5 16.15 9.5C17.48 9.5 18.6042 9.95917 19.5225 10.8775C20.4408 11.7958 20.9 12.92 20.9 14.25C20.9 15.5642 20.4408 16.6845 19.5225 17.6111C18.6042 18.537 17.48 19 16.15 19ZM15.485 16.3875L18.8337 13.015L18.1687 12.35L15.485 15.0337L14.1312 13.68L13.4662 14.3687L15.485 16.3875Z" fill="#BDBDBD"/>
</svg>
