<svg width="38" height="39" viewBox="0 0 38 39" fill="none" xmlns="http://www.w3.org/2000/svg">
    <path d="M22.556 14.3331H21.556C21.556 14.8854 22.0037 15.3331 22.556 15.3331V14.3331ZM22.556 7.22201H23.556H22.556ZM17.2227 1.88867V0.888672C16.8275 0.888672 16.4693 1.12141 16.3088 1.48253L17.2227 1.88867ZM10.1115 17.8887L9.19773 17.4825C9.14091 17.6104 9.11155 17.7488 9.11155 17.8887H10.1115ZM10.1115 37.4442H9.11155C9.11155 37.9965 9.55926 38.4442 10.1115 38.4442V37.4442ZM30.1649 37.4442L30.1762 36.4442H30.1649V37.4442ZM33.7204 34.422L32.732 34.2704L32.7317 34.2721L33.7204 34.422ZM36.1738 18.422L37.1622 18.5736L37.1624 18.5721L36.1738 18.422ZM32.6182 14.3331V15.3332L32.6295 15.3331L32.6182 14.3331ZM10.1115 37.4442V38.4442C10.6638 38.4442 11.1115 37.9965 11.1115 37.4442H10.1115ZM10.1115 17.8887H11.1115C11.1115 17.3364 10.6638 16.8887 10.1115 16.8887V17.8887ZM23.556 14.3331V7.22201H21.556V14.3331H23.556ZM23.556 7.22201C23.556 3.7242 20.7205 0.888672 17.2227 0.888672V2.88867C19.6159 2.88867 21.556 4.82877 21.556 7.22201H23.556ZM16.3088 1.48253L9.19773 17.4825L11.0254 18.2948L18.1365 2.29481L16.3088 1.48253ZM9.11155 17.8887V37.4442H11.1115V17.8887H9.11155ZM10.1115 38.4442H30.1649V36.4442H10.1115V38.4442ZM30.1536 38.4442C32.4252 38.4698 34.3685 36.818 34.7091 34.5719L32.7317 34.2721C32.5407 35.5321 31.4505 36.4587 30.1762 36.4443L30.1536 38.4442ZM34.7089 34.5736L37.1622 18.5736L35.1853 18.2704L32.732 34.2704L34.7089 34.5736ZM37.1624 18.5721C37.363 17.2506 36.9732 15.9078 36.0961 14.8992L34.5869 16.2115C35.0789 16.7773 35.2976 17.5306 35.1851 18.2719L37.1624 18.5721ZM36.0961 14.8992C35.2191 13.8906 33.9434 13.318 32.6069 13.3332L32.6295 15.3331C33.3793 15.3246 34.0949 15.6458 34.5869 16.2115L36.0961 14.8992ZM32.6182 13.3331H22.556V15.3331H32.6182V13.3331ZM10.1115 36.4442H4.77821V38.4442H10.1115V36.4442ZM4.77821 36.4442C3.36682 36.4442 2.22266 35.3001 2.22266 33.8887H0.222656C0.222656 36.4046 2.26225 38.4442 4.77821 38.4442V36.4442ZM2.22266 33.8887V21.4442H0.222656V33.8887H2.22266ZM2.22266 21.4442C2.22266 20.0328 3.36682 18.8887 4.77821 18.8887V16.8887C2.26225 16.8887 0.222656 18.9283 0.222656 21.4442H2.22266ZM4.77821 18.8887H10.1115V16.8887H4.77821V18.8887ZM9.11155 17.8887V37.4442H11.1115V17.8887H9.11155Z" fill="#666666"/>
    </svg>
    