<svg xmlns="http://www.w3.org/2000/svg" viewBox="0 0 750 500"><g id="freepik--background-complete--inject-15"><path d="M690.27,149H580.8s10.85-29.65,27.56-29.65,21.93,20.46,21.93,20.46,11.27-11.11,20.53-11.11,17.31,14.69,17.31,14.69S681.21,135.45,690.27,149Z" style="fill:#ebebeb"></path><path d="M597.89,103.13H546.74s11.43-16.56,20.43-16.56,11.67,11,11.67,11,6.36-5.15,12.25-4.23S597.89,103.13,597.89,103.13Z" style="fill:#ebebeb"></path><path d="M359.73,154.53H260.09s13.65-30.47,28.24-32.37,21.58,22.63,21.58,22.63,9.42-8.67,16.82-8.67,13.12,11.42,13.12,11.42S354.66,139.72,359.73,154.53Z" style="fill:#ebebeb"></path><path d="M127.05,77.62H59.73S71.3,55.55,83.84,55.23,103,71.93,103,71.93,122.49,56.27,127.05,77.62Z" style="fill:#ebebeb"></path><path d="M450.15,186.27H404.72s7.81-14.9,16.27-15.12,12.92,11.28,12.92,11.28S447.08,171.86,450.15,186.27Z" style="fill:#ebebeb"></path><path d="M173.63,101.13H128.2S136,86.23,144.47,86s12.92,11.28,12.92,11.28S170.56,86.72,173.63,101.13Z" style="fill:#ebebeb"></path><rect x="140.88" y="121.89" width="55.5" height="210.48" transform="translate(337.27 454.26) rotate(180)" style="fill:#ebebeb"></rect><rect x="140.88" y="107.93" width="47.6" height="13.96" transform="translate(329.37 229.81) rotate(180)" style="fill:#c7c7c7"></rect><rect x="146.97" y="129.17" width="43.33" height="157.35" transform="translate(337.27 415.69) rotate(180)" style="fill:#dbdbdb"></rect><rect x="146.97" y="144.19" width="43.33" height="3.72" transform="translate(337.27 292.1) rotate(180)" style="fill:#fff"></rect><rect x="146.97" y="159.59" width="43.33" height="3.72" transform="translate(337.27 322.9) rotate(180)" style="fill:#fff"></rect><rect x="146.97" y="174.99" width="43.33" height="3.72" transform="translate(337.27 353.7) rotate(180)" style="fill:#fff"></rect><rect x="146.97" y="190.39" width="43.33" height="3.72" transform="translate(337.27 384.51) rotate(180)" style="fill:#fff"></rect><rect x="146.97" y="205.8" width="43.33" height="3.72" transform="translate(337.27 415.31) rotate(180)" style="fill:#fff"></rect><rect x="146.97" y="221.2" width="43.33" height="3.72" transform="translate(337.27 446.11) rotate(180)" style="fill:#fff"></rect><rect x="146.97" y="236.6" width="43.33" height="3.72" transform="translate(337.27 476.92) rotate(180)" style="fill:#fff"></rect><rect x="146.97" y="252" width="43.33" height="3.72" transform="translate(337.27 507.72) rotate(180)" style="fill:#fff"></rect><rect x="146.97" y="267.4" width="43.33" height="3.72" transform="translate(337.27 538.52) rotate(180)" style="fill:#fff"></rect><rect x="146.97" y="282.8" width="43.33" height="3.72" transform="translate(337.27 569.32) rotate(180)" style="fill:#fff"></rect><rect x="106.12" y="121.89" width="34.76" height="210.48" transform="translate(247.01 454.26) rotate(180)" style="fill:#dbdbdb"></rect><rect x="111.34" y="107.93" width="29.55" height="13.96" transform="translate(252.22 229.81) rotate(180)" style="fill:#a6a6a6"></rect><rect x="109.36" y="129.17" width="26.73" height="157.35" transform="translate(245.46 415.69) rotate(180)" style="fill:#c7c7c7"></rect><rect x="109.36" y="144.19" width="26.73" height="3.72" transform="translate(245.46 292.1) rotate(180)" style="fill:#fff"></rect><rect x="109.36" y="159.59" width="26.73" height="3.72" transform="translate(245.46 322.9) rotate(180)" style="fill:#fff"></rect><rect x="109.36" y="174.99" width="26.73" height="3.72" transform="translate(245.46 353.7) rotate(180)" style="fill:#fff"></rect><rect x="109.36" y="190.39" width="26.73" height="3.72" transform="translate(245.46 384.51) rotate(180)" style="fill:#fff"></rect><rect x="109.36" y="205.8" width="26.73" height="3.72" transform="translate(245.46 415.31) rotate(180)" style="fill:#fff"></rect><rect x="109.36" y="221.2" width="26.73" height="3.72" transform="translate(245.46 446.11) rotate(180)" style="fill:#fff"></rect><rect x="109.36" y="236.6" width="26.73" height="3.72" transform="translate(245.46 476.92) rotate(180)" style="fill:#fff"></rect><rect x="109.36" y="252" width="26.73" height="3.72" transform="translate(245.46 507.72) rotate(180)" style="fill:#fff"></rect><rect x="109.36" y="267.4" width="26.73" height="3.72" transform="translate(245.46 538.52) rotate(180)" style="fill:#fff"></rect><rect x="109.36" y="282.8" width="26.73" height="3.72" transform="translate(245.46 569.32) rotate(180)" style="fill:#fff"></rect><rect x="506.33" y="69.4" width="51.22" height="262.97" style="fill:#ebebeb"></rect><rect x="506.33" y="64.16" width="52.45" height="5.24" transform="translate(1065.1 133.57) rotate(180)" style="fill:#c7c7c7"></rect><rect x="547.72" y="77.12" width="5.19" height="255.25" style="fill:#fff"></rect><rect x="538.53" y="77.12" width="5.19" height="255.25" style="fill:#fff"></rect><rect x="529.34" y="77.12" width="5.19" height="255.25" style="fill:#fff"></rect><rect x="520.15" y="77.12" width="5.19" height="255.25" style="fill:#fff"></rect><rect x="510.96" y="77.12" width="5.19" height="255.25" style="fill:#fff"></rect><rect x="547.72" y="83.74" width="5.19" height="10.34" transform="translate(1100.63 177.81) rotate(180)" style="fill:#ebebeb"></rect><rect x="538.53" y="83.74" width="5.19" height="10.34" transform="translate(1082.25 177.81) rotate(180)" style="fill:#ebebeb"></rect><rect x="529.34" y="83.74" width="5.19" height="10.34" transform="translate(1063.87 177.81) rotate(180)" style="fill:#ebebeb"></rect><rect x="520.15" y="83.74" width="5.19" height="10.34" transform="translate(1045.48 177.81) rotate(180)" style="fill:#ebebeb"></rect><rect x="510.96" y="83.74" width="5.19" height="10.34" transform="translate(1027.1 177.81) rotate(180)" style="fill:#ebebeb"></rect><rect x="547.72" y="100.54" width="5.19" height="10.34" transform="translate(1100.63 211.41) rotate(180)" style="fill:#ebebeb"></rect><rect x="538.53" y="100.54" width="5.19" height="10.34" transform="translate(1082.25 211.41) rotate(180)" style="fill:#ebebeb"></rect><rect x="529.34" y="100.54" width="5.19" height="10.34" transform="translate(1063.87 211.41) rotate(180)" style="fill:#ebebeb"></rect><rect x="520.15" y="100.54" width="5.19" height="10.34" transform="translate(1045.48 211.41) rotate(180)" style="fill:#ebebeb"></rect><rect x="510.96" y="100.54" width="5.19" height="10.34" transform="translate(1027.1 211.41) rotate(180)" style="fill:#ebebeb"></rect><rect x="547.72" y="117.34" width="5.19" height="10.34" transform="translate(1100.63 245.01) rotate(180)" style="fill:#ebebeb"></rect><rect x="538.53" y="117.34" width="5.19" height="10.34" transform="translate(1082.25 245.01) rotate(180)" style="fill:#ebebeb"></rect><rect x="529.34" y="117.34" width="5.19" height="10.34" transform="translate(1063.87 245.01) rotate(180)" style="fill:#ebebeb"></rect><rect x="520.15" y="117.34" width="5.19" height="10.34" transform="translate(1045.48 245.01) rotate(180)" style="fill:#ebebeb"></rect><rect x="510.96" y="117.34" width="5.19" height="10.34" transform="translate(1027.1 245.01) rotate(180)" style="fill:#ebebeb"></rect><rect x="547.72" y="134.14" width="5.19" height="10.34" transform="translate(1100.63 278.61) rotate(180)" style="fill:#ebebeb"></rect><rect x="538.53" y="134.14" width="5.19" height="10.34" transform="translate(1082.25 278.61) rotate(180)" style="fill:#ebebeb"></rect><rect x="529.34" y="134.14" width="5.19" height="10.34" transform="translate(1063.87 278.61) rotate(180)" style="fill:#ebebeb"></rect><rect x="520.15" y="134.14" width="5.19" height="10.34" transform="translate(1045.48 278.61) rotate(180)" style="fill:#ebebeb"></rect><rect x="510.96" y="134.14" width="5.19" height="10.34" transform="translate(1027.1 278.61) rotate(180)" style="fill:#ebebeb"></rect><rect x="547.72" y="150.94" width="5.19" height="10.34" transform="translate(1100.63 312.21) rotate(180)" style="fill:#ebebeb"></rect><rect x="538.53" y="150.94" width="5.19" height="10.34" transform="translate(1082.25 312.21) rotate(180)" style="fill:#ebebeb"></rect><rect x="529.34" y="150.94" width="5.19" height="10.34" transform="translate(1063.87 312.21) rotate(180)" style="fill:#ebebeb"></rect><rect x="520.15" y="150.94" width="5.19" height="10.34" transform="translate(1045.48 312.21) rotate(180)" style="fill:#ebebeb"></rect><rect x="510.96" y="150.94" width="5.19" height="10.34" transform="translate(1027.1 312.21) rotate(180)" style="fill:#ebebeb"></rect><rect x="547.72" y="167.73" width="5.19" height="10.34" transform="translate(1100.63 345.81) rotate(180)" style="fill:#ebebeb"></rect><rect x="538.53" y="167.73" width="5.19" height="10.34" transform="translate(1082.25 345.81) rotate(180)" style="fill:#ebebeb"></rect><rect x="529.34" y="167.73" width="5.19" height="10.34" transform="translate(1063.87 345.81) rotate(180)" style="fill:#ebebeb"></rect><rect x="520.15" y="167.73" width="5.19" height="10.34" transform="translate(1045.48 345.81) rotate(180)" style="fill:#ebebeb"></rect><rect x="510.96" y="167.73" width="5.19" height="10.34" transform="translate(1027.1 345.81) rotate(180)" style="fill:#ebebeb"></rect><rect x="547.72" y="184.53" width="5.19" height="10.34" transform="translate(1100.63 379.41) rotate(180)" style="fill:#ebebeb"></rect><rect x="538.53" y="184.53" width="5.19" height="10.34" transform="translate(1082.25 379.41) rotate(180)" style="fill:#ebebeb"></rect><rect x="529.34" y="184.53" width="5.19" height="10.34" transform="translate(1063.87 379.41) rotate(180)" style="fill:#ebebeb"></rect><rect x="520.15" y="184.53" width="5.19" height="10.34" transform="translate(1045.48 379.41) rotate(180)" style="fill:#ebebeb"></rect><rect x="510.96" y="184.53" width="5.19" height="10.34" transform="translate(1027.1 379.41) rotate(180)" style="fill:#ebebeb"></rect><rect x="547.72" y="201.33" width="5.19" height="10.34" transform="translate(1100.63 413.01) rotate(180)" style="fill:#ebebeb"></rect><rect x="538.53" y="201.33" width="5.19" height="10.34" transform="translate(1082.25 413.01) rotate(180)" style="fill:#ebebeb"></rect><rect x="529.34" y="201.33" width="5.19" height="10.34" transform="translate(1063.87 413.01) rotate(180)" style="fill:#ebebeb"></rect><rect x="520.15" y="201.33" width="5.19" height="10.34" transform="translate(1045.48 413.01) rotate(180)" style="fill:#ebebeb"></rect><rect x="510.96" y="201.33" width="5.19" height="10.34" transform="translate(1027.1 413.01) rotate(180)" style="fill:#ebebeb"></rect><rect x="547.72" y="218.13" width="5.19" height="10.34" transform="translate(1100.63 446.61) rotate(180)" style="fill:#ebebeb"></rect><rect x="538.53" y="218.13" width="5.19" height="10.34" transform="translate(1082.25 446.61) rotate(180)" style="fill:#ebebeb"></rect><rect x="529.34" y="218.13" width="5.19" height="10.34" transform="translate(1063.87 446.61) rotate(180)" style="fill:#ebebeb"></rect><rect x="520.15" y="218.13" width="5.19" height="10.34" transform="translate(1045.48 446.61) rotate(180)" style="fill:#ebebeb"></rect><rect x="510.96" y="218.13" width="5.19" height="10.34" transform="translate(1027.1 446.61) rotate(180)" style="fill:#ebebeb"></rect><rect x="547.72" y="234.93" width="5.19" height="10.34" transform="translate(1100.63 480.21) rotate(180)" style="fill:#ebebeb"></rect><rect x="538.53" y="234.93" width="5.19" height="10.34" transform="translate(1082.25 480.21) rotate(180)" style="fill:#ebebeb"></rect><rect x="529.34" y="234.93" width="5.19" height="10.34" transform="translate(1063.87 480.21) rotate(180)" style="fill:#ebebeb"></rect><rect x="520.15" y="234.93" width="5.19" height="10.34" transform="translate(1045.48 480.21) rotate(180)" style="fill:#ebebeb"></rect><rect x="510.96" y="234.93" width="5.19" height="10.34" transform="translate(1027.1 480.21) rotate(180)" style="fill:#ebebeb"></rect><rect x="547.72" y="251.73" width="5.19" height="10.34" transform="translate(1100.63 513.81) rotate(180)" style="fill:#ebebeb"></rect><rect x="538.53" y="251.73" width="5.19" height="10.34" transform="translate(1082.25 513.81) rotate(180)" style="fill:#ebebeb"></rect><rect x="529.34" y="251.73" width="5.19" height="10.34" transform="translate(1063.87 513.81) rotate(180)" style="fill:#ebebeb"></rect><rect x="520.15" y="251.73" width="5.19" height="10.34" transform="translate(1045.48 513.81) rotate(180)" style="fill:#ebebeb"></rect><rect x="510.96" y="251.73" width="5.19" height="10.34" transform="translate(1027.1 513.81) rotate(180)" style="fill:#ebebeb"></rect><rect x="547.72" y="268.53" width="5.19" height="10.34" transform="translate(1100.63 547.41) rotate(180)" style="fill:#ebebeb"></rect><rect x="538.53" y="268.53" width="5.19" height="10.34" transform="translate(1082.25 547.41) rotate(180)" style="fill:#ebebeb"></rect><rect x="529.34" y="268.53" width="5.19" height="10.34" transform="translate(1063.87 547.41) rotate(180)" style="fill:#ebebeb"></rect><rect x="520.15" y="268.53" width="5.19" height="10.34" transform="translate(1045.48 547.41) rotate(180)" style="fill:#ebebeb"></rect><rect x="510.96" y="268.53" width="5.19" height="10.34" transform="translate(1027.1 547.41) rotate(180)" style="fill:#ebebeb"></rect><rect x="547.72" y="285.33" width="5.19" height="10.34" transform="translate(1100.63 581) rotate(180)" style="fill:#ebebeb"></rect><rect x="538.53" y="285.33" width="5.19" height="10.34" transform="translate(1082.25 581) rotate(180)" style="fill:#ebebeb"></rect><rect x="529.34" y="285.33" width="5.19" height="10.34" transform="translate(1063.87 581) rotate(180)" style="fill:#ebebeb"></rect><rect x="520.15" y="285.33" width="5.19" height="10.34" transform="translate(1045.48 581) rotate(180)" style="fill:#ebebeb"></rect><rect x="510.96" y="285.33" width="5.19" height="10.34" transform="translate(1027.1 581) rotate(180)" style="fill:#ebebeb"></rect><rect x="547.72" y="302.13" width="5.19" height="30.23" style="fill:#ebebeb"></rect><rect x="538.53" y="302.13" width="5.19" height="30.23" style="fill:#ebebeb"></rect><rect x="529.34" y="302.13" width="5.19" height="30.23" style="fill:#ebebeb"></rect><rect x="520.15" y="302.13" width="5.19" height="30.23" style="fill:#ebebeb"></rect><rect x="510.96" y="302.13" width="5.19" height="30.23" style="fill:#ebebeb"></rect><rect x="473.44" y="69.4" width="32.88" height="262.97" style="fill:#dbdbdb"></rect><rect x="472.02" y="64.16" width="34.3" height="5.24" transform="translate(978.35 133.57) rotate(180)" style="fill:#c7c7c7"></rect><rect x="496.51" y="77.12" width="5.19" height="255.25" style="fill:#c7c7c7"></rect><rect x="487.31" y="77.12" width="5.19" height="255.25" style="fill:#c7c7c7"></rect><rect x="478.12" y="77.12" width="5.19" height="255.25" style="fill:#c7c7c7"></rect><rect x="496.51" y="83.74" width="5.19" height="10.34" transform="translate(998.2 177.81) rotate(180)" style="fill:#dbdbdb"></rect><rect x="487.31" y="83.74" width="5.19" height="10.34" transform="translate(979.82 177.81) rotate(180)" style="fill:#dbdbdb"></rect><rect x="478.12" y="83.74" width="5.19" height="10.34" transform="translate(961.43 177.81) rotate(180)" style="fill:#dbdbdb"></rect><rect x="496.51" y="100.54" width="5.19" height="10.34" transform="translate(998.2 211.41) rotate(180)" style="fill:#dbdbdb"></rect><rect x="487.31" y="100.54" width="5.19" height="10.34" transform="translate(979.82 211.41) rotate(180)" style="fill:#dbdbdb"></rect><rect x="478.12" y="100.54" width="5.19" height="10.34" transform="translate(961.43 211.41) rotate(180)" style="fill:#dbdbdb"></rect><rect x="496.51" y="117.34" width="5.19" height="10.34" transform="translate(998.2 245.01) rotate(180)" style="fill:#dbdbdb"></rect><rect x="487.31" y="117.34" width="5.19" height="10.34" transform="translate(979.82 245.01) rotate(180)" style="fill:#dbdbdb"></rect><rect x="478.12" y="117.34" width="5.19" height="10.34" transform="translate(961.43 245.01) rotate(180)" style="fill:#dbdbdb"></rect><rect x="496.51" y="134.14" width="5.19" height="10.34" transform="translate(998.2 278.61) rotate(180)" style="fill:#dbdbdb"></rect><rect x="487.31" y="134.14" width="5.19" height="10.34" transform="translate(979.82 278.61) rotate(180)" style="fill:#dbdbdb"></rect><rect x="478.12" y="134.14" width="5.19" height="10.34" transform="translate(961.43 278.61) rotate(180)" style="fill:#dbdbdb"></rect><rect x="496.51" y="150.94" width="5.19" height="10.34" transform="translate(998.2 312.21) rotate(180)" style="fill:#dbdbdb"></rect><rect x="487.31" y="150.94" width="5.19" height="10.34" transform="translate(979.82 312.21) rotate(180)" style="fill:#dbdbdb"></rect><rect x="478.12" y="150.94" width="5.19" height="10.34" transform="translate(961.43 312.21) rotate(180)" style="fill:#dbdbdb"></rect><rect x="496.51" y="167.73" width="5.19" height="10.34" transform="translate(998.2 345.81) rotate(180)" style="fill:#dbdbdb"></rect><rect x="487.31" y="167.73" width="5.19" height="10.34" transform="translate(979.82 345.81) rotate(180)" style="fill:#dbdbdb"></rect><rect x="478.12" y="167.73" width="5.19" height="10.34" transform="translate(961.43 345.81) rotate(180)" style="fill:#dbdbdb"></rect><rect x="496.51" y="184.53" width="5.19" height="10.34" transform="translate(998.2 379.41) rotate(180)" style="fill:#dbdbdb"></rect><rect x="487.31" y="184.53" width="5.19" height="10.34" transform="translate(979.82 379.41) rotate(180)" style="fill:#dbdbdb"></rect><rect x="478.12" y="184.53" width="5.19" height="10.34" transform="translate(961.43 379.41) rotate(180)" style="fill:#dbdbdb"></rect><rect x="496.51" y="201.33" width="5.19" height="10.34" transform="translate(998.2 413.01) rotate(180)" style="fill:#dbdbdb"></rect><rect x="487.31" y="201.33" width="5.19" height="10.34" transform="translate(979.82 413.01) rotate(180)" style="fill:#dbdbdb"></rect><rect x="478.12" y="201.33" width="5.19" height="10.34" transform="translate(961.43 413.01) rotate(180)" style="fill:#dbdbdb"></rect><rect x="496.51" y="218.13" width="5.19" height="10.34" transform="translate(998.2 446.61) rotate(180)" style="fill:#dbdbdb"></rect><rect x="487.31" y="218.13" width="5.19" height="10.34" transform="translate(979.82 446.61) rotate(180)" style="fill:#dbdbdb"></rect><rect x="478.12" y="218.13" width="5.19" height="10.34" transform="translate(961.43 446.61) rotate(180)" style="fill:#dbdbdb"></rect><rect x="496.51" y="234.93" width="5.19" height="10.34" transform="translate(998.2 480.21) rotate(180)" style="fill:#dbdbdb"></rect><rect x="487.31" y="234.93" width="5.19" height="10.34" transform="translate(979.82 480.21) rotate(180)" style="fill:#dbdbdb"></rect><rect x="478.12" y="234.93" width="5.19" height="10.34" transform="translate(961.43 480.21) rotate(180)" style="fill:#dbdbdb"></rect><rect x="496.51" y="251.73" width="5.19" height="10.34" transform="translate(998.2 513.81) rotate(180)" style="fill:#dbdbdb"></rect><rect x="487.31" y="251.73" width="5.19" height="10.34" transform="translate(979.82 513.81) rotate(180)" style="fill:#dbdbdb"></rect><rect x="478.12" y="251.73" width="5.19" height="10.34" transform="translate(961.43 513.81) rotate(180)" style="fill:#dbdbdb"></rect><rect x="496.51" y="268.53" width="5.19" height="10.34" transform="translate(998.2 547.41) rotate(180)" style="fill:#dbdbdb"></rect><rect x="487.31" y="268.53" width="5.19" height="10.34" transform="translate(979.82 547.41) rotate(180)" style="fill:#dbdbdb"></rect><rect x="478.12" y="268.53" width="5.19" height="10.34" transform="translate(961.43 547.41) rotate(180)" style="fill:#dbdbdb"></rect><rect x="496.51" y="285.33" width="5.19" height="10.34" transform="translate(998.2 581) rotate(180)" style="fill:#dbdbdb"></rect><rect x="487.31" y="285.33" width="5.19" height="10.34" transform="translate(979.82 581) rotate(180)" style="fill:#dbdbdb"></rect><rect x="478.12" y="285.33" width="5.19" height="10.34" transform="translate(961.43 581) rotate(180)" style="fill:#dbdbdb"></rect><rect x="496.51" y="302.13" width="5.19" height="30.23" style="fill:#dbdbdb"></rect><rect x="487.31" y="302.13" width="5.19" height="30.23" style="fill:#dbdbdb"></rect><rect x="478.12" y="302.13" width="5.19" height="30.23" style="fill:#dbdbdb"></rect><rect x="637.98" y="176.92" width="61.55" height="155.44" style="fill:#ebebeb"></rect><rect x="637.98" y="171.69" width="63.03" height="5.24" transform="translate(1338.99 348.62) rotate(180)" style="fill:#c7c7c7"></rect><rect x="687.73" y="184.65" width="6.23" height="147.72" style="fill:#fff"></rect><rect x="676.68" y="184.65" width="6.24" height="147.72" style="fill:#fff"></rect><rect x="665.64" y="184.65" width="6.23" height="147.72" style="fill:#fff"></rect><rect x="654.59" y="184.65" width="6.24" height="147.72" style="fill:#fff"></rect><rect x="643.55" y="184.65" width="6.23" height="147.72" style="fill:#fff"></rect><rect x="687.73" y="191.26" width="6.24" height="10.34" transform="translate(1381.7 392.86) rotate(180)" style="fill:#ebebeb"></rect><rect x="676.68" y="191.26" width="6.24" height="10.34" transform="translate(1359.61 392.86) rotate(180)" style="fill:#ebebeb"></rect><rect x="665.64" y="191.26" width="6.24" height="10.34" transform="translate(1337.51 392.86) rotate(180)" style="fill:#ebebeb"></rect><rect x="654.59" y="191.26" width="6.24" height="10.34" transform="translate(1315.42 392.86) rotate(180)" style="fill:#ebebeb"></rect><rect x="643.55" y="191.26" width="6.24" height="10.34" transform="translate(1293.33 392.86) rotate(180)" style="fill:#ebebeb"></rect><rect x="687.73" y="208.06" width="6.24" height="10.34" transform="translate(1381.7 426.46) rotate(180)" style="fill:#ebebeb"></rect><rect x="676.68" y="208.06" width="6.24" height="10.34" transform="translate(1359.61 426.46) rotate(180)" style="fill:#ebebeb"></rect><rect x="665.64" y="208.06" width="6.24" height="10.34" transform="translate(1337.51 426.46) rotate(180)" style="fill:#ebebeb"></rect><rect x="654.59" y="208.06" width="6.24" height="10.34" transform="translate(1315.42 426.46) rotate(180)" style="fill:#ebebeb"></rect><rect x="643.55" y="208.06" width="6.24" height="10.34" transform="translate(1293.33 426.46) rotate(180)" style="fill:#ebebeb"></rect><rect x="687.73" y="224.86" width="6.24" height="10.34" transform="translate(1381.7 460.06) rotate(180)" style="fill:#ebebeb"></rect><rect x="676.68" y="224.86" width="6.24" height="10.34" transform="translate(1359.61 460.06) rotate(180)" style="fill:#ebebeb"></rect><rect x="665.64" y="224.86" width="6.24" height="10.34" transform="translate(1337.51 460.06) rotate(180)" style="fill:#ebebeb"></rect><rect x="654.59" y="224.86" width="6.24" height="10.34" transform="translate(1315.42 460.06) rotate(180)" style="fill:#ebebeb"></rect><rect x="643.55" y="224.86" width="6.24" height="10.34" transform="translate(1293.33 460.06) rotate(180)" style="fill:#ebebeb"></rect><rect x="687.73" y="241.66" width="6.24" height="10.34" transform="translate(1381.7 493.66) rotate(180)" style="fill:#ebebeb"></rect><rect x="676.68" y="241.66" width="6.24" height="10.34" transform="translate(1359.61 493.66) rotate(180)" style="fill:#ebebeb"></rect><rect x="665.64" y="241.66" width="6.24" height="10.34" transform="translate(1337.51 493.66) rotate(180)" style="fill:#ebebeb"></rect><rect x="654.59" y="241.66" width="6.24" height="10.34" transform="translate(1315.42 493.66) rotate(180)" style="fill:#ebebeb"></rect><rect x="643.55" y="241.66" width="6.24" height="10.34" transform="translate(1293.33 493.66) rotate(180)" style="fill:#ebebeb"></rect><rect x="687.73" y="258.46" width="6.24" height="10.34" transform="translate(1381.7 527.26) rotate(180)" style="fill:#ebebeb"></rect><rect x="676.68" y="258.46" width="6.24" height="10.34" transform="translate(1359.61 527.26) rotate(180)" style="fill:#ebebeb"></rect><rect x="665.64" y="258.46" width="6.24" height="10.34" transform="translate(1337.51 527.26) rotate(180)" style="fill:#ebebeb"></rect><rect x="654.59" y="258.46" width="6.24" height="10.34" transform="translate(1315.42 527.26) rotate(180)" style="fill:#ebebeb"></rect><rect x="643.55" y="258.46" width="6.24" height="10.34" transform="translate(1293.33 527.26) rotate(180)" style="fill:#ebebeb"></rect><rect x="687.73" y="275.26" width="6.24" height="10.34" transform="translate(1381.7 560.86) rotate(180)" style="fill:#ebebeb"></rect><rect x="676.68" y="275.26" width="6.24" height="10.34" transform="translate(1359.61 560.86) rotate(180)" style="fill:#ebebeb"></rect><rect x="665.64" y="275.26" width="6.24" height="10.34" transform="translate(1337.51 560.86) rotate(180)" style="fill:#ebebeb"></rect><rect x="654.59" y="275.26" width="6.24" height="10.34" transform="translate(1315.42 560.86) rotate(180)" style="fill:#ebebeb"></rect><rect x="643.55" y="275.26" width="6.24" height="10.34" transform="translate(1293.33 560.86) rotate(180)" style="fill:#ebebeb"></rect><rect x="687.73" y="292.06" width="6.24" height="10.34" transform="translate(1381.7 594.46) rotate(180)" style="fill:#ebebeb"></rect><rect x="676.68" y="292.06" width="6.24" height="10.34" transform="translate(1359.61 594.46) rotate(180)" style="fill:#ebebeb"></rect><rect x="665.64" y="292.06" width="6.24" height="10.34" transform="translate(1337.51 594.46) rotate(180)" style="fill:#ebebeb"></rect><rect x="654.59" y="292.06" width="6.24" height="10.34" transform="translate(1315.42 594.46) rotate(180)" style="fill:#ebebeb"></rect><rect x="643.55" y="292.06" width="6.24" height="10.34" transform="translate(1293.33 594.46) rotate(180)" style="fill:#ebebeb"></rect><rect x="687.73" y="308.86" width="6.24" height="10.34" transform="translate(1381.7 628.06) rotate(180)" style="fill:#ebebeb"></rect><rect x="676.68" y="308.86" width="6.24" height="10.34" transform="translate(1359.61 628.06) rotate(180)" style="fill:#ebebeb"></rect><rect x="665.64" y="308.86" width="6.24" height="10.34" transform="translate(1337.51 628.06) rotate(180)" style="fill:#ebebeb"></rect><rect x="654.59" y="308.86" width="6.24" height="10.34" transform="translate(1315.42 628.06) rotate(180)" style="fill:#ebebeb"></rect><rect x="643.55" y="308.86" width="6.24" height="10.34" transform="translate(1293.33 628.06) rotate(180)" style="fill:#ebebeb"></rect><rect x="687.73" y="325.66" width="6.23" height="6.71" style="fill:#ebebeb"></rect><rect x="676.68" y="325.66" width="6.24" height="6.71" style="fill:#ebebeb"></rect><rect x="665.64" y="325.66" width="6.23" height="6.71" style="fill:#ebebeb"></rect><rect x="654.59" y="325.66" width="6.24" height="6.71" style="fill:#ebebeb"></rect><rect x="643.55" y="325.66" width="6.23" height="6.71" style="fill:#ebebeb"></rect><rect x="598.46" y="176.92" width="39.52" height="155.44" style="fill:#dbdbdb"></rect><rect x="596.75" y="171.69" width="41.23" height="5.24" transform="translate(1234.74 348.62) rotate(180)" style="fill:#c7c7c7"></rect><rect x="626.18" y="184.65" width="6.24" height="147.72" style="fill:#c7c7c7"></rect><rect x="615.13" y="184.65" width="6.23" height="147.72" style="fill:#c7c7c7"></rect><rect x="604.08" y="184.65" width="6.24" height="147.72" style="fill:#c7c7c7"></rect><rect x="626.18" y="191.26" width="6.24" height="10.34" transform="translate(1258.6 392.86) rotate(180)" style="fill:#dbdbdb"></rect><rect x="615.13" y="191.26" width="6.24" height="10.34" transform="translate(1236.5 392.86) rotate(180)" style="fill:#dbdbdb"></rect><rect x="604.09" y="191.26" width="6.24" height="10.34" transform="translate(1214.41 392.86) rotate(180)" style="fill:#dbdbdb"></rect><rect x="626.18" y="208.06" width="6.24" height="10.34" transform="translate(1258.6 426.46) rotate(180)" style="fill:#dbdbdb"></rect><rect x="615.13" y="208.06" width="6.24" height="10.34" transform="translate(1236.5 426.46) rotate(180)" style="fill:#dbdbdb"></rect><rect x="604.09" y="208.06" width="6.24" height="10.34" transform="translate(1214.41 426.46) rotate(180)" style="fill:#dbdbdb"></rect><rect x="626.18" y="224.86" width="6.24" height="10.34" transform="translate(1258.6 460.06) rotate(180)" style="fill:#dbdbdb"></rect><rect x="615.13" y="224.86" width="6.24" height="10.34" transform="translate(1236.5 460.06) rotate(180)" style="fill:#dbdbdb"></rect><rect x="604.09" y="224.86" width="6.24" height="10.34" transform="translate(1214.41 460.06) rotate(180)" style="fill:#dbdbdb"></rect><rect x="626.18" y="241.66" width="6.24" height="10.34" transform="translate(1258.6 493.66) rotate(180)" style="fill:#dbdbdb"></rect><rect x="615.13" y="241.66" width="6.24" height="10.34" transform="translate(1236.5 493.66) rotate(180)" style="fill:#dbdbdb"></rect><rect x="604.09" y="241.66" width="6.24" height="10.34" transform="translate(1214.41 493.66) rotate(180)" style="fill:#dbdbdb"></rect><rect x="626.18" y="258.46" width="6.24" height="10.34" transform="translate(1258.6 527.26) rotate(180)" style="fill:#dbdbdb"></rect><rect x="615.13" y="258.46" width="6.24" height="10.34" transform="translate(1236.5 527.26) rotate(180)" style="fill:#dbdbdb"></rect><rect x="604.09" y="258.46" width="6.24" height="10.34" transform="translate(1214.41 527.26) rotate(180)" style="fill:#dbdbdb"></rect><rect x="626.18" y="275.26" width="6.24" height="10.34" transform="translate(1258.6 560.86) rotate(180)" style="fill:#dbdbdb"></rect><rect x="615.13" y="275.26" width="6.24" height="10.34" transform="translate(1236.5 560.86) rotate(180)" style="fill:#dbdbdb"></rect><rect x="604.09" y="275.26" width="6.24" height="10.34" transform="translate(1214.41 560.86) rotate(180)" style="fill:#dbdbdb"></rect><rect x="626.18" y="292.06" width="6.24" height="10.34" transform="translate(1258.6 594.46) rotate(180)" style="fill:#dbdbdb"></rect><rect x="615.13" y="292.06" width="6.24" height="10.34" transform="translate(1236.5 594.46) rotate(180)" style="fill:#dbdbdb"></rect><rect x="604.09" y="292.06" width="6.24" height="10.34" transform="translate(1214.41 594.46) rotate(180)" style="fill:#dbdbdb"></rect><rect x="626.18" y="308.86" width="6.24" height="10.34" transform="translate(1258.6 628.06) rotate(180)" style="fill:#dbdbdb"></rect><rect x="615.13" y="308.86" width="6.24" height="10.34" transform="translate(1236.5 628.06) rotate(180)" style="fill:#dbdbdb"></rect><rect x="604.09" y="308.86" width="6.24" height="10.34" transform="translate(1214.41 628.06) rotate(180)" style="fill:#dbdbdb"></rect><rect x="626.18" y="325.66" width="6.24" height="6.71" style="fill:#dbdbdb"></rect><rect x="615.13" y="325.66" width="6.23" height="6.71" style="fill:#dbdbdb"></rect><rect x="604.08" y="325.66" width="6.24" height="6.71" style="fill:#dbdbdb"></rect><rect x="89.03" y="151.27" width="25.94" height="30.64" transform="translate(204.01 333.18) rotate(180)" style="fill:#dbdbdb"></rect><rect x="72.59" y="151.27" width="16.45" height="31.77" transform="translate(161.62 334.3) rotate(180)" style="fill:#c7c7c7"></rect><rect x="71.49" y="164.8" width="16.32" height="18.24" transform="translate(159.31 347.83) rotate(180)" style="fill:#dbdbdb"></rect><rect x="61.31" y="164.8" width="10.18" height="18.24" transform="translate(132.8 347.83) rotate(180)" style="fill:#c7c7c7"></rect><rect x="82.98" y="179.92" width="41.95" height="152.45" transform="translate(207.9 512.29) rotate(180)" style="fill:#ebebeb"></rect><rect x="106.94" y="186.47" width="13.19" height="5.39" transform="translate(227.07 378.33) rotate(180)" style="fill:#fff"></rect><rect x="90.07" y="186.47" width="13.19" height="5.39" transform="translate(193.32 378.33) rotate(180)" style="fill:#fff"></rect><rect x="106.94" y="195.62" width="13.19" height="5.39" transform="translate(227.07 396.63) rotate(180)" style="fill:#fff"></rect><rect x="90.07" y="195.62" width="13.19" height="5.39" transform="translate(193.32 396.63) rotate(180)" style="fill:#fff"></rect><rect x="106.94" y="204.77" width="13.19" height="5.39" transform="translate(227.07 414.93) rotate(180)" style="fill:#fff"></rect><rect x="90.07" y="204.77" width="13.19" height="5.39" transform="translate(193.32 414.93) rotate(180)" style="fill:#fff"></rect><rect x="106.94" y="213.92" width="13.19" height="5.39" transform="translate(227.07 433.24) rotate(180)" style="fill:#fff"></rect><rect x="90.07" y="213.92" width="13.19" height="5.39" transform="translate(193.32 433.24) rotate(180)" style="fill:#fff"></rect><rect x="106.94" y="223.07" width="13.19" height="5.39" transform="translate(227.07 451.54) rotate(180)" style="fill:#fff"></rect><rect x="90.07" y="223.07" width="13.19" height="5.39" transform="translate(193.32 451.54) rotate(180)" style="fill:#fff"></rect><rect x="106.94" y="232.22" width="13.19" height="5.39" transform="translate(227.07 469.84) rotate(180)" style="fill:#fff"></rect><rect x="90.07" y="232.22" width="13.19" height="5.39" transform="translate(193.32 469.84) rotate(180)" style="fill:#fff"></rect><rect x="106.94" y="241.37" width="13.19" height="5.39" transform="translate(227.07 488.14) rotate(180)" style="fill:#fff"></rect><rect x="90.07" y="241.37" width="13.19" height="5.39" transform="translate(193.32 488.14) rotate(180)" style="fill:#fff"></rect><rect x="106.94" y="250.53" width="13.19" height="5.39" transform="translate(227.07 506.44) rotate(180)" style="fill:#fff"></rect><rect x="90.07" y="250.53" width="13.19" height="5.39" transform="translate(193.32 506.44) rotate(180)" style="fill:#fff"></rect><rect x="106.94" y="259.68" width="13.19" height="5.39" transform="translate(227.07 524.74) rotate(180)" style="fill:#fff"></rect><rect x="90.07" y="259.68" width="13.19" height="5.39" transform="translate(193.32 524.74) rotate(180)" style="fill:#fff"></rect><rect x="106.94" y="268.83" width="13.19" height="5.39" transform="translate(227.07 543.04) rotate(180)" style="fill:#fff"></rect><rect x="90.07" y="268.83" width="13.19" height="5.39" transform="translate(193.32 543.04) rotate(180)" style="fill:#fff"></rect><rect x="106.94" y="277.98" width="13.19" height="5.39" transform="translate(227.07 561.34) rotate(180)" style="fill:#fff"></rect><rect x="90.07" y="277.98" width="13.19" height="5.39" transform="translate(193.32 561.34) rotate(180)" style="fill:#fff"></rect><rect x="106.94" y="287.13" width="13.19" height="5.39" transform="translate(227.07 579.64) rotate(180)" style="fill:#fff"></rect><rect x="90.07" y="287.13" width="13.19" height="5.39" transform="translate(193.32 579.64) rotate(180)" style="fill:#fff"></rect><rect x="106.94" y="296.28" width="13.19" height="5.39" transform="translate(227.07 597.95) rotate(180)" style="fill:#fff"></rect><rect x="90.07" y="296.28" width="13.19" height="5.39" transform="translate(193.32 597.95) rotate(180)" style="fill:#fff"></rect><rect x="106.94" y="305.43" width="13.19" height="5.39" transform="translate(227.07 616.25) rotate(180)" style="fill:#fff"></rect><rect x="90.07" y="305.43" width="13.19" height="5.39" transform="translate(193.32 616.25) rotate(180)" style="fill:#fff"></rect><rect x="48.99" y="179.92" width="33.99" height="152.45" transform="translate(131.97 512.29) rotate(180)" style="fill:#c7c7c7"></rect><rect x="52.4" y="305.43" width="10.83" height="5.39" style="fill:#ebebeb"></rect><rect x="66.25" y="305.43" width="10.83" height="5.39" style="fill:#ebebeb"></rect><rect x="52.4" y="296.28" width="10.83" height="5.39" style="fill:#ebebeb"></rect><rect x="66.25" y="296.28" width="10.83" height="5.39" style="fill:#ebebeb"></rect><rect x="52.4" y="287.13" width="10.83" height="5.39" style="fill:#ebebeb"></rect><rect x="66.25" y="287.13" width="10.83" height="5.39" style="fill:#ebebeb"></rect><rect x="52.4" y="277.98" width="10.83" height="5.39" style="fill:#ebebeb"></rect><rect x="66.25" y="277.98" width="10.83" height="5.39" style="fill:#ebebeb"></rect><rect x="52.4" y="268.83" width="10.83" height="5.39" style="fill:#ebebeb"></rect><rect x="66.25" y="268.83" width="10.83" height="5.39" style="fill:#ebebeb"></rect><rect x="52.4" y="259.68" width="10.83" height="5.39" style="fill:#ebebeb"></rect><rect x="66.25" y="259.68" width="10.83" height="5.39" style="fill:#ebebeb"></rect><rect x="52.4" y="250.53" width="10.83" height="5.39" style="fill:#ebebeb"></rect><rect x="66.25" y="250.53" width="10.83" height="5.39" style="fill:#ebebeb"></rect><rect x="52.4" y="241.37" width="10.83" height="5.39" style="fill:#ebebeb"></rect><rect x="66.25" y="241.37" width="10.83" height="5.39" style="fill:#ebebeb"></rect><rect x="52.4" y="232.22" width="10.83" height="5.39" style="fill:#ebebeb"></rect><rect x="66.25" y="232.22" width="10.83" height="5.39" style="fill:#ebebeb"></rect><rect x="52.4" y="223.07" width="10.83" height="5.39" style="fill:#ebebeb"></rect><rect x="66.25" y="223.07" width="10.83" height="5.39" style="fill:#ebebeb"></rect><rect x="52.4" y="213.92" width="10.83" height="5.39" style="fill:#ebebeb"></rect><rect x="66.25" y="213.92" width="10.83" height="5.39" style="fill:#ebebeb"></rect><rect x="52.4" y="204.77" width="10.83" height="5.39" style="fill:#ebebeb"></rect><rect x="66.25" y="204.77" width="10.83" height="5.39" style="fill:#ebebeb"></rect><rect x="52.4" y="195.62" width="10.83" height="5.39" style="fill:#ebebeb"></rect><rect x="66.25" y="195.62" width="10.83" height="5.39" style="fill:#ebebeb"></rect><rect x="52.4" y="186.47" width="10.83" height="5.39" style="fill:#ebebeb"></rect><rect x="66.25" y="186.47" width="10.83" height="5.39" style="fill:#ebebeb"></rect><rect x="559.3" y="233.03" width="49.48" height="99.34" transform="translate(1168.09 565.4) rotate(180)" style="fill:#c7c7c7"></rect><rect x="592.24" y="241.63" width="8.76" height="6.09" transform="translate(1193.25 489.34) rotate(180)" style="fill:#dbdbdb"></rect><rect x="592.24" y="254.63" width="8.76" height="6.09" transform="translate(1193.25 515.34) rotate(180)" style="fill:#dbdbdb"></rect><rect x="592.24" y="267.63" width="8.76" height="6.09" transform="translate(1193.25 541.34) rotate(180)" style="fill:#dbdbdb"></rect><rect x="592.24" y="280.63" width="8.76" height="6.09" transform="translate(1193.25 567.34) rotate(180)" style="fill:#dbdbdb"></rect><rect x="592.24" y="293.63" width="8.76" height="6.09" transform="translate(1193.25 593.34) rotate(180)" style="fill:#dbdbdb"></rect><rect x="592.24" y="306.63" width="8.76" height="6.09" transform="translate(1193.25 619.34) rotate(180)" style="fill:#dbdbdb"></rect><rect x="592.24" y="319.62" width="8.76" height="6.09" transform="translate(1193.25 645.34) rotate(180)" style="fill:#dbdbdb"></rect><rect x="579.65" y="241.63" width="8.76" height="6.09" transform="translate(1168.05 489.34) rotate(180)" style="fill:#dbdbdb"></rect><rect x="579.65" y="254.63" width="8.76" height="6.09" transform="translate(1168.05 515.34) rotate(180)" style="fill:#dbdbdb"></rect><rect x="579.65" y="267.63" width="8.76" height="6.09" transform="translate(1168.05 541.34) rotate(180)" style="fill:#dbdbdb"></rect><rect x="579.65" y="280.63" width="8.76" height="6.09" transform="translate(1168.05 567.34) rotate(180)" style="fill:#dbdbdb"></rect><rect x="579.65" y="293.63" width="8.76" height="6.09" transform="translate(1168.05 593.34) rotate(180)" style="fill:#dbdbdb"></rect><rect x="579.65" y="306.63" width="8.76" height="6.09" transform="translate(1168.05 619.34) rotate(180)" style="fill:#dbdbdb"></rect><rect x="579.65" y="319.62" width="8.76" height="6.09" transform="translate(1168.05 645.34) rotate(180)" style="fill:#dbdbdb"></rect><rect x="567.09" y="241.63" width="8.76" height="6.09" transform="translate(1142.93 489.34) rotate(180)" style="fill:#dbdbdb"></rect><rect x="567.09" y="254.63" width="8.76" height="6.09" transform="translate(1142.93 515.34) rotate(180)" style="fill:#dbdbdb"></rect><rect x="567.09" y="267.63" width="8.76" height="6.09" transform="translate(1142.93 541.34) rotate(180)" style="fill:#dbdbdb"></rect><rect x="567.09" y="280.63" width="8.76" height="6.09" transform="translate(1142.93 567.34) rotate(180)" style="fill:#dbdbdb"></rect><rect x="567.09" y="293.63" width="8.76" height="6.09" transform="translate(1142.93 593.34) rotate(180)" style="fill:#dbdbdb"></rect><rect x="567.09" y="306.63" width="8.76" height="6.09" transform="translate(1142.93 619.34) rotate(180)" style="fill:#dbdbdb"></rect><rect x="567.09" y="319.62" width="8.76" height="6.09" transform="translate(1142.93 645.34) rotate(180)" style="fill:#dbdbdb"></rect><rect x="559.3" y="222.68" width="32.94" height="10.35" transform="translate(1151.55 455.71) rotate(180)" style="fill:#dbdbdb"></rect><rect x="559.3" y="216.27" width="20.88" height="6.41" transform="translate(1139.49 438.95) rotate(180)" style="fill:#ebebeb"></rect><rect x="524.59" y="233.03" width="34.71" height="99.34" transform="translate(1083.9 565.4) rotate(180)" style="fill:#a6a6a6"></rect><rect x="528.14" y="318.65" width="7.13" height="6.09" style="fill:#c7c7c7"></rect><rect x="528.14" y="305.65" width="7.13" height="6.09" style="fill:#c7c7c7"></rect><rect x="528.14" y="292.66" width="7.13" height="6.09" style="fill:#c7c7c7"></rect><rect x="528.14" y="279.66" width="7.13" height="6.09" style="fill:#c7c7c7"></rect><rect x="528.14" y="266.66" width="7.13" height="6.09" style="fill:#c7c7c7"></rect><rect x="528.14" y="253.66" width="7.13" height="6.09" style="fill:#c7c7c7"></rect><rect x="528.14" y="240.66" width="7.13" height="6.09" style="fill:#c7c7c7"></rect><rect x="538.4" y="318.65" width="7.13" height="6.09" style="fill:#c7c7c7"></rect><rect x="538.4" y="305.65" width="7.13" height="6.09" style="fill:#c7c7c7"></rect><rect x="538.4" y="292.66" width="7.13" height="6.09" style="fill:#c7c7c7"></rect><rect x="538.4" y="279.66" width="7.13" height="6.09" style="fill:#c7c7c7"></rect><rect x="538.4" y="266.66" width="7.13" height="6.09" style="fill:#c7c7c7"></rect><rect x="538.4" y="253.66" width="7.13" height="6.09" style="fill:#c7c7c7"></rect><rect x="538.4" y="240.66" width="7.13" height="6.09" style="fill:#c7c7c7"></rect><rect x="548.62" y="318.65" width="7.13" height="6.09" style="fill:#c7c7c7"></rect><rect x="548.62" y="305.65" width="7.13" height="6.09" style="fill:#c7c7c7"></rect><rect x="548.62" y="292.66" width="7.13" height="6.09" style="fill:#c7c7c7"></rect><rect x="548.62" y="279.66" width="7.13" height="6.09" style="fill:#c7c7c7"></rect><rect x="548.62" y="266.66" width="7.13" height="6.09" style="fill:#c7c7c7"></rect><rect x="548.62" y="253.66" width="7.13" height="6.09" style="fill:#c7c7c7"></rect><rect x="548.62" y="240.66" width="7.13" height="6.09" style="fill:#c7c7c7"></rect><rect x="529.85" y="222.68" width="29.45" height="10.35" transform="translate(1089.15 455.71) rotate(180)" style="fill:#c7c7c7"></rect><rect x="543.34" y="216.27" width="15.96" height="6.41" transform="translate(1102.65 438.95) rotate(180)" style="fill:#dbdbdb"></rect><rect x="217.9" y="212.17" width="59.87" height="120.2" transform="translate(495.68 544.53) rotate(180)" style="fill:#c7c7c7"></rect><rect x="257.76" y="222.57" width="10.6" height="7.36" transform="translate(526.12 452.5) rotate(180)" style="fill:#dbdbdb"></rect><rect x="257.76" y="238.3" width="10.6" height="7.36" transform="translate(526.12 483.96) rotate(180)" style="fill:#dbdbdb"></rect><rect x="257.76" y="254.03" width="10.6" height="7.36" transform="translate(526.12 515.42) rotate(180)" style="fill:#dbdbdb"></rect><rect x="257.76" y="269.76" width="10.6" height="7.36" transform="translate(526.12 546.88) rotate(180)" style="fill:#dbdbdb"></rect><rect x="257.76" y="285.49" width="10.6" height="7.36" transform="translate(526.12 578.34) rotate(180)" style="fill:#dbdbdb"></rect><rect x="257.76" y="301.22" width="10.6" height="7.36" transform="translate(526.12 609.8) rotate(180)" style="fill:#dbdbdb"></rect><rect x="257.76" y="316.95" width="10.6" height="7.36" transform="translate(526.12 641.26) rotate(180)" style="fill:#dbdbdb"></rect><rect x="242.52" y="222.57" width="10.59" height="7.36" transform="translate(495.64 452.5) rotate(180)" style="fill:#dbdbdb"></rect><rect x="242.52" y="238.3" width="10.59" height="7.36" transform="translate(495.64 483.96) rotate(180)" style="fill:#dbdbdb"></rect><rect x="242.52" y="254.03" width="10.59" height="7.36" transform="translate(495.64 515.42) rotate(180)" style="fill:#dbdbdb"></rect><rect x="242.52" y="269.76" width="10.59" height="7.36" transform="translate(495.64 546.88) rotate(180)" style="fill:#dbdbdb"></rect><rect x="242.52" y="285.49" width="10.59" height="7.36" transform="translate(495.64 578.34) rotate(180)" style="fill:#dbdbdb"></rect><rect x="242.52" y="301.22" width="10.59" height="7.36" transform="translate(495.64 609.8) rotate(180)" style="fill:#dbdbdb"></rect><rect x="242.52" y="316.95" width="10.59" height="7.36" transform="translate(495.64 641.26) rotate(180)" style="fill:#dbdbdb"></rect><rect x="227.32" y="222.57" width="10.59" height="7.36" transform="translate(465.23 452.5) rotate(180)" style="fill:#dbdbdb"></rect><rect x="227.32" y="238.3" width="10.59" height="7.36" transform="translate(465.23 483.96) rotate(180)" style="fill:#dbdbdb"></rect><rect x="227.32" y="254.03" width="10.59" height="7.36" transform="translate(465.23 515.42) rotate(180)" style="fill:#dbdbdb"></rect><rect x="227.32" y="269.76" width="10.59" height="7.36" transform="translate(465.23 546.88) rotate(180)" style="fill:#dbdbdb"></rect><rect x="227.32" y="285.49" width="10.59" height="7.36" transform="translate(465.23 578.34) rotate(180)" style="fill:#dbdbdb"></rect><rect x="227.32" y="301.22" width="10.59" height="7.36" transform="translate(465.23 609.8) rotate(180)" style="fill:#dbdbdb"></rect><rect x="227.32" y="316.95" width="10.59" height="7.36" transform="translate(465.23 641.26) rotate(180)" style="fill:#dbdbdb"></rect><rect x="217.9" y="199.64" width="39.86" height="12.52" transform="translate(475.67 411.81) rotate(180)" style="fill:#dbdbdb"></rect><rect x="217.9" y="191.89" width="25.27" height="7.75" transform="translate(461.08 391.53) rotate(180)" style="fill:#ebebeb"></rect><rect x="175.9" y="212.17" width="42" height="120.2" transform="translate(393.8 544.53) rotate(180)" style="fill:#a6a6a6"></rect><rect x="180.2" y="315.77" width="8.62" height="7.36" style="fill:#c7c7c7"></rect><rect x="180.2" y="300.04" width="8.62" height="7.36" style="fill:#c7c7c7"></rect><rect x="180.2" y="284.31" width="8.62" height="7.36" style="fill:#c7c7c7"></rect><rect x="180.2" y="268.58" width="8.62" height="7.36" style="fill:#c7c7c7"></rect><rect x="180.2" y="252.85" width="8.62" height="7.36" style="fill:#c7c7c7"></rect><rect x="180.2" y="237.13" width="8.62" height="7.36" style="fill:#c7c7c7"></rect><rect x="180.2" y="221.4" width="8.62" height="7.36" style="fill:#c7c7c7"></rect><rect x="192.61" y="315.77" width="8.62" height="7.36" style="fill:#c7c7c7"></rect><rect x="192.61" y="300.04" width="8.62" height="7.36" style="fill:#c7c7c7"></rect><rect x="192.61" y="284.31" width="8.62" height="7.36" style="fill:#c7c7c7"></rect><rect x="192.61" y="268.58" width="8.62" height="7.36" style="fill:#c7c7c7"></rect><rect x="192.61" y="252.85" width="8.62" height="7.36" style="fill:#c7c7c7"></rect><rect x="192.61" y="237.13" width="8.62" height="7.36" style="fill:#c7c7c7"></rect><rect x="192.61" y="221.4" width="8.62" height="7.36" style="fill:#c7c7c7"></rect><rect x="204.98" y="315.77" width="8.62" height="7.36" style="fill:#c7c7c7"></rect><rect x="204.98" y="300.04" width="8.62" height="7.36" style="fill:#c7c7c7"></rect><rect x="204.98" y="284.31" width="8.62" height="7.36" style="fill:#c7c7c7"></rect><rect x="204.98" y="268.58" width="8.62" height="7.36" style="fill:#c7c7c7"></rect><rect x="204.98" y="252.85" width="8.62" height="7.36" style="fill:#c7c7c7"></rect><rect x="204.98" y="237.13" width="8.62" height="7.36" style="fill:#c7c7c7"></rect><rect x="204.98" y="221.4" width="8.62" height="7.36" style="fill:#c7c7c7"></rect><rect x="182.26" y="199.64" width="35.64" height="12.52" transform="translate(400.17 411.81) rotate(180)" style="fill:#c7c7c7"></rect><rect x="198.59" y="191.89" width="19.31" height="7.75" transform="translate(416.49 391.53) rotate(180)" style="fill:#dbdbdb"></rect></g><g id="freepik--Shadow--inject-15"><ellipse cx="489.59" cy="454.35" rx="213.83" ry="14.98" style="fill:#ebebeb"></ellipse><ellipse cx="207.69" cy="438.52" rx="114.61" ry="11.46" style="fill:#ebebeb"></ellipse></g><g id="freepik--Floor--inject-15"><polygon points="47.45 332.34 129.34 332.1 211.22 332.01 375 331.85 538.78 332.01 620.66 332.1 702.55 332.34 620.66 332.59 538.78 332.68 375 332.84 211.22 332.68 129.34 332.59 47.45 332.34" style="fill:#263238"></polygon></g><g id="freepik--Building--inject-15"><rect x="390.72" y="259.18" width="71.58" height="72.83" transform="translate(853.01 591.2) rotate(180)" style="fill:#455a64"></rect><rect x="319.14" y="216.62" width="71.58" height="115.4" transform="translate(709.85 548.63) rotate(180)" style="fill:#455a64"></rect><rect x="291.77" y="216.62" width="27.36" height="115.4" style="fill:#37474f"></rect><rect x="368.13" y="226.11" width="14.1" height="6.09" transform="translate(750.36 458.31) rotate(180)" style="fill:#263238"></rect><rect x="368.13" y="239.11" width="14.1" height="6.09" transform="translate(750.36 484.31) rotate(180)" style="fill:#263238"></rect><rect x="368.13" y="252.11" width="14.1" height="6.09" transform="translate(750.36 510.3) rotate(180)" style="fill:#263238"></rect><rect x="368.13" y="265.11" width="14.1" height="6.09" transform="translate(750.36 536.3) rotate(180)" style="fill:#263238"></rect><rect x="368.13" y="278.11" width="14.1" height="6.09" transform="translate(750.36 562.3) rotate(180)" style="fill:#263238"></rect><rect x="368.13" y="291.11" width="14.1" height="6.09" transform="translate(750.36 588.3) rotate(180)" style="fill:#263238"></rect><rect x="368.13" y="304.11" width="14.1" height="6.09" transform="translate(750.36 614.3) rotate(180)" style="fill:#263238"></rect><rect x="347.85" y="226.11" width="14.1" height="6.09" transform="translate(709.8 458.31) rotate(180)" style="fill:#263238"></rect><rect x="347.85" y="239.11" width="14.1" height="6.09" transform="translate(709.8 484.31) rotate(180)" style="fill:#263238"></rect><rect x="347.85" y="252.11" width="14.1" height="6.09" transform="translate(709.8 510.3) rotate(180)" style="fill:#263238"></rect><rect x="347.85" y="265.11" width="14.1" height="6.09" transform="translate(709.8 536.3) rotate(180)" style="fill:#263238"></rect><rect x="347.85" y="278.11" width="14.1" height="6.09" transform="translate(709.8 562.3) rotate(180)" style="fill:#263238"></rect><rect x="347.85" y="291.11" width="14.1" height="6.09" transform="translate(709.8 588.3) rotate(180)" style="fill:#263238"></rect><rect x="347.85" y="304.11" width="14.1" height="6.09" transform="translate(709.8 614.3) rotate(180)" style="fill:#263238"></rect><rect x="327.63" y="226.11" width="14.1" height="6.09" transform="translate(669.35 458.31) rotate(180)" style="fill:#263238"></rect><rect x="327.63" y="239.11" width="14.1" height="6.09" transform="translate(669.35 484.31) rotate(180)" style="fill:#263238"></rect><rect x="327.63" y="252.11" width="14.1" height="6.09" transform="translate(669.35 510.3) rotate(180)" style="fill:#263238"></rect><rect x="327.63" y="265.11" width="14.1" height="6.09" transform="translate(669.35 536.3) rotate(180)" style="fill:#263238"></rect><rect x="327.63" y="278.11" width="14.1" height="6.09" transform="translate(669.35 562.3) rotate(180)" style="fill:#263238"></rect><rect x="327.63" y="291.11" width="14.1" height="6.09" transform="translate(669.35 588.3) rotate(180)" style="fill:#263238"></rect><rect x="327.63" y="304.11" width="14.1" height="6.09" transform="translate(669.35 614.3) rotate(180)" style="fill:#263238"></rect><rect x="439.71" y="265.11" width="14.1" height="6.09" transform="translate(893.51 536.3) rotate(180)" style="fill:#263238"></rect><rect x="439.71" y="278.11" width="14.1" height="6.09" transform="translate(893.51 562.3) rotate(180)" style="fill:#263238"></rect><rect x="439.71" y="291.11" width="14.1" height="6.09" transform="translate(893.51 588.3) rotate(180)" style="fill:#263238"></rect><rect x="439.71" y="304.11" width="14.1" height="6.09" transform="translate(893.51 614.3) rotate(180)" style="fill:#263238"></rect><rect x="419.43" y="265.11" width="14.1" height="6.09" transform="translate(852.96 536.3) rotate(180)" style="fill:#263238"></rect><rect x="419.43" y="278.11" width="14.1" height="6.09" transform="translate(852.96 562.3) rotate(180)" style="fill:#263238"></rect><rect x="419.43" y="291.11" width="14.1" height="6.09" transform="translate(852.96 588.3) rotate(180)" style="fill:#263238"></rect><rect x="419.43" y="304.11" width="14.1" height="6.09" transform="translate(852.96 614.3) rotate(180)" style="fill:#263238"></rect><rect x="399.2" y="265.11" width="14.1" height="6.09" transform="translate(812.5 536.3) rotate(180)" style="fill:#263238"></rect><rect x="399.2" y="278.11" width="14.1" height="6.09" transform="translate(812.5 562.3) rotate(180)" style="fill:#263238"></rect><rect x="399.2" y="291.11" width="14.1" height="6.09" transform="translate(812.5 588.3) rotate(180)" style="fill:#263238"></rect><rect x="399.2" y="304.11" width="14.1" height="6.09" transform="translate(812.5 614.3) rotate(180)" style="fill:#263238"></rect><rect x="298.41" y="226.11" width="14.1" height="6.09" transform="translate(610.91 458.31) rotate(180)" style="fill:#263238"></rect><rect x="298.41" y="239.11" width="14.1" height="6.09" transform="translate(610.91 484.31) rotate(180)" style="fill:#263238"></rect><rect x="298.41" y="252.11" width="14.1" height="6.09" transform="translate(610.91 510.3) rotate(180)" style="fill:#263238"></rect><rect x="298.41" y="265.11" width="14.1" height="6.09" transform="translate(610.91 536.3) rotate(180)" style="fill:#263238"></rect><rect x="298.41" y="278.11" width="14.1" height="6.09" transform="translate(610.91 562.3) rotate(180)" style="fill:#263238"></rect><rect x="298.41" y="291.11" width="14.1" height="6.09" transform="translate(610.91 588.3) rotate(180)" style="fill:#263238"></rect><rect x="298.41" y="304.11" width="14.1" height="6.09" transform="translate(610.91 614.3) rotate(180)" style="fill:#263238"></rect><rect x="351.11" y="182.72" width="2.54" height="33.9" style="fill:#c7c7c7"></rect><rect x="353.66" y="182.72" width="2.54" height="33.9" style="fill:#dbdbdb"></rect><rect x="316.6" y="182.72" width="2.54" height="33.9" style="fill:#c7c7c7"></rect><rect x="319.14" y="182.72" width="2.54" height="33.9" style="fill:#dbdbdb"></rect><rect x="385.63" y="182.72" width="2.54" height="33.9" style="fill:#c7c7c7"></rect><rect x="388.17" y="182.72" width="2.54" height="33.9" style="fill:#dbdbdb"></rect><rect x="422.69" y="225.2" width="2.54" height="33.9" style="fill:#c7c7c7"></rect><rect x="425.23" y="225.2" width="2.54" height="33.9" style="fill:#dbdbdb"></rect><rect x="457.21" y="225.2" width="2.54" height="33.9" style="fill:#c7c7c7"></rect><rect x="459.75" y="225.2" width="2.54" height="33.9" style="fill:#dbdbdb"></rect><rect x="291.77" y="182.72" width="2.54" height="33.9" style="fill:#c7c7c7"></rect><rect x="294.32" y="182.72" width="2.54" height="33.9" style="fill:#dbdbdb"></rect></g><g id="freepik--crane-1--inject-15"><polygon points="198.78 301.7 190.43 308.12 203.08 326.06 193.82 332.86 195.28 335.89 210.35 326.4 198.78 301.7" style="fill:#37474f"></polygon><polygon points="141.09 230.67 119.23 269.38 119.23 305.46 142.09 251.64 146.3 251.64 189.97 306.26 193.78 306.26 147.31 230.67 141.09 230.67" style="fill:#455a64"></polygon><rect x="74.52" y="290.91" width="53.4" height="23.67" rx="3.18" transform="translate(202.45 605.5) rotate(180)" style="fill:#455a64"></rect><rect x="77.93" y="264.62" width="4.61" height="31.42" transform="translate(160.47 560.66) rotate(180)" style="fill:#455a64"></rect><path d="M129.7,304.31H87.91V258H115.2a9.54,9.54,0,0,1,9.46,8.28l5,38Z" style="fill:#FFC100"></path><path d="M119,290.25H99.41a2.13,2.13,0,0,1-.63-.09A2.22,2.22,0,0,1,97.21,288V263.32h13.94a6.56,6.56,0,0,1,1.39.14,7.49,7.49,0,0,1,4.55,2.64,7.73,7.73,0,0,1,1.75,4l2.35,17.67A2.22,2.22,0,0,1,119,290.25Z" style="fill:#fff"></path><g style="opacity:0.5"><path d="M120.19,280.22l-17.09-16.9h8.05a6.56,6.56,0,0,1,1.39.14,6.79,6.79,0,0,1,1.27.34h0l4.58,4.53a7.65,7.65,0,0,1,.44,1.74Z" style="fill:#ebebeb"></path><path d="M119.12,290.24h-6.25L97.21,274.77V268.6Z" style="fill:#ebebeb"></path><polygon points="110.41 290.25 109.46 290.25 97.21 278.14 97.21 277.2 110.41 290.25" style="fill:#ebebeb"></polygon></g><path d="M187.51,308.57a4.11,4.11,0,1,0,4.11-4.11A4.11,4.11,0,0,0,187.51,308.57Z" style="fill:#455a64"></path><path d="M189.71,308.57a1.91,1.91,0,1,0,1.91-1.9A1.91,1.91,0,0,0,189.71,308.57Z" style="fill:#37474f"></path><path d="M78.34,295.64a1.9,1.9,0,1,0,1.9-1.9A1.9,1.9,0,0,0,78.34,295.64Z" style="fill:#37474f"></path><path d="M78.34,302.41a1.9,1.9,0,1,0,1.9-1.9A1.9,1.9,0,0,0,78.34,302.41Z" style="fill:#37474f"></path><path d="M142.3,244.52a1.9,1.9,0,1,0,1.9-1.9A1.9,1.9,0,0,0,142.3,244.52Z" style="fill:#37474f"></path><path d="M142.3,237.41a1.9,1.9,0,1,0,1.9-1.9A1.91,1.91,0,0,0,142.3,237.41Z" style="fill:#37474f"></path><rect x="80.24" y="314.59" width="33.98" height="4.21" transform="translate(194.45 633.38) rotate(180)" style="fill:#37474f"></rect><path d="M62.3,318.8h81.36a10.45,10.45,0,1,1,0,20.9H62.3a10.45,10.45,0,0,1,0-20.9Z" style="fill:#37474f"></path><path d="M62.75,321.85h80.47a7.4,7.4,0,1,1,0,14.8H62.75a7.4,7.4,0,0,1,0-14.8Z" style="fill:#263238"></path><path d="M114.82,329.25a5.42,5.42,0,1,0,5.41-5.42A5.41,5.41,0,0,0,114.82,329.25Z" style="fill:#37474f"></path><path d="M97.57,329.25a5.42,5.42,0,1,0,5.41-5.42A5.41,5.41,0,0,0,97.57,329.25Z" style="fill:#37474f"></path><path d="M132.07,329.25a5.42,5.42,0,1,0,5.42-5.42A5.42,5.42,0,0,0,132.07,329.25Z" style="fill:#37474f"></path><path d="M80.32,329.25a5.42,5.42,0,1,0,5.41-5.42A5.41,5.41,0,0,0,80.32,329.25Z" style="fill:#37474f"></path><path d="M63.07,329.25a5.42,5.42,0,1,0,5.41-5.42A5.41,5.41,0,0,0,63.07,329.25Z" style="fill:#37474f"></path><polygon points="191.07 306.92 192.16 306.42 163.84 244.14 147.27 230.77 146.51 231.7 162.86 244.9 191.07 306.92" style="fill:#455a64"></polygon></g><g id="freepik--crane-2--inject-15"><rect x="478.81" y="110.2" width="2.2" height="22.54" transform="translate(47.42 362.35) rotate(-43.32)" style="fill:#455a64"></rect><rect x="471.8" y="129.26" width="15.84" height="2.2" style="fill:#455a64"></rect><rect x="471.8" y="112.17" width="15.84" height="2.2" style="fill:#455a64"></rect><rect x="468.64" y="120.37" width="22.54" height="2.2" transform="translate(62.34 387.38) rotate(-46.69)" style="fill:#455a64"></rect><rect x="478.81" y="127.29" width="2.2" height="22.54" transform="translate(35.7 367.01) rotate(-43.32)" style="fill:#455a64"></rect><rect x="471.8" y="146.35" width="15.84" height="2.2" style="fill:#455a64"></rect><rect x="471.8" y="129.26" width="15.84" height="2.2" style="fill:#455a64"></rect><rect x="468.64" y="137.46" width="22.54" height="2.2" transform="translate(49.91 392.75) rotate(-46.69)" style="fill:#455a64"></rect><rect x="478.81" y="144.38" width="2.2" height="22.54" transform="translate(23.98 371.66) rotate(-43.32)" style="fill:#455a64"></rect><rect x="471.8" y="163.43" width="15.84" height="2.2" style="fill:#455a64"></rect><rect x="471.8" y="146.35" width="15.84" height="2.2" style="fill:#455a64"></rect><rect x="468.64" y="154.55" width="22.54" height="2.2" transform="translate(37.48 398.11) rotate(-46.69)" style="fill:#455a64"></rect><rect x="478.81" y="161.46" width="2.2" height="22.54" transform="translate(12.25 376.32) rotate(-43.32)" style="fill:#455a64"></rect><rect x="471.8" y="180.52" width="15.84" height="2.2" style="fill:#455a64"></rect><rect x="471.8" y="163.43" width="15.84" height="2.2" style="fill:#455a64"></rect><rect x="468.64" y="171.63" width="22.54" height="2.2" transform="translate(25.04 403.48) rotate(-46.69)" style="fill:#455a64"></rect><rect x="478.81" y="178.55" width="2.2" height="22.54" transform="translate(0.53 380.98) rotate(-43.32)" style="fill:#455a64"></rect><rect x="471.8" y="197.61" width="15.84" height="2.2" style="fill:#455a64"></rect><rect x="471.8" y="180.52" width="15.84" height="2.2" style="fill:#455a64"></rect><rect x="468.64" y="188.72" width="22.54" height="2.2" transform="translate(12.61 408.85) rotate(-46.69)" style="fill:#455a64"></rect><rect x="478.81" y="195.64" width="2.2" height="22.54" transform="translate(-11.2 385.61) rotate(-43.32)" style="fill:#455a64"></rect><rect x="471.8" y="214.69" width="15.84" height="2.2" style="fill:#455a64"></rect><rect x="471.8" y="197.61" width="15.84" height="2.2" style="fill:#455a64"></rect><rect x="468.64" y="205.81" width="22.54" height="2.2" transform="translate(0.17 414.21) rotate(-46.69)" style="fill:#455a64"></rect><rect x="478.81" y="212.72" width="2.2" height="22.54" transform="translate(-22.92 390.29) rotate(-43.32)" style="fill:#455a64"></rect><rect x="471.8" y="231.78" width="15.84" height="2.2" style="fill:#455a64"></rect><rect x="471.8" y="214.69" width="15.84" height="2.2" style="fill:#455a64"></rect><rect x="468.64" y="222.9" width="22.54" height="2.2" transform="translate(-12.26 419.58) rotate(-46.69)" style="fill:#455a64"></rect><rect x="478.81" y="229.81" width="2.2" height="22.54" transform="translate(-34.64 394.94) rotate(-43.32)" style="fill:#455a64"></rect><rect x="471.8" y="248.87" width="15.84" height="2.2" style="fill:#455a64"></rect><rect x="471.8" y="231.78" width="15.84" height="2.2" style="fill:#455a64"></rect><rect x="468.64" y="239.98" width="22.54" height="2.2" transform="translate(-24.69 424.95) rotate(-46.69)" style="fill:#455a64"></rect><rect x="478.81" y="246.9" width="2.2" height="22.54" transform="translate(-46.35 399.63) rotate(-43.32)" style="fill:#455a64"></rect><rect x="471.8" y="265.96" width="15.84" height="2.2" style="fill:#455a64"></rect><rect x="471.8" y="248.87" width="15.84" height="2.2" style="fill:#455a64"></rect><rect x="468.64" y="257.07" width="22.54" height="2.2" transform="translate(-37.13 430.32) rotate(-46.69)" style="fill:#455a64"></rect><rect x="478.81" y="263.98" width="2.2" height="22.54" transform="translate(-58.13 404.06) rotate(-43.3)" style="fill:#455a64"></rect><rect x="471.8" y="283.04" width="15.84" height="2.2" style="fill:#455a64"></rect><rect x="471.8" y="265.96" width="15.84" height="2.2" style="fill:#455a64"></rect><rect x="468.64" y="274.16" width="22.54" height="2.2" transform="translate(-49.57 435.67) rotate(-46.69)" style="fill:#455a64"></rect><rect x="478.81" y="281.07" width="2.2" height="22.54" transform="translate(-69.85 408.71) rotate(-43.3)" style="fill:#455a64"></rect><rect x="471.8" y="300.13" width="15.84" height="2.2" style="fill:#455a64"></rect><rect x="471.8" y="283.04" width="15.84" height="2.2" style="fill:#455a64"></rect><rect x="468.64" y="291.24" width="22.54" height="2.2" transform="translate(-62 441.05) rotate(-46.69)" style="fill:#455a64"></rect><rect x="475.07" y="295.21" width="9.95" height="19.32" transform="translate(784.92 -175.17) rotate(90)" style="fill:#455a64"></rect><rect x="394" y="204.81" width="187.46" height="3.96" transform="translate(694.52 -280.93) rotate(90)" style="fill:#455a64"></rect><rect x="378.64" y="204.81" width="187.46" height="3.96" transform="translate(679.16 -265.57) rotate(90)" style="fill:#455a64"></rect><polygon points="318.16 111.73 335.27 94.87 479.69 67.95 523.58 94.99 524.73 93.12 480.12 65.64 334.21 92.83 316.62 110.16 318.16 111.73" style="fill:#455a64"></polygon><polygon points="462.28 97.23 479.87 72.78 496.7 97.2 500.32 94.7 479.94 65.16 458.71 94.67 462.28 97.23" style="fill:#263238"></polygon><rect x="332.67" y="104.24" width="22.54" height="2.2" transform="translate(21.41 264.59) rotate(-43.31)" style="fill:#455a64"></rect><rect x="333.95" y="97.23" width="2.2" height="15.84" style="fill:#455a64"></rect><rect x="351.04" y="97.23" width="2.2" height="15.84" style="fill:#455a64"></rect><rect x="342.84" y="94.07" width="2.2" height="22.54" transform="translate(31.36 283.33) rotate(-46.69)" style="fill:#455a64"></rect><rect x="349.76" y="104.24" width="22.54" height="2.2" transform="translate(26.06 276.31) rotate(-43.31)" style="fill:#455a64"></rect><rect x="351.04" y="97.23" width="2.2" height="15.84" style="fill:#455a64"></rect><rect x="368.13" y="97.23" width="2.2" height="15.84" style="fill:#455a64"></rect><rect x="359.93" y="94.07" width="2.2" height="22.54" transform="translate(36.71 295.75) rotate(-46.68)" style="fill:#455a64"></rect><rect x="366.84" y="104.24" width="22.54" height="2.2" transform="translate(30.71 288.03) rotate(-43.31)" style="fill:#455a64"></rect><rect x="368.13" y="97.23" width="2.2" height="15.84" style="fill:#455a64"></rect><rect x="385.21" y="97.23" width="2.2" height="15.84" style="fill:#455a64"></rect><rect x="377.01" y="94.07" width="2.2" height="22.54" transform="translate(42.08 308.19) rotate(-46.68)" style="fill:#455a64"></rect><rect x="383.93" y="104.24" width="22.54" height="2.2" transform="translate(35.36 299.75) rotate(-43.31)" style="fill:#455a64"></rect><rect x="385.21" y="97.23" width="2.2" height="15.84" style="fill:#455a64"></rect><rect x="402.3" y="97.23" width="2.2" height="15.84" style="fill:#455a64"></rect><rect x="394.1" y="94.07" width="2.2" height="22.54" transform="translate(47.44 320.62) rotate(-46.68)" style="fill:#455a64"></rect><rect x="401.02" y="104.24" width="22.54" height="2.2" transform="translate(40.02 311.47) rotate(-43.31)" style="fill:#455a64"></rect><rect x="402.3" y="97.23" width="2.2" height="15.84" style="fill:#455a64"></rect><rect x="419.39" y="97.23" width="2.2" height="15.84" style="fill:#455a64"></rect><rect x="411.19" y="94.07" width="2.2" height="22.54" transform="translate(52.79 333.03) rotate(-46.68)" style="fill:#455a64"></rect><rect x="418.1" y="104.24" width="22.54" height="2.2" transform="translate(44.67 323.19) rotate(-43.31)" style="fill:#455a64"></rect><rect x="419.39" y="97.23" width="2.2" height="15.84" style="fill:#455a64"></rect><rect x="436.48" y="97.23" width="2.2" height="15.84" style="fill:#455a64"></rect><rect x="428.28" y="94.07" width="2.2" height="22.54" transform="translate(58.17 345.47) rotate(-46.68)" style="fill:#455a64"></rect><rect x="435.19" y="104.24" width="22.54" height="2.2" transform="translate(49.32 334.91) rotate(-43.31)" style="fill:#455a64"></rect><rect x="436.48" y="97.23" width="2.2" height="15.84" style="fill:#455a64"></rect><rect x="453.56" y="97.23" width="2.2" height="15.84" style="fill:#455a64"></rect><rect x="445.36" y="94.07" width="2.2" height="22.54" transform="translate(63.53 357.9) rotate(-46.68)" style="fill:#455a64"></rect><rect x="452.28" y="104.24" width="22.54" height="2.2" transform="translate(53.97 346.63) rotate(-43.31)" style="fill:#455a64"></rect><rect x="453.56" y="97.23" width="2.2" height="15.84" style="fill:#455a64"></rect><rect x="470.65" y="97.23" width="2.2" height="15.84" style="fill:#455a64"></rect><rect x="462.45" y="94.07" width="2.2" height="22.54" transform="translate(68.9 370.34) rotate(-46.68)" style="fill:#455a64"></rect><rect x="469.36" y="104.24" width="22.54" height="2.2" transform="translate(58.63 358.35) rotate(-43.31)" style="fill:#455a64"></rect><rect x="470.65" y="97.23" width="2.2" height="15.84" style="fill:#455a64"></rect><rect x="487.74" y="97.23" width="2.2" height="15.84" style="fill:#455a64"></rect><rect x="479.54" y="94.07" width="2.2" height="22.54" transform="translate(74.27 382.78) rotate(-46.68)" style="fill:#455a64"></rect><rect x="486.45" y="104.24" width="22.54" height="2.2" transform="translate(63.28 370.07) rotate(-43.31)" style="fill:#455a64"></rect><rect x="487.74" y="97.23" width="2.2" height="15.84" style="fill:#455a64"></rect><rect x="504.82" y="97.23" width="2.2" height="15.84" style="fill:#455a64"></rect><rect x="496.62" y="94.07" width="2.2" height="22.54" transform="translate(79.63 395.2) rotate(-46.68)" style="fill:#455a64"></rect><rect x="503.54" y="104.24" width="22.54" height="2.2" transform="translate(67.93 381.79) rotate(-43.31)" style="fill:#455a64"></rect><rect x="504.82" y="97.23" width="2.2" height="15.84" style="fill:#455a64"></rect><rect x="521.91" y="97.23" width="2.2" height="15.84" style="fill:#455a64"></rect><rect x="513.71" y="94.07" width="2.2" height="22.54" transform="translate(84.99 407.63) rotate(-46.68)" style="fill:#455a64"></rect><rect x="524.76" y="93.09" width="9.94" height="22.84" transform="translate(1059.45 209.02) rotate(180)" style="fill:#263238"></rect><rect x="514.81" y="93.09" width="9.95" height="22.84" transform="translate(1039.56 209.02) rotate(180)" style="fill:#455a64"></rect><rect x="501.67" y="114.17" width="19.08" height="11.39" transform="translate(1022.41 239.73) rotate(180)" style="fill:#455a64"></rect><rect x="316.63" y="110.21" width="208.13" height="3.96" transform="translate(841.38 224.37) rotate(180)" style="fill:#455a64"></rect><polygon points="328.14 98.81 524.76 98.81 524.76 94.85 332.17 94.85 328.14 98.81" style="fill:#455a64"></polygon><rect x="330.21" y="97.23" width="2.2" height="15.84" style="fill:#455a64"></rect><rect x="356.7" y="116.5" width="2.2" height="52.42" style="fill:#263238"></rect><rect x="338.12" y="117.23" width="2.2" height="52.42" style="fill:#263238"></rect><rect x="333.88" y="114.17" width="28.96" height="4.67" transform="translate(696.71 233.01) rotate(180)" style="fill:#455a64"></rect><path d="M347.26,174.38l.24,4.87.7-.84a8.11,8.11,0,0,0-2.21,1,5.36,5.36,0,0,0-1.74,1.71,4.34,4.34,0,0,0,.12,4.64,4.53,4.53,0,0,0,3.92,2,4.73,4.73,0,0,0,3.63-2.16,4.56,4.56,0,0,1-3.63,1.74,3.9,3.9,0,0,1-3.19-2,3.28,3.28,0,0,1,.22-3.48,5.1,5.1,0,0,1,3.19-1.7l.66-.11,0-.73.24-4.87Z" style="fill:#263238"></path><polygon points="333.88 164.39 333.88 172.34 348.36 175.78 362.83 172.34 362.83 164.39 333.88 164.39" style="fill:#455a64"></polygon><path d="M356.19,169.05a1.68,1.68,0,1,0,1.68-1.68A1.68,1.68,0,0,0,356.19,169.05Z" style="fill:#263238"></path><path d="M337.16,169.05a1.68,1.68,0,1,0,1.68-1.68A1.68,1.68,0,0,0,337.16,169.05Z" style="fill:#263238"></path><polygon points="306.4 191.82 316.86 190.51 327.31 189.28 348.25 186.94 348.29 186.93 348.33 186.94 369.33 189.28 379.82 190.51 390.3 191.82 379.78 190.88 369.27 189.85 348.25 187.68 348.33 187.68 327.38 189.85 316.89 190.88 306.4 191.82" style="fill:#263238"></polygon><rect x="347.08" y="151.14" width="2.54" height="83.9" transform="translate(541.45 -155.26) rotate(90)" style="fill:#c7c7c7"></rect><rect x="347.08" y="153.69" width="2.54" height="83.9" transform="translate(543.99 -152.72) rotate(90)" style="fill:#dbdbdb"></rect><path d="M476.2,66.8a3.71,3.71,0,1,0,3.71-3.71A3.71,3.71,0,0,0,476.2,66.8Z" style="fill:#a6a6a6"></path><path d="M478.17,66.8a1.74,1.74,0,1,0,1.74-1.73A1.74,1.74,0,0,0,478.17,66.8Z" style="fill:#455a64"></path><rect x="464.06" y="309.85" width="31.98" height="7.56" transform="translate(960.09 627.25) rotate(180)" style="fill:#263238"></rect><rect x="457.13" y="317.41" width="45.84" height="14.82" transform="translate(960.09 649.63) rotate(180)" style="fill:#455a64"></rect><path d="M461.45,129.15h34.22V91.27H473.33a7.79,7.79,0,0,0-7.74,6.78Z" style="fill:#FFC100"></path><path d="M470.76,117.63h16.05a1.7,1.7,0,0,0,.51-.07,1.81,1.81,0,0,0,1.29-1.74V95.59H477.2a5.38,5.38,0,0,0-1.14.11,6.23,6.23,0,0,0-2.4,1,6.46,6.46,0,0,0-2.76,4.46L469,115.58A1.82,1.82,0,0,0,470.76,117.63Z" style="fill:#fff"></path><g style="opacity:0.5"><path d="M483.74,95.59,469.8,109.36l1.1-8.25a6.32,6.32,0,0,1,1-2.6v0l2-1.94a6.15,6.15,0,0,1,2.23-.85,5.38,5.38,0,0,1,1.14-.11Z" style="fill:#ebebeb"></path><polygon points="488.61 100.45 488.61 105.86 476.7 117.63 471.23 117.63 488.61 100.45" style="fill:#ebebeb"></polygon><polygon points="488.61 107.98 488.61 108.8 479.68 117.63 478.84 117.63 488.61 107.98" style="fill:#ebebeb"></polygon></g></g><g id="freepik--Sand--inject-15"><path d="M177.26,333.46H306.85S248.34,267.71,177.26,333.46Z" style="fill:#FFC100"></path><path d="M177.26,333.46H306.85S248.34,267.71,177.26,333.46Z" style="opacity:0.30000000000000004"></path><path d="M254.31,324.06a1.31,1.31,0,1,0-1.31,1.31A1.31,1.31,0,0,0,254.31,324.06Z" style="opacity:0.1"></path><path d="M225.48,313.54a1.31,1.31,0,1,0-1.31,1.31A1.31,1.31,0,0,0,225.48,313.54Z" style="opacity:0.1"></path><path d="M229.48,321.82a1.31,1.31,0,1,0-1.31,1.31A1.31,1.31,0,0,0,229.48,321.82Z" style="opacity:0.1"></path><path d="M203,319.64a1.31,1.31,0,1,0-1.3,1.3A1.31,1.31,0,0,0,203,319.64Z" style="opacity:0.1"></path><path d="M279,329.24a1.31,1.31,0,1,0-2.61,0,1.31,1.31,0,0,0,2.61,0Z" style="opacity:0.1"></path><path d="M230.78,330.54a1.31,1.31,0,0,0-2.61,0,1.31,1.31,0,1,0,2.61,0Z" style="opacity:0.1"></path><path d="M261.05,327.45a.94.94,0,1,0-.94.93A.93.93,0,0,0,261.05,327.45Z" style="opacity:0.1"></path><path d="M235.62,318.71a.94.94,0,1,0-.93.93A.94.94,0,0,0,235.62,318.71Z" style="opacity:0.1"></path><path d="M267.68,316.29a.93.93,0,1,0-.93.93A.92.92,0,0,0,267.68,316.29Z" style="opacity:0.1"></path><path d="M291.77,325.37a.93.93,0,1,0-.93.93A.93.93,0,0,0,291.77,325.37Z" style="opacity:0.1"></path><path d="M143.1,349.36h89.52S192.2,304,143.1,349.36Z" style="fill:#FFC100"></path><path d="M143.1,349.36h89.52S192.2,304,143.1,349.36Z" style="opacity:0.1"></path><path d="M194.6,341.53a1.31,1.31,0,1,0,1.3-1.3A1.3,1.3,0,0,0,194.6,341.53Z" style="opacity:0.1"></path><path d="M219.43,343.77a1.31,1.31,0,1,0,1.3-1.3A1.31,1.31,0,0,0,219.43,343.77Z" style="opacity:0.1"></path><path d="M169.89,336.36a1.31,1.31,0,1,0,1.31-1.31A1.31,1.31,0,0,0,169.89,336.36Z" style="opacity:0.1"></path><path d="M187.86,338.15a.94.94,0,1,0,.93-.94A.93.93,0,0,0,187.86,338.15Z" style="opacity:0.1"></path><path d="M213.29,346.89a.94.94,0,1,0,.93-.93A.93.93,0,0,0,213.29,346.89Z" style="opacity:0.1"></path><path d="M162.79,343.77a.94.94,0,1,0,.93-.93A.94.94,0,0,0,162.79,343.77Z" style="opacity:0.1"></path><path d="M485.17,332.84h89.52S534.28,287.43,485.17,332.84Z" style="fill:#FFC100"></path><path d="M485.17,332.84h89.52S534.28,287.43,485.17,332.84Z" style="opacity:0.1"></path><path d="M536.68,325a1.3,1.3,0,1,0,1.3-1.3A1.31,1.31,0,0,0,536.68,325Z" style="opacity:0.1"></path><path d="M561.5,327.25a1.31,1.31,0,1,0,1.31-1.31A1.31,1.31,0,0,0,561.5,327.25Z" style="opacity:0.1"></path><path d="M512,319.83a1.31,1.31,0,1,0,1.3-1.3A1.3,1.3,0,0,0,512,319.83Z" style="opacity:0.1"></path><path d="M529.93,321.62a.94.94,0,1,0,.94-.93A.94.94,0,0,0,529.93,321.62Z" style="opacity:0.1"></path><path d="M555.36,330.37a.94.94,0,1,0,.94-.94A.94.94,0,0,0,555.36,330.37Z" style="opacity:0.1"></path><path d="M504.87,327.25a.93.93,0,1,0,.93-.93A.92.92,0,0,0,504.87,327.25Z" style="opacity:0.1"></path><path d="M279.56,343.57h67.28S316.46,309.44,279.56,343.57Z" style="fill:#FFC100"></path><path d="M279.56,343.57h67.28S316.46,309.44,279.56,343.57Z" style="opacity:0.1"></path><path d="M318.27,337.69a1,1,0,1,0,1-1A1,1,0,0,0,318.27,337.69Z" style="opacity:0.1"></path><path d="M336.93,339.37a1,1,0,1,0,1-1A1,1,0,0,0,336.93,339.37Z" style="opacity:0.1"></path><path d="M299.7,333.8a1,1,0,1,0,1-1A1,1,0,0,0,299.7,333.8Z" style="opacity:0.1"></path><path d="M313.2,335.14a.71.71,0,1,0,.7-.7A.7.7,0,0,0,313.2,335.14Z" style="opacity:0.1"></path><path d="M332.31,341.71a.71.71,0,1,0,.7-.7A.7.7,0,0,0,332.31,341.71Z" style="opacity:0.1"></path><path d="M294.36,339.37a.71.71,0,1,0,.7-.7A.7.7,0,0,0,294.36,339.37Z" style="opacity:0.1"></path><path d="M547.79,339.34h69.79S586.07,303.94,547.79,339.34Z" style="fill:#FFC100"></path><path d="M547.79,339.34h69.79S586.07,303.94,547.79,339.34Z" style="opacity:0.30000000000000004"></path><path d="M589.29,334.28a.71.71,0,0,0-.71-.7.71.71,0,0,0,0,1.41A.71.71,0,0,0,589.29,334.28Z" style="opacity:0.1"></path><path d="M573.76,328.62a.71.71,0,1,0-.7.7A.7.7,0,0,0,573.76,328.62Z" style="opacity:0.1"></path><path d="M575.91,333.08a.7.7,0,1,0-1.4,0,.7.7,0,0,0,1.4,0Z" style="opacity:0.1"></path><path d="M561.64,331.9a.71.71,0,1,0-.7.7A.7.7,0,0,0,561.64,331.9Z" style="opacity:0.1"></path><path d="M602.59,337.07a.7.7,0,1,0-.7.7A.7.7,0,0,0,602.59,337.07Z" style="opacity:0.1"></path><circle cx="575.91" cy="337.77" r="0.7" style="opacity:0.1"></circle><path d="M592.92,336.11a.51.51,0,1,0-1,0,.51.51,0,0,0,1,0Z" style="opacity:0.1"></path><path d="M579.22,331.4a.5.5,0,0,0-.5-.5.5.5,0,1,0,0,1A.5.5,0,0,0,579.22,331.4Z" style="opacity:0.1"></path><path d="M596.49,330.1a.51.51,0,1,0-.5.5A.5.5,0,0,0,596.49,330.1Z" style="opacity:0.1"></path><path d="M609.46,335a.5.5,0,1,0-.5.5A.5.5,0,0,0,609.46,335Z" style="opacity:0.1"></path></g><g id="freepik--fence-2--inject-15"><polygon points="652.22 326.94 651.89 329.27 651.54 331.78 648.32 354.63 643.05 354.63 646.27 331.78 646.62 329.27 646.95 326.94 652.22 326.94" style="fill:#FFC100"></polygon><path d="M651.46,326.94c-.28,2.31-.58,4.63-.88,6.94l-.93,6.92-1,6.92-.51,3.46-.52,3.45.43-3.47.45-3.46.93-6.93,1-6.92Q650.92,330.39,651.46,326.94Z" style="opacity:0.1"></path><polygon points="651.89 329.27 651.54 331.78 646.27 331.78 646.62 329.27 651.89 329.27" style="opacity:0.1"></polygon><polygon points="678.24 326.94 678.56 329.27 678.92 331.78 682.14 354.63 687.41 354.63 684.19 331.78 683.83 329.27 683.5 326.94 678.24 326.94" style="fill:#FFC100"></polygon><path d="M679,326.94c.28,2.31.58,4.63.88,6.94l.93,6.92,1,6.92.5,3.46.52,3.45-.43-3.47-.45-3.46-.93-6.93-1-6.92Q679.55,330.39,679,326.94Z" style="opacity:0.1"></path><polygon points="678.56 329.27 683.83 329.27 684.19 331.78 678.92 331.78 678.56 329.27" style="opacity:0.1"></polygon><polygon points="652.03 322.14 647.85 322.14 648.37 318.25 651.51 318.25 652.03 322.14" style="fill:#FFC100"></polygon><polygon points="652.03 322.14 647.85 322.14 648.37 318.25 651.51 318.25 652.03 322.14" style="opacity:0.1"></polygon><path d="M653.83,315.47a3.89,3.89,0,1,1-3.89-3.9A3.89,3.89,0,0,1,653.83,315.47Z" style="fill:#FFC100"></path><path d="M652.9,315.47a3,3,0,1,1-3-3A3,3,0,0,1,652.9,315.47Z" style="fill:#fff"></path><path d="M652.41,315.3a2.57,2.57,0,0,0-1-1.82,2.61,2.61,0,0,0-2-.52,2.48,2.48,0,0,0-1.72,1.11,2.62,2.62,0,0,0-.31,2.13,2.48,2.48,0,0,0,1.16,1.47,2.61,2.61,0,0,0,1.81.28,2.71,2.71,0,0,0,1.52-.93,2.86,2.86,0,0,0,.63-1.65s0-.06,0-.06,0,0,0,.06a2.87,2.87,0,0,1-.13.71,3,3,0,0,1-.33.64,2.47,2.47,0,0,1-.49.53,2.79,2.79,0,0,1-.61.4,2.49,2.49,0,0,1-2,.05,2.46,2.46,0,0,1-1.11-3.58,2.4,2.4,0,0,1,1.66-1.09,2.59,2.59,0,0,1,2.46,1,3.34,3.34,0,0,1,.33.62,3.14,3.14,0,0,1,.15.69h0Z" style="fill:#FFC100"></path><path d="M652.07,315.3a2.22,2.22,0,0,0-2.54-2,2.13,2.13,0,0,0-1.48.94,2.24,2.24,0,0,0-.29,1.85,2.11,2.11,0,0,0,1,1.28,2.28,2.28,0,0,0,2.9-.58,2.47,2.47,0,0,0,.54-1.43s0-.05,0-.05,0,0,0,.05a2.38,2.38,0,0,1-1.35,2,2.11,2.11,0,0,1-2.94-1.25,2.18,2.18,0,0,1,.24-1.79,2,2,0,0,1,1.44-.92,2.22,2.22,0,0,1,2.09.83,2,2,0,0,1,.28.52,2.31,2.31,0,0,1,.14.59h0Z" style="fill:#FFC100"></path><path d="M651.72,315.3A1.84,1.84,0,0,0,651,314a1.9,1.9,0,0,0-1.41-.38,1.77,1.77,0,0,0-1.25.77,1.88,1.88,0,0,0-.26,1.56,1.72,1.72,0,0,0,.85,1.1,1.87,1.87,0,0,0,1.35.19,2,2,0,0,0,1.11-.7,2.09,2.09,0,0,0,.45-1.21s0,0,0,0a0,0,0,0,0,0,0,2,2,0,0,1-1.14,1.66,1.76,1.76,0,0,1-1.47.05,1.71,1.71,0,0,1-1-1.1,1.82,1.82,0,0,1,.21-1.5,1.69,1.69,0,0,1,1.21-.75,2,2,0,0,1,.95.11,1.74,1.74,0,0,1,.78.57,1.82,1.82,0,0,1,.24.43,2.72,2.72,0,0,1,.13.49h0Z" style="fill:#FFC100"></path><path d="M651.37,315.3a1.47,1.47,0,0,0-.58-1,1.57,1.57,0,0,0-1.12-.32,1.53,1.53,0,0,0-1,.61,1.57,1.57,0,0,0-.24,1.28,1.46,1.46,0,0,0,.7.91,1.56,1.56,0,0,0,1.12.15,1.69,1.69,0,0,0,.91-.58,1.8,1.8,0,0,0,.37-1s0,0,0,0l0,0a1.67,1.67,0,0,1-.92,1.35,1.44,1.44,0,0,1-1.2.06,1.4,1.4,0,0,1-.82-.91,1.49,1.49,0,0,1,.2-1.21,1.35,1.35,0,0,1,1-.59,1.69,1.69,0,0,1,.75.1,1.42,1.42,0,0,1,.62.44,1.68,1.68,0,0,1,.2.34,1.6,1.6,0,0,1,.11.39h0S651.38,315.31,651.37,315.3Z" style="fill:#FFC100"></path><polygon points="682.51 322.14 678.34 322.14 678.86 318.25 682 318.25 682.51 322.14" style="fill:#FFC100"></polygon><polygon points="682.51 322.14 678.34 322.14 678.86 318.25 682 318.25 682.51 322.14" style="opacity:0.1"></polygon><path d="M684.32,315.47a3.9,3.9,0,1,1-3.89-3.9A3.89,3.89,0,0,1,684.32,315.47Z" style="fill:#FFC100"></path><path d="M683.39,315.47a3,3,0,1,1-3-3A3,3,0,0,1,683.39,315.47Z" style="fill:#fff"></path><path d="M682.9,315.3a2.54,2.54,0,0,0-1-1.82,2.59,2.59,0,0,0-2-.52,2.49,2.49,0,0,0-1.71,1.11,2.62,2.62,0,0,0-.31,2.13,2.44,2.44,0,0,0,1.16,1.47,2.61,2.61,0,0,0,1.81.28,2.74,2.74,0,0,0,1.52-.93,2.84,2.84,0,0,0,.62-1.65s0-.06,0-.06,0,0,0,.06a2.49,2.49,0,0,1-.14.71,3,3,0,0,1-.32.64,2.75,2.75,0,0,1-.49.53,3.06,3.06,0,0,1-.61.4,2.49,2.49,0,0,1-2,.05,2.44,2.44,0,0,1-1.38-1.5,2.55,2.55,0,0,1,.26-2.08A2.4,2.4,0,0,1,680,313a2.56,2.56,0,0,1,2.45,1,2.46,2.46,0,0,1,.33.62,3.15,3.15,0,0,1,.16.69h0Z" style="fill:#FFC100"></path><path d="M682.55,315.3a2.22,2.22,0,0,0-2.54-2,2.15,2.15,0,0,0-1.48.94,2.27,2.27,0,0,0-.28,1.85,2.11,2.11,0,0,0,1,1.28,2.3,2.3,0,0,0,1.58.24,2.39,2.39,0,0,0,1.32-.82,2.54,2.54,0,0,0,.54-1.43s0-.05,0-.05,0,0,0,.05a2.34,2.34,0,0,1-1.35,2,2.1,2.1,0,0,1-2.93-1.25,2.15,2.15,0,0,1,.24-1.79,2,2,0,0,1,1.43-.92,2.21,2.21,0,0,1,2.09.83,2,2,0,0,1,.29.52,2.31,2.31,0,0,1,.14.59h0S682.56,315.3,682.55,315.3Z" style="fill:#FFC100"></path><path d="M682.21,315.3a1.88,1.88,0,0,0-.71-1.28,1.9,1.9,0,0,0-1.41-.38,1.77,1.77,0,0,0-1.25.77,1.92,1.92,0,0,0-.27,1.56,1.78,1.78,0,0,0,.85,1.1,1.89,1.89,0,0,0,1.35.19,1.92,1.92,0,0,0,1.11-.7,2,2,0,0,0,.46-1.21s0,0,0,0,0,0,0,0a2,2,0,0,1-1.14,1.66,1.78,1.78,0,0,1-1.48.05,1.72,1.72,0,0,1-1-1.1,1.78,1.78,0,0,1,.21-1.5,1.69,1.69,0,0,1,1.21-.75,2,2,0,0,1,.95.11,1.74,1.74,0,0,1,.78.57,2.26,2.26,0,0,1,.24.43,2.07,2.07,0,0,1,.12.49h0Z" style="fill:#FFC100"></path><path d="M681.86,315.3a1.47,1.47,0,0,0-.58-1,1.58,1.58,0,0,0-1.12-.32,1.48,1.48,0,0,0-1,.61,1.57,1.57,0,0,0-.24,1.28,1.43,1.43,0,0,0,.7.91,1.55,1.55,0,0,0,1.11.15,1.66,1.66,0,0,0,.91-.58,1.8,1.8,0,0,0,.37-1s0,0,0,0l0,0a1.67,1.67,0,0,1-.92,1.35,1.46,1.46,0,0,1-1.21.06,1.41,1.41,0,0,1-.81-.91,1.49,1.49,0,0,1,.19-1.21,1.37,1.37,0,0,1,1-.59,1.71,1.71,0,0,1,.75.1,1.48,1.48,0,0,1,.62.44,2.33,2.33,0,0,1,.2.34,2.22,2.22,0,0,1,.11.39h0Z" style="fill:#FFC100"></path><rect x="638.97" y="320.16" width="52.51" height="10.04" style="fill:#fff"></rect><path d="M691.61,330.33H638.85V320h52.76Zm-52.51-.25h52.26v-9.79H639.1Z" style="fill:#263238"></path><polygon points="649.77 320.16 645.96 330.2 639.17 330.2 642.99 320.16 649.77 320.16" style="fill:#FFC100"></polygon><polygon points="663.67 320.16 659.86 330.2 653.07 330.2 656.88 320.16 663.67 320.16" style="fill:#FFC100"></polygon><polygon points="677.56 320.16 673.75 330.2 666.97 330.2 670.78 320.16 677.56 320.16" style="fill:#FFC100"></polygon><polygon points="691.46 320.16 687.65 330.2 680.87 330.2 684.68 320.16 691.46 320.16" style="fill:#FFC100"></polygon><rect x="640.04" y="342.48" width="50.38" height="6.36" style="fill:#fff"></rect><path d="M690.54,349H639.91v-6.61h50.63Zm-50.38-.25h50.13V342.6H640.16Z" style="fill:#263238"></path><polygon points="650.39 342.48 646.74 348.83 640.23 348.83 643.89 342.48 650.39 342.48" style="fill:#FFC100"></polygon><polygon points="663.73 342.48 660.07 348.83 653.56 348.83 657.22 342.48 663.73 342.48" style="fill:#FFC100"></polygon><polygon points="677.06 342.48 673.41 348.83 666.9 348.83 670.56 342.48 677.06 342.48" style="fill:#FFC100"></polygon><polygon points="690.4 342.48 686.75 348.83 680.24 348.83 683.89 342.48 690.4 342.48" style="fill:#FFC100"></polygon><circle cx="665.23" cy="325.18" r="8.17" style="fill:#fff"></circle><path d="M665.23,333.48a8.3,8.3,0,1,1,8.29-8.3A8.31,8.31,0,0,1,665.23,333.48Zm0-16.34a8,8,0,1,0,8,8A8.06,8.06,0,0,0,665.23,317.14Z" style="fill:#263238"></path><circle cx="665.23" cy="325.18" r="6.93" style="fill:#FFC100"></circle><rect x="660.88" y="324.38" width="8.69" height="1.61" style="fill:#fff"></rect></g><g id="freepik--fence-1--inject-15"><polygon points="62.03 326.94 61.7 329.27 61.35 331.78 58.13 354.63 52.86 354.63 56.08 331.78 56.43 329.27 56.76 326.94 62.03 326.94" style="fill:#FFC100"></polygon><path d="M61.27,326.94c-.28,2.31-.58,4.63-.88,6.94l-.93,6.92-1,6.92L58,351.18l-.52,3.45.43-3.47.45-3.46.93-6.93,1-6.92Q60.74,330.39,61.27,326.94Z" style="opacity:0.1"></path><polygon points="61.7 329.27 61.35 331.78 56.08 331.78 56.43 329.27 61.7 329.27" style="opacity:0.1"></polygon><polygon points="88.04 326.94 88.37 329.27 88.72 331.78 91.95 354.63 97.22 354.63 94 331.78 93.64 329.27 93.31 326.94 88.04 326.94" style="fill:#FFC100"></polygon><path d="M88.82,326.94c.28,2.31.58,4.63.88,6.94l.93,6.92,1,6.92.51,3.46.52,3.45-.43-3.47-.45-3.46-.93-6.93-1-6.92Q89.35,330.39,88.82,326.94Z" style="opacity:0.1"></path><polygon points="88.37 329.27 93.64 329.27 94 331.78 88.72 331.78 88.37 329.27" style="opacity:0.1"></polygon><polygon points="61.84 322.14 57.66 322.14 58.18 318.25 61.32 318.25 61.84 322.14" style="fill:#FFC100"></polygon><polygon points="61.84 322.14 57.66 322.14 58.18 318.25 61.32 318.25 61.84 322.14" style="opacity:0.1"></polygon><path d="M63.64,315.47a3.9,3.9,0,1,1-3.89-3.9A3.89,3.89,0,0,1,63.64,315.47Z" style="fill:#FFC100"></path><path d="M62.71,315.47a3,3,0,1,1-3-3A3,3,0,0,1,62.71,315.47Z" style="fill:#fff"></path><path d="M62.22,315.3a2.57,2.57,0,0,0-1-1.82,2.61,2.61,0,0,0-2-.52,2.48,2.48,0,0,0-1.72,1.11,2.62,2.62,0,0,0-.31,2.13,2.44,2.44,0,0,0,1.16,1.47,2.61,2.61,0,0,0,1.81.28,2.71,2.71,0,0,0,1.52-.93,2.86,2.86,0,0,0,.63-1.65s0-.06,0-.06,0,0,0,.06a2.87,2.87,0,0,1-.13.71,3.51,3.51,0,0,1-.33.64,2.47,2.47,0,0,1-.49.53,2.79,2.79,0,0,1-.61.4,2.49,2.49,0,0,1-2,.05,2.42,2.42,0,0,1-1.37-1.5,2.47,2.47,0,0,1,.26-2.08A2.4,2.4,0,0,1,59.27,313a2.56,2.56,0,0,1,2.45,1,2.87,2.87,0,0,1,.34.62,3.14,3.14,0,0,1,.15.69h0Z" style="fill:#FFC100"></path><path d="M61.88,315.3a2.22,2.22,0,0,0-2.54-2,2.13,2.13,0,0,0-1.48.94,2.24,2.24,0,0,0-.29,1.85,2.11,2.11,0,0,0,1,1.28,2.28,2.28,0,0,0,2.9-.58,2.47,2.47,0,0,0,.54-1.43s0-.05,0-.05,0,0,0,.05a2.37,2.37,0,0,1-1.36,2,2.07,2.07,0,0,1-1.74.05,2.1,2.1,0,0,1-1.19-1.3,2.18,2.18,0,0,1,.24-1.79,2,2,0,0,1,1.44-.92,2.22,2.22,0,0,1,2.09.83,2,2,0,0,1,.28.52,2.31,2.31,0,0,1,.14.59h0Z" style="fill:#FFC100"></path><path d="M61.53,315.3a1.84,1.84,0,0,0-.71-1.28,1.9,1.9,0,0,0-1.41-.38,1.77,1.77,0,0,0-1.25.77A1.88,1.88,0,0,0,57.9,316a1.72,1.72,0,0,0,.85,1.1,1.86,1.86,0,0,0,1.34.19,2,2,0,0,0,1.12-.7,2.09,2.09,0,0,0,.45-1.21s0,0,0,0,0,0,0,0A2,2,0,0,1,60.47,317a1.76,1.76,0,0,1-1.47.05,1.71,1.71,0,0,1-1-1.1,1.82,1.82,0,0,1,.21-1.5,1.69,1.69,0,0,1,1.21-.75,2,2,0,0,1,.95.11,1.74,1.74,0,0,1,.78.57,1.82,1.82,0,0,1,.24.43,2.72,2.72,0,0,1,.13.49h0Z" style="fill:#FFC100"></path><path d="M61.18,315.3a1.47,1.47,0,0,0-.58-1,1.58,1.58,0,0,0-1.12-.32,1.51,1.51,0,0,0-1,.61,1.57,1.57,0,0,0-.24,1.28,1.46,1.46,0,0,0,.7.91,1.56,1.56,0,0,0,1.12.15,1.63,1.63,0,0,0,.9-.58,1.81,1.81,0,0,0,.38-1s0,0,0,0l0,0a1.67,1.67,0,0,1-.92,1.35,1.44,1.44,0,0,1-1.2.06,1.4,1.4,0,0,1-.82-.91,1.45,1.45,0,0,1,.2-1.21,1.35,1.35,0,0,1,1-.59,1.69,1.69,0,0,1,.75.1,1.48,1.48,0,0,1,.62.44,1.68,1.68,0,0,1,.2.34,2.22,2.22,0,0,1,.11.39h0Z" style="fill:#FFC100"></path><polygon points="92.32 322.14 88.15 322.14 88.67 318.25 91.81 318.25 92.32 322.14" style="fill:#FFC100"></polygon><polygon points="92.32 322.14 88.15 322.14 88.67 318.25 91.81 318.25 92.32 322.14" style="opacity:0.1"></polygon><path d="M94.13,315.47a3.9,3.9,0,1,1-3.9-3.9A3.89,3.89,0,0,1,94.13,315.47Z" style="fill:#FFC100"></path><path d="M93.2,315.47a3,3,0,1,1-3-3A3,3,0,0,1,93.2,315.47Z" style="fill:#fff"></path><path d="M92.71,315.3a2.54,2.54,0,0,0-1-1.82,2.6,2.6,0,0,0-2-.52A2.49,2.49,0,0,0,88,314.07a2.62,2.62,0,0,0-.31,2.13,2.46,2.46,0,0,0,1.15,1.47,2.65,2.65,0,0,0,1.82.28,2.74,2.74,0,0,0,1.52-.93,2.84,2.84,0,0,0,.62-1.65s0-.06,0-.06,0,0,0,.06a2.49,2.49,0,0,1-.14.71,2.59,2.59,0,0,1-.33.64,2.43,2.43,0,0,1-.48.53,3.06,3.06,0,0,1-.61.4,2.52,2.52,0,0,1-2,.05,2.45,2.45,0,0,1-1.37-1.5,2.55,2.55,0,0,1,.26-2.08A2.4,2.4,0,0,1,89.76,313a2.57,2.57,0,0,1,2.45,1,2.46,2.46,0,0,1,.33.62,3.15,3.15,0,0,1,.16.69h0Z" style="fill:#FFC100"></path><path d="M92.36,315.3a2.19,2.19,0,0,0-.84-1.55,2.22,2.22,0,0,0-1.7-.45,2.15,2.15,0,0,0-1.48.94,2.27,2.27,0,0,0-.28,1.85,2.11,2.11,0,0,0,1,1.28,2.3,2.3,0,0,0,1.58.24,2.33,2.33,0,0,0,1.31-.82,2.48,2.48,0,0,0,.55-1.43s0-.05,0-.05,0,0,0,.05a2.34,2.34,0,0,1-1.35,2,2.1,2.1,0,0,1-2.93-1.25,2.15,2.15,0,0,1,.24-1.79,2,2,0,0,1,1.43-.92,2.21,2.21,0,0,1,2.09.83,2,2,0,0,1,.29.52,2.82,2.82,0,0,1,.14.59h0Z" style="fill:#FFC100"></path><path d="M92,315.3a1.87,1.87,0,0,0-2.12-1.66,1.81,1.81,0,0,0-1.26.77,2,2,0,0,0-.26,1.56,1.78,1.78,0,0,0,.85,1.1,1.88,1.88,0,0,0,1.35.19,1.92,1.92,0,0,0,1.11-.7,2,2,0,0,0,.46-1.21s0,0,0,0,0,0,0,0A2,2,0,0,1,91,317a1.78,1.78,0,0,1-1.48.05,1.72,1.72,0,0,1-1-1.1,1.78,1.78,0,0,1,.21-1.5,1.69,1.69,0,0,1,1.2-.75,2.05,2.05,0,0,1,1,.11,1.74,1.74,0,0,1,.78.57,2.26,2.26,0,0,1,.24.43,2.07,2.07,0,0,1,.12.49h0Z" style="fill:#FFC100"></path><path d="M91.67,315.3a1.47,1.47,0,0,0-.58-1A1.59,1.59,0,0,0,90,314a1.48,1.48,0,0,0-1,.61,1.57,1.57,0,0,0-.24,1.28,1.43,1.43,0,0,0,.7.91,1.55,1.55,0,0,0,1.11.15,1.66,1.66,0,0,0,.91-.58,1.8,1.8,0,0,0,.37-1s0,0,0,0l0,0a1.66,1.66,0,0,1-.93,1.35,1.44,1.44,0,0,1-1.2.06,1.41,1.41,0,0,1-.81-.91,1.45,1.45,0,0,1,.19-1.21,1.37,1.37,0,0,1,1-.59,1.71,1.71,0,0,1,.75.1,1.48,1.48,0,0,1,.62.44,2.33,2.33,0,0,1,.2.34,2.22,2.22,0,0,1,.11.39h0Z" style="fill:#FFC100"></path><rect x="48.78" y="320.16" width="52.51" height="10.04" style="fill:#fff"></rect><path d="M101.41,330.33H48.66V320h52.75Zm-52.5-.25h52.25v-9.79H48.91Z" style="fill:#263238"></path><polygon points="59.58 320.16 55.76 330.2 48.98 330.2 52.79 320.16 59.58 320.16" style="fill:#FFC100"></polygon><polygon points="73.47 320.16 69.66 330.2 62.88 330.2 66.69 320.16 73.47 320.16" style="fill:#FFC100"></polygon><polygon points="87.37 320.16 83.56 330.2 76.78 330.2 80.59 320.16 87.37 320.16" style="fill:#FFC100"></polygon><polygon points="101.27 320.16 97.46 330.2 90.68 330.2 94.49 320.16 101.27 320.16" style="fill:#FFC100"></polygon><rect x="49.85" y="342.48" width="50.38" height="6.36" style="fill:#fff"></rect><path d="M100.35,349H49.72v-6.61h50.63ZM50,348.71H100.1V342.6H50Z" style="fill:#263238"></path><polygon points="60.2 342.48 56.54 348.83 50.04 348.83 53.7 342.48 60.2 342.48" style="fill:#FFC100"></polygon><polygon points="73.54 342.48 69.88 348.83 63.37 348.83 67.03 342.48 73.54 342.48" style="fill:#FFC100"></polygon><polygon points="86.87 342.48 83.22 348.83 76.71 348.83 80.37 342.48 86.87 342.48" style="fill:#FFC100"></polygon><polygon points="100.21 342.48 96.55 348.83 90.05 348.83 93.7 342.48 100.21 342.48" style="fill:#FFC100"></polygon><circle cx="75.04" cy="325.18" r="8.17" style="fill:#fff"></circle><path d="M75,333.48a8.3,8.3,0,1,1,8.29-8.3A8.31,8.31,0,0,1,75,333.48Zm0-16.34a8,8,0,1,0,8,8A8.06,8.06,0,0,0,75,317.14Z" style="fill:#263238"></path><circle cx="75.04" cy="325.18" r="6.93" style="fill:#FFC100"></circle><rect x="70.69" y="324.38" width="8.69" height="1.61" style="fill:#fff"></rect></g></svg>