<svg width="24" height="24" viewBox="0 0 24 24" fill="none" xmlns="http://www.w3.org/2000/svg">
<path d="M15.0005 1.99968C13.3635 2.00101 11.7787 2.576 10.5218 3.62469C9.26479 4.67338 8.41511 6.12944 8.12046 7.73968C7.25889 8.2045 6.52414 8.87308 5.9803 9.68708C5.43647 10.5011 5.10007 11.4358 5.00046 12.4097C4.2562 12.7371 3.60301 13.241 3.0975 13.8778C2.59199 14.5147 2.24941 15.2652 2.09945 16.0643C1.94949 16.8634 1.99667 17.6871 2.23692 18.4638C2.47716 19.2406 2.90321 19.9471 3.47814 20.522C4.05307 21.0969 4.75954 21.523 5.53631 21.7632C6.31308 22.0035 7.13672 22.0507 7.93585 21.9007C8.73498 21.7507 9.48548 21.4082 10.1223 20.9026C10.7591 20.3971 11.2631 19.7439 11.5905 18.9997C12.5615 18.9032 13.4943 18.5713 14.308 18.0329C15.1218 17.4944 15.792 16.7657 16.2605 15.9097C18.0114 15.6288 19.5904 14.6939 20.6787 13.2937C21.7669 11.8936 22.2831 10.1326 22.1232 8.36656C21.9632 6.60049 21.1389 4.96095 19.8168 3.77915C18.4947 2.59734 16.7733 1.96137 15.0005 1.99968ZM10.0005 17.4297C10.0005 17.5297 10.0005 17.6297 9.93046 17.7397C9.80129 18.2544 9.53791 18.7256 9.16718 19.1053C8.79646 19.485 8.33165 19.7595 7.82019 19.901C7.30872 20.0424 6.76889 20.0456 6.25577 19.9103C5.74265 19.775 5.2746 19.506 4.89937 19.1308C4.52413 18.7555 4.25515 18.2875 4.11984 17.7744C3.98454 17.2613 3.98776 16.7214 4.12918 16.21C4.2706 15.6985 4.54516 15.2337 4.92485 14.863C5.30453 14.4922 5.77576 14.2289 6.29046 14.0997L6.57046 13.9997C7.04004 13.9119 7.52392 13.9399 7.98025 14.0813C8.43657 14.2226 8.85158 14.473 9.18937 14.8108C9.52716 15.1486 9.77755 15.5636 9.91888 16.0199C10.0602 16.4762 10.0882 16.9601 10.0005 17.4297ZM15.0005 13.7597C14.9873 13.8239 14.9706 13.8873 14.9505 13.9497C14.9075 14.1337 14.8507 14.3142 14.7805 14.4897C14.5502 15.0735 14.1859 15.5949 13.7168 16.0118C13.2478 16.4288 12.6872 16.7295 12.0805 16.8897C12.0805 16.7097 12.0805 16.5397 12.0205 16.3597C11.9605 16.1797 12.0205 16.0897 12.0205 15.9597C12.0205 15.8297 11.9005 15.5797 11.8405 15.3897C11.7805 15.1997 11.7705 15.1497 11.7205 15.0297C11.6343 14.8392 11.534 14.6553 11.4205 14.4797C11.4205 14.3897 11.3305 14.2897 11.2705 14.1997C11.0926 13.939 10.8918 13.6947 10.6705 13.4697L10.4705 13.2997C10.3028 13.1456 10.1258 13.0019 9.94046 12.8697C9.83151 12.7988 9.71792 12.7353 9.60046 12.6797C9.4404 12.5779 9.27332 12.4877 9.10046 12.4097C8.9713 12.3544 8.83742 12.3109 8.70046 12.2797C8.5321 12.2114 8.35811 12.1578 8.18046 12.1197C8.04046 12.1197 7.89046 12.1197 7.74046 12.0597L7.13046 11.9997C7.28964 11.394 7.58884 10.8341 8.00396 10.3651C8.41908 9.89613 8.93852 9.5312 9.52046 9.29968C9.69197 9.22806 9.86928 9.17118 10.0505 9.12968L10.2505 9.07968C10.4971 9.02781 10.7484 9.00101 11.0005 8.99968C12.0613 8.99968 13.0787 9.42111 13.8289 10.1713C14.579 10.9214 15.0005 11.9388 15.0005 12.9997C14.9991 13.255 14.9723 13.5096 14.9205 13.7597H15.0005ZM17.0005 13.5997C17.0005 13.3997 17.0005 13.1997 17.0005 12.9997C17.0005 11.4084 16.3683 9.88226 15.2431 8.75704C14.1179 7.63182 12.5918 6.99968 11.0005 6.99968C10.8005 6.99968 10.6005 6.99968 10.4005 6.99968C10.7301 6.25823 11.2352 5.60814 11.8722 5.10553C12.5092 4.60292 13.259 4.2629 14.0568 4.1148C14.8546 3.96671 15.6764 4.01501 16.4514 4.25552C17.2263 4.49603 17.9311 4.92153 18.5048 5.49529C19.0786 6.06905 19.5041 6.77383 19.7446 7.54878C19.9851 8.32374 20.0334 9.14558 19.8853 9.94337C19.7372 10.7412 19.3972 11.4909 18.8946 12.1279C18.392 12.7649 17.7419 13.2701 17.0005 13.5997Z" fill="#212121"/>
</svg>
