<svg width="116" height="190" viewBox="0 0 116 190" fill="none" xmlns="http://www.w3.org/2000/svg">
<path d="M57.9484 189.15C89.8631 189.15 115.893 183.722 115.893 177.071C115.893 170.415 89.8631 164.987 57.9484 164.987C26.0299 164.987 0 170.415 0 177.071C0 183.722 26.0299 189.15 57.9484 189.15Z" fill="#E6E7E8"/>
<path d="M28.765 178.519C32.5964 178.519 35.7228 177.868 35.7228 177.07C35.7228 176.268 32.5964 175.617 28.765 175.617C24.9296 175.617 21.8032 176.268 21.8032 177.07C21.8032 177.868 24.9296 178.519 28.765 178.519Z" fill="#888888"/>
<path d="M20.9819 184.183C29.9969 184.183 37.3499 180.708 37.3499 176.443C37.3499 172.181 29.9969 168.706 20.9819 168.706C11.9631 168.706 4.61011 172.181 4.61011 176.443C4.61011 180.708 11.9631 184.183 20.9819 184.183Z" fill="#3E3639"/>
<path d="M16.949 18.3535H29.5668V177.377V179.399L29.5088 179.449L29.501 179.457L29.4351 179.511L29.4158 179.531L29.3654 179.569L29.3112 179.612L29.2957 179.627L29.2221 179.682L29.0671 179.79L28.9896 179.844H28.9857L28.9083 179.895L28.8695 179.922L28.8269 179.949L28.7494 179.996L28.7416 179.999L28.6564 180.05L28.6255 180.069L28.5673 180.1L28.4976 180.139L28.4782 180.151L28.3891 180.197L28.3698 180.209L28.2962 180.247L28.2342 180.278L28.1993 180.294L28.1025 180.34L28.0947 180.344L28.0056 180.383L27.9552 180.406L27.9049 180.429L27.8119 180.472H27.8041L27.7034 180.519L27.6647 180.534L27.5988 180.561L27.5136 180.592L27.4942 180.6L27.3857 180.643L27.3586 180.654L27.2773 180.681L27.2036 180.708L27.1688 180.724L27.0564 180.759L27.041 180.766L26.9441 180.797L26.8821 180.817L26.8279 180.832L26.7155 180.867L26.5954 180.906L26.5451 180.918L26.4792 180.937L26.3785 180.968L26.3591 180.972L26.239 181.003L26.2042 181.011L26.1189 181.034L26.026 181.057L25.9949 181.065L25.871 181.092L25.8477 181.1L25.7431 181.119L25.6657 181.138L25.6192 181.15L25.4875 181.173L25.4836 181.177L25.3596 181.2L25.3015 181.212L25.2318 181.224L25.1117 181.243L25.1 181.247L24.9683 181.27L24.9218 181.278L24.8327 181.289L24.7281 181.305L24.701 181.309L24.5654 181.328L24.5344 181.332L24.4298 181.348L24.3407 181.359L24.2904 181.363L24.1548 181.379L24.1431 181.382L24.0153 181.394L23.9417 181.402L23.8758 181.41L23.7402 181.421H23.7364L23.593 181.433L23.5388 181.437L23.4497 181.441L23.3334 181.448L23.3102 181.452L23.163 181.46H23.1281L22.9189 181.468L22.8763 181.472L22.7291 181.475H22.7097L22.5819 181.479H22.5005H22.4347H22.2874H22.1906H22.0976H22.0744H22.0008H21.9078L21.8652 181.475H21.8109L21.718 181.472L21.656 181.468H21.625L21.532 181.464L21.4468 181.46H21.439L21.346 181.456L21.2531 181.452L21.2415 181.448L21.1601 181.444L21.0671 181.437H21.0361L20.978 181.429L20.885 181.425L20.8308 181.421L20.7921 181.417L20.703 181.41L20.6293 181.402L20.6139 181.398L20.5247 181.39L20.4356 181.382H20.4318L20.3465 181.371L20.2574 181.359L20.1683 181.351L20.0792 181.34L20.0366 181.332L19.994 181.328L19.9049 181.317L19.8429 181.305L19.8197 181.301L19.7344 181.289L19.6531 181.278L19.6453 181.274L19.5601 181.262L19.4749 181.247L19.4632 181.243L19.3935 181.231L19.3083 181.216L19.2734 181.212L19.2231 181.2L19.1417 181.185L19.0875 181.177L19.0565 181.169L18.9751 181.15L18.8938 181.135L18.8124 181.119L18.731 181.1L18.6497 181.08L18.5722 181.061L18.5451 181.057L18.4909 181.042L18.4134 181.022L18.3708 181.011L18.3359 181.003L18.2545 180.983L18.1771 180.96L18.0996 180.941L18.026 180.918L17.9485 180.894L17.8749 180.875L17.7974 180.852L17.7238 180.828L17.4332 180.732L17.3712 180.708L17.3635 180.704L17.2938 180.681L17.2202 180.654L17.1543 180.631L17.0846 180.604L17.0148 180.577L16.949 180.55V177.28V18.3535Z" fill="#A37D73"/>
<path d="M16.949 18.3535H29.5668V19.4692C27.8235 20.8174 25.6347 21.6194 23.2598 21.6194C20.8812 21.6194 18.6923 20.8174 16.949 19.4692V18.3535Z" fill="#170603"/>
<path d="M23.256 18.3535H16.949V177.377V179.399L17.0071 179.449L17.0691 179.504L17.1001 179.531L17.1272 179.554L17.1892 179.604L17.2047 179.612L17.2589 179.655L17.3247 179.701L17.3906 179.751L17.4604 179.798L17.5262 179.844H17.5301L17.6037 179.895L17.6463 179.922L17.6773 179.941L17.7509 179.988L17.7664 179.996L17.8284 180.03L17.8904 180.069L17.9097 180.077L17.9872 180.123L18.0143 180.139L18.0686 180.166L18.1461 180.209H18.1499L18.2352 180.255L18.2817 180.278L18.3165 180.294L18.4018 180.336L18.4211 180.344L18.4909 180.375L18.5606 180.406L18.58 180.418L18.6691 180.457L18.7039 180.472L18.762 180.495L18.8511 180.534H18.855L18.948 180.573L19.0022 180.592L19.041 180.612L19.1378 180.646L19.1572 180.654L19.2347 180.681L19.3122 180.708L19.3354 180.716L19.4322 180.751L19.471 180.766L19.5369 180.786L19.6337 180.817L19.7383 180.852L19.8003 180.867L19.8429 180.883L19.9475 180.914L19.9669 180.918L20.056 180.941L20.1373 180.968L20.1606 180.972L20.2691 181.003L20.3117 181.011L20.3775 181.03L20.4899 181.057L20.5983 181.084L20.6681 181.1L20.7107 181.107L20.8231 181.135L20.8463 181.138L20.9393 181.158L21.0322 181.177L21.0555 181.181L21.1679 181.2L21.2143 181.212L21.2879 181.224L21.4042 181.243L21.5204 181.266L21.594 181.278L21.6405 181.286L21.7606 181.301L21.7877 181.305L21.8807 181.32L21.9775 181.332L22.0046 181.336L22.1247 181.351L22.2487 181.367L22.3727 181.382L22.4967 181.394L22.6206 181.406L22.7485 181.417L22.7756 181.421L22.8724 181.429L22.977 181.437H23.0003L23.1281 181.448H23.1824L23.256 181.452V177.326V18.3535Z" fill="#BD9585"/>
<path d="M23.256 18.3535H16.949V19.4692C18.6923 20.8174 20.8812 21.6194 23.256 21.6194V18.3535Z" fill="#53362B"/>
<path d="M23.2561 0.00195312C28.9587 0.00195312 33.5805 4.62374 33.5805 10.3264C33.5805 16.0252 28.9587 20.6508 23.2561 20.6508C17.5573 20.6508 12.9355 16.029 12.9355 10.3264C12.9355 4.62374 17.5573 0.00195312 23.2561 0.00195312Z" fill="#A37D73"/>
<path d="M18.0803 19.2597C13.1486 16.4007 11.4673 10.0859 14.3263 5.15036C17.1815 0.218656 23.4963 -1.46657 28.4319 1.3925L18.0803 19.2597Z" fill="#BD9585"/>
<path d="M33.5805 10.3262C33.5805 16.0288 28.9587 20.6506 23.2561 20.6506C17.5573 20.6506 12.9355 16.0288 12.9355 10.3262C12.9355 17.683 22.3418 18.3533 23.2173 18.3533C26.6691 18.3533 33.5805 17.009 33.5805 10.3262Z" fill="#53362B"/>
<path d="M12.9355 10.3262C12.9355 16.0288 17.5573 20.6506 23.2561 20.6506V18.3533C19.7888 18.3455 12.9355 16.2419 12.9355 10.3262Z" fill="#6F3E31"/>
<path d="M16.949 20.6465C19.0913 21.6344 21.1562 22.2465 23.2598 22.2465C25.286 22.2465 27.4632 21.9404 29.5668 20.6465L91.8853 50.7636L29.5629 80.8806C27.6143 81.8298 25.3596 82.4768 23.256 82.4768C21.1523 82.4768 18.7504 81.6787 16.949 80.8806C16.949 60.8052 16.949 40.7258 16.949 20.6465Z" fill="#E34F2F"/>
<path d="M23.2561 22.2465H23.26C25.2861 22.2465 27.4633 21.9404 29.567 20.6465V80.8806H29.5631C27.6144 81.8298 25.3597 82.4768 23.2561 82.4768V22.2465Z" fill="#883116"/>
<path d="M45.939 72.9699L91.8856 50.7637L62.9384 36.7744L45.939 72.9699Z" fill="#B9342C"/>
</svg>
