<svg width="20" height="20" viewBox="0 0 20 20" fill="none" xmlns="http://www.w3.org/2000/svg">
<rect width="20" height="20" rx="4" fill="#E0E0E0"/>
<path d="M16.3895 9.01232V7.652C16.3895 6.94864 16.1101 6.2741 15.6127 5.77675C15.1154 5.27941 14.4408 5 13.7375 5H5.652C4.94864 5 4.2741 5.27941 3.77675 5.77675C3.27941 6.2741 3 6.94864 3 7.652V9.836C3 10.5394 3.27941 11.2139 3.77675 11.7112C4.2741 12.2086 4.94864 12.488 5.652 12.488H10.3928C10.4768 13.0965 10.7092 13.6749 11.0696 14.1724C11.4299 14.6698 11.9071 15.071 12.4591 15.3405C13.0111 15.6099 13.6209 15.7395 14.2348 15.7176C14.8486 15.6958 15.4477 15.5233 15.9791 15.2152C16.5106 14.9072 16.9581 14.4732 17.2821 13.9514C17.6062 13.4296 17.7969 12.836 17.8375 12.2231C17.878 11.6102 17.7672 10.9968 17.5146 10.4368C17.2621 9.87687 16.8757 9.38766 16.3895 9.01232ZM10.3819 11.5536H5.652C5.19689 11.5536 4.76042 11.3728 4.4386 11.051C4.11679 10.7291 3.936 10.2927 3.936 9.83756V7.65356C3.936 7.19845 4.11679 6.76198 4.4386 6.44016C4.76042 6.11835 5.19689 5.93756 5.652 5.93756H13.7375C13.9628 5.93756 14.186 5.98194 14.3942 6.06818C14.6023 6.15442 14.7915 6.28082 14.9509 6.44016C15.1102 6.59951 15.2366 6.78868 15.3228 6.99687C15.4091 7.20507 15.4535 7.42821 15.4535 7.65356V8.48816C14.9198 8.28153 14.3459 8.19998 13.7758 8.24977C13.2057 8.29957 12.6546 8.47938 12.1649 8.7754C11.6752 9.07141 11.2598 9.47576 10.9507 9.95736C10.6416 10.439 10.447 10.985 10.3819 11.5536ZM15.7577 12.4428H14.5721V13.6362C14.5721 13.7603 14.5228 13.8793 14.435 13.9671C14.3472 14.0548 14.2282 14.1042 14.1041 14.1042C13.9799 14.1042 13.8609 14.0548 13.7731 13.9671C13.6854 13.8793 13.6361 13.7603 13.6361 13.6362V12.4506H12.452C12.3279 12.4506 12.2089 12.4012 12.1211 12.3135C12.0333 12.2257 11.984 12.1067 11.984 11.9826C11.984 11.8584 12.0333 11.7394 12.1211 11.6516C12.2089 11.5639 12.3279 11.5146 12.452 11.5146H13.6376V10.3212C13.6376 10.197 13.6869 10.078 13.7747 9.99023C13.8625 9.90246 13.9815 9.85316 14.1056 9.85316C14.2297 9.85316 14.3488 9.90246 14.4366 9.99023C14.5243 10.078 14.5736 10.197 14.5736 10.3212V11.5083H15.7592C15.8833 11.5083 16.0024 11.5576 16.0902 11.6454C16.1779 11.7332 16.2272 11.8522 16.2272 11.9763C16.2272 12.1004 16.1779 12.2195 16.0902 12.3072C16.0024 12.395 15.8833 12.4443 15.7592 12.4443L15.7577 12.4428Z" fill="#424242"/>
</svg>
