<svg id="SvgjsSvg1006" width="288" height="288" xmlns="http://www.w3.org/2000/svg" version="1.1" xmlns:xlink="http://www.w3.org/1999/xlink" xmlns:svgjs="http://svgjs.com/svgjs"><defs id="SvgjsDefs1007"></defs><g id="SvgjsG1008" transform="matrix(1,0,0,1,0,0)"><svg xmlns="http://www.w3.org/2000/svg" width="288" height="288" version="1.0" viewBox="0 0 50 50"><g transform="matrix(.1 0 0 -.1 0 50)" fill="#ffffff" class="color000 svgShape"><path d="M120 445 c-7 -8 -23 -15 -36 -15 -18 0 -24 -6 -24 -22 0 -12 -7 -29-15 -38 -14 -15 -14 -18 0 -30 8 -7 15 -23 15 -36 0 -19 5 -24 24 -24 13 0 29
-7 37 -16 12 -14 14 -14 26 2 17 24 17 39 -1 25 -10 -8 -16 -9 -21 -1 -3 5
-15 10 -26 10 -12 0 -19 7 -19 18 0 10 -5 23 -11 29 -8 8 -8 13 0 17 6 4 11
16 11 27 0 12 7 19 18 19 10 0 23 5 29 11 8 8 13 8 17 0 4 -6 16 -11 26 -11
11 0 20 -8 22 -20 3 -18 18 -30 18 -15 0 3 0 16 0 30 0 19 -5 25 -22 25 -12 0
-29 7 -38 15 -15 14 -18 14 -30 0z" fill="#ffffff" class="color000 svgShape"></path><path d="M102 388c-15-15-15-51 0-66 18-18 56-14 68 7 14 27 13 37-6 55-18 19-45 21-62 4zm56-31c4-20-25-34-40-19-15 15-1 44 19 40 10-2 19-11 21-21zM245 375c-14-13-25-32-25-41 0-9-11-25-25-36-29-23-32-58-7-81 15-14 40-17 121-17 95 0 104 2 126 25 14 13 25 36 25 50 0 29-32 65-58 65-10 0-29 14-44 30-34 38-78 40-113 5zm95-15c11-11 20-24 20-29 0-6 15-11 32-13 43-4 61-47 33-78-16-17-30-20-115-20-73 0-101 4-110 15-16 19-3 55 21 55 14 0 19 7 19 25 0 30 32 65 60 65 11 0 29-9 40-20zM85 163c-61-67-44-93 60-93 60 0 75 4 90 20 25 27 10 73-24 78-13 2-31 10-38 18-24 23-52 16-88-23zm81 2c4-8 17-15 30-15 29 0 41-24 24-45-9-10-32-15-76-15-66 0-90 14-61 35 10 7 17 16 17 22 0 30 56 45 66 18zM313 133c-23-8-13-23 11-17 13 3 27 1 31-6 5-8 10-8 20 0 8 7 23 9 35 5 11-4 20-2 20 4 0 6-3 12-7 12-26 4-100 5-110 2z" fill="#ffffff" class="color000 svgShape"></path></g></svg></g></svg>