<svg width="22" height="22" viewBox="0 0 64 64" fill="none" xmlns="http://www.w3.org/2000/svg">
<path d="M53.5 23V24.5H55C58.5189 24.5 61.5 28.0276 61.5 32C61.5 35.7366 58.7366 38.5 55 38.5H11C6.12043 38.5 2.5 34.8796 2.5 30C2.5 24.9298 6.29897 20.5 11 20.5H11.0049H11.0098H11.0147H11.0196H11.0246H11.0295H11.0344H11.0394H11.0443H11.0493H11.0543H11.0592H11.0642H11.0692H11.0742H11.0792H11.0842H11.0892H11.0942H11.0993H11.1043H11.1093H11.1144H11.1194H11.1245H11.1296H11.1346H11.1397H11.1448H11.1499H11.155H11.1601H11.1652H11.1703H11.1754H11.1805H11.1856H11.1908H11.1959H11.201H11.2062H11.2113H11.2165H11.2216H11.2268H11.232H11.2371H11.2423H11.2475H11.2527H11.2579H11.2631H11.2683H11.2735H11.2787H11.2839H11.2891H11.2943H11.2995H11.3047H11.31H11.3152H11.3204H11.3257H11.3309H11.3362H11.3414H11.3467H11.3519H11.3572H11.3624H11.3677H11.373H11.3782H11.3835H11.3888H11.394H11.3993H11.4046H11.4099H11.4152H11.4204H11.4257H11.431H11.4363H11.4416H11.4469H11.4522H11.4575H11.4628H11.4681H11.4734H11.4787H11.484H11.4893H11.4946H11.4999H11.5053H11.5106H11.5159H11.5212H11.5265H11.5318H11.5371H11.5425H11.5478H11.5531H11.5584H11.5637H11.5691H11.5744H11.5797H11.585H11.5903H11.5957H11.601H11.6063H11.6116H11.6169H11.6222H11.6276H11.6329H11.6382H11.6435H11.6488H11.6541H11.6595H11.6648H11.6701H11.6754H11.6807H11.686H11.6913H11.6966H11.7019H11.7072H11.7125H11.7178H11.7231H11.7284H11.7337H11.739H11.7443H11.7496H11.7549H11.7602H11.7654H11.7707H11.776H11.7813H11.7865H11.7918H11.7971H11.8023H11.8076H11.8129H11.8181H11.8234H11.8286H11.8339H11.8391H11.8444H11.8496H11.8548H11.8601H11.8653H11.8705H11.8757H11.8809H11.8862H11.8914H11.8966H11.9018H11.907H11.9122H11.9174H11.9225H11.9277H11.9329H11.9381H11.9432H11.9484H11.9536H11.9587H11.9639H11.969H11.9741H11.9793H11.9844H11.9895H11.9946H11.9998H12.0049H12.01H12.0151H12.0202H12.0252H12.0303H12.0354H12.0405H12.0455H12.0506H12.0556H12.0607H12.0657H12.0708H12.0758H12.0808H12.0858H12.0908H12.0958H12.1008H12.1058H12.1108H12.1158H12.1207H12.1257H12.1307H12.1356H12.1405H12.1455H12.1504H12.1553H12.1602H12.1651H12.17H12.1749H12.1798H12.1847H12.1895H12.1944H12.1993H12.2041H12.2089H12.2138H12.2186H12.2234H12.2282H12.233H12.2378H12.2425H12.2473H12.2521H12.2568H12.2616H12.2663H12.271H12.2757H12.2804H12.2851H12.2898H12.2945H12.2992H12.3038H12.3085H12.3131H12.3178H12.3224H12.327H12.3316H12.3362H12.3408H12.3453H12.3499H12.3545H12.359H12.3635H12.3681H12.3726H12.3771H12.3816H12.386H12.3905H12.395H12.3994H12.4038H12.4083H12.4127H12.4171H12.4215H12.4259H12.4302H12.4346H12.4389H12.4433H12.4476H12.4519H12.4562H12.4605H12.4648H12.4691H12.4733H12.4776H12.4818H12.486H12.4902H12.4944H12.4986H12.5028H12.5069H12.5111H12.5152H12.5193H12.5234H12.5275H12.5316H12.5357H12.5397H12.5438H12.5478H12.5518H12.5558H12.5598H12.5638H12.5677H12.5717H12.5756H12.5796H12.5835H12.5874H12.5912H12.5951H12.599H12.6028H12.6066H12.6104H12.6142H12.618H12.6218H12.6255H12.6293H12.633H12.6367H12.6404H12.6441H12.6477H12.6514H12.655H12.6586H12.6623H12.6658H12.6694H12.673H12.6765H12.6801H12.6836H12.6871H12.6905H12.694H12.6975H12.7009H12.7043H12.7077H12.7111H12.7145H12.7178H12.7212H12.7245H12.7278H12.7311H12.7344H12.7376H12.7409H12.7441H12.7473H12.7505H12.7536H12.7568H12.7599H12.7631H12.7662H12.7692H12.7723H12.7754H12.7784H12.7814H12.7844H12.7874H12.7904H12.7933H12.7962H12.7992H12.802H12.8049H12.8078H12.8106H12.8134H12.8162H12.819H12.8218H12.8245H12.8273H12.83H12.8327H12.8353H12.838H12.8406H12.8432H12.8458H12.8484H12.851H12.8535H12.856H12.8585H12.861H12.8635H12.8659H12.8683H12.8707H12.8731H12.8755H12.8778H12.8801H12.8824H12.8847H12.887H12.8892H12.8914H12.8936H12.8958H12.898H12.9001H12.9022H12.9043H12.9064H12.9085H12.9105H12.9125H12.9145H12.9165H12.9184H12.9204H12.9223H12.9242H12.926H12.9279H12.9297H12.9315H12.9333H12.935H12.9368H12.9385H12.9402H12.9419H12.9435H12.9451H12.9467H12.9483H12.9499H12.9514H12.9529H12.9544H12.9559H12.9573H12.9587H12.9601H12.9615H12.9629H12.9642H12.9655H12.9668H12.9681H12.9693H12.9705H12.9717H12.9729H12.974H12.9751H12.9762H12.9773H12.9784H12.9794H12.9804H12.9814H12.9823H12.9832H12.9841H12.985H12.9859H12.9867H12.9875H12.9883H12.9891H12.9898H12.9905H12.9912H12.9918H12.9925H12.9931H12.9937H12.9942H12.9948H12.9953H12.9957H12.9962H12.9966H12.997H12.9974H12.9978H12.9981H12.9984H12.9987H12.9989H12.9992H12.9994H12.9995H12.9997H12.9998H12.9999H12.9999H13H14.2443L14.4742 19.2771C16.1166 10.5383 24.4797 4.5 34 4.5C44.6827 4.5 53.5 12.5084 53.5 23Z" stroke="#212121" stroke-width="3" stroke-miterlimit="10"/>
<path d="M32 46L29 53H33L29 60" stroke="#212121" stroke-width="2" stroke-miterlimit="10"/>
<path d="M42 46L39 53H43L39 60" stroke="#212121" stroke-width="2" stroke-miterlimit="10"/>
<path d="M22 46L19 53H23L19 60" stroke="#212121" stroke-width="2" stroke-miterlimit="10"/>
</svg>
