<svg width="48" height="48" viewBox="0 0 48 48" fill="none" xmlns="http://www.w3.org/2000/svg">
<path d="M43.7187 14.313L43.4282 14.3479L43.7187 14.3072C43.6822 14.0177 43.5516 13.7482 43.3468 13.5402L31.2541 1.43002C31.1873 1.36207 31.1133 1.30166 31.0333 1.24987L30.9752 1.21501C30.9131 1.17862 30.8491 1.14564 30.7834 1.11622L30.6788 1.08135C30.6238 1.06047 30.5675 1.043 30.5103 1.02906C30.4165 1.01048 30.3212 1.00076 30.2256 1H10.8168C10.4319 1.00153 10.0633 1.15508 9.79121 1.42719C9.51909 1.69931 9.36554 2.06793 9.36401 2.45275V18.0553C9.36401 18.4406 9.51707 18.8101 9.78952 19.0826C10.062 19.355 10.4315 19.5081 10.8168 19.5081C11.2021 19.5081 11.5716 19.355 11.844 19.0826C12.1165 18.8101 12.2695 18.4406 12.2695 18.0553V3.90551H28.7728V14.4467C28.7728 14.831 28.9251 15.1996 29.1962 15.4719C29.4674 15.7442 29.8355 15.8979 30.2197 15.8994L40.8307 15.9576V44.0945H12.2695V41.8398C12.2695 41.4545 12.1165 41.085 11.844 40.8126C11.5716 40.5401 11.2021 40.3871 10.8168 40.3871C10.4315 40.3871 10.062 40.5401 9.78952 40.8126C9.51707 41.085 9.36401 41.4545 9.36401 41.8398V45.5472C9.36554 45.9321 9.51909 46.3007 9.79121 46.5728C10.0633 46.8449 10.4319 46.9985 10.8168 47H42.2834C42.6682 46.9985 43.0369 46.8449 43.309 46.5728C43.5811 46.3007 43.7346 45.9321 43.7362 45.5472V14.5164C43.7361 14.4483 43.7303 14.3802 43.7187 14.313V14.313ZM31.6783 13.0056V5.98585L38.7561 13.0404L31.6783 13.0056Z" fill="#AEB6DC"/>
<path fill-rule="evenodd" clip-rule="evenodd" d="M6.45275 21.2515H35.7926C36.1774 21.253 36.546 21.4065 36.8181 21.6787C37.0902 21.9508 37.2438 22.3194 37.2453 22.7042V37.1911C37.2453 37.5764 37.0923 37.9459 36.8198 38.2183C36.5474 38.4908 36.1779 38.6438 35.7926 38.6438H6.45275C6.06746 38.6438 5.69795 38.4908 5.4255 38.2183C5.15306 37.9459 5 37.5764 5 37.1911V22.7042C5.00153 22.3194 5.15508 21.9508 5.42719 21.6787C5.69931 21.4065 6.06793 21.253 6.45275 21.2515Z" fill="#01177A"/>
<path d="M11.6653 32.1783V33.8786H13.3987V32.1783H11.6653Z" fill="white"/>
<path d="M16.1294 30.8755L14.0757 33.8786H15.8312L17.0237 32.0789L18.2161 33.8786H20.0047L17.8959 30.8423L19.7729 28.1704H18.0394L17.0458 29.661L16.041 28.1704H14.2524L16.1294 30.8755Z" fill="white"/>
<path d="M24.4444 30.4118H21.8939C21.9013 30.3013 21.9234 30.1762 21.9602 30.0364C22.0043 29.8965 22.0743 29.764 22.17 29.6389C22.273 29.5138 22.4055 29.4107 22.5674 29.3297C22.7367 29.2414 22.9465 29.1972 23.1968 29.1972C23.5795 29.1972 23.8629 29.3003 24.0469 29.5064C24.2383 29.7125 24.3708 30.0143 24.4444 30.4118ZM21.8939 31.4054H26.0122C26.0416 30.9638 26.0048 30.5406 25.9018 30.1357C25.7987 29.7309 25.6294 29.3702 25.3939 29.0537C25.1657 28.7372 24.8713 28.4869 24.5106 28.3029C24.15 28.1116 23.7267 28.0159 23.2409 28.0159C22.8066 28.0159 22.4092 28.0932 22.0485 28.2477C21.6952 28.4023 21.3897 28.6158 21.1321 28.8881C20.8745 29.1531 20.6757 29.4696 20.5359 29.8376C20.396 30.2057 20.3261 30.6031 20.3261 31.03C20.3261 31.4717 20.3924 31.8765 20.5249 32.2445C20.6647 32.6126 20.8598 32.9291 21.11 33.1941C21.3603 33.459 21.6657 33.6651 22.0264 33.8124C22.3871 33.9522 22.7919 34.0221 23.2409 34.0221C23.8887 34.0221 24.4407 33.8749 24.8971 33.5805C25.3534 33.2861 25.692 32.7966 25.9128 32.1121H24.5327C24.4812 32.2887 24.3413 32.458 24.1132 32.6199C23.885 32.7745 23.6126 32.8518 23.2961 32.8518C22.8545 32.8518 22.5159 32.7377 22.2804 32.5095C22.0448 32.2813 21.916 31.9133 21.8939 31.4054Z" fill="white"/>
<path d="M26.942 28.1704V33.8786H28.5099V31.3061C28.5099 31.0484 28.5356 30.8092 28.5871 30.5884C28.6387 30.3676 28.7233 30.1762 28.8411 30.0143C28.9662 29.845 29.1282 29.7125 29.3269 29.6168C29.5256 29.5211 29.7685 29.4733 30.0556 29.4733C30.1513 29.4733 30.2506 29.4806 30.3537 29.4954C30.4567 29.5027 30.5451 29.5138 30.6187 29.5285V28.0711C30.4935 28.0343 30.3795 28.0159 30.2764 28.0159C30.0777 28.0159 29.8863 28.0453 29.7023 28.1042C29.5183 28.1631 29.3453 28.2477 29.1834 28.3581C29.0214 28.4612 28.8779 28.59 28.7528 28.7446C28.6276 28.8918 28.5283 29.0537 28.4547 29.2304H28.4326V28.1704H26.942Z" fill="white"/>
</svg>
