<svg width="12" height="12" viewBox="0 0 12 12" fill="none" xmlns="http://www.w3.org/2000/svg">
<g clip-path="url(#clip0_156_879)">
<path d="M5 1.5V2.5H2.5V9.5H9.5V7H10.5V10C10.5 10.1326 10.4473 10.2598 10.3536 10.3536C10.2598 10.4473 10.1326 10.5 10 10.5H2C1.86739 10.5 1.74021 10.4473 1.64645 10.3536C1.55268 10.2598 1.5 10.1326 1.5 10V2C1.5 1.86739 1.55268 1.74021 1.64645 1.64645C1.74021 1.55268 1.86739 1.5 2 1.5H5ZM8.793 2.5H6.5V1.5H10.5V5.5H9.5V3.207L6 6.707L5.293 6L8.793 2.5Z" fill="#181D24"/>
</g>
<defs>
<clipPath id="clip0_156_879">
<rect width="12" height="12" fill="white"/>
</clipPath>
</defs>
</svg>
