<svg width="89" height="32" viewBox="0 0 89 32" fill="none" xmlns="http://www.w3.org/2000/svg">
<path fill-rule="evenodd" clip-rule="evenodd" d="M88.3015 28.2329C88.3015 28.3107 87.7143 28.8995 86.5394 30L74.3879 17.9073L62.2364 30C62.1588 30 61.5717 29.4112 60.4737 28.2329L72.5327 16.0469L60.4737 3.86082C60.4737 3.78304 61.0615 3.19419 62.2364 2.09312L74.3879 14.1864L86.5394 2.09312C86.6164 2.09312 87.2041 2.68255 88.3015 3.86082L76.2431 16.0469L88.3015 28.2329ZM14.0992 30C8.8272 30 4.68421 27.4885 1.66961 22.4654C0.556154 20.295 0 18.0928 0 15.8607C0 10.5738 2.50441 6.41845 7.51324 3.39527C9.67752 2.27923 11.8728 1.72092 14.0992 1.72092C19.3711 1.72092 23.5141 4.23245 26.5287 9.25609C27.6422 11.4265 28.1989 13.6281 28.1989 15.8607C28.1989 21.1477 25.6939 25.3025 20.6851 28.3256C18.5202 29.4417 16.3255 30 14.0992 30ZM25.5084 16.5118V15.2091C25.5084 11.6593 23.6532 8.55835 19.9428 5.90681C17.9486 4.91521 16.2169 4.41855 14.7484 4.41855H13.45C9.90965 4.41855 6.81747 6.27901 4.17402 9.99993C3.18409 11.9998 2.68999 13.7364 2.68999 15.2091V16.5118C2.68999 20.0622 4.54518 23.1631 8.25555 25.8141C10.2498 26.8063 11.9809 27.3024 13.45 27.3024H14.7484C18.2887 27.3024 21.3809 25.4419 24.0243 21.721C25.0137 19.7211 25.5084 17.9851 25.5084 16.5118ZM33.899 6.698V15.9069C33.899 16.0314 33.8369 16.0931 33.7134 16.0931C33.5899 16.0931 31.4871 16.0931 31.4871 16.0931C31.4871 16.0931 31.3015 16.0314 31.3015 15.9069V0H31.3946L54.306 25.3026V16.0931C54.3215 15.9692 54.3836 15.9069 54.4916 15.9069H56.7179C56.8415 15.9225 56.9035 15.9847 56.9035 16.0931V32H56.8104L33.899 6.698Z" fill="#333333"/>
</svg>
