<svg width="75" height="75" viewBox="0 0 75 75" fill="none" xmlns="http://www.w3.org/2000/svg">
<g filter="url(#filter0_d_36_11353)">
<circle cx="37.5" cy="37.5" r="27.5" fill="white"/>
<circle cx="37.5" cy="37.5" r="27" stroke="url(#paint0_linear_36_11353)"/>
</g>
<g clip-path="url(#clip0_36_11353)">
<path d="M21.5384 33.6174C22.1139 33.0419 22.7971 32.5853 23.5491 32.2739C24.3011 31.9624 25.107 31.8021 25.9209 31.8021C26.7349 31.8021 27.5408 31.9624 28.2928 32.2739C29.0447 32.5853 29.728 33.0419 30.3035 33.6174L34.6861 38L30.3035 42.3826C29.1412 43.5449 27.5647 44.1979 25.9209 44.1979C24.2771 44.1979 22.7007 43.5449 21.5384 42.3826C20.376 41.2203 19.723 39.6438 19.723 38C19.723 36.3562 20.376 34.7797 21.5384 33.6174ZM30.5613 38L28.2411 35.6798C27.7822 35.2209 27.1976 34.9084 26.5611 34.7818C25.9246 34.6552 25.2648 34.7202 24.6653 34.9685C24.0657 35.2169 23.5532 35.6374 23.1927 36.177C22.8321 36.7166 22.6397 37.351 22.6397 38C22.6397 38.649 22.8321 39.2834 23.1927 39.823C23.5532 40.3626 24.0657 40.7831 24.6653 41.0315C25.2648 41.2798 25.9246 41.3448 26.5611 41.2182C27.1976 41.0916 27.7822 40.7791 28.2411 40.3202L30.5613 38ZM32.3659 44.445L36.7485 40.0624L41.1311 44.445C41.9979 45.3118 42.5882 46.4161 42.8273 47.6184C43.0665 48.8207 42.9437 50.0669 42.4746 51.1994C42.0055 52.3319 41.2111 53.2999 40.1919 53.9809C39.1726 54.662 37.9743 55.0255 36.7485 55.0255C35.5227 55.0255 34.3244 54.662 33.3051 53.9809C32.2859 53.2999 31.4915 52.3319 31.0224 51.1994C30.5533 50.0669 30.4305 48.8207 30.6697 47.6184C30.9088 46.4161 31.4991 45.3118 32.3659 44.445ZM34.4283 46.5074C33.9694 46.9663 33.6569 47.5509 33.5303 48.1874C33.4037 48.8239 33.4687 49.4837 33.717 50.0832C33.9654 50.6828 34.3859 51.1953 34.9255 51.5558C35.4651 51.9164 36.0995 52.1088 36.7485 52.1088C37.3975 52.1088 38.0319 51.9164 38.5715 51.5558C39.1111 51.1953 39.5316 50.6828 39.78 50.0832C40.0283 49.4837 40.0933 48.8239 39.9667 48.1874C39.8401 47.5509 39.5276 46.9663 39.0687 46.5074L36.7485 44.1872L34.4283 46.5074ZM32.3659 22.7898C33.5283 21.6275 35.1047 20.9745 36.7485 20.9745C38.3923 20.9745 39.9688 21.6275 41.1311 22.7898C42.2934 23.9522 42.9464 25.5286 42.9464 27.1724C42.9464 28.8162 42.2934 30.3927 41.1311 31.555L36.7485 35.9376L32.3659 31.555C31.2036 30.3927 30.5506 28.8162 30.5506 27.1724C30.5506 25.5286 31.2036 23.9522 32.3659 22.7898ZM39.0687 29.4926C39.5276 29.0337 39.8401 28.4491 39.9667 27.8126C40.0933 27.1761 40.0283 26.5163 39.78 25.9167C39.5316 25.3172 39.1111 24.8047 38.5715 24.4442C38.0319 24.0836 37.3975 23.8912 36.7485 23.8912C36.0995 23.8912 35.4651 24.0836 34.9255 24.4442C34.3859 24.8047 33.9654 25.3172 33.717 25.9167C33.4687 26.5163 33.4037 27.1761 33.5303 27.8126C33.6569 28.4491 33.9694 29.0337 34.4283 29.4926L36.7485 31.8128L39.0687 29.4926ZM38.8109 38L43.1935 33.6174C44.0603 32.7506 45.1646 32.1603 46.3669 31.9212C47.5692 31.682 48.8154 31.8048 49.9479 32.2739C51.0804 32.743 52.0484 33.5374 52.7295 34.5566C53.4105 35.5759 53.774 36.7742 53.774 38C53.774 39.2258 53.4105 40.4241 52.7295 41.4434C52.0484 42.4626 51.0804 43.257 49.9479 43.7261C48.8154 44.1952 47.5692 44.318 46.3669 44.0788C45.1646 43.8397 44.0603 43.2494 43.1935 42.3826L38.8109 38ZM42.9357 38L45.2559 40.3202C45.7148 40.7791 46.2994 41.0916 46.9359 41.2182C47.5724 41.3448 48.2322 41.2798 48.8318 41.0315C49.4313 40.7831 49.9438 40.3626 50.3043 39.823C50.6649 39.2834 50.8573 38.649 50.8573 38C50.8573 37.351 50.6649 36.7166 50.3043 36.177C49.9438 35.6374 49.4313 35.2169 48.8318 34.9685C48.2322 34.7202 47.5724 34.6552 46.9359 34.7818C46.2994 34.9084 45.7148 35.2209 45.2559 35.6798L42.9357 38Z" fill="#181D24"/>
</g>
<defs>
<filter id="filter0_d_36_11353" x="0" y="0" width="75" height="75" filterUnits="userSpaceOnUse" color-interpolation-filters="sRGB">
<feFlood flood-opacity="0" result="BackgroundImageFix"/>
<feColorMatrix in="SourceAlpha" type="matrix" values="0 0 0 0 0 0 0 0 0 0 0 0 0 0 0 0 0 0 127 0" result="hardAlpha"/>
<feOffset/>
<feGaussianBlur stdDeviation="5"/>
<feComposite in2="hardAlpha" operator="out"/>
<feColorMatrix type="matrix" values="0 0 0 0 0.980392 0 0 0 0 0.694118 0 0 0 0 0.266667 0 0 0 1 0"/>
<feBlend mode="normal" in2="BackgroundImageFix" result="effect1_dropShadow_36_11353"/>
<feBlend mode="normal" in="SourceGraphic" in2="effect1_dropShadow_36_11353" result="shape"/>
</filter>
<linearGradient id="paint0_linear_36_11353" x1="37.5" y1="10" x2="37.5" y2="65" gradientUnits="userSpaceOnUse">
<stop stop-color="#3DA564"/>
<stop offset="1" stop-color="#2DE972"/>
</linearGradient>
<clipPath id="clip0_36_11353">
<rect width="35" height="35" fill="white" transform="translate(12 38) rotate(-45)"/>
</clipPath>
</defs>
</svg>
